<svg version="1.1" xmlns="http://www.w3.org/2000/svg" xmlns:xlink="http://www.w3.org/1999/xlink" width="241.0027" height="260.22741" viewBox="0,0,241.0027,260.22741"><defs><linearGradient x1="351.39574" y1="174.73274" x2="356.81083" y2="279.94061" gradientUnits="userSpaceOnUse" id="color-1"><stop offset="0" stop-color="#4d4d4d"/><stop offset="1" stop-color="#000000"/></linearGradient><linearGradient x1="111.33747" y1="183.85028" x2="129.50067" y2="287.61628" gradientUnits="userSpaceOnUse" id="color-2"><stop offset="0" stop-color="#4d4d4d"/><stop offset="1" stop-color="#000000"/></linearGradient><linearGradient x1="311.5146" y1="159.12511" x2="324.61988" y2="263.65873" gradientUnits="userSpaceOnUse" id="color-3"><stop offset="0" stop-color="#4d4d4d"/><stop offset="1" stop-color="#000000"/></linearGradient><linearGradient x1="150.46242" y1="149.57797" x2="150.46206" y2="254.92282" gradientUnits="userSpaceOnUse" id="color-4"><stop offset="0" stop-color="#4d4d4d"/><stop offset="1" stop-color="#000000"/></linearGradient><radialGradient cx="329.28048" cy="105.94798" r="45.07582" fx="329.28048" fy="105.94798" gradientUnits="userSpaceOnUse" id="color-5"><stop offset="0" stop-color="#ffffff"/><stop offset="1" stop-color="#b3b3b3"/></radialGradient><radialGradient cx="198.42523" cy="74.05974" r="45.07583" fx="198.42523" fy="74.05974" gradientUnits="userSpaceOnUse" id="color-6"><stop offset="0" stop-color="#ffffff"/><stop offset="1" stop-color="#b3b3b3"/></radialGradient><radialGradient cx="240.71193" cy="182.60212" r="32.98501" fx="240.71193" fy="182.60212" gradientUnits="userSpaceOnUse" id="color-7"><stop offset="0" stop-color="#434343"/><stop offset="0.61" stop-color="#222222"/><stop offset="1" stop-color="#000000"/></radialGradient><radialGradient cx="240.71193" cy="235.99007" r="75.10565" fx="240.71193" fy="235.99007" gradientUnits="userSpaceOnUse" id="color-8"><stop offset="0" stop-color="#434343"/><stop offset="0.61" stop-color="#222222"/><stop offset="1" stop-color="#000000"/></radialGradient><linearGradient x1="213.40168" y1="54.81653" x2="195.19233" y2="129.53544" gradientUnits="userSpaceOnUse" id="color-9"><stop offset="0" stop-color="#ffffff"/><stop offset="0.49" stop-color="#efefef"/><stop offset="0.9" stop-color="#cccccc"/><stop offset="1" stop-color="#b9b9b9"/><stop offset="1" stop-color="#737373"/></linearGradient><radialGradient cx="234.28745" cy="89.5388" r="21.60376" fx="234.28745" fy="89.5388" gradientUnits="userSpaceOnUse" id="color-10"><stop offset="0" stop-color="#ffffff"/><stop offset="0.56" stop-color="#ffffff"/><stop offset="1" stop-color="#b3b3b3"/></radialGradient><radialGradient cx="180.08837" cy="78.42246" r="21.88616" fx="180.08837" fy="78.42246" gradientUnits="userSpaceOnUse" id="color-11"><stop offset="0" stop-color="#4d4d4d"/><stop offset="1" stop-color="#000000"/></radialGradient><radialGradient cx="259.13301" cy="133.87166" r="46.32287" fx="259.13301" fy="133.87166" gradientUnits="userSpaceOnUse" id="color-12"><stop offset="0" stop-color="#bfbfbf"/><stop offset="1" stop-color="#737373"/></radialGradient><radialGradient cx="227.23794" cy="113.10197" r="21.88616" fx="227.23794" fy="113.10197" gradientUnits="userSpaceOnUse" id="color-13"><stop offset="0" stop-color="#4d4d4d"/><stop offset="1" stop-color="#000000"/></radialGradient><radialGradient cx="223.48601" cy="110.36733" r="17.50369" fx="223.48601" fy="110.36733" gradientUnits="userSpaceOnUse" id="color-14"><stop offset="0" stop-color="#4d4d4d"/><stop offset="1" stop-color="#000000"/></radialGradient><radialGradient cx="235.6289" cy="93.31565" r="4.33856" fx="235.6289" fy="93.31565" gradientUnits="userSpaceOnUse" id="color-15"><stop offset="0" stop-color="#4d4d4d"/><stop offset="1" stop-color="#000000"/></radialGradient></defs><g transform="translate(-110.92115,-47.37414)"><g data-paper-data="{&quot;isPaintingLayer&quot;:true}" fill-rule="evenodd" stroke-miterlimit="10" stroke-dasharray="" stroke-dashoffset="0" style="mix-blend-mode: normal"><path d="M255.2998,275.95423c1.35217,-3.51974 1.92805,-5.37004 12.02676,-12.119c10.09867,-6.74896 39.31069,-16.39833 48.56541,-28.37482c9.25473,-11.97648 1.06069,-33.40512 6.96293,-43.48414c5.90224,-10.07903 26.73701,-18.6267 28.45046,-16.98997c1.71345,1.63675 -15.68187,15.5654 -18.16978,26.81044c-2.48791,11.24504 9.44327,28.93621 3.24219,40.65981c-6.20108,11.7236 -27.58786,22.59897 -40.4486,29.68185c-12.86073,7.08285 -29.94417,12.17936 -36.71574,12.81532c-6.77157,0.63597 -5.26582,-5.47974 -3.91363,-8.99948z" fill="url(#color-1)" stroke="none" stroke-width="1" stroke-linecap="square" stroke-linejoin="miter"/><path d="M255.2998,275.95423c1.35217,-3.51974 1.92805,-5.37004 12.02676,-12.119c10.09867,-6.74896 39.31069,-16.39833 48.56541,-28.37482c9.25473,-11.97648 1.06069,-33.40512 6.96293,-43.48414c5.90224,-10.07903 26.73701,-18.6267 28.45046,-16.98997c1.71345,1.63675 -15.68187,15.5654 -18.16978,26.81044c-2.48791,11.24504 9.44327,28.93621 3.24219,40.65981c-6.20108,11.7236 -27.58786,22.59897 -40.4486,29.68185c-12.86073,7.08285 -29.94417,12.17936 -36.71574,12.81532c-6.77157,0.63597 -5.26582,-5.47974 -3.91363,-8.99948z" fill="none" stroke="#000000" stroke-width="1" stroke-linecap="butt" stroke-linejoin="round"/><path d="M227.56811,261.112c2.10242,3.12985 4.93294,8.7561 -1.80989,9.64496c-6.74281,0.88884 -24.53179,-0.27289 -38.64694,-4.31189c-14.11515,-4.03898 -37.3868,-9.87526 -46.04397,-19.92205c-8.65718,-10.04678 -0.96822,-29.95106 -5.89907,-40.35867c-4.93087,-10.40762 -24.99177,-20.1097 -23.68617,-22.08702c1.30561,-1.97734 23.52046,1.71286 31.51988,10.22305c7.99942,8.51019 4.78628,31.22516 16.47659,40.83807c11.69031,9.6129 42.317,12.51042 53.66525,16.83935c11.34827,4.32895 12.3219,6.00433 14.4243,9.13419z" fill="url(#color-2)" stroke="none" stroke-width="1" stroke-linecap="square" stroke-linejoin="miter"/><path d="M227.56811,261.112c2.10242,3.12985 4.93294,8.7561 -1.80989,9.64496c-6.74281,0.88884 -24.53179,-0.27289 -38.64694,-4.31189c-14.11515,-4.03898 -37.3868,-9.87526 -46.04397,-19.92205c-8.65718,-10.04678 -0.96822,-29.95106 -5.89907,-40.35867c-4.93087,-10.40762 -24.99177,-20.1097 -23.68617,-22.08702c1.30561,-1.97734 23.52046,1.71286 31.51988,10.22305c7.99942,8.51019 4.78628,31.22516 16.47659,40.83807c11.69031,9.6129 42.317,12.51042 53.66525,16.83935c11.34827,4.32895 12.3219,6.00433 14.4243,9.13419z" fill="none" stroke="#000000" stroke-width="1" stroke-linecap="butt" stroke-linejoin="round"/><path d="M223.08483,267.11665c1.09087,-3.60949 1.52972,-5.49707 11.10753,-12.96775c9.57783,-7.4707 38.00608,-19.2338 46.35933,-31.8564c8.3533,-12.62261 -1.38837,-33.39464 3.7602,-43.87929c5.14853,-10.48463 25.30235,-20.53552 27.13115,-19.02857c1.8288,1.50695 -14.50056,16.6727 -16.15847,28.07025c-1.65786,11.39756 11.53737,28.1683 6.21121,40.31507c-5.3262,12.14676 -25.8601,24.55961 -38.16822,32.56559c-12.30812,8.00598 -28.97326,14.34006 -35.68037,15.47024c-6.70711,1.13018 -5.65322,-5.07964 -4.56235,-8.68913z" fill="url(#color-3)" stroke="none" stroke-width="1" stroke-linecap="square" stroke-linejoin="miter"/><path d="M223.08483,267.11665c1.09087,-3.60949 1.52972,-5.49707 11.10753,-12.96775c9.57783,-7.4707 38.00608,-19.2338 46.35933,-31.8564c8.3533,-12.62261 -1.38837,-33.39464 3.7602,-43.87929c5.14853,-10.48463 25.30235,-20.53552 27.13115,-19.02857c1.8288,1.50695 -14.50056,16.6727 -16.15847,28.07025c-1.65786,11.39756 11.53737,28.1683 6.21121,40.31507c-5.3262,12.14676 -25.8601,24.55961 -38.16822,32.56559c-12.30812,8.00598 -28.97326,14.34006 -35.68037,15.47024c-6.70711,1.13018 -5.65322,-5.07964 -4.56235,-8.68913z" fill="none" stroke="#000000" stroke-width="1" stroke-linecap="butt" stroke-linejoin="round"/><path d="M251.63181,245.72437c1.53126,3.44553 3.34932,9.47563 -3.44584,9.18855c-6.79514,-0.28708 -24.1176,-4.49867 -37.3251,-10.91101c-13.20748,-6.41234 -35.12453,-16.17386 -41.91981,-27.56301c-6.79531,-11.38913 4.21056,-29.66974 1.148,-40.77181c-3.06256,-11.10206 -21.15036,-24.11791 -19.52335,-25.84053c1.62703,-1.72262 22.87314,5.74274 29.28547,15.50485c6.41234,9.76212 -0.66931,31.58312 9.18855,43.06784c9.85787,11.48472 39.52657,19.61967 49.95858,25.84053c10.43201,6.22086 11.10221,8.03905 12.6335,11.48458z" fill="url(#color-4)" stroke="none" stroke-width="1" stroke-linecap="square" stroke-linejoin="miter"/><path d="M251.63181,245.72437c1.53126,3.44553 3.34932,9.47563 -3.44584,9.18855c-6.79514,-0.28708 -24.1176,-4.49867 -37.3251,-10.91101c-13.20748,-6.41234 -35.12453,-16.17386 -41.91981,-27.56301c-6.79531,-11.38913 4.21056,-29.66974 1.148,-40.77181c-3.06256,-11.10206 -21.15036,-24.11791 -19.52335,-25.84053c1.62703,-1.72262 22.87314,5.74274 29.28547,15.50485c6.41234,9.76212 -0.66931,31.58312 9.18855,43.06784c9.85787,11.48472 39.52657,19.61967 49.95858,25.84053c10.43201,6.22086 11.10221,8.03905 12.6335,11.48458z" fill="none" stroke="#000000" stroke-width="1" stroke-linecap="butt" stroke-linejoin="round"/><path d="M339.22597,146.37367v0c-9.26885,2.27844 -21.23554,-13.97371 -26.72828,-36.30022v0c-2.63771,-10.72155 -3.3992,-21.43862 -2.11696,-29.79359c1.28228,-8.35495 4.50323,-13.66341 8.95426,-14.75757v0c9.26889,-2.27844 21.23553,13.97373 26.72826,36.30022v0c5.49274,22.32648 2.43162,42.27272 -6.83729,44.55116z" fill="url(#color-5)" stroke="none" stroke-width="1" stroke-linecap="square" stroke-linejoin="miter"/><path d="M339.22597,146.37367v0c-9.26885,2.27844 -21.23554,-13.97371 -26.72828,-36.30022v0c-2.63771,-10.72155 -3.3992,-21.43862 -2.11696,-29.79359c1.28228,-8.35495 4.50323,-13.66341 8.95426,-14.75757v0c9.26889,-2.27844 21.23553,13.97373 26.72826,36.30022v0c5.49274,22.32648 2.43162,42.27272 -6.83729,44.55116z" fill="none" stroke="#000000" stroke-width="2" stroke-linecap="butt" stroke-linejoin="round"/><path d="M319.72104,95.83862l28.45918,35.7775" fill-opacity="0" fill="#000000" stroke="none" stroke-width="1" stroke-linecap="square" stroke-linejoin="miter"/><path d="M319.72104,95.83862l28.45918,35.7775" fill="none" stroke="#000000" stroke-width="2" stroke-linecap="butt" stroke-linejoin="round"/><path d="M189.75227,59.11112v0c19.88963,-11.53453 39.89638,-14.19238 44.6863,-5.93646v0c2.30021,3.96461 0.71195,9.96724 -4.41538,16.68739c-5.12734,6.72012 -13.3737,13.60728 -22.92506,19.14634v0c-19.88963,11.53453 -39.89636,14.19237 -44.68629,5.93646v0c-4.78994,-8.2559 7.4508,-24.29921 27.34041,-35.83373z" fill="url(#color-6)" stroke="none" stroke-width="1" stroke-linecap="square" stroke-linejoin="miter"/><path d="M189.75227,59.11112v0c19.88963,-11.53453 39.89638,-14.19238 44.6863,-5.93646v0c2.30021,3.96461 0.71195,9.96724 -4.41538,16.68739c-5.12734,6.72012 -13.3737,13.60728 -22.92506,19.14634v0c-19.88963,11.53453 -39.89636,14.19237 -44.68629,5.93646v0c-4.78994,-8.2559 7.4508,-24.29921 27.34041,-35.83373z" fill="none" stroke="#000000" stroke-width="2" stroke-linecap="butt" stroke-linejoin="round"/><path d="M166.82724,78.25747l40.77877,-0.01168" fill-opacity="0" fill="#000000" stroke="none" stroke-width="1" stroke-linecap="square" stroke-linejoin="miter"/><path d="M166.82724,78.25747l40.77877,-0.01168" fill="none" stroke="#000000" stroke-width="2" stroke-linecap="butt" stroke-linejoin="round"/><path d="M261.74053,157.18932l-21.0286,50.82561l-21.02856,-50.82561z" fill="url(#color-7)" stroke="none" stroke-width="1" stroke-linecap="square" stroke-linejoin="miter"/><path d="M261.74053,157.18932l-21.0286,50.82561l-21.02856,-50.82561z" fill="none" stroke="#000000" stroke-width="1" stroke-linecap="butt" stroke-linejoin="round"/><path d="M264.87841,307.10155h-48.33294l9.66658,-142.22294h28.99975z" fill="url(#color-8)" stroke="none" stroke-width="1" stroke-linecap="square" stroke-linejoin="miter"/><path d="M264.87841,307.10155h-48.33294l9.66658,-142.22294h28.99975z" fill="none" stroke="#000000" stroke-width="1" stroke-linecap="butt" stroke-linejoin="round"/><path d="M213.40159,54.81694l112.67397,27.45875l-18.20898,74.71858l-112.67396,-27.45874z" fill="url(#color-9)" stroke="none" stroke-width="1" stroke-linecap="square" stroke-linejoin="miter"/><path d="M213.40159,54.81694l112.67397,27.45875l-18.20898,74.71858l-112.67396,-27.45874z" fill="none" stroke="#000000" stroke-width="2" stroke-linecap="butt" stroke-linejoin="round"/><path d="M198.74507,114.50761l121.63216,-9.48038" fill-opacity="0" fill="#000000" stroke="none" stroke-width="1" stroke-linecap="square" stroke-linejoin="miter"/><path d="M198.74507,114.50761l121.63216,-9.48038" fill="none" stroke="#000000" stroke-width="1" stroke-linecap="butt" stroke-linejoin="round"/><path d="M213.74117,54.9784l112.16596,27.33496l-5.53571,22.71519l-112.16596,-27.33496z" fill="#000000" stroke="none" stroke-width="1" stroke-linecap="square" stroke-linejoin="miter"/><path d="M213.74117,54.9784l112.16596,27.33496l-5.53571,22.71519l-112.16596,-27.33496z" fill="none" stroke="#000000" stroke-width="1" stroke-linecap="butt" stroke-linejoin="round"/><path d="M204.01624,94.88357l115.01791,-8.43433l1.37457,18.7868l-115.01793,8.43434z" fill="#000000" stroke="none" stroke-width="1" stroke-linecap="square" stroke-linejoin="miter"/><path d="M204.01624,94.88357l115.01791,-8.43433l1.37457,18.7868l-115.01793,8.43434z" fill="none" stroke="#000000" stroke-width="1" stroke-linecap="butt" stroke-linejoin="round"/><path d="M213.38349,54.89123l57.50851,14.01487l-9.84352,40.39178l-57.5085,-14.01487z" fill="#000000" stroke="none" stroke-width="1" stroke-linecap="square" stroke-linejoin="miter"/><path d="M213.38349,54.89123l57.50851,14.01487l-9.84352,40.39178l-57.5085,-14.01487z" fill="none" stroke="#000000" stroke-width="1" stroke-linecap="butt" stroke-linejoin="round"/><path d="M199.13195,114.26416l5.43282,-22.60847l5.63071,19.43962z" fill="#000000" stroke="none" stroke-width="1" stroke-linecap="square" stroke-linejoin="miter"/><path d="M199.13195,114.26416l5.43282,-22.60847l5.63071,19.43962z" fill="none" stroke="#000000" stroke-width="1" stroke-linecap="butt" stroke-linejoin="round"/><path d="M199.59566,112.32945l6.85275,-0.53762l0.14829,1.87033l-6.85276,0.53762z" fill="#000000" stroke="none" stroke-width="1" stroke-linecap="square" stroke-linejoin="miter"/><path d="M199.59566,112.32945l6.85275,-0.53762l0.14829,1.87033l-6.85276,0.53762z" fill="none" stroke="#000000" stroke-width="1" stroke-linecap="butt" stroke-linejoin="round"/><path d="M247.06273,99.02092v0c-4.81215,6.47937 -14.43242,7.48609 -21.48749,2.24856v0c-4.25812,-3.16113 -8.51623,-6.32226 -12.77435,-9.48339c2.90437,-3.91064 5.80874,-7.82129 8.71314,-11.73193c4.81215,-6.47937 14.43243,-7.48608 21.4875,-2.24855v0c7.05509,5.23754 8.87335,14.73596 4.06121,21.21533z" fill="url(#color-10)" stroke="none" stroke-width="1" stroke-linecap="square" stroke-linejoin="miter"/><path d="M247.06273,99.02092v0c-4.81215,6.47937 -14.43242,7.48609 -21.48749,2.24856v0c-4.25812,-3.16113 -8.51623,-6.32226 -12.77435,-9.48339c2.90437,-3.91064 5.80874,-7.82129 8.71314,-11.73193c4.81215,-6.47937 14.43243,-7.48608 21.4875,-2.24855v0c7.05509,5.23754 8.87335,14.73596 4.06121,21.21533z" fill="none" stroke="#000000" stroke-width="1" stroke-linecap="butt" stroke-linejoin="round"/><path d="M215.92556,64.53359l18.7891,5.51638l-1.1979,4.13794l18.692,2.07956l-0.88703,4.44221l27.74518,7.10897l-30.57843,4.0687l1.35587,-5.15689l-19.26024,2.27271l1.09597,-6.49682l-20.27654,2.45742z" fill="#000000" stroke="none" stroke-width="1" stroke-linecap="square" stroke-linejoin="miter"/><path d="M215.92556,64.53359l18.7891,5.51638l-1.1979,4.13794l18.692,2.07956l-0.88703,4.44221l27.74518,7.10897l-30.57843,4.0687l1.35587,-5.15689l-19.26024,2.27271l1.09597,-6.49682l-20.27654,2.45742z" fill="none" stroke="#000000" stroke-width="1" stroke-linecap="butt" stroke-linejoin="round"/><path d="M189.49418,59.35542l-3.9731,11.47716l-1.4682,0.79156l-2.64569,10.26146l-1.6156,1.0537l-5.46936,16.5961l1.46355,-14.25207l1.8433,-1.05651l1.03306,-9.07528l2.38276,-1.64401l1.06272,-9.53215z" fill="url(#color-11)" stroke="none" stroke-width="1" stroke-linecap="square" stroke-linejoin="miter"/><path d="M235.26208,135.84533l1.09893,-13.25254" fill-opacity="0" fill="#000000" stroke="none" stroke-width="1" stroke-linecap="square" stroke-linejoin="miter"/><path d="M256.17805,125.94369l-2.1828,15.08621" fill-opacity="0" fill="#000000" stroke="none" stroke-width="1" stroke-linecap="square" stroke-linejoin="miter"/><path d="M275.71713,140.72704l1.5828,-12.39874" fill-opacity="0" fill="#000000" stroke="none" stroke-width="1" stroke-linecap="square" stroke-linejoin="miter"/><path d="M223.99144,128.68341l11.45722,-1.80985" fill-opacity="0" fill="#000000" stroke="none" stroke-width="1" stroke-linecap="square" stroke-linejoin="miter"/><path d="M235.4484,126.86711l18.54777,14.16338" fill-opacity="0" fill="#000000" stroke="none" stroke-width="1" stroke-linecap="square" stroke-linejoin="miter"/><path d="M265.1646,126.63863l-11.17293,14.389" fill-opacity="0" fill="#000000" stroke="none" stroke-width="1" stroke-linecap="square" stroke-linejoin="miter"/><path d="M274.01621,141.79892l-8.74358,-14.10254" fill-opacity="0" fill="#000000" stroke="none" stroke-width="1" stroke-linecap="square" stroke-linejoin="miter"/><path d="M282.84689,128.82981l5.35194,8.2347" fill-opacity="0" fill="#000000" stroke="none" stroke-width="1" stroke-linecap="square" stroke-linejoin="miter"/><path d="M219.27899,110.26843c27.17446,12.27567 56.74719,21.65744 86.02975,27.29247v0c-3.49276,11.00261 -25.58263,13.81235 -49.33909,6.27574c-23.75644,-7.53661 -40.18346,-22.56561 -36.69065,-33.56822v0z" data-paper-data="{&quot;index&quot;:null}" fill="url(#color-12)" stroke="none" stroke-width="1" stroke-linecap="square" stroke-linejoin="miter"/><path d="M219.27899,110.26843c27.17446,12.27567 56.74719,21.65744 86.02975,27.29247v0c-3.49276,11.00261 -25.58263,13.81235 -49.33909,6.27574c-23.75644,-7.53661 -40.18346,-22.56561 -36.69065,-33.56822v0z" data-paper-data="{&quot;index&quot;:null}" fill="none" stroke="#000000" stroke-width="2" stroke-linecap="butt" stroke-linejoin="round"/><path d="M284.65528,133.1583l-5.7494,14.88507" data-paper-data="{&quot;index&quot;:null}" fill="none" stroke="#000000" stroke-width="1" stroke-linecap="butt" stroke-linejoin="round"/><path d="M255.96459,143.8372l5.53873,-17.43231" data-paper-data="{&quot;index&quot;:null}" fill="none" stroke="#000000" stroke-width="1" stroke-linecap="butt" stroke-linejoin="round"/><path d="M232.66811,132.14157l4.78008,-14.21639" data-paper-data="{&quot;index&quot;:null}" fill="none" stroke="#000000" stroke-width="1" stroke-linecap="butt" stroke-linejoin="round"/><path d="M294.82414,146.20875l-11.42413,-7.95063" data-paper-data="{&quot;index&quot;:null}" fill="none" stroke="#000000" stroke-width="1" stroke-linecap="butt" stroke-linejoin="round"/><path d="M283.40366,138.25128l-27.44036,5.58608" data-paper-data="{&quot;index&quot;:null}" fill="none" stroke="#000000" stroke-width="1" stroke-linecap="butt" stroke-linejoin="round"/><path d="M251.43606,122.45199l4.53358,21.38465" data-paper-data="{&quot;index&quot;:null}" fill="none" stroke="#000000" stroke-width="1" stroke-linecap="butt" stroke-linejoin="round"/><path d="M250.76582,123.5376l-16.82207,10.6516" data-paper-data="{&quot;index&quot;:null}" fill="none" stroke="#000000" stroke-width="1" stroke-linecap="butt" stroke-linejoin="round"/><path d="M231.19617,115.56358l-10.08875,6.09067" data-paper-data="{&quot;index&quot;:null}" fill="none" stroke="#000000" stroke-width="1" stroke-linecap="butt" stroke-linejoin="round"/><path d="M230.04291,92.02702l-0.08873,12.14508l-1.13742,1.22003l0.77949,10.56832l-1.19312,1.51556l0.13295,17.47359l-3.17724,-13.97028l1.40793,-1.59113l-1.92738,-8.92822l1.73085,-2.32043l-2.04556,-9.37053z" fill="url(#color-13)" stroke="none" stroke-width="1" stroke-linecap="square" stroke-linejoin="miter"/><path d="M226.08497,100.33229l2.37806,-6.59332l-2.25335,8.99428l1.75164,-3.8765l-1.63276,5.15271l1.09895,0.45448l-2.05728,4.05313l-0.43636,3.01258l-0.80106,1.48978l-0.71619,5.31331l-0.43969,-2.22496l-1.08157,4.72537l-0.05888,-2.38492l-1.22895,4.50277l0.17875,-2.38812l-1.14639,3.58954l0.34649,-2.53724l-1.8915,5.27963l1.25235,-5.24542l-0.61231,-0.83478l1.38028,-3.71922l0.21894,-4.065l1.3491,-1.79399l0.65801,-5.32747l1.09091,-0.48249l1.4027,-6.58321l-0.16218,4.51496l1.96454,-6.94685z" fill="url(#color-14)" stroke="none" stroke-width="1" stroke-linecap="square" stroke-linejoin="miter"/><path d="M232.36822,92.52101v0c0.35954,-1.47531 2.11085,-2.31553 3.91167,-1.87667v0c1.80083,0.43887 2.96922,1.99062 2.60969,3.46593v0c-0.35954,1.47531 -2.11085,2.31554 -3.91168,1.87668v0c-1.80083,-0.43887 -2.96921,-1.99061 -2.60967,-3.46593z" fill="url(#color-15)" stroke="none" stroke-width="1" stroke-linecap="square" stroke-linejoin="miter"/><path d="M226.69866,90.51383v0c0.43955,-1.80363 2.58059,-2.83082 4.78216,-2.29429v0c2.20157,0.53652 3.62998,2.43359 3.19044,4.23722v0c-0.43955,1.80363 -2.5806,2.83084 -4.78217,2.2943v0c-2.20157,-0.53652 -3.62998,-2.43359 -3.19043,-4.23723z" fill="none" stroke="#000000" stroke-width="1" stroke-linecap="butt" stroke-linejoin="round"/><path d="M303.88328,106.5723l9.59172,11.85632l-16.23316,-9.49118l4.51597,9.35529l-8.21326,-7.74342l-4.67483,7.70138l-4.00404,-11.30465l-6.44901,-1.0315l-1.32911,-4.45798l-11.54402,-1.45875l7.18466,-4.37797l-8.85345,-4.2967l6.39043,-1.91081l-7.80612,-5.43206l5.64357,-0.30993l-5.69317,-5.45462l5.49828,0.72688l-7.72107,-9.40816l9.66339,5.11852l4.11735,-4.6601l5.28702,6.95017l9.87752,-1.10318l0.37855,7.96179l11.76582,1.05722l-2.21216,7.0525l12.66519,5.28368l-11.22817,1.77152l11.82538,8.84277z" fill="#000000" stroke="none" stroke-width="1" stroke-linecap="square" stroke-linejoin="miter"/><path d="M303.88328,106.5723l9.59172,11.85632l-16.23316,-9.49118l4.51597,9.35529l-8.21326,-7.74342l-4.67483,7.70138l-4.00404,-11.30465l-6.44901,-1.0315l-1.32911,-4.45798l-11.54402,-1.45875l7.18466,-4.37797l-8.85345,-4.2967l6.39043,-1.91081l-7.80612,-5.43206l5.64357,-0.30993l-5.69317,-5.45462l5.49828,0.72688l-7.72107,-9.40816l9.66339,5.11852l4.11735,-4.6601l5.28702,6.95017l9.87752,-1.10318l0.37855,7.96179l11.76582,1.05722l-2.21216,7.0525l12.66519,5.28368l-11.22817,1.77152l11.82538,8.84277z" fill="none" stroke="#000000" stroke-width="1" stroke-linecap="butt" stroke-linejoin="round"/><path d="M317.46519,80.44217l5.59421,-4.00689l-1.99072,6.65988l5.30173,-1.92984l-3.08693,3.40338l6.8048,1.7981l-6.82897,1.74563l1.14588,2.61435l-2.76563,0.58754l2.32531,4.67534l-5.1847,-2.84911l-0.46368,3.62216l-3.20928,-2.55691l-1.57105,3.21253l-1.86016,-2.27392l-2.2014,2.36012l-1.08483,-2.22717l-4.40713,3.22386l0.80925,-3.95844l-4.49229,-1.60805l3.37694,-2.21338l-3.65222,-3.97341l5.51953,-0.24417l-2.67373,-4.76024l5.62987,0.81173l0.05317,-5.17173l4.51752,4.5108l2.81396,-4.87367z" fill="#000000" stroke="none" stroke-width="1" stroke-linecap="square" stroke-linejoin="miter"/><path d="M317.46519,80.44217l5.59421,-4.00689l-1.99072,6.65988l5.30173,-1.92984l-3.08693,3.40338l6.8048,1.7981l-6.82897,1.74563l1.14588,2.61435l-2.76563,0.58754l2.32531,4.67534l-5.1847,-2.84911l-0.46368,3.62216l-3.20928,-2.55691l-1.57105,3.21253l-1.86016,-2.27392l-2.2014,2.36012l-1.08483,-2.22717l-4.40713,3.22386l0.80925,-3.95844l-4.49229,-1.60805l3.37694,-2.21338l-3.65222,-3.97341l5.51953,-0.24417l-2.67373,-4.76024l5.62987,0.81173l0.05317,-5.17173l4.51752,4.5108l2.81396,-4.87367z" fill="none" stroke="#000000" stroke-width="1" stroke-linecap="butt" stroke-linejoin="round"/><path d="M230.58356,62.25819l6.78901,1.12256l-6.11679,3.30154l5.11351,2.38443l-4.58932,0.22365l3.54035,6.08333l-6.06319,-3.59458l-1.03829,2.6589l-2.37108,-1.54021l-1.66163,4.95025l-1.65163,-5.68088l-2.88908,2.23335l-0.46134,-4.07737l-3.38245,1.16067l0.29249,-2.92327l-3.22543,0.11221l0.80772,-2.34196l-5.39595,-0.83682l3.37123,-2.22677l-2.03954,-4.31369l3.95296,0.82283l0.22703,-5.39219l4.07559,3.73033l1.47529,-5.25666l3.40702,4.55504l3.69449,-3.61935l0.00486,6.38406l5.4359,-1.45638z" fill="#000000" stroke="none" stroke-width="1" stroke-linecap="square" stroke-linejoin="miter"/><path d="M230.58356,62.25819l6.78901,1.12256l-6.11679,3.30154l5.11351,2.38443l-4.58932,0.22365l3.54035,6.08333l-6.06319,-3.59458l-1.03829,2.6589l-2.37108,-1.54021l-1.66163,4.95025l-1.65163,-5.68088l-2.88908,2.23335l-0.46134,-4.07737l-3.38245,1.16067l0.29249,-2.92327l-3.22543,0.11221l0.80772,-2.34196l-5.39595,-0.83682l3.37123,-2.22677l-2.03954,-4.31369l3.95296,0.82283l0.22703,-5.39219l4.07559,3.73033l1.47529,-5.25666l3.40702,4.55504l3.69449,-3.61935l0.00486,6.38406l5.4359,-1.45638z" fill="none" stroke="#000000" stroke-width="1" stroke-linecap="butt" stroke-linejoin="round"/></g></g></svg>