<svg version="1.1" xmlns="http://www.w3.org/2000/svg" xmlns:xlink="http://www.w3.org/1999/xlink" width="665.07274" height="467.72409" viewBox="0,0,665.07274,467.72409"><defs><linearGradient x1="609.29982" y1="159.04744" x2="617.83139" y2="324.80443" gradientUnits="userSpaceOnUse" id="color-1"><stop offset="0" stop-color="#4d4d4d"/><stop offset="1" stop-color="#000000"/></linearGradient><linearGradient x1="255.91794" y1="223.95058" x2="336.26482" y2="369.17701" gradientUnits="userSpaceOnUse" id="color-2"><stop offset="0" stop-color="#4d4d4d"/><stop offset="1" stop-color="#000000"/></linearGradient><linearGradient x1="577.98602" y1="104.53051" x2="598.63364" y2="269.22519" gradientUnits="userSpaceOnUse" id="color-3"><stop offset="0" stop-color="#4d4d4d"/><stop offset="1" stop-color="#000000"/></linearGradient><linearGradient x1="285.96777" y1="99.0582" x2="285.9672" y2="265.03099" gradientUnits="userSpaceOnUse" id="color-4"><stop offset="0" stop-color="#4d4d4d"/><stop offset="1" stop-color="#000000"/></linearGradient><radialGradient cx="553.26027" cy="31.73816" r="71.01781" fx="553.26027" fy="31.73816" gradientUnits="userSpaceOnUse" id="color-5"><stop offset="0" stop-color="#ffffff"/><stop offset="1" stop-color="#b3b3b3"/></radialGradient><radialGradient cx="341.06181" cy="31.73816" r="71.01781" fx="341.06181" fy="31.73816" gradientUnits="userSpaceOnUse" id="color-6"><stop offset="0" stop-color="#ffffff"/><stop offset="1" stop-color="#b3b3b3"/></radialGradient><radialGradient cx="448.16628" cy="185.01617" r="51.96851" fx="448.16628" fy="185.01617" gradientUnits="userSpaceOnUse" id="color-7"><stop offset="0" stop-color="#434343"/><stop offset="0.61" stop-color="#222222"/><stop offset="1" stop-color="#000000"/></radialGradient><radialGradient cx="448.16628" cy="269.12989" r="118.33036" fx="448.16628" fy="269.12989" gradientUnits="userSpaceOnUse" id="color-8"><stop offset="0" stop-color="#434343"/><stop offset="0.61" stop-color="#222222"/><stop offset="1" stop-color="#000000"/></radialGradient><linearGradient x1="356.80836" y1="-3.30257" x2="356.80793" y2="117.86389" gradientUnits="userSpaceOnUse" id="color-9"><stop offset="0" stop-color="#ffffff"/><stop offset="0.49" stop-color="#efefef"/><stop offset="0.9" stop-color="#cccccc"/><stop offset="1" stop-color="#b9b9b9"/><stop offset="1" stop-color="#737373"/></linearGradient><radialGradient cx="401.73132" cy="42.05631" r="34.03712" fx="401.73132" fy="42.05631" gradientUnits="userSpaceOnUse" id="color-10"><stop offset="0" stop-color="#ffffff"/><stop offset="0.56" stop-color="#ffffff"/><stop offset="1" stop-color="#b3b3b3"/></radialGradient><radialGradient cx="320.34175" cy="53.01161" r="34.48205" fx="320.34175" fy="53.01161" gradientUnits="userSpaceOnUse" id="color-11"><stop offset="0" stop-color="#4d4d4d"/><stop offset="1" stop-color="#000000"/></radialGradient><radialGradient cx="449.79681" cy="99.85545" r="60.8218" fx="449.79681" fy="99.85545" gradientUnits="userSpaceOnUse" id="color-12"><stop offset="0" stop-color="#bfbfbf"/><stop offset="1" stop-color="#737373"/></radialGradient><radialGradient cx="404.99207" cy="79.67582" r="34.48205" fx="404.99207" fy="79.67582" gradientUnits="userSpaceOnUse" id="color-13"><stop offset="0" stop-color="#4d4d4d"/><stop offset="1" stop-color="#000000"/></radialGradient><radialGradient cx="399.34831" cy="79.67548" r="27.57739" fx="399.34831" fy="79.67548" gradientUnits="userSpaceOnUse" id="color-14"><stop offset="0" stop-color="#4d4d4d"/><stop offset="1" stop-color="#000000"/></radialGradient><radialGradient cx="401.73206" cy="49.44719" r="8.35663" fx="401.73206" fy="49.44719" gradientUnits="userSpaceOnUse" id="color-15"><stop offset="0" stop-color="#4d4d4d"/><stop offset="1" stop-color="#000000"/></radialGradient><radialGradient cx="342.60944" cy="383.27069" r="45.07583" fx="342.60944" fy="383.27069" gradientUnits="userSpaceOnUse" id="color-16"><stop offset="0" stop-color="#ffffff"/><stop offset="1" stop-color="#b3b3b3"/></radialGradient><radialGradient cx="207.92462" cy="383.27069" r="45.07583" fx="207.92462" fy="383.27069" gradientUnits="userSpaceOnUse" id="color-17"><stop offset="0" stop-color="#ffffff"/><stop offset="1" stop-color="#b3b3b3"/></radialGradient><linearGradient x1="217.91913" y1="361.02993" x2="217.91886" y2="437.93569" gradientUnits="userSpaceOnUse" id="color-18"><stop offset="0" stop-color="#ffffff"/><stop offset="0.49" stop-color="#efefef"/><stop offset="0.9" stop-color="#cccccc"/><stop offset="1" stop-color="#b9b9b9"/><stop offset="1" stop-color="#737373"/></linearGradient><radialGradient cx="246.43226" cy="389.81974" r="21.60376" fx="246.43226" fy="389.81974" gradientUnits="userSpaceOnUse" id="color-19"><stop offset="0" stop-color="#ffffff"/><stop offset="0.56" stop-color="#ffffff"/><stop offset="1" stop-color="#b3b3b3"/></radialGradient><radialGradient cx="194.77335" cy="396.77319" r="21.88616" fx="194.77335" fy="396.77319" gradientUnits="userSpaceOnUse" id="color-20"><stop offset="0" stop-color="#4d4d4d"/><stop offset="1" stop-color="#000000"/></radialGradient><radialGradient cx="276.93998" cy="426.50552" r="38.6043" fx="276.93998" fy="426.50552" gradientUnits="userSpaceOnUse" id="color-21"><stop offset="0" stop-color="#bfbfbf"/><stop offset="1" stop-color="#737373"/></radialGradient><radialGradient cx="248.50189" cy="413.69728" r="21.88616" fx="248.50189" fy="413.69728" gradientUnits="userSpaceOnUse" id="color-22"><stop offset="0" stop-color="#4d4d4d"/><stop offset="1" stop-color="#000000"/></radialGradient><radialGradient cx="244.91973" cy="413.69706" r="17.50369" fx="244.91973" fy="413.69706" gradientUnits="userSpaceOnUse" id="color-23"><stop offset="0" stop-color="#4d4d4d"/><stop offset="1" stop-color="#000000"/></radialGradient><radialGradient cx="246.43273" cy="394.51081" r="5.30405" fx="246.43273" fy="394.51081" gradientUnits="userSpaceOnUse" id="color-24"><stop offset="0" stop-color="#4d4d4d"/><stop offset="1" stop-color="#000000"/></radialGradient></defs><g transform="translate(55.22863,28.7884)"><g data-paper-data="{&quot;isPaintingLayer&quot;:true}" fill-rule="evenodd" stroke-miterlimit="10" stroke-dasharray="" stroke-dashoffset="0" style="mix-blend-mode: normal"><path d="M457.89887,318.5238c2.13036,-5.54542 3.03768,-8.4606 18.94839,-19.09372c15.91064,-10.63312 61.93472,-25.83587 76.5157,-44.70505c14.58099,-18.86918 1.67115,-52.6304 10.97023,-68.51008c9.29908,-15.87969 42.12466,-29.34671 44.82423,-26.76801c2.69957,2.57873 -24.70707,24.52358 -28.62682,42.24035c-3.91975,17.71677 14.87805,45.58953 5.10813,64.06029c-9.76992,18.47076 -43.46519,35.6051 -63.72752,46.7643c-20.26233,11.15916 -47.1776,19.18882 -57.84634,20.19079c-10.66873,1.00199 -8.2964,-8.63344 -6.166,-14.17886z" fill="url(#color-1)" stroke="none" stroke-width="1" stroke-linecap="square" stroke-linejoin="miter"/><path d="M457.89887,318.5238c2.13036,-5.54542 3.03768,-8.4606 18.94839,-19.09372c15.91064,-10.63312 61.93472,-25.83587 76.5157,-44.70505c14.58099,-18.86918 1.67115,-52.6304 10.97023,-68.51008c9.29908,-15.87969 42.12466,-29.34671 44.82423,-26.76801c2.69957,2.57873 -24.70707,24.52358 -28.62682,42.24035c-3.91975,17.71677 14.87805,45.58953 5.10813,64.06029c-9.76992,18.47076 -43.46519,35.6051 -63.72752,46.7643c-20.26233,11.15916 -47.1776,19.18882 -57.84634,20.19079c-10.66873,1.00199 -8.2964,-8.63344 -6.166,-14.17886z" fill="none" stroke="#000000" stroke-width="1" stroke-linecap="butt" stroke-linejoin="round"/><path d="M468.71957,279.3332c4.73894,3.58199 11.84448,10.50831 2.25785,15.2953c-9.58662,4.78696 -36.67919,12.19292 -59.77751,13.42646c-23.09831,1.23357 -60.75787,4.49286 -78.81233,-6.02513c-18.05446,-10.51798 -16.8248,-44.11353 -29.51439,-57.08276c-12.6896,-12.96923 -47.55237,-17.11691 -46.62326,-20.73259c0.92911,-3.61571 35.91243,-9.52873 52.198,-0.96163c16.28557,8.5671 23.16601,44.05032 45.51534,52.36425c22.34933,8.31393 69.45461,-3.10001 88.58065,-2.48066c19.12608,0.61938 21.43671,2.61473 26.17564,6.19676z" fill="url(#color-2)" stroke="none" stroke-width="1" stroke-linecap="square" stroke-linejoin="miter"/><path d="M468.71957,279.3332c4.73894,3.58199 11.84448,10.50831 2.25785,15.2953c-9.58662,4.78696 -36.67919,12.19292 -59.77751,13.42646c-23.09831,1.23357 -60.75787,4.49286 -78.81233,-6.02513c-18.05446,-10.51798 -16.8248,-44.11353 -29.51439,-57.08276c-12.6896,-12.96923 -47.55237,-17.11691 -46.62326,-20.73259c0.92911,-3.61571 35.91243,-9.52873 52.198,-0.96163c16.28557,8.5671 23.16601,44.05032 45.51534,52.36425c22.34933,8.31393 69.45461,-3.10001 88.58065,-2.48066c19.12608,0.61938 21.43671,2.61473 26.17564,6.19676z" fill="none" stroke="#000000" stroke-width="1" stroke-linecap="butt" stroke-linejoin="round"/><path d="M438.66326,274.6732c1.71869,-5.68682 2.4101,-8.66074 17.50011,-20.43093c15.09005,-11.77023 59.87929,-30.30322 73.03999,-50.19036c13.16077,-19.88717 -2.18741,-52.61388 5.92426,-69.13264c8.1116,-16.51874 39.86433,-32.35409 42.74563,-29.97986c2.8813,2.37423 -22.84591,26.26815 -25.45797,44.2252c-2.61199,17.95708 18.17735,44.37968 9.78588,63.51715c-8.39153,19.13745 -40.74308,38.69413 -60.13475,51.30769c-19.39167,12.61356 -45.64791,22.59303 -56.21509,24.37365c-10.56718,1.78062 -8.90675,-8.00308 -7.18806,-13.6899z" fill="url(#color-3)" stroke="none" stroke-width="1" stroke-linecap="square" stroke-linejoin="miter"/><path d="M438.66326,274.6732c1.71869,-5.68682 2.4101,-8.66074 17.50011,-20.43093c15.09005,-11.77023 59.87929,-30.30322 73.03999,-50.19036c13.16077,-19.88717 -2.18741,-52.61388 5.92426,-69.13264c8.1116,-16.51874 39.86433,-32.35409 42.74563,-29.97986c2.8813,2.37423 -22.84591,26.26815 -25.45797,44.2252c-2.61199,17.95708 18.17735,44.37968 9.78588,63.51715c-8.39153,19.13745 -40.74308,38.69413 -60.13475,51.30769c-19.39167,12.61356 -45.64791,22.59303 -56.21509,24.37365c-10.56718,1.78062 -8.90675,-8.00308 -7.18806,-13.6899z" fill="none" stroke="#000000" stroke-width="1" stroke-linecap="butt" stroke-linejoin="round"/><path d="M445.36204,250.53866c2.41254,5.42849 5.27693,14.92904 -5.42898,14.47673c-10.70588,-0.45231 -37.99774,-7.08775 -58.8064,-17.19051c-20.80863,-10.10276 -55.33935,-25.48221 -66.04545,-43.42603c-10.70613,-17.94379 6.63381,-46.74524 1.8087,-64.23675c-4.82511,-17.4915 -33.32279,-37.99822 -30.7594,-40.71223c2.56341,-2.71402 36.03705,9.04779 46.1398,24.42817c10.10276,15.3804 -1.05451,49.7598 14.47673,67.8542c15.53125,18.0944 62.27485,30.91116 78.71068,40.71223c16.43583,9.80107 17.49174,12.66568 19.90431,18.09417z" fill="url(#color-4)" stroke="none" stroke-width="1" stroke-linecap="square" stroke-linejoin="miter"/><path d="M445.36204,250.53866c2.41254,5.42849 5.27693,14.92904 -5.42898,14.47673c-10.70588,-0.45231 -37.99774,-7.08775 -58.8064,-17.19051c-20.80863,-10.10276 -55.33935,-25.48221 -66.04545,-43.42603c-10.70613,-17.94379 6.63381,-46.74524 1.8087,-64.23675c-4.82511,-17.4915 -33.32279,-37.99822 -30.7594,-40.71223c2.56341,-2.71402 36.03705,9.04779 46.1398,24.42817c10.10276,15.3804 -1.05451,49.7598 14.47673,67.8542c15.53125,18.0944 62.27485,30.91116 78.71068,40.71223c16.43583,9.80107 17.49174,12.66568 19.90431,18.09417z" fill="none" stroke="#000000" stroke-width="1" stroke-linecap="butt" stroke-linejoin="round"/><path d="M227.02578,89.90851v0c-13.3381,6.94528 -37.71837,-13.46819 -54.45482,-45.59479v0c-8.03714,-15.42774 -13.20065,-31.5485 -14.35461,-44.81594c-1.15396,-13.26743 1.79614,-22.59472 8.20133,-25.92996v0c13.3381,-6.94529 37.71837,13.46819 54.45484,45.59479v0c16.73647,32.12658 19.49139,63.8006 6.15326,70.74589z" fill="#ffffff" stroke="none" stroke-width="1" stroke-linecap="square" stroke-linejoin="miter"/><path d="M227.02578,89.90851v0c-13.3381,6.94528 -37.71837,-13.46819 -54.45482,-45.59479v0c-8.03714,-15.42774 -13.20065,-31.5485 -14.35461,-44.81594c-1.15396,-13.26743 1.79614,-22.59472 8.20133,-25.92996v0c13.3381,-6.94529 37.71837,13.46819 54.45484,45.59479v0c16.73647,32.12658 19.49139,63.8006 6.15326,70.74589z" fill="none" stroke="#000000" stroke-width="2" stroke-linecap="butt" stroke-linejoin="round"/><path d="M235.22711,63.97856l-56.90942,-44.14895" fill-opacity="0" fill="#000000" stroke="none" stroke-width="1" stroke-linecap="square" stroke-linejoin="miter"/><path d="M235.22711,63.97856l-56.90942,-44.14895" fill="none" stroke="#000000" stroke-width="2" stroke-linecap="butt" stroke-linejoin="round"/><path d="M-39.62749,19.16261v0c16.73647,-32.1266 41.11672,-52.54008 54.45483,-45.59479v0c6.40519,3.33524 9.35529,12.66252 8.20133,25.92996c-1.15396,13.26743 -6.31747,29.3882 -14.35461,44.81594v0c-16.73646,32.1266 -41.11673,52.54007 -54.45484,45.59479v0c-13.33811,-6.94529 -10.58319,-38.61931 6.15328,-70.74589z" fill="#ffffff" stroke="none" stroke-width="1" stroke-linecap="square" stroke-linejoin="miter"/><path d="M-39.62749,19.16261v0c16.73647,-32.1266 41.11672,-52.54008 54.45483,-45.59479v0c6.40519,3.33524 9.35529,12.66252 8.20133,25.92996c-1.15396,13.26743 -6.31747,29.3882 -14.35461,44.81594v0c-16.73646,32.1266 -41.11673,52.54007 -54.45484,45.59479v0c-13.33811,-6.94529 -10.58319,-38.61931 6.15328,-70.74589z" fill="none" stroke="#000000" stroke-width="2" stroke-linecap="butt" stroke-linejoin="round"/><path d="M0.27099,29.5639l-54.25309,34.41465" fill-opacity="0" fill="#000000" stroke="none" stroke-width="1" stroke-linecap="square" stroke-linejoin="miter"/><path d="M0.27099,29.5639l-54.25309,34.41465" fill="none" stroke="#000000" stroke-width="2" stroke-linecap="butt" stroke-linejoin="round"/><path d="M139.40792,144.97782l-47.78038,80.0767l-47.78039,-80.0767z" fill="#000000" stroke="none" stroke-width="1" stroke-linecap="square" stroke-linejoin="miter"/><path d="M139.40792,144.97782l-47.78038,80.0767l-47.78039,-80.0767z" fill="none" stroke="#000000" stroke-width="1" stroke-linecap="butt" stroke-linejoin="round"/><path d="M146.5377,381.16735h-109.82033l21.96406,-224.07491h65.89221z" fill="#000000" stroke="none" stroke-width="1" stroke-linecap="square" stroke-linejoin="miter"/><path d="M146.5377,381.16735h-109.82033l21.96406,-224.07491h65.89221z" fill="none" stroke="#000000" stroke-width="1" stroke-linecap="butt" stroke-linejoin="round"/><path d="M0.26985,-3.30191h182.71539v121.1658h-182.71539z" fill="#ffffff" stroke="none" stroke-width="1" stroke-linecap="square" stroke-linejoin="miter"/><path d="M0.26985,-3.30191h182.71539v121.1658h-182.71539z" fill="none" stroke="#000000" stroke-width="2" stroke-linecap="butt" stroke-linejoin="round"/><path d="M0.10173,93.53519l182.64814,-59.8852" fill-opacity="0" fill="#000000" stroke="none" stroke-width="1" stroke-linecap="square" stroke-linejoin="miter"/><path d="M0.10173,93.53519l182.64814,-59.8852" fill="none" stroke="#000000" stroke-width="1" stroke-linecap="butt" stroke-linejoin="round"/><path d="M0.84987,-3.18143h181.8916v36.83561h-181.8916z" fill="#000000" stroke="none" stroke-width="1" stroke-linecap="square" stroke-linejoin="miter"/><path d="M0.84987,-3.18143h181.8916v36.83561h-181.8916z" fill="none" stroke="#000000" stroke-width="1" stroke-linecap="butt" stroke-linejoin="round"/><path d="M0.84987,61.52995l172.91386,-55.81663l9.11223,28.24456l-172.91386,55.81663z" fill="#000000" stroke="none" stroke-width="1" stroke-linecap="square" stroke-linejoin="miter"/><path d="M0.84987,61.52995l172.91386,-55.81663l9.11223,28.24456l-172.91386,55.81663z" fill="none" stroke="#000000" stroke-width="1" stroke-linecap="butt" stroke-linejoin="round"/><path d="M0.26985,-3.18143h93.25748v65.50049h-93.25748z" fill="#000000" stroke="none" stroke-width="1" stroke-linecap="square" stroke-linejoin="miter"/><path d="M0.26985,-3.18143h93.25748v65.50049h-93.25748z" fill="none" stroke="#000000" stroke-width="1" stroke-linecap="butt" stroke-linejoin="round"/><path d="M0.60312,93.01822l-0.11769,-36.63388l15.87075,27.65614z" fill="#000000" stroke="none" stroke-width="1" stroke-linecap="square" stroke-linejoin="miter"/><path d="M0.60312,93.01822l-0.11769,-36.63388l15.87075,27.65614z" fill="none" stroke="#000000" stroke-width="1" stroke-linecap="butt" stroke-linejoin="round"/><path d="M0.5912,89.88377l10.28909,-3.37927l0.92467,2.80764l-10.28909,3.37927z" fill="#000000" stroke="none" stroke-width="1" stroke-linecap="square" stroke-linejoin="miter"/><path d="M0.5912,89.88377l10.28909,-3.37927l0.92467,2.80764l-10.28909,3.37927z" fill="none" stroke="#000000" stroke-width="1" stroke-linecap="butt" stroke-linejoin="round"/><path d="M52.73383,61.05254v0c-16.98717,0 -30.75799,-8.50563 -30.75799,-18.99783v0c0,-6.33261 0,-12.66522 0,-18.99783c10.25267,0 20.50533,0 30.75799,0c16.98718,0 30.75798,8.50561 30.75798,18.99783v0c0,10.4922 -13.77081,18.99783 -30.75798,18.99783z" fill="#ffffff" stroke="none" stroke-width="1" stroke-linecap="square" stroke-linejoin="miter"/><path d="M52.73383,61.05254v0c-16.98717,0 -30.75799,-8.50563 -30.75799,-18.99783v0c0,-6.33261 0,-12.66522 0,-18.99783c10.25267,0 20.50533,0 30.75799,0c16.98718,0 30.75798,8.50561 30.75798,18.99783v0c0,10.4922 -13.77081,18.99783 -30.75798,18.99783z" fill="none" stroke="#000000" stroke-width="1" stroke-linecap="butt" stroke-linejoin="round"/><path d="M46.36339,42.80565v0c0,-7.58594 8.31368,-13.73559 18.56912,-13.73559v0c10.25544,0 18.56911,6.14965 18.56911,13.73559v0c0,7.58596 -8.31367,13.73561 -18.56911,13.73561v0c-10.25544,0 -18.56912,-6.14965 -18.56912,-13.73561z" fill="#000000" stroke="none" stroke-width="1" stroke-linecap="square" stroke-linejoin="miter"/><path d="M46.36339,42.80565v0c0,-7.58594 8.31368,-13.73559 18.56912,-13.73559v0c10.25544,0 18.56911,6.14965 18.56911,13.73559v0c0,7.58596 -8.31367,13.73561 -18.56911,13.73561v0c-10.25544,0 -18.56912,-6.14965 -18.56912,-13.73561z" fill="none" stroke="#000000" stroke-width="1" stroke-linecap="butt" stroke-linejoin="round"/><path d="M21.97584,42.05472l61.53279,0.75655" fill-opacity="0" fill="#000000" stroke="none" stroke-width="1" stroke-linecap="square" stroke-linejoin="miter"/><path d="M21.97584,42.05472l61.53279,0.75655" fill="none" stroke="#000000" stroke-width="1" stroke-linecap="butt" stroke-linejoin="round"/><path d="M21.97584,23.05689h26.57175v0c14.67517,0 26.57174,4.30549 26.57174,9.6166c0,5.31109 -11.89657,9.6166 -26.57174,9.6166h-26.57175z" fill="#000000" stroke="none" stroke-width="1" stroke-linecap="square" stroke-linejoin="miter"/><path d="M21.97584,23.05689h26.57175v0c14.67517,0 26.57174,4.30549 26.57174,9.6166c0,5.31109 -11.89657,9.6166 -26.57174,9.6166h-26.57175z" fill="none" stroke="#000000" stroke-width="1" stroke-linecap="butt" stroke-linejoin="round"/><path d="M72.38568,34.86316v0c-4.68437,-3.42157 -7.75541,-7.18888 -6.8594,-8.41452v0c0.43028,-0.58857 1.73656,-0.50033 3.63145,0.24534c1.89489,0.74566 4.2232,2.08765 6.47271,3.73075v0c4.68435,3.42157 7.75541,7.18888 6.8594,8.41452v0c-0.43028,0.58857 -1.73656,0.50033 -3.63147,-0.24534c-1.89489,-0.74566 -4.2232,-2.08765 -6.47269,-3.73075z" fill="#000000" stroke="none" stroke-width="1" stroke-linecap="square" stroke-linejoin="miter"/><path d="M72.38568,34.86316v0c-4.68437,-3.42157 -7.75541,-7.18888 -6.8594,-8.41452v0c0.43028,-0.58857 1.73656,-0.50033 3.63145,0.24534c1.89489,0.74566 4.2232,2.08765 6.47271,3.73075v0c4.68435,3.42157 7.75541,7.18888 6.8594,8.41452v0c-0.43028,0.58857 -1.73656,0.50033 -3.63147,-0.24534c-1.89489,-0.74566 -4.2232,-2.08765 -6.47269,-3.73075z" fill="none" stroke="#000000" stroke-width="1" stroke-linecap="butt" stroke-linejoin="round"/><path d="M73.66418,30.19559v0c-3.10123,-1.90811 -5.46097,-3.70708 -5.27062,-4.01812v0c0.0914,-0.14938 0.77068,0.07137 1.88838,0.61366c1.1177,0.54231 2.58228,1.36174 4.07155,2.27803v0c3.10124,1.90811 5.46099,3.70708 5.27064,4.01814v0c-0.09142,0.14936 -0.77068,-0.07138 -1.88839,-0.61367c-1.1177,-0.54231 -2.58228,-1.36174 -4.07155,-2.27803z" fill="#000000" stroke="none" stroke-width="1" stroke-linecap="square" stroke-linejoin="miter"/><path d="M73.66418,30.19559v0c-3.10123,-1.90811 -5.46097,-3.70708 -5.27062,-4.01812v0c0.0914,-0.14938 0.77068,0.07137 1.88838,0.61366c1.1177,0.54231 2.58228,1.36174 4.07155,2.27803v0c3.10124,1.90811 5.46099,3.70708 5.27064,4.01814v0c-0.09142,0.14936 -0.77068,-0.07138 -1.88839,-0.61367c-1.1177,-0.54231 -2.58228,-1.36174 -4.07155,-2.27803z" fill="none" stroke="#000000" stroke-width="1" stroke-linecap="butt" stroke-linejoin="round"/><path d="M78.83343,34.26644v0c0,-0.64533 0.38011,-1.16846 0.84902,-1.16846v0c0.22518,0 0.44113,0.1231 0.60035,0.34224c0.15922,0.21913 0.24867,0.51633 0.24867,0.82623v0c0,0.64531 -0.38011,1.16844 -0.84902,1.16844v0c-0.46891,0 -0.84902,-0.52313 -0.84902,-1.16844z" fill="#000000" stroke="none" stroke-width="1" stroke-linecap="square" stroke-linejoin="miter"/><path d="M69.48793,98.22032v0c13.86736,-5.20431 27.84894,-2.12198 31.22873,6.88461l-25.10908,9.42327z" fill-opacity="0" fill="#000000" stroke="none" stroke-width="1" stroke-linecap="square" stroke-linejoin="miter"/><path d="M69.48793,98.22032v0c13.86736,-5.20431 27.84894,-2.12198 31.22873,6.88461" fill-opacity="0" fill="#000000" stroke="none" stroke-width="1" stroke-linecap="square" stroke-linejoin="miter"/><path d="M69.48793,98.22032v0c13.86736,-5.20431 27.84894,-2.12198 31.22873,6.88461" fill="none" stroke="#000000" stroke-width="3" stroke-linecap="butt" stroke-linejoin="round"/><path d="M583.56432,89.90851v0c-13.33807,6.94528 -37.71837,-13.46819 -54.45484,-45.59479v0c-8.03713,-15.42774 -13.20065,-31.5485 -14.35462,-44.81594c-1.15391,-13.26743 1.79619,-22.59472 8.20133,-25.92996v0c13.33813,-6.94529 37.71837,13.46819 54.45484,45.59479v0c16.73647,32.12658 19.49143,63.8006 6.15329,70.74589z" fill="url(#color-5)" stroke="none" stroke-width="1" stroke-linecap="square" stroke-linejoin="miter"/><path d="M583.56432,89.90851v0c-13.33807,6.94528 -37.71837,-13.46819 -54.45484,-45.59479v0c-8.03713,-15.42774 -13.20065,-31.5485 -14.35462,-44.81594c-1.15391,-13.26743 1.79619,-22.59472 8.20133,-25.92996v0c13.33813,-6.94529 37.71837,13.46819 54.45484,45.59479v0c16.73647,32.12658 19.49143,63.8006 6.15329,70.74589z" fill="none" stroke="#000000" stroke-width="2" stroke-linecap="butt" stroke-linejoin="round"/><path d="M534.85626,19.82961l56.9094,44.14895" fill-opacity="0" fill="#000000" stroke="none" stroke-width="1" stroke-linecap="square" stroke-linejoin="miter"/><path d="M534.85626,19.82961l56.9094,44.14895" fill="none" stroke="#000000" stroke-width="2" stroke-linecap="butt" stroke-linejoin="round"/><path d="M316.91104,19.16261v0c16.73647,-32.1266 41.11674,-52.54008 54.45484,-45.59479v0c6.40517,3.33524 9.35528,12.66252 8.20133,25.92996c-1.15398,13.26743 -6.31746,29.3882 -14.35462,44.81594v0c-16.73647,32.1266 -41.11674,52.54007 -54.45484,45.59479v0c-13.3381,-6.94529 -10.58318,-38.61931 6.15329,-70.74589z" fill="url(#color-6)" stroke="none" stroke-width="1" stroke-linecap="square" stroke-linejoin="miter"/><path d="M316.91104,19.16261v0c16.73647,-32.1266 41.11674,-52.54008 54.45484,-45.59479v0c6.40517,3.33524 9.35528,12.66252 8.20133,25.92996c-1.15398,13.26743 -6.31746,29.3882 -14.35462,44.81594v0c-16.73647,32.1266 -41.11674,52.54007 -54.45484,45.59479v0c-13.3381,-6.94529 -10.58318,-38.61931 6.15329,-70.74589z" fill="none" stroke="#000000" stroke-width="2" stroke-linecap="butt" stroke-linejoin="round"/><path d="M302.55642,63.97855l54.2531,-34.41465" fill-opacity="0" fill="#000000" stroke="none" stroke-width="1" stroke-linecap="square" stroke-linejoin="miter"/><path d="M302.55642,63.97855l54.2531,-34.41465" fill="none" stroke="#000000" stroke-width="2" stroke-linecap="butt" stroke-linejoin="round"/><path d="M481.29722,144.97782l-33.13096,80.0767l-33.13089,-80.0767z" fill="url(#color-7)" stroke="none" stroke-width="1" stroke-linecap="square" stroke-linejoin="miter"/><path d="M481.29722,144.97782l-33.13096,80.0767l-33.13089,-80.0767z" fill="none" stroke="#000000" stroke-width="1" stroke-linecap="butt" stroke-linejoin="round"/><path d="M486.24101,381.16735h-76.14945l15.22988,-224.07491h45.68965z" fill="url(#color-8)" stroke="none" stroke-width="1" stroke-linecap="square" stroke-linejoin="miter"/><path d="M486.24101,381.16735h-76.14945l15.22988,-224.07491h45.68965z" fill="none" stroke="#000000" stroke-width="1" stroke-linecap="butt" stroke-linejoin="round"/><path d="M356.80838,-3.30191h182.71539v121.1658h-182.71539z" fill="url(#color-9)" stroke="none" stroke-width="1" stroke-linecap="square" stroke-linejoin="miter"/><path d="M356.80838,-3.30191h182.71539v121.1658h-182.71539z" fill="none" stroke="#000000" stroke-width="2" stroke-linecap="butt" stroke-linejoin="round"/><path d="M356.64023,93.53519l182.64818,-59.8852" fill-opacity="0" fill="#000000" stroke="none" stroke-width="1" stroke-linecap="square" stroke-linejoin="miter"/><path d="M356.64023,93.53519l182.64818,-59.8852" fill="none" stroke="#000000" stroke-width="1" stroke-linecap="butt" stroke-linejoin="round"/><path d="M357.38841,-3.18143h181.8916v36.83561h-181.8916z" fill="#000000" stroke="none" stroke-width="1" stroke-linecap="square" stroke-linejoin="miter"/><path d="M357.38841,-3.18143h181.8916v36.83561h-181.8916z" fill="none" stroke="#000000" stroke-width="1" stroke-linecap="butt" stroke-linejoin="round"/><path d="M357.38841,61.52995l172.91383,-55.81663l9.11226,28.24456l-172.91386,55.81663z" fill="#000000" stroke="none" stroke-width="1" stroke-linecap="square" stroke-linejoin="miter"/><path d="M357.38841,61.52995l172.91383,-55.81663l9.11226,28.24456l-172.91386,55.81663z" fill="none" stroke="#000000" stroke-width="1" stroke-linecap="butt" stroke-linejoin="round"/><path d="M356.80838,-3.18143h93.25746v65.50049h-93.25746z" fill="#000000" stroke="none" stroke-width="1" stroke-linecap="square" stroke-linejoin="miter"/><path d="M356.80838,-3.18143h93.25746v65.50049h-93.25746z" fill="none" stroke="#000000" stroke-width="1" stroke-linecap="butt" stroke-linejoin="round"/><path d="M357.14164,93.01822l-0.11768,-36.63388l15.87076,27.65614z" fill="#000000" stroke="none" stroke-width="1" stroke-linecap="square" stroke-linejoin="miter"/><path d="M357.14164,93.01822l-0.11768,-36.63388l15.87076,27.65614z" fill="none" stroke="#000000" stroke-width="1" stroke-linecap="butt" stroke-linejoin="round"/><path d="M357.12971,89.88377l10.28908,-3.37927l0.92468,2.80764l-10.28908,3.37927z" fill="#000000" stroke="none" stroke-width="1" stroke-linecap="square" stroke-linejoin="miter"/><path d="M357.12971,89.88377l10.28908,-3.37927l0.92468,2.80764l-10.28908,3.37927z" fill="none" stroke="#000000" stroke-width="1" stroke-linecap="butt" stroke-linejoin="round"/><path d="M424.8239,51.80512v0c-4.94898,11.71321 -19.2994,16.84293 -32.05253,11.45754v0c-7.69721,-3.25036 -15.39441,-6.50073 -23.0916,-9.7511c2.98697,-7.06954 5.97393,-14.13908 8.9609,-21.20863c4.94898,-11.71321 19.2994,-16.84293 32.05253,-11.45754v0c12.75316,5.38539 19.07968,19.24652 14.1307,30.95974z" fill="url(#color-10)" stroke="none" stroke-width="1" stroke-linecap="square" stroke-linejoin="miter"/><path d="M424.8239,51.80512v0c-4.94898,11.71321 -19.2994,16.84293 -32.05253,11.45754v0c-7.69721,-3.25036 -15.39441,-6.50073 -23.0916,-9.7511c2.98697,-7.06954 5.97393,-14.13908 8.9609,-21.20863c4.94898,-11.71321 19.2994,-16.84293 32.05253,-11.45754v0c12.75316,5.38539 19.07968,19.24652 14.1307,30.95974z" fill="none" stroke="#000000" stroke-width="1" stroke-linecap="butt" stroke-linejoin="round"/><path d="M364.29654,10.63002l30.81866,1.43496l-0.29003,6.78088l29.38795,-3.78958l0.29931,7.13066l45.12198,0.53183l-45.28921,17.63498l0.15172,-8.39955l-28.63422,10.66367l-0.74595,-10.35365l-30.12097,11.32553z" fill="#000000" stroke="none" stroke-width="1" stroke-linecap="square" stroke-linejoin="miter"/><path d="M364.29654,10.63002l30.81866,1.43496l-0.29003,6.78088l29.38795,-3.78958l0.29931,7.13066l45.12198,0.53183l-45.28921,17.63498l0.15172,-8.39955l-28.63422,10.66367l-0.74595,-10.35365l-30.12097,11.32553z" fill="none" stroke="#000000" stroke-width="1" stroke-linecap="butt" stroke-linejoin="round"/><path d="M316.77366,19.70541l4.39473,18.62381l-1.28596,2.2918l5.13556,15.88635l-1.26097,2.76499l6.72181,26.69759l-10.0749,-20.19935l1.56159,-2.96079l-6.28084,-12.94761l1.78385,-4.19761l-6.62675,-13.58059z" fill="url(#color-11)" stroke="none" stroke-width="1" stroke-linecap="square" stroke-linejoin="miter"/><path d="M507.48008,80.5857v0c1.43925,15.08836 -23.80292,29.83392 -56.37982,32.93517c-32.5769,3.10123 -60.15244,-6.61624 -61.59162,-21.70459v0c39.1437,0.86827 79.69641,-2.99223 117.97144,-11.23057z" fill="url(#color-12)" stroke="none" stroke-width="1" stroke-linecap="square" stroke-linejoin="miter"/><path d="M507.48008,80.5857v0c1.43925,15.08836 -23.80292,29.83392 -56.37982,32.93517c-32.5769,3.10123 -60.15244,-6.61624 -61.59162,-21.70459v0c39.1437,0.86827 79.69641,-2.99223 117.97144,-11.23057z" fill="none" stroke="#000000" stroke-width="3" stroke-linecap="butt" stroke-linejoin="round"/><path d="M420.49733,112.57504l-3.26157,-20.69587" fill-opacity="0" fill="#000000" stroke="none" stroke-width="1" stroke-linecap="square" stroke-linejoin="miter"/><path d="M420.49733,112.57504l-3.26157,-20.69587" fill="none" stroke="#000000" stroke-width="1" stroke-linecap="butt" stroke-linejoin="round"/><path d="M448.82011,89.61596l2.28649,23.90701" fill-opacity="0" fill="#000000" stroke="none" stroke-width="1" stroke-linecap="square" stroke-linejoin="miter"/><path d="M448.82011,89.61596l2.28649,23.90701" fill="none" stroke="#000000" stroke-width="1" stroke-linecap="butt" stroke-linejoin="round"/><path d="M484.24372,104.95629l-2.2024,-19.56944" fill-opacity="0" fill="#000000" stroke="none" stroke-width="1" stroke-linecap="square" stroke-linejoin="miter"/><path d="M484.24372,104.95629l-2.2024,-19.56944" fill="none" stroke="#000000" stroke-width="1" stroke-linecap="butt" stroke-linejoin="round"/><path d="M400.57345,105.81653l16.86265,-7.04434" fill-opacity="0" fill="#000000" stroke="none" stroke-width="1" stroke-linecap="square" stroke-linejoin="miter"/><path d="M400.57345,105.81653l16.86265,-7.04434" fill="none" stroke="#000000" stroke-width="1" stroke-linecap="butt" stroke-linejoin="round"/><path d="M417.43329,98.76238l33.67491,14.76114" fill-opacity="0" fill="#000000" stroke="none" stroke-width="1" stroke-linecap="square" stroke-linejoin="miter"/><path d="M417.43329,98.76238l33.67491,14.76114" fill="none" stroke="#000000" stroke-width="1" stroke-linecap="butt" stroke-linejoin="round"/><path d="M462.83524,87.32741l-11.73497,26.19346" fill-opacity="0" fill="#000000" stroke="none" stroke-width="1" stroke-linecap="square" stroke-linejoin="miter"/><path d="M462.83524,87.32741l-11.73497,26.19346" fill="none" stroke="#000000" stroke-width="1" stroke-linecap="butt" stroke-linejoin="round"/><path d="M463.39518,88.90621l18.64474,18.32534" fill-opacity="0" fill="#000000" stroke="none" stroke-width="1" stroke-linecap="square" stroke-linejoin="miter"/><path d="M463.39518,88.90621l18.64474,18.32534" fill="none" stroke="#000000" stroke-width="1" stroke-linecap="butt" stroke-linejoin="round"/><path d="M501.9834,94.69383l-11.26416,-10.60853" fill-opacity="0" fill="#000000" stroke="none" stroke-width="1" stroke-linecap="square" stroke-linejoin="miter"/><path d="M501.9834,94.69383l-11.26416,-10.60853" fill="none" stroke="#000000" stroke-width="1" stroke-linecap="butt" stroke-linejoin="round"/><path d="M401.42396,46.36963l4.39473,18.62381l-1.28596,2.2918l5.13556,15.88635l-1.26097,2.76499l6.72181,26.69757l-10.0749,-20.19935l1.56159,-2.96079l-6.28084,-12.9476l1.78385,-4.19762l-6.62675,-13.58058z" fill="url(#color-13)" stroke="none" stroke-width="1" stroke-linecap="square" stroke-linejoin="miter"/><path d="M399.58314,63.34514l1.1806,-10.97963l-0.09403,14.60831l1.2352,-6.58726l-0.57715,8.49642l1.85174,0.28574l-1.63714,6.97164l0.45586,4.77419l-0.67046,2.57927l0.88578,8.40034l-1.50304,-3.24179l0.10716,7.63669l-0.97981,-3.6287l-0.20147,7.35093l-0.61726,-3.72223l-0.41575,5.92221l-0.41611,-4.01304l-0.92585,8.78723l-0.03975,-8.49644l-1.24866,-1.0494l0.72542,-6.20796l-1.18128,-6.30406l1.39588,-3.24937l-0.98013,-8.40034l1.48991,-1.14551l-0.30863,-10.60032l1.43599,6.97164l0.41575,-11.36651z" fill="url(#color-14)" stroke="none" stroke-width="1" stroke-linecap="square" stroke-linejoin="miter"/><path d="M395.26777,49.44719v0c0,-2.92481 2.89417,-5.29584 6.4643,-5.29584v0c3.57013,0 6.4643,2.37103 6.4643,5.29584v0c0,2.92482 -2.89417,5.29586 -6.4643,5.29586v0c-3.57013,0 -6.4643,-2.37103 -6.4643,-5.29586z" fill="url(#color-15)" stroke="none" stroke-width="1" stroke-linecap="square" stroke-linejoin="miter"/><path d="M395.26777,49.44719v0c0,-2.92481 2.89417,-5.29584 6.4643,-5.29584v0c3.57013,0 6.4643,2.37103 6.4643,5.29584v0c0,2.92482 -2.89417,5.29586 -6.4643,5.29586v0c-3.57013,0 -6.4643,-2.37103 -6.4643,-5.29586z" fill="none" stroke="#000000" stroke-width="1" stroke-linecap="butt" stroke-linejoin="round"/><path d="M514.61716,42.16793l19.10509,14.57063l-28.38899,-8.47275l10.40256,12.63568l-15.46078,-8.78915l-4.28295,13.53255l-10.34613,-15.8106l-10.2564,0.82678l-3.69749,-6.32812l-18.21482,2.07343l9.36456,-9.3816l-15.15498,-3.27436l9.06916,-5.30878l-13.97533,-5.40298l8.52309,-2.57969l-10.74943,-6.22574l8.68749,-0.93841l-15.32837,-11.52101l16.70135,4.23022l4.56411,-8.66924l10.68561,8.66651l14.70818,-5.37336l3.54951,12.04605l18.40456,-2.77077l-0.75533,11.62059l21.35786,3.36324l-16.52633,6.90022l21.40002,9.12448z" fill="#000000" stroke="none" stroke-width="1" stroke-linecap="square" stroke-linejoin="miter"/><path d="M514.61716,42.16793l19.10509,14.57063l-28.38899,-8.47275l10.40256,12.63568l-15.46078,-8.78915l-4.28295,13.53255l-10.34613,-15.8106l-10.2564,0.82678l-3.69749,-6.32812l-18.21482,2.07343l9.36456,-9.3816l-15.15498,-3.27436l9.06916,-5.30878l-13.97533,-5.40298l8.52309,-2.57969l-10.74943,-6.22574l8.68749,-0.93841l-15.32837,-11.52101l16.70135,4.23022l4.56411,-8.66924l10.68561,8.66651l14.70818,-5.37336l3.54951,12.04605l18.40456,-2.77077l-0.75533,11.62059l21.35786,3.36324l-16.52633,6.90022l21.40002,9.12448z" fill="none" stroke="#000000" stroke-width="1" stroke-linecap="butt" stroke-linejoin="round"/><path d="M525.65975,-2.89654l7.06846,-8.22027l-0.56285,10.93701l7.39556,-4.93179l-3.45562,6.36115l11.08699,0.21394l-9.80204,5.21954l2.72928,3.57437l-4.01423,1.93106l5.30348,6.2892l-8.99915,-2.42709l0.64143,5.71746l-5.86633,-2.71674l-1.20643,5.50354l-3.69566,-2.7868l-2.4893,4.43388l-2.49138,-3.0045l-5.54346,6.57885l-0.2379,-6.36114l-7.4763,-0.78568l4.34348,-4.6478l-7.07276,-4.71975l8.35778,-2.43275l-5.86848,-6.28921l8.92056,-0.85762l-1.84786,-7.93629l8.59776,5.21955l2.4893,-8.50992z" fill="#000000" stroke="none" stroke-width="1" stroke-linecap="square" stroke-linejoin="miter"/><path d="M525.65975,-2.89654l7.06846,-8.22027l-0.56285,10.93701l7.39556,-4.93179l-3.45562,6.36115l11.08699,0.21394l-9.80204,5.21954l2.72928,3.57437l-4.01423,1.93106l5.30348,6.2892l-8.99915,-2.42709l0.64143,5.71746l-5.86633,-2.71674l-1.20643,5.50354l-3.69566,-2.7868l-2.4893,4.43388l-2.49138,-3.0045l-5.54346,6.57885l-0.2379,-6.36114l-7.4763,-0.78568l4.34348,-4.6478l-7.07276,-4.71975l8.35778,-2.43275l-5.86848,-6.28921l8.92056,-0.85762l-1.84786,-7.93629l8.59776,5.21955l2.4893,-8.50992z" fill="none" stroke="#000000" stroke-width="1" stroke-linecap="butt" stroke-linejoin="round"/><path d="M385.88503,1.67903l10.81081,-0.81423l-8.13151,7.33552l8.71684,1.74235l-6.94153,2.05436l7.68862,7.99116l-10.62198,-3.24051l-0.59748,4.45735l-4.20401,-1.47313l-0.69685,8.19729l-4.64736,-8.07969l-3.58923,4.49636l-2.22722,-6.06922l-4.74461,3.03845l-0.64277,-4.58382l-4.89539,1.37497l0.36274,-3.88621l-8.57183,0.73196l4.32973,-4.66615l-4.73112,-5.84222l6.35783,-0.21507l-1.66398,-8.33862l7.63014,4.18975l0.29732,-8.59681l6.91439,5.70153l4.30507,-6.91838l2.38895,9.77039l7.77753,-4.25712z" fill="#000000" stroke="none" stroke-width="1" stroke-linecap="square" stroke-linejoin="miter"/><path d="M385.88503,1.67903l10.81081,-0.81423l-8.13151,7.33552l8.71684,1.74235l-6.94153,2.05436l7.68862,7.99116l-10.62198,-3.24051l-0.59748,4.45735l-4.20401,-1.47313l-0.69685,8.19729l-4.64736,-8.07969l-3.58923,4.49636l-2.22722,-6.06922l-4.74461,3.03845l-0.64277,-4.58382l-4.89539,1.37497l0.36274,-3.88621l-8.57183,0.73196l4.32973,-4.66615l-4.73112,-5.84222l6.35783,-0.21507l-1.66398,-8.33862l7.63014,4.18975l0.29732,-8.59681l6.91439,5.70153l4.30507,-6.91838l2.38895,9.77039l7.77753,-4.25712z" fill="none" stroke="#000000" stroke-width="1" stroke-linecap="butt" stroke-linejoin="round"/><path d="M170.22631,266.00978h82.92928v54.99368h-82.92928z" fill="#ffffff" stroke="none" stroke-width="1" stroke-linecap="square" stroke-linejoin="miter"/><path d="M170.22631,266.00978h82.92928v54.99368h-82.92928z" fill="none" stroke="#000000" stroke-width="2" stroke-linecap="butt" stroke-linejoin="round"/><path d="M253.04876,282.78119l-82.89876,27.18018" fill-opacity="0" fill="#000000" stroke="none" stroke-width="1" stroke-linecap="square" stroke-linejoin="miter"/><path d="M253.04876,282.78119l-82.89876,27.18018" fill="none" stroke="#000000" stroke-width="1" stroke-linecap="butt" stroke-linejoin="round"/><path d="M170.48956,266.06446h82.55538v16.71863h-82.55538z" fill="#000000" stroke="none" stroke-width="1" stroke-linecap="square" stroke-linejoin="miter"/><path d="M170.48956,266.06446h82.55538v16.71863h-82.55538z" fill="none" stroke="#000000" stroke-width="1" stroke-linecap="butt" stroke-linejoin="round"/><path d="M170.48956,295.4351l78.48064,-25.33357l4.13578,12.8194l-78.48064,25.33357z" fill="#000000" stroke="none" stroke-width="1" stroke-linecap="square" stroke-linejoin="miter"/><path d="M170.48956,295.4351l78.48064,-25.33357l4.13578,12.8194l-78.48064,25.33357z" fill="none" stroke="#000000" stroke-width="1" stroke-linecap="butt" stroke-linejoin="round"/><path d="M170.22631,266.06446h42.3269v29.72879h-42.3269z" fill="#000000" stroke="none" stroke-width="1" stroke-linecap="square" stroke-linejoin="miter"/><path d="M170.22631,266.06446h42.3269v29.72879h-42.3269z" fill="none" stroke="#000000" stroke-width="1" stroke-linecap="butt" stroke-linejoin="round"/><path d="M170.37757,309.72672l-0.05342,-16.62707l7.20328,12.55233z" fill="#000000" stroke="none" stroke-width="1" stroke-linecap="square" stroke-linejoin="miter"/><path d="M170.37757,309.72672l-0.05342,-16.62707l7.20328,12.55233z" fill="none" stroke="#000000" stroke-width="1" stroke-linecap="butt" stroke-linejoin="round"/><path d="M170.37216,308.30409l4.66992,-1.53375l0.41968,1.27431l-4.66992,1.53375z" fill="#000000" stroke="none" stroke-width="1" stroke-linecap="square" stroke-linejoin="miter"/><path d="M170.37216,308.30409l4.66992,-1.53375l0.41968,1.27431l-4.66992,1.53375z" fill="none" stroke="#000000" stroke-width="1" stroke-linecap="butt" stroke-linejoin="round"/><path d="M194.03821,295.21842v0c-7.70999,0 -13.96017,-3.86046 -13.96017,-8.62257v0c0,-2.87419 0,-5.74838 0,-8.62257c4.65339,0 9.30678,0 13.96017,0c7.70999,0 13.96017,3.86045 13.96017,8.62257v0c0,4.76211 -6.25018,8.62257 -13.96017,8.62257z" fill="#ffffff" stroke="none" stroke-width="1" stroke-linecap="square" stroke-linejoin="miter"/><path d="M194.03821,295.21842v0c-7.70999,0 -13.96017,-3.86046 -13.96017,-8.62257v0c0,-2.87419 0,-5.74838 0,-8.62257c4.65339,0 9.30678,0 13.96017,0c7.70999,0 13.96017,3.86045 13.96017,8.62257v0c0,4.76211 -6.25018,8.62257 -13.96017,8.62257z" fill="none" stroke="#000000" stroke-width="1" stroke-linecap="butt" stroke-linejoin="round"/><path d="M191.14685,286.93668v0c0,-3.44304 3.77334,-6.23419 8.42799,-6.23419v0c4.65465,0 8.42799,2.79115 8.42799,6.23419v0c0,3.44305 -3.77334,6.2342 -8.42799,6.2342v0c-4.65465,0 -8.42799,-2.79115 -8.42799,-6.2342z" fill="#000000" stroke="none" stroke-width="1" stroke-linecap="square" stroke-linejoin="miter"/><path d="M208.00601,286.93923l-27.92797,-0.34338" fill-opacity="0" fill="#000000" stroke="none" stroke-width="1" stroke-linecap="square" stroke-linejoin="miter"/><path d="M208.00601,286.93923l-27.92797,-0.34338" fill="none" stroke="#000000" stroke-width="1" stroke-linecap="butt" stroke-linejoin="round"/><path d="M180.07804,277.97328h12.06016v0c6.66064,0 12.06015,4.41264 12.06015,9.85592c0,5.44327 -5.39951,9.85592 -12.06015,9.85592h-12.06016z" fill="#000000" stroke="none" stroke-width="1" stroke-linecap="square" stroke-linejoin="miter"/><path d="M202.95762,283.33181v0c-2.1261,-1.55295 -3.51996,-3.26283 -3.11329,-3.81911v0c0.19529,-0.26714 0.78817,-0.22709 1.64821,0.11135c0.86004,0.33843 1.91679,0.94752 2.93778,1.69328v0c2.12609,1.55295 3.51996,3.26283 3.11329,3.81911v0c-0.19529,0.26714 -0.78817,0.22709 -1.64822,-0.11135c-0.86004,-0.33843 -1.91679,-0.94752 -2.93777,-1.69328z" fill="#000000" stroke="none" stroke-width="1" stroke-linecap="square" stroke-linejoin="miter"/><path d="M202.95762,283.33181v0c-2.1261,-1.55295 -3.51996,-3.26283 -3.11329,-3.81911v0c0.19529,-0.26714 0.78817,-0.22709 1.64821,0.11135c0.86004,0.33843 1.91679,0.94752 2.93778,1.69328v0c2.12609,1.55295 3.51996,3.26283 3.11329,3.81911v0c-0.19529,0.26714 -0.78817,0.22709 -1.64822,-0.11135c-0.86004,-0.33843 -1.91679,-0.94752 -2.93777,-1.69328z" fill="none" stroke="#000000" stroke-width="1" stroke-linecap="butt" stroke-linejoin="round"/><path d="M203.53789,281.21333v0c-1.40756,-0.86604 -2.47858,-1.68254 -2.39218,-1.82371v0c0.04148,-0.0678 0.34979,0.03239 0.85708,0.27852c0.50729,0.24614 1.17202,0.61805 1.84796,1.03393v0c1.40756,0.86604 2.47859,1.68254 2.39219,1.82372v0c-0.04149,0.06779 -0.34979,-0.0324 -0.85709,-0.27853c-0.50729,-0.24614 -1.17202,-0.61805 -1.84796,-1.03393z" fill="#000000" stroke="none" stroke-width="1" stroke-linecap="square" stroke-linejoin="miter"/><path d="M203.53789,281.21333v0c-1.40756,-0.86604 -2.47858,-1.68254 -2.39218,-1.82371v0c0.04148,-0.0678 0.34979,0.03239 0.85708,0.27852c0.50729,0.24614 1.17202,0.61805 1.84796,1.03393v0c1.40756,0.86604 2.47859,1.68254 2.39219,1.82372v0c-0.04149,0.06779 -0.34979,-0.0324 -0.85709,-0.27853c-0.50729,-0.24614 -1.17202,-0.61805 -1.84796,-1.03393z" fill="none" stroke="#000000" stroke-width="1" stroke-linecap="butt" stroke-linejoin="round"/><path d="M205.88407,283.06098v0c0,-0.2929 0.17252,-0.53033 0.38535,-0.53033v0c0.1022,0 0.20022,0.05587 0.27248,0.15533c0.07227,0.09946 0.11286,0.23435 0.11286,0.375v0c0,0.29289 -0.17252,0.53032 -0.38535,0.53032v0c-0.21282,0 -0.38535,-0.23743 -0.38535,-0.53032z" fill="#000000" stroke="none" stroke-width="1" stroke-linecap="square" stroke-linejoin="miter"/><path d="M201.64241,312.08781v0c6.294,-2.36209 12.63984,-0.96311 14.17383,3.12473l-11.39629,4.27695z" fill-opacity="0" fill="#000000" stroke="none" stroke-width="1" stroke-linecap="square" stroke-linejoin="miter"/><path d="M201.64241,312.08781v0c6.294,-2.36209 12.63984,-0.96311 14.17383,3.12473" fill-opacity="0" fill="#000000" stroke="none" stroke-width="1" stroke-linecap="square" stroke-linejoin="miter"/><path d="M361.84377,420.19208v0c-8.46583,4.40825 -23.94028,-8.54841 -34.56311,-28.93954v0c-5.10126,-9.79217 -8.37861,-20.0242 -9.11105,-28.4452c-0.7324,-8.42099 1.14007,-14.34114 5.20548,-16.45805v0c8.46587,-4.40826 23.94028,8.54842 34.56311,28.93954v0c10.62283,20.39111 12.37144,40.49498 3.90557,44.90323z" fill="url(#color-16)" stroke="none" stroke-width="1" stroke-linecap="square" stroke-linejoin="miter"/><path d="M361.84377,420.19208v0c-8.46583,4.40825 -23.94028,-8.54841 -34.56311,-28.93954v0c-5.10126,-9.79217 -8.37861,-20.0242 -9.11105,-28.4452c-0.7324,-8.42099 1.14007,-14.34114 5.20548,-16.45805v0c8.46587,-4.40826 23.94028,8.54842 34.56311,28.93954v0c10.62283,20.39111 12.37144,40.49498 3.90557,44.90323z" fill="none" stroke="#000000" stroke-width="2" stroke-linecap="butt" stroke-linejoin="round"/><path d="M330.9282,375.71219l36.12106,28.02185" fill-opacity="0" fill="#000000" stroke="none" stroke-width="1" stroke-linecap="square" stroke-linejoin="miter"/><path d="M330.9282,375.71219l36.12106,28.02185" fill="none" stroke="#000000" stroke-width="2" stroke-linecap="butt" stroke-linejoin="round"/><path d="M192.59584,375.28884v0c10.62283,-20.39113 26.09727,-33.3478 34.56312,-28.93955v0c4.06544,2.11692 5.93791,8.03705 5.20548,16.45805c-0.73245,8.42099 -4.00977,18.65303 -9.11105,28.44519v0c-10.62283,20.39113 -26.09727,33.34779 -34.56312,28.93954v0c-8.46585,-4.40825 -6.71726,-24.51213 3.90556,-44.90323z" fill="url(#color-17)" stroke="none" stroke-width="1" stroke-linecap="square" stroke-linejoin="miter"/><path d="M192.59584,375.28884v0c10.62283,-20.39113 26.09727,-33.3478 34.56312,-28.93955v0c4.06544,2.11692 5.93791,8.03705 5.20548,16.45805c-0.73245,8.42099 -4.00977,18.65303 -9.11105,28.44519v0c-10.62283,20.39113 -26.09727,33.34779 -34.56312,28.93954v0c-8.46585,-4.40825 -6.71726,-24.51213 3.90556,-44.90323z" fill="none" stroke="#000000" stroke-width="2" stroke-linecap="butt" stroke-linejoin="round"/><path d="M183.4848,403.73404l34.43508,-21.84338" fill-opacity="0" fill="#000000" stroke="none" stroke-width="1" stroke-linecap="square" stroke-linejoin="miter"/><path d="M183.4848,403.73404l34.43508,-21.84338" fill="none" stroke="#000000" stroke-width="2" stroke-linecap="butt" stroke-linejoin="round"/><path d="M217.91915,361.03035h115.97158v76.90534h-115.97158z" fill="url(#color-18)" stroke="none" stroke-width="1" stroke-linecap="square" stroke-linejoin="miter"/><path d="M217.91915,361.03035h115.97158v76.90534h-115.97158z" fill="none" stroke="#000000" stroke-width="2" stroke-linecap="butt" stroke-linejoin="round"/><path d="M217.81242,422.49398l115.92891,-38.00983" fill-opacity="0" fill="#000000" stroke="none" stroke-width="1" stroke-linecap="square" stroke-linejoin="miter"/><path d="M217.81242,422.49398l115.92891,-38.00983" fill="none" stroke="#000000" stroke-width="1" stroke-linecap="butt" stroke-linejoin="round"/><path d="M218.2873,361.10682h115.4487v23.37999h-115.4487z" fill="#000000" stroke="none" stroke-width="1" stroke-linecap="square" stroke-linejoin="miter"/><path d="M218.2873,361.10682h115.4487v23.37999h-115.4487z" fill="none" stroke="#000000" stroke-width="1" stroke-linecap="butt" stroke-linejoin="round"/><path d="M218.2873,402.17988l109.75041,-35.42746l5.78366,17.92714l-109.75043,35.42746z" fill="#000000" stroke="none" stroke-width="1" stroke-linecap="square" stroke-linejoin="miter"/><path d="M218.2873,402.17988l109.75041,-35.42746l5.78366,17.92714l-109.75043,35.42746z" fill="none" stroke="#000000" stroke-width="1" stroke-linecap="butt" stroke-linejoin="round"/><path d="M217.91915,361.10682h59.19159v41.57392h-59.19159z" fill="#000000" stroke="none" stroke-width="1" stroke-linecap="square" stroke-linejoin="miter"/><path d="M217.91915,361.10682h59.19159v41.57392h-59.19159z" fill="none" stroke="#000000" stroke-width="1" stroke-linecap="butt" stroke-linejoin="round"/><path d="M218.13067,422.16585l-0.07469,-23.25195l10.07335,17.55367z" fill="#000000" stroke="none" stroke-width="1" stroke-linecap="square" stroke-linejoin="miter"/><path d="M218.13067,422.16585l-0.07469,-23.25195l10.07335,17.55367z" fill="none" stroke="#000000" stroke-width="1" stroke-linecap="butt" stroke-linejoin="round"/><path d="M218.1231,420.17638l6.5306,-2.14486l0.58691,1.78204l-6.5306,2.14486z" fill="#000000" stroke="none" stroke-width="1" stroke-linecap="square" stroke-linejoin="miter"/><path d="M218.1231,420.17638l6.5306,-2.14486l0.58691,1.78204l-6.5306,2.14486z" fill="none" stroke="#000000" stroke-width="1" stroke-linecap="butt" stroke-linejoin="round"/><path d="M261.08939,396.00742v0c-3.14118,7.43451 -12.24956,10.6904 -20.34412,7.27223v0c-4.88551,-2.06304 -9.77101,-4.12609 -14.65651,-6.18913c1.89586,-4.48712 3.79172,-8.97424 5.68758,-13.46136c3.14118,-7.43451 12.24955,-10.6904 20.34412,-7.27223v0c8.09458,3.41817 12.1101,12.21599 8.96892,19.65051z" fill="url(#color-19)" stroke="none" stroke-width="1" stroke-linecap="square" stroke-linejoin="miter"/><path d="M261.08939,396.00742v0c-3.14118,7.43451 -12.24956,10.6904 -20.34412,7.27223v0c-4.88551,-2.06304 -9.77101,-4.12609 -14.65651,-6.18913c1.89586,-4.48712 3.79172,-8.97424 5.68758,-13.46136c3.14118,-7.43451 12.24955,-10.6904 20.34412,-7.27223v0c8.09458,3.41817 12.1101,12.21599 8.96892,19.65051z" fill="none" stroke="#000000" stroke-width="1" stroke-linecap="butt" stroke-linejoin="round"/><path d="M222.67197,369.87311l19.56096,0.91079l-0.18409,4.3039l18.65287,-2.40529l0.18998,4.52591l28.63945,0.33756l-28.74559,11.19313l0.0963,-5.33129l-18.17447,6.76835l-0.47347,-6.57158l-19.11813,7.18845z" fill="#000000" stroke="none" stroke-width="1" stroke-linecap="square" stroke-linejoin="miter"/><path d="M222.67197,369.87311l19.56096,0.91079l-0.18409,4.3039l18.65287,-2.40529l0.18998,4.52591l28.63945,0.33756l-28.74559,11.19313l0.0963,-5.33129l-18.17447,6.76835l-0.47347,-6.57158l-19.11813,7.18845z" fill="none" stroke="#000000" stroke-width="1" stroke-linecap="butt" stroke-linejoin="round"/><path d="M192.50865,375.63336l2.78938,11.82074l-0.81621,1.45463l3.2596,10.08325l-0.80035,1.75497l4.26641,16.94527l-6.39465,-12.82076l0.99116,-1.87925l-3.98653,-8.218l1.13223,-2.66427l-4.20607,-8.61975z" fill="url(#color-20)" stroke="none" stroke-width="1" stroke-linecap="square" stroke-linejoin="miter"/><path d="M313.55222,414.27479v0c0.91351,9.57675 -15.10799,18.93594 -35.78492,20.90434c-20.67694,1.96839 -38.17945,-4.1994 -39.09292,-13.77616v0c24.84496,0.5511 50.58424,-1.8992 74.87784,-7.12817z" fill="url(#color-21)" stroke="none" stroke-width="1" stroke-linecap="square" stroke-linejoin="miter"/><path d="M313.55222,414.27479v0c0.91351,9.57675 -15.10799,18.93594 -35.78492,20.90434c-20.67694,1.96839 -38.17945,-4.1994 -39.09292,-13.77616v0c24.84496,0.5511 50.58424,-1.8992 74.87784,-7.12817z" fill="none" stroke="#000000" stroke-width="2" stroke-linecap="butt" stroke-linejoin="round"/><path d="M258.34326,434.57879l-2.07015,-13.13591" fill-opacity="0" fill="#000000" stroke="none" stroke-width="1" stroke-linecap="square" stroke-linejoin="miter"/><path d="M258.34326,434.57879l-2.07015,-13.13591" fill="none" stroke="#000000" stroke-width="1" stroke-linecap="butt" stroke-linejoin="round"/><path d="M276.32006,420.0064l1.45126,15.17405" fill-opacity="0" fill="#000000" stroke="none" stroke-width="1" stroke-linecap="square" stroke-linejoin="miter"/><path d="M276.32006,420.0064l1.45126,15.17405" fill="none" stroke="#000000" stroke-width="1" stroke-linecap="butt" stroke-linejoin="round"/><path d="M298.80383,429.74308l-1.39788,-12.42095" fill-opacity="0" fill="#000000" stroke="none" stroke-width="1" stroke-linecap="square" stroke-linejoin="miter"/><path d="M298.80383,429.74308l-1.39788,-12.42095" fill="none" stroke="#000000" stroke-width="1" stroke-linecap="butt" stroke-linejoin="round"/><path d="M245.69734,430.28909l10.70292,-4.47112" fill-opacity="0" fill="#000000" stroke="none" stroke-width="1" stroke-linecap="square" stroke-linejoin="miter"/><path d="M245.69734,430.28909l10.70292,-4.47112" fill="none" stroke="#000000" stroke-width="1" stroke-linecap="butt" stroke-linejoin="round"/><path d="M256.39848,425.81174l21.37386,9.36907" fill-opacity="0" fill="#000000" stroke="none" stroke-width="1" stroke-linecap="square" stroke-linejoin="miter"/><path d="M256.39848,425.81174l21.37386,9.36907" fill="none" stroke="#000000" stroke-width="1" stroke-linecap="butt" stroke-linejoin="round"/><path d="M285.21562,418.55383l-7.44832,16.62529" fill-opacity="0" fill="#000000" stroke="none" stroke-width="1" stroke-linecap="square" stroke-linejoin="miter"/><path d="M285.21562,418.55383l-7.44832,16.62529" fill="none" stroke="#000000" stroke-width="1" stroke-linecap="butt" stroke-linejoin="round"/><path d="M285.57102,419.55591l11.83404,11.6313" fill-opacity="0" fill="#000000" stroke="none" stroke-width="1" stroke-linecap="square" stroke-linejoin="miter"/><path d="M285.57102,419.55591l11.83404,11.6313" fill="none" stroke="#000000" stroke-width="1" stroke-linecap="butt" stroke-linejoin="round"/><path d="M310.06341,423.22938l-7.14949,-6.73336" fill-opacity="0" fill="#000000" stroke="none" stroke-width="1" stroke-linecap="square" stroke-linejoin="miter"/><path d="M310.06341,423.22938l-7.14949,-6.73336" fill="none" stroke="#000000" stroke-width="1" stroke-linecap="butt" stroke-linejoin="round"/><path d="M246.23717,392.55745l2.78938,11.82074l-0.81621,1.45463l3.2596,10.08325l-0.80035,1.75497l4.26641,16.94525l-6.39465,-12.82076l0.99116,-1.87924l-3.98652,-8.218l1.13223,-2.66427l-4.20607,-8.61975z" fill="url(#color-22)" stroke="none" stroke-width="1" stroke-linecap="square" stroke-linejoin="miter"/><path d="M245.06878,403.332l0.74934,-6.96889l-0.05968,9.27206l0.784,-4.18101l-0.36632,5.39278l1.17532,0.18136l-1.03911,4.42498l0.28934,3.03024l-0.42555,1.63709l0.56222,5.3318l-0.954,-2.0576l0.06802,4.84709l-0.62189,-2.30318l-0.12788,4.66572l-0.39179,-2.36254l-0.26388,3.75889l-0.26411,-2.54712l-0.58765,5.57736l-0.02523,-5.39279l-0.79254,-0.66607l0.46043,-3.94027l-0.74977,-4.00126l0.88598,-2.06241l-0.6221,-5.33179l0.94566,-0.72707l-0.1959,-6.72814l0.91144,4.42498l0.26388,-7.21445z" fill="url(#color-23)" stroke="none" stroke-width="1" stroke-linecap="square" stroke-linejoin="miter"/><path d="M242.32977,394.51081v0c0,-1.85641 1.83696,-3.36133 4.10297,-3.36133v0c2.26601,0 4.10296,1.50492 4.10296,3.36133v0c0,1.85642 -1.83696,3.36135 -4.10296,3.36135v0c-2.26601,0 -4.10297,-1.50492 -4.10297,-3.36135z" fill="url(#color-24)" stroke="none" stroke-width="1" stroke-linecap="square" stroke-linejoin="miter"/><path d="M242.32977,394.51081v0c0,-1.85641 1.83696,-3.36133 4.10297,-3.36133v0c2.26601,0 4.10296,1.50492 4.10296,3.36133v0c0,1.85642 -1.83696,3.36135 -4.10296,3.36135v0c-2.26601,0 -4.10297,-1.50492 -4.10297,-3.36135z" fill="none" stroke="#000000" stroke-width="1" stroke-linecap="butt" stroke-linejoin="round"/><path d="M318.08221,389.89058l12.12622,9.24815l-18.01882,-5.37775l6.60262,8.02002l-9.81313,-5.57858l-2.71843,8.58927l-6.56681,-10.03517l-6.50985,0.52477l-2.34684,-4.01653l-11.56116,1.31603l5.94379,-5.95461l-9.61904,-2.07827l5.7563,-3.36955l-8.8703,-3.42934l5.4097,-1.63735l-6.82279,-3.95155l5.51405,-0.59562l-9.72909,-7.31252l10.60054,2.68497l2.8969,-5.50246l6.78228,5.50073l9.33545,-3.41053l2.25291,7.64576l11.68159,-1.75864l-0.47942,7.37572l13.55608,2.13468l-10.48946,4.37965l13.58284,5.79141z" fill="#000000" stroke="none" stroke-width="1" stroke-linecap="square" stroke-linejoin="miter"/><path d="M318.08221,389.89058l12.12622,9.24815l-18.01882,-5.37775l6.60262,8.02002l-9.81313,-5.57858l-2.71843,8.58927l-6.56681,-10.03517l-6.50985,0.52477l-2.34684,-4.01653l-11.56116,1.31603l5.94379,-5.95461l-9.61904,-2.07827l5.7563,-3.36955l-8.8703,-3.42934l5.4097,-1.63735l-6.82279,-3.95155l5.51405,-0.59562l-9.72909,-7.31252l10.60054,2.68497l2.8969,-5.50246l6.78228,5.50073l9.33545,-3.41053l2.25291,7.64576l11.68159,-1.75864l-0.47942,7.37572l13.55608,2.13468l-10.48946,4.37965l13.58284,5.79141z" fill="none" stroke="#000000" stroke-width="1" stroke-linecap="butt" stroke-linejoin="round"/><path d="M325.09107,361.28764l4.48644,-5.2175l-0.35725,6.94185l4.69405,-3.13027l-2.19333,4.0375l7.03705,0.13579l-6.22147,3.3129l1.7323,2.26869l-2.54788,1.22567l3.36618,3.99183l-5.71186,-1.5405l0.40713,3.62894l-3.72343,-1.72435l-0.76573,3.49316l-2.34568,-1.76882l-1.57999,2.81423l-1.5813,-1.90699l-3.5185,4.17567l-0.151,-4.03749l-4.74529,-0.49868l2.75686,-2.95001l-4.48916,-2.99568l5.30478,-1.54409l-3.72479,-3.99184l5.66199,-0.54434l-1.17286,-5.03726l5.4571,3.31291l1.57999,-5.40134z" fill="#000000" stroke="none" stroke-width="1" stroke-linecap="square" stroke-linejoin="miter"/><path d="M325.09107,361.28764l4.48644,-5.2175l-0.35725,6.94185l4.69405,-3.13027l-2.19333,4.0375l7.03705,0.13579l-6.22147,3.3129l1.7323,2.26869l-2.54788,1.22567l3.36618,3.99183l-5.71186,-1.5405l0.40713,3.62894l-3.72343,-1.72435l-0.76573,3.49316l-2.34568,-1.76882l-1.57999,2.81423l-1.5813,-1.90699l-3.5185,4.17567l-0.151,-4.03749l-4.74529,-0.49868l2.75686,-2.95001l-4.48916,-2.99568l5.30478,-1.54409l-3.72479,-3.99184l5.66199,-0.54434l-1.17286,-5.03726l5.4571,3.31291l1.57999,-5.40134z" fill="none" stroke="#000000" stroke-width="1" stroke-linecap="butt" stroke-linejoin="round"/><path d="M236.37443,364.19181l6.86175,-0.5168l-5.16116,4.65594l5.53268,1.10589l-4.40587,1.30392l4.88005,5.07209l-6.74189,-2.05679l-0.37923,2.82913l-2.66834,-0.93501l-0.4423,5.20292l-2.94973,-5.12827l-2.27813,2.85389l-1.41364,-3.85221l-3.01146,1.92854l-0.40797,-2.9094l-3.10716,0.87271l0.23023,-2.46663l-5.44064,0.46458l2.74813,-2.96166l-3.00289,-3.70812l4.03539,-0.13651l-1.05615,-5.29262l4.84294,2.65928l0.18871,-5.45649l4.38864,3.61883l2.73248,-4.39118l1.51629,6.20138l4.93649,-2.70204z" fill="#000000" stroke="none" stroke-width="1" stroke-linecap="square" stroke-linejoin="miter"/><path d="M236.37443,364.19181l6.86175,-0.5168l-5.16116,4.65594l5.53268,1.10589l-4.40587,1.30392l4.88005,5.07209l-6.74189,-2.05679l-0.37923,2.82913l-2.66834,-0.93501l-0.4423,5.20292l-2.94973,-5.12827l-2.27813,2.85389l-1.41364,-3.85221l-3.01146,1.92854l-0.40797,-2.9094l-3.10716,0.87271l0.23023,-2.46663l-5.44064,0.46458l2.74813,-2.96166l-3.00289,-3.70812l4.03539,-0.13651l-1.05615,-5.29262l4.84294,2.65928l0.18871,-5.45649l4.38864,3.61883l2.73248,-4.39118l1.51629,6.20138l4.93649,-2.70204z" fill="none" stroke="#000000" stroke-width="1" stroke-linecap="butt" stroke-linejoin="round"/></g></g></svg>