<svg version="1.1" xmlns="http://www.w3.org/2000/svg" xmlns:xlink="http://www.w3.org/1999/xlink" width="214.94417" height="252.23012" viewBox="0,0,214.94417,252.23012"><defs><linearGradient x1="339.465" y1="183.97163" x2="332.98463" y2="289.11927" gradientUnits="userSpaceOnUse" id="color-1"><stop offset="0" stop-color="#4d4d4d"/><stop offset="1" stop-color="#000000"/></linearGradient><linearGradient x1="125.29006" y1="223.09734" x2="176.28715" y2="315.27424" gradientUnits="userSpaceOnUse" id="color-2"><stop offset="0" stop-color="#4d4d4d"/><stop offset="1" stop-color="#000000"/></linearGradient><linearGradient x1="323.61751" y1="147.34901" x2="324.85431" y2="252.69366" gradientUnits="userSpaceOnUse" id="color-3"><stop offset="0" stop-color="#4d4d4d"/><stop offset="1" stop-color="#000000"/></linearGradient><linearGradient x1="144.36303" y1="143.82669" x2="144.36267" y2="249.17155" gradientUnits="userSpaceOnUse" id="color-4"><stop offset="0" stop-color="#4d4d4d"/><stop offset="1" stop-color="#000000"/></linearGradient><radialGradient cx="241.37053" cy="183.26072" r="32.98502" fx="241.37053" fy="183.26072" gradientUnits="userSpaceOnUse" id="color-5"><stop offset="0" stop-color="#434343"/><stop offset="0.61" stop-color="#222222"/><stop offset="1" stop-color="#000000"/></radialGradient><radialGradient cx="241.37053" cy="236.64867" r="75.10565" fx="241.37053" fy="236.64867" gradientUnits="userSpaceOnUse" id="color-6"><stop offset="0" stop-color="#434343"/><stop offset="0.61" stop-color="#222222"/><stop offset="1" stop-color="#000000"/></radialGradient><radialGradient cx="309.43473" cy="94.81224" r="45.07583" fx="309.43473" fy="94.81224" gradientUnits="userSpaceOnUse" id="color-7"><stop offset="0" stop-color="#ffffff"/><stop offset="1" stop-color="#b3b3b3"/></radialGradient><radialGradient cx="176.19167" cy="102.5977" r="45.07582" fx="176.19167" fy="102.5977" gradientUnits="userSpaceOnUse" id="color-8"><stop offset="0" stop-color="#ffffff"/><stop offset="1" stop-color="#b3b3b3"/></radialGradient><linearGradient x1="184.74442" y1="72.57148" x2="184.74415" y2="149.47724" gradientUnits="userSpaceOnUse" id="color-9"><stop offset="0" stop-color="#ffffff"/><stop offset="0.49" stop-color="#efefef"/><stop offset="0.9" stop-color="#cccccc"/><stop offset="1" stop-color="#b9b9b9"/><stop offset="1" stop-color="#737373"/></linearGradient><radialGradient cx="213.25755" cy="101.36129" r="21.60376" fx="213.25755" fy="101.36129" gradientUnits="userSpaceOnUse" id="color-10"><stop offset="0" stop-color="#ffffff"/><stop offset="0.56" stop-color="#ffffff"/><stop offset="1" stop-color="#b3b3b3"/></radialGradient><radialGradient cx="166.5818" cy="118.81262" r="21.88616" fx="166.5818" fy="118.81262" gradientUnits="userSpaceOnUse" id="color-11"><stop offset="0" stop-color="#4d4d4d"/><stop offset="1" stop-color="#000000"/></radialGradient><radialGradient cx="250.47089" cy="140.14121" r="46.3175" fx="250.47089" fy="140.14121" gradientUnits="userSpaceOnUse" id="color-12"><stop offset="0" stop-color="#bfbfbf"/><stop offset="1" stop-color="#737373"/></radialGradient><radialGradient cx="215.32718" cy="125.23883" r="21.88616" fx="215.32718" fy="125.23883" gradientUnits="userSpaceOnUse" id="color-13"><stop offset="0" stop-color="#4d4d4d"/><stop offset="1" stop-color="#000000"/></radialGradient><radialGradient cx="211.54766" cy="125.23861" r="17.50369" fx="211.54766" fy="125.23861" gradientUnits="userSpaceOnUse" id="color-14"><stop offset="0" stop-color="#4d4d4d"/><stop offset="1" stop-color="#000000"/></radialGradient><radialGradient cx="214.77014" cy="105.79394" r="6.23831" fx="214.77014" fy="105.79394" gradientUnits="userSpaceOnUse" id="color-15"><stop offset="0" stop-color="#4d4d4d"/><stop offset="1" stop-color="#000000"/></radialGradient></defs><g transform="translate(-124.9892,-56.03003)"><g data-paper-data="{&quot;isPaintingLayer&quot;:true}" fill-rule="evenodd" stroke-miterlimit="10" stroke-dasharray="" stroke-dashoffset="0" style="mix-blend-mode: normal"><path d="M232.57018,273.71413c1.74036,-3.34486 2.52117,-5.11844 13.31636,-10.68586c10.79515,-5.56743 40.90879,-11.86197 51.45472,-22.71874c10.54593,-10.85677 4.81997,-33.07257 11.82086,-42.42193c7.0009,-9.34937 28.66649,-15.49367 30.1845,-13.6742c1.518,1.81949 -17.33671,13.69822 -21.0765,24.59109c-3.73979,10.89287 6.12085,29.81635 -1.36239,40.76611c-7.48324,10.94976 -29.95975,19.34469 -43.53701,24.93251c-13.57725,5.5878 -31.12635,8.72587 -37.92645,8.59436c-6.8001,-0.1315 -4.61447,-6.03846 -2.87409,-9.38332z" fill="url(#color-1)" stroke="none" stroke-width="1" stroke-linecap="square" stroke-linejoin="miter"/><path d="M232.57018,273.71413c1.74036,-3.34486 2.52117,-5.11844 13.31636,-10.68586c10.79515,-5.56743 40.90879,-11.86197 51.45472,-22.71874c10.54593,-10.85677 4.81997,-33.07257 11.82086,-42.42193c7.0009,-9.34937 28.66649,-15.49367 30.1845,-13.6742c1.518,1.81949 -17.33671,13.69822 -21.0765,24.59109c-3.73979,10.89287 6.12085,29.81635 -1.36239,40.76611c-7.48324,10.94976 -29.95975,19.34469 -43.53701,24.93251c-13.57725,5.5878 -31.12635,8.72587 -37.92645,8.59436c-6.8001,-0.1315 -4.61447,-6.03846 -2.87409,-9.38332z" fill="none" stroke="#000000" stroke-width="1" stroke-linecap="butt" stroke-linejoin="round"/><path d="M260.35772,258.24933c3.00786,2.27353 7.51783,6.66974 1.43308,9.7081c-6.08474,3.03834 -23.28071,7.73899 -37.94148,8.52193c-14.66076,0.78296 -38.56373,2.85167 -50.0231,-3.82422c-11.45937,-6.67588 -10.67889,-27.99937 -18.73312,-36.23109c-8.05424,-8.23172 -30.18204,-10.8643 -29.59233,-13.15921c0.58971,-2.29494 22.79404,-6.048 33.13067,-0.61036c10.33664,5.43764 14.70373,27.95925 28.88912,33.2362c14.18538,5.27695 44.08364,-1.96761 56.22316,-1.5745c12.13954,0.39313 13.60612,1.6596 16.61398,3.93315z" fill="url(#color-2)" stroke="none" stroke-width="1" stroke-linecap="square" stroke-linejoin="miter"/><path d="M260.35772,258.24933c3.00786,2.27353 7.51783,6.66974 1.43308,9.7081c-6.08474,3.03834 -23.28071,7.73899 -37.94148,8.52193c-14.66076,0.78296 -38.56373,2.85167 -50.0231,-3.82422c-11.45937,-6.67588 -10.67889,-27.99937 -18.73312,-36.23109c-8.05424,-8.23172 -30.18204,-10.8643 -29.59233,-13.15921c0.58971,-2.29494 22.79404,-6.048 33.13067,-0.61036c10.33664,5.43764 14.70373,27.95925 28.88912,33.2362c14.18538,5.27695 44.08364,-1.96761 56.22316,-1.5745c12.13954,0.39313 13.60612,1.6596 16.61398,3.93315z" fill="none" stroke="#000000" stroke-width="1" stroke-linecap="butt" stroke-linejoin="round"/><path d="M223.57674,244.68266c1.49084,-3.4635 2.1397,-5.28958 12.49868,-11.63283c10.359,-6.34329 39.93215,-14.82645 49.6552,-26.42684c9.7231,-11.6004 2.38533,-33.33826 8.6831,-43.17563c6.29772,-9.83735 27.45618,-17.55206 29.10343,-15.84854c1.64725,1.70352 -16.28776,14.93164 -19.22004,26.06962c-2.93223,11.138 8.28817,29.28942 1.62657,40.75829c-6.66165,11.46886 -28.46404,21.48762 -41.59627,28.05496c-13.13223,6.56735 -30.40522,10.98225 -37.19698,11.34907c-6.79176,0.36683 -5.0445,-5.68459 -3.55366,-9.14808z" fill="url(#color-3)" stroke="none" stroke-width="1" stroke-linecap="square" stroke-linejoin="miter"/><path d="M223.57674,244.68266c1.49084,-3.4635 2.1397,-5.28958 12.49868,-11.63283c10.359,-6.34329 39.93215,-14.82645 49.6552,-26.42684c9.7231,-11.6004 2.38533,-33.33826 8.6831,-43.17563c6.29772,-9.83735 27.45618,-17.55206 29.10343,-15.84854c1.64725,1.70352 -16.28776,14.93164 -19.22004,26.06962c-2.93223,11.138 8.28817,29.28942 1.62657,40.75829c-6.66165,11.46886 -28.46404,21.48762 -41.59627,28.05496c-13.13223,6.56735 -30.40522,10.98225 -37.19698,11.34907c-6.79176,0.36683 -5.0445,-5.68459 -3.55366,-9.14808z" fill="none" stroke="#000000" stroke-width="1" stroke-linecap="butt" stroke-linejoin="round"/><path d="M245.53242,239.9731c1.53126,3.44553 3.34932,9.47563 -3.44584,9.18855c-6.79514,-0.28708 -24.1176,-4.49867 -37.3251,-10.91101c-13.20748,-6.41234 -35.12453,-16.17386 -41.91981,-27.56301c-6.79531,-11.38913 4.21056,-29.66974 1.14801,-40.77181c-3.06256,-11.10206 -21.15036,-24.11791 -19.52335,-25.84053c1.62703,-1.72262 22.87314,5.74274 29.28547,15.50484c6.41234,9.76212 -0.66931,31.58312 9.18855,43.06785c9.85787,11.48472 39.52657,19.61967 49.95858,25.84053c10.43201,6.22086 11.10221,8.03905 12.6335,11.48458z" fill="url(#color-4)" stroke="none" stroke-width="1" stroke-linecap="square" stroke-linejoin="miter"/><path d="M245.53242,239.9731c1.53126,3.44553 3.34932,9.47563 -3.44584,9.18855c-6.79514,-0.28708 -24.1176,-4.49867 -37.3251,-10.91101c-13.20748,-6.41234 -35.12453,-16.17386 -41.91981,-27.56301c-6.79531,-11.38913 4.21056,-29.66974 1.14801,-40.77181c-3.06256,-11.10206 -21.15036,-24.11791 -19.52335,-25.84053c1.62703,-1.72262 22.87314,5.74274 29.28547,15.50484c6.41234,9.76212 -0.66931,31.58312 9.18855,43.06785c9.85787,11.48472 39.52657,19.61967 49.95858,25.84053c10.43201,6.22086 11.10221,8.03905 12.6335,11.48458z" fill="none" stroke="#000000" stroke-width="1" stroke-linecap="butt" stroke-linejoin="round"/><path d="M262.39913,157.84792l-21.02861,50.82561l-21.02856,-50.82561z" fill="url(#color-5)" stroke="none" stroke-width="1" stroke-linecap="square" stroke-linejoin="miter"/><path d="M262.39913,157.84792l-21.02861,50.82561l-21.02856,-50.82561z" fill="none" stroke="#000000" stroke-width="1" stroke-linecap="butt" stroke-linejoin="round"/><path d="M265.53701,307.76015h-48.33294l9.66658,-142.22294h28.99975z" fill="url(#color-6)" stroke="none" stroke-width="1" stroke-linecap="square" stroke-linejoin="miter"/><path d="M265.53701,307.76015h-48.33294l9.66658,-142.22294h28.99975z" fill="none" stroke="#000000" stroke-width="1" stroke-linecap="butt" stroke-linejoin="round"/><path d="M328.66906,131.73361v0c-8.46583,4.40825 -23.94029,-8.54842 -34.56312,-28.93954v0c-5.10126,-9.79216 -8.3786,-20.0242 -9.11104,-28.44519c-0.7324,-8.42099 1.14007,-14.34114 5.20548,-16.45805v0c8.46587,-4.40825 23.94028,8.54842 34.56311,28.93954v0c10.62283,20.39111 12.37144,40.49498 3.90557,44.90323z" fill="url(#color-7)" stroke="none" stroke-width="1" stroke-linecap="square" stroke-linejoin="miter"/><path d="M328.66906,131.73361v0c-8.46583,4.40825 -23.94029,-8.54842 -34.56312,-28.93954v0c-5.10126,-9.79216 -8.3786,-20.0242 -9.11104,-28.44519c-0.7324,-8.42099 1.14007,-14.34114 5.20548,-16.45805v0c8.46587,-4.40825 23.94028,8.54842 34.56311,28.93954v0c10.62283,20.39111 12.37144,40.49498 3.90557,44.90323z" fill="none" stroke="#000000" stroke-width="2" stroke-linecap="butt" stroke-linejoin="round"/><path d="M333.87455,115.27559l-36.12106,-28.02185" fill-opacity="0" fill="#000000" stroke="none" stroke-width="1" stroke-linecap="square" stroke-linejoin="miter"/><path d="M333.87455,115.27559l-36.12106,-28.02185" fill="none" stroke="#000000" stroke-width="2" stroke-linecap="butt" stroke-linejoin="round"/><path d="M159.41643,98.44165v0c5.53341,-22.31645 17.52966,-38.54678 26.79437,-36.25145v0c4.44906,1.10224 7.66033,6.41656 8.92736,14.77385c1.267,8.35729 0.48601,19.07295 -2.17124,29.7897v0c-5.53341,22.31645 -17.52966,38.54677 -26.79437,36.25145v0c-9.26471,-2.29532 -12.28951,-22.24711 -6.75611,-44.56354z" fill="url(#color-8)" stroke="none" stroke-width="1" stroke-linecap="square" stroke-linejoin="miter"/><path d="M159.41643,98.44165v0c5.53341,-22.31645 17.52966,-38.54678 26.79437,-36.25145v0c4.44906,1.10224 7.66033,6.41656 8.92736,14.77385c1.267,8.35729 0.48601,19.07295 -2.17124,29.7897v0c-5.53341,22.31645 -17.52966,38.54677 -26.79437,36.25145v0c-9.26471,-2.29532 -12.28951,-22.24711 -6.75611,-44.56354z" fill="none" stroke="#000000" stroke-width="2" stroke-linecap="butt" stroke-linejoin="round"/><path d="M157.24517,128.23136l28.33752,-29.32393" fill-opacity="0" fill="#000000" stroke="none" stroke-width="1" stroke-linecap="square" stroke-linejoin="miter"/><path d="M157.24517,128.23136l28.33752,-29.32393" fill="none" stroke="#000000" stroke-width="2" stroke-linecap="butt" stroke-linejoin="round"/><path d="M184.74444,72.5719h115.97157v76.90534h-115.97157z" fill="url(#color-9)" stroke="none" stroke-width="1" stroke-linecap="square" stroke-linejoin="miter"/><path d="M184.74444,72.5719h115.97157v76.90534h-115.97157z" fill="none" stroke="#000000" stroke-width="2" stroke-linecap="butt" stroke-linejoin="round"/><path d="M184.63771,134.03553l115.92891,-38.00983" fill-opacity="0" fill="#000000" stroke="none" stroke-width="1" stroke-linecap="square" stroke-linejoin="miter"/><path d="M184.63771,134.03553l115.92891,-38.00983" fill="none" stroke="#000000" stroke-width="1" stroke-linecap="butt" stroke-linejoin="round"/><path d="M185.11259,72.64837h115.4487v23.37999h-115.4487z" fill="#000000" stroke="none" stroke-width="1" stroke-linecap="square" stroke-linejoin="miter"/><path d="M185.11259,72.64837h115.4487v23.37999h-115.4487z" fill="none" stroke="#000000" stroke-width="1" stroke-linecap="butt" stroke-linejoin="round"/><path d="M185.11259,113.72143l109.75041,-35.42746l5.78366,17.92714l-109.75043,35.42747z" fill="#000000" stroke="none" stroke-width="1" stroke-linecap="square" stroke-linejoin="miter"/><path d="M185.11259,113.72143l109.75041,-35.42746l5.78366,17.92714l-109.75043,35.42747z" fill="none" stroke="#000000" stroke-width="1" stroke-linecap="butt" stroke-linejoin="round"/><path d="M184.74444,72.64837h59.19159v41.57392h-59.19159z" fill="#000000" stroke="none" stroke-width="1" stroke-linecap="square" stroke-linejoin="miter"/><path d="M184.74444,72.64837h59.19159v41.57392h-59.19159z" fill="none" stroke="#000000" stroke-width="1" stroke-linecap="butt" stroke-linejoin="round"/><path d="M184.95596,133.7074l-0.07469,-23.25195l10.07335,17.55368z" fill="#000000" stroke="none" stroke-width="1" stroke-linecap="square" stroke-linejoin="miter"/><path d="M184.95596,133.7074l-0.07469,-23.25195l10.07335,17.55368z" fill="none" stroke="#000000" stroke-width="1" stroke-linecap="butt" stroke-linejoin="round"/><path d="M184.94839,131.71793l6.5306,-2.14486l0.58691,1.78204l-6.5306,2.14486z" fill="#000000" stroke="none" stroke-width="1" stroke-linecap="square" stroke-linejoin="miter"/><path d="M184.94839,131.71793l6.5306,-2.14486l0.58691,1.78204l-6.5306,2.14486z" fill="none" stroke="#000000" stroke-width="1" stroke-linecap="butt" stroke-linejoin="round"/><path d="M227.91468,107.54897v0c-3.14118,7.43451 -12.24955,10.69041 -20.34411,7.27224v0c-4.88551,-2.06304 -9.77101,-4.12609 -14.65651,-6.18914c1.89586,-4.48712 3.79172,-8.97424 5.68759,-13.46136c3.14118,-7.43451 12.24955,-10.6904 20.34411,-7.27223v0c8.09458,3.41817 12.1101,12.21599 8.96892,19.6505z" fill="url(#color-10)" stroke="none" stroke-width="1" stroke-linecap="square" stroke-linejoin="miter"/><path d="M227.91468,107.54897v0c-3.14118,7.43451 -12.24955,10.69041 -20.34411,7.27224v0c-4.88551,-2.06304 -9.77101,-4.12609 -14.65651,-6.18914c1.89586,-4.48712 3.79172,-8.97424 5.68759,-13.46136c3.14118,-7.43451 12.24955,-10.6904 20.34411,-7.27223v0c8.09458,3.41817 12.1101,12.21599 8.96892,19.6505z" fill="none" stroke="#000000" stroke-width="1" stroke-linecap="butt" stroke-linejoin="round"/><path d="M189.49726,81.41466l19.56096,0.91079l-0.18408,4.30391l18.65287,-2.40529l0.18998,4.52591l28.63944,0.33756l-28.74559,11.19312l0.0963,-5.33129l-18.17447,6.76836l-0.47347,-6.57158l-19.11813,7.18845z" fill="#000000" stroke="none" stroke-width="1" stroke-linecap="square" stroke-linejoin="miter"/><path d="M189.49726,81.41466l19.56096,0.91079l-0.18408,4.30391l18.65287,-2.40529l0.18998,4.52591l28.63944,0.33756l-28.74559,11.19312l0.0963,-5.33129l-18.17447,6.76836l-0.47347,-6.57158l-19.11813,7.18845z" fill="none" stroke="#000000" stroke-width="1" stroke-linecap="butt" stroke-linejoin="round"/><path d="M159.41264,98.79702l5.48916,10.8342l-0.45151,1.6057l5.53789,9.03486l-0.36552,1.89391l8.12908,15.46811l-9.22846,-10.95897l0.52178,-2.05955l-5.80612,-7.05102l0.47441,-2.85574l-6.11393,-7.38993z" fill="url(#color-11)" stroke="none" stroke-width="1" stroke-linecap="square" stroke-linejoin="miter"/><path d="M223.0984,132.98442l2.07015,13.13591" fill-opacity="0" fill="#000000" stroke="none" stroke-width="1" stroke-linecap="square" stroke-linejoin="miter"/><path d="M244.59661,146.72201l-1.45126,-15.17406" fill-opacity="0" fill="#000000" stroke="none" stroke-width="1" stroke-linecap="square" stroke-linejoin="miter"/><path d="M265.62912,141.28463l-1.39788,-12.42095" fill-opacity="0" fill="#000000" stroke="none" stroke-width="1" stroke-linecap="square" stroke-linejoin="miter"/><path d="M212.52263,141.83064l10.70292,-4.47113" fill-opacity="0" fill="#000000" stroke="none" stroke-width="1" stroke-linecap="square" stroke-linejoin="miter"/><path d="M244.59763,146.72236l-21.37386,-9.36907" fill-opacity="0" fill="#000000" stroke="none" stroke-width="1" stroke-linecap="square" stroke-linejoin="miter"/><path d="M244.59259,146.72066l7.44832,-16.6253" fill-opacity="0" fill="#000000" stroke="none" stroke-width="1" stroke-linecap="square" stroke-linejoin="miter"/><path d="M252.39631,131.09746l11.83404,11.6313" fill-opacity="0" fill="#000000" stroke="none" stroke-width="1" stroke-linecap="square" stroke-linejoin="miter"/><path d="M276.8887,134.77093l-7.14949,-6.73336" fill-opacity="0" fill="#000000" stroke="none" stroke-width="1" stroke-linecap="square" stroke-linejoin="miter"/><path d="M294.39831,125.46676v0c1.09603,11.49021 -18.12659,22.71937 -42.93481,25.08106c-24.80822,2.36167 -45.80777,-5.03845 -46.90374,-16.52865v0c29.80902,0.66121 60.69105,-2.27867 89.83856,-8.5524z" fill="url(#color-12)" stroke="none" stroke-width="1" stroke-linecap="square" stroke-linejoin="miter"/><path d="M294.39831,125.46676v0c1.09603,11.49021 -18.12659,22.71937 -42.93481,25.08106c-24.80822,2.36167 -45.80777,-5.03845 -46.90374,-16.52865v0c29.80902,0.66121 60.69105,-2.27867 89.83856,-8.5524z" fill="none" stroke="#000000" stroke-width="2" stroke-linecap="butt" stroke-linejoin="round"/><path d="M228.15851,149.82754l-2.48378,-15.76049" fill="none" stroke="#000000" stroke-width="1" stroke-linecap="butt" stroke-linejoin="round"/><path d="M249.7271,132.34355l1.74122,18.20586" fill="none" stroke="#000000" stroke-width="1" stroke-linecap="butt" stroke-linejoin="round"/><path d="M276.70317,144.02564l-1.67718,-14.90268" fill="none" stroke="#000000" stroke-width="1" stroke-linecap="butt" stroke-linejoin="round"/><path d="M225.8273,139.31627l-12.84138,5.36446" fill="none" stroke="#000000" stroke-width="1" stroke-linecap="butt" stroke-linejoin="round"/><path d="M251.46955,150.54983l-25.64439,-11.24102" fill="none" stroke="#000000" stroke-width="1" stroke-linecap="butt" stroke-linejoin="round"/><path d="M251.4635,150.54782l8.93651,-19.94706" fill="none" stroke="#000000" stroke-width="1" stroke-linecap="butt" stroke-linejoin="round"/><path d="M275.02491,145.75832l-14.19849,-13.95526" fill="none" stroke="#000000" stroke-width="1" stroke-linecap="butt" stroke-linejoin="round"/><path d="M281.63446,128.1318l8.57797,8.0787" fill="none" stroke="#000000" stroke-width="1" stroke-linecap="butt" stroke-linejoin="round"/><path d="M213.06246,104.099l2.78939,11.82075l-0.81621,1.45463l3.25959,10.08325l-0.80035,1.75497l4.26641,16.94526l-6.39465,-12.82076l0.99116,-1.87924l-3.98653,-8.218l1.13223,-2.66428l-4.20607,-8.61975z" fill="url(#color-13)" stroke="none" stroke-width="1" stroke-linecap="square" stroke-linejoin="miter"/><path d="M211.69671,114.87355l0.74934,-6.96889l-0.05968,9.27206l0.784,-4.18101l-0.36633,5.39278l1.17532,0.18136l-1.03911,4.42498l0.28934,3.03023l-0.42555,1.63709l0.56222,5.3318l-0.95399,-2.0576l0.06802,4.8471l-0.6219,-2.30318l-0.12787,4.66572l-0.39178,-2.36254l-0.26388,3.75889l-0.26411,-2.54713l-0.58765,5.57736l-0.02523,-5.39279l-0.79253,-0.66607l0.46043,-3.94026l-0.74977,-4.00126l0.88598,-2.06242l-0.6221,-5.33179l0.94566,-0.72707l-0.19589,-6.72814l0.91144,4.42498l0.26388,-7.21446z" fill="url(#color-14)" stroke="none" stroke-width="1" stroke-linecap="square" stroke-linejoin="miter"/><path d="M209.94448,105.79394v0c0,-2.1834 2.16053,-3.9534 4.82566,-3.9534v0c2.66515,0 4.82567,1.77 4.82567,3.9534v0c0,2.1834 -2.16053,3.95342 -4.82567,3.95342v0c-2.66515,0 -4.82566,-1.77 -4.82566,-3.95341z" fill="url(#color-15)" stroke="none" stroke-width="1" stroke-linecap="square" stroke-linejoin="miter"/><path d="M209.15506,106.05236v0c0,-1.85641 1.83696,-3.36133 4.10296,-3.36133v0c2.26601,0 4.10297,1.50492 4.10297,3.36133v0c0,1.85641 -1.83696,3.36135 -4.10297,3.36135v0c-2.26601,0 -4.10296,-1.50492 -4.10296,-3.36134z" fill="none" stroke="#000000" stroke-width="1" stroke-linecap="butt" stroke-linejoin="round"/><path d="M284.9075,101.43213l12.12622,9.24815l-18.01882,-5.37775l6.60262,8.02002l-9.81313,-5.57858l-2.71843,8.58926l-6.56681,-10.03517l-6.50986,0.52476l-2.34684,-4.01653l-11.56116,1.31603l5.9438,-5.95461l-9.61904,-2.07828l5.7563,-3.36955l-8.87031,-3.42933l5.40971,-1.63735l-6.82279,-3.95155l5.51405,-0.59562l-9.7291,-7.31252l10.60054,2.68497l2.8969,-5.50247l6.78228,5.50073l9.33545,-3.41053l2.25291,7.64576l11.68159,-1.75864l-0.47942,7.37573l13.55608,2.13469l-10.48946,4.37965l13.58284,5.79142z" fill="#000000" stroke="none" stroke-width="1" stroke-linecap="square" stroke-linejoin="miter"/><path d="M284.9075,101.43213l12.12622,9.24815l-18.01882,-5.37775l6.60262,8.02002l-9.81313,-5.57858l-2.71843,8.58926l-6.56681,-10.03517l-6.50986,0.52476l-2.34684,-4.01653l-11.56116,1.31603l5.9438,-5.95461l-9.61904,-2.07828l5.7563,-3.36955l-8.87031,-3.42933l5.40971,-1.63735l-6.82279,-3.95155l5.51405,-0.59562l-9.7291,-7.31252l10.60054,2.68497l2.8969,-5.50247l6.78228,5.50073l9.33545,-3.41053l2.25291,7.64576l11.68159,-1.75864l-0.47942,7.37573l13.55608,2.13469l-10.48946,4.37965l13.58284,5.79142z" fill="none" stroke="#000000" stroke-width="1" stroke-linecap="butt" stroke-linejoin="round"/><path d="M291.91636,72.82919l4.48643,-5.2175l-0.35725,6.94185l4.69405,-3.13026l-2.19333,4.0375l7.03704,0.13579l-6.22147,3.3129l1.73231,2.2687l-2.54788,1.22566l3.36618,3.99183l-5.71186,-1.54051l0.40713,3.62894l-3.72343,-1.72434l-0.76574,3.49316l-2.34568,-1.76882l-1.57999,2.81424l-1.58131,-1.90699l-3.5185,4.17567l-0.151,-4.03749l-4.74529,-0.49868l2.75686,-2.95001l-4.48916,-2.99568l5.30478,-1.54409l-3.72479,-3.99183l5.66198,-0.54434l-1.17286,-5.03726l5.4571,3.31291l1.57999,-5.40134z" fill="#000000" stroke="none" stroke-width="1" stroke-linecap="square" stroke-linejoin="miter"/><path d="M291.91636,72.82919l4.48643,-5.2175l-0.35725,6.94185l4.69405,-3.13026l-2.19333,4.0375l7.03704,0.13579l-6.22147,3.3129l1.73231,2.2687l-2.54788,1.22566l3.36618,3.99183l-5.71186,-1.54051l0.40713,3.62894l-3.72343,-1.72434l-0.76574,3.49316l-2.34568,-1.76882l-1.57999,2.81424l-1.58131,-1.90699l-3.5185,4.17567l-0.151,-4.03749l-4.74529,-0.49868l2.75686,-2.95001l-4.48916,-2.99568l5.30478,-1.54409l-3.72479,-3.99183l5.66198,-0.54434l-1.17286,-5.03726l5.4571,3.31291l1.57999,-5.40134z" fill="none" stroke="#000000" stroke-width="1" stroke-linecap="butt" stroke-linejoin="round"/><path d="M203.19972,75.73336l6.86175,-0.5168l-5.16117,4.65594l5.53268,1.10589l-4.40587,1.30392l4.88005,5.07209l-6.74189,-2.05679l-0.37923,2.82913l-2.66833,-0.93501l-0.4423,5.20291l-2.94973,-5.12828l-2.27813,2.85389l-1.41364,-3.8522l-3.01146,1.92854l-0.40798,-2.9094l-3.10716,0.87271l0.23023,-2.46662l-5.44064,0.46458l2.74813,-2.96166l-3.00289,-3.70813l4.03539,-0.13651l-1.05615,-5.29261l4.84294,2.65928l0.18871,-5.4565l4.38864,3.61883l2.73248,-4.39118l1.51629,6.20138l4.93649,-2.70204z" fill="#000000" stroke="none" stroke-width="1" stroke-linecap="square" stroke-linejoin="miter"/><path d="M203.19972,75.73336l6.86175,-0.5168l-5.16117,4.65594l5.53268,1.10589l-4.40587,1.30392l4.88005,5.07209l-6.74189,-2.05679l-0.37923,2.82913l-2.66833,-0.93501l-0.4423,5.20291l-2.94973,-5.12828l-2.27813,2.85389l-1.41364,-3.8522l-3.01146,1.92854l-0.40798,-2.9094l-3.10716,0.87271l0.23023,-2.46662l-5.44064,0.46458l2.74813,-2.96166l-3.00289,-3.70813l4.03539,-0.13651l-1.05615,-5.29261l4.84294,2.65928l0.18871,-5.4565l4.38864,3.61883l2.73248,-4.39118l1.51629,6.20138l4.93649,-2.70204z" fill="none" stroke="#000000" stroke-width="1" stroke-linecap="butt" stroke-linejoin="round"/></g></g></svg>