<svg version="1.1" xmlns="http://www.w3.org/2000/svg" xmlns:xlink="http://www.w3.org/1999/xlink" width="170.44769" height="239.28775" viewBox="0,0,170.44769,239.28775"><g transform="translate(-154.01376,-67.87426)"><g data-paper-data="{&quot;isPaintingLayer&quot;:true}" fill-rule="evenodd" stroke-miterlimit="10" stroke-dasharray="" stroke-dashoffset="0" style="mix-blend-mode: normal"><path d="M318.54943,137.30925v0c-7.75545,4.03834 -21.93139,-7.8311 -31.66281,-26.51114v0c-4.67321,-8.97048 -7.67553,-18.34391 -8.3465,-26.05827c-0.67097,-7.71436 1.04437,-13.13772 4.76867,-15.077v0c7.75545,-4.03834 21.93138,7.83109 31.66282,26.51114v0c9.73144,18.68003 11.33329,37.09693 3.57782,41.13527z" fill="#ffffff" stroke="none" stroke-width="1" stroke-linecap="square" stroke-linejoin="miter"/><path d="M318.54943,137.30925v0c-7.75545,4.03834 -21.93139,-7.8311 -31.66281,-26.51114v0c-4.67321,-8.97048 -7.67553,-18.34391 -8.3465,-26.05827c-0.67097,-7.71436 1.04437,-13.13772 4.76867,-15.077v0c7.75545,-4.03834 21.93138,7.83109 31.66282,26.51114v0c9.73144,18.68003 11.33329,37.09693 3.57782,41.13527z" fill="none" stroke="#000000" stroke-width="2" stroke-linecap="butt" stroke-linejoin="round"/><path d="M290.22806,96.5618l33.09004,25.67045" fill-opacity="0" fill="#000000" stroke="none" stroke-width="1" stroke-linecap="square" stroke-linejoin="miter"/><path d="M290.22806,96.5618l33.09004,25.67045" fill="none" stroke="#000000" stroke-width="2" stroke-linecap="butt" stroke-linejoin="round"/><path d="M163.50361,96.17397v0c9.73144,-18.68005 23.90736,-30.54948 31.66282,-26.51114v0c3.7243,1.93928 5.43965,7.36264 4.76867,15.077c-0.67097,7.71436 -3.6733,17.0878 -8.3465,26.05827v0c-9.73144,18.68005 -23.90737,30.54948 -31.66282,26.51114v0c-7.75546,-4.03835 -6.1536,-22.45524 3.57783,-41.13527z" fill="#ffffff" stroke="none" stroke-width="1" stroke-linecap="square" stroke-linejoin="miter"/><path d="M163.50361,96.17397v0c9.73144,-18.68005 23.90736,-30.54948 31.66282,-26.51114v0c3.7243,1.93928 5.43965,7.36264 4.76867,15.077c-0.67097,7.71436 -3.6733,17.0878 -8.3465,26.05827v0c-9.73144,18.68005 -23.90737,30.54948 -31.66282,26.51114v0c-7.75546,-4.03835 -6.1536,-22.45524 3.57783,-41.13527z" fill="none" stroke="#000000" stroke-width="2" stroke-linecap="butt" stroke-linejoin="round"/><path d="M155.15711,122.23225l31.54552,-20.01043" fill-opacity="0" fill="#000000" stroke="none" stroke-width="1" stroke-linecap="square" stroke-linejoin="miter"/><path d="M155.15711,122.23225l31.54552,-20.01043" fill="none" stroke="#000000" stroke-width="2" stroke-linecap="butt" stroke-linejoin="round"/><path d="M267.60393,169.32935l-27.78195,46.56068l-27.78195,-46.56068z" fill="#000000" stroke="none" stroke-width="1" stroke-linecap="square" stroke-linejoin="miter"/><path d="M267.60393,169.32935l-27.78195,46.56068l-27.78195,-46.56068z" fill="none" stroke="#000000" stroke-width="1" stroke-linecap="butt" stroke-linejoin="round"/><path d="M271.74955,306.66201h-63.85515l12.77103,-130.28859h38.31309z" fill="#000000" stroke="none" stroke-width="1" stroke-linecap="square" stroke-linejoin="miter"/><path d="M271.74955,306.66201h-63.85515l12.77103,-130.28859h38.31309z" fill="none" stroke="#000000" stroke-width="1" stroke-linecap="butt" stroke-linejoin="round"/><path d="M186.70195,83.11195h106.24005v70.45198h-106.24005z" fill="#ffffff" stroke="none" stroke-width="1" stroke-linecap="square" stroke-linejoin="miter"/><path d="M186.70195,83.11195h106.24005v70.45198h-106.24005z" fill="none" stroke="#000000" stroke-width="2" stroke-linecap="butt" stroke-linejoin="round"/><path d="M292.80515,104.59767l-106.20095,34.82031" fill-opacity="0" fill="#000000" stroke="none" stroke-width="1" stroke-linecap="square" stroke-linejoin="miter"/><path d="M292.80515,104.59767l-106.20095,34.82031" fill="none" stroke="#000000" stroke-width="1" stroke-linecap="butt" stroke-linejoin="round"/><path d="M187.03921,83.18201h105.76106v21.4181h-105.76106z" fill="#000000" stroke="none" stroke-width="1" stroke-linecap="square" stroke-linejoin="miter"/><path d="M187.03921,83.18201h105.76106v21.4181h-105.76106z" fill="none" stroke="#000000" stroke-width="1" stroke-linecap="butt" stroke-linejoin="round"/><path d="M187.03921,120.8085l100.54094,-32.45463l5.29832,16.42283l-100.54094,32.45463z" fill="#000000" stroke="none" stroke-width="1" stroke-linecap="square" stroke-linejoin="miter"/><path d="M187.03921,120.8085l100.54094,-32.45463l5.29832,16.42283l-100.54094,32.45463z" fill="none" stroke="#000000" stroke-width="1" stroke-linecap="butt" stroke-linejoin="round"/><path d="M186.70195,83.18201h54.22466v38.08533h-54.22466z" fill="#000000" stroke="none" stroke-width="1" stroke-linecap="square" stroke-linejoin="miter"/><path d="M186.70195,83.18201h54.22466v38.08533h-54.22466z" fill="none" stroke="#000000" stroke-width="1" stroke-linecap="butt" stroke-linejoin="round"/><path d="M186.89574,139.11739l-0.06843,-21.3008l9.22807,16.08069z" fill="#000000" stroke="none" stroke-width="1" stroke-linecap="square" stroke-linejoin="miter"/><path d="M186.89574,139.11739l-0.06843,-21.3008l9.22807,16.08069z" fill="none" stroke="#000000" stroke-width="1" stroke-linecap="butt" stroke-linejoin="round"/><path d="M186.8888,137.29486l5.9826,-1.96488l0.53765,1.6325l-5.9826,1.96488z" fill="#000000" stroke="none" stroke-width="1" stroke-linecap="square" stroke-linejoin="miter"/><path d="M186.8888,137.29486l5.9826,-1.96488l0.53765,1.6325l-5.9826,1.96488z" fill="none" stroke="#000000" stroke-width="1" stroke-linecap="butt" stroke-linejoin="round"/><path d="M217.20719,120.53091v0c-9.8772,0 -17.88427,-4.9456 -17.88427,-11.04631v0c0,-3.68211 0,-7.36421 0,-11.04631c5.96142,0 11.92285,0 17.88427,0c9.87721,0 17.88426,4.9456 17.88426,11.04631v0c0,6.1007 -8.00705,11.04631 -17.88426,11.04631z" fill="#ffffff" stroke="none" stroke-width="1" stroke-linecap="square" stroke-linejoin="miter"/><path d="M217.20719,120.53091v0c-9.8772,0 -17.88427,-4.9456 -17.88427,-11.04631v0c0,-3.68211 0,-7.36421 0,-11.04631c5.96142,0 11.92285,0 17.88427,0c9.87721,0 17.88426,4.9456 17.88426,11.04631v0c0,6.1007 -8.00705,11.04631 -17.88426,11.04631z" fill="none" stroke="#000000" stroke-width="1" stroke-linecap="butt" stroke-linejoin="round"/><path d="M213.5031,109.92124v0c0,-4.41086 4.834,-7.98657 10.79703,-7.98657v0c5.96304,0 10.79703,3.57572 10.79703,7.98657v0c0,4.41086 -4.83399,7.98658 -10.79703,7.98658v0c-5.96304,0 -10.79703,-3.57572 -10.79703,-7.98658z" fill="#000000" stroke="none" stroke-width="1" stroke-linecap="square" stroke-linejoin="miter"/><path d="M213.5031,109.92124v0c0,-4.41086 4.834,-7.98657 10.79703,-7.98657v0c5.96304,0 10.79703,3.57572 10.79703,7.98657v0c0,4.41086 -4.83399,7.98658 -10.79703,7.98658v0c-5.96304,0 -10.79703,-3.57572 -10.79703,-7.98658z" fill="none" stroke="#000000" stroke-width="1" stroke-linecap="butt" stroke-linejoin="round"/><path d="M235.10123,109.92451l-35.7783,-0.4399" fill-opacity="0" fill="#000000" stroke="none" stroke-width="1" stroke-linecap="square" stroke-linejoin="miter"/><path d="M235.10123,109.92451l-35.7783,-0.4399" fill="none" stroke="#000000" stroke-width="1" stroke-linecap="butt" stroke-linejoin="round"/><path d="M199.32293,98.4383h15.45017v0c8.53289,0 15.45017,2.50343 15.45017,5.59158c0,3.08814 -6.91728,5.59158 -15.45017,5.59158h-15.45017z" fill="#000000" stroke="none" stroke-width="1" stroke-linecap="square" stroke-linejoin="miter"/><path d="M199.32293,98.4383h15.45017v0c8.53289,0 15.45017,2.50343 15.45017,5.59158c0,3.08814 -6.91728,5.59158 -15.45017,5.59158h-15.45017z" fill="none" stroke="#000000" stroke-width="1" stroke-linecap="butt" stroke-linejoin="round"/><path d="M228.63378,105.30307v0c-2.72373,-1.98948 -4.50939,-4.17998 -3.9884,-4.89263v0c0.25019,-0.34222 1.00972,-0.29091 2.11151,0.14266c1.10179,0.43356 2.45558,1.21387 3.76356,2.16925v0c2.72372,1.98948 4.50939,4.17998 3.98841,4.89263v0c-0.25019,0.34222 -1.00972,0.29092 -2.11152,-0.14265c-1.10179,-0.43356 -2.45558,-1.21387 -3.76356,-2.16925z" fill="#000000" stroke="none" stroke-width="1" stroke-linecap="square" stroke-linejoin="miter"/><path d="M228.63378,105.30307v0c-2.72373,-1.98948 -4.50939,-4.17998 -3.9884,-4.89263v0c0.25019,-0.34222 1.00972,-0.29091 2.11151,0.14266c1.10179,0.43356 2.45558,1.21387 3.76356,2.16925v0c2.72372,1.98948 4.50939,4.17998 3.98841,4.89263v0c-0.25019,0.34222 -1.00972,0.29092 -2.11152,-0.14265c-1.10179,-0.43356 -2.45558,-1.21387 -3.76356,-2.16925z" fill="none" stroke="#000000" stroke-width="1" stroke-linecap="butt" stroke-linejoin="round"/><path d="M229.37717,102.58911v0c-1.80321,-1.10947 -3.17529,-2.15549 -3.06461,-2.33634v0c0.05315,-0.08686 0.44811,0.0415 1.098,0.35681c0.64989,0.31533 1.50147,0.79179 2.36741,1.32457v0c1.80322,1.10947 3.1753,2.15549 3.06462,2.33635v0c-0.05316,0.08685 -0.44811,-0.04151 -1.09801,-0.35682c-0.64989,-0.31533 -1.50147,-0.79179 -2.36741,-1.32457z" fill="#000000" stroke="none" stroke-width="1" stroke-linecap="square" stroke-linejoin="miter"/><path d="M229.37717,102.58911v0c-1.80321,-1.10947 -3.17529,-2.15549 -3.06461,-2.33634v0c0.05315,-0.08686 0.44811,0.0415 1.098,0.35681c0.64989,0.31533 1.50147,0.79179 2.36741,1.32457v0c1.80322,1.10947 3.1753,2.15549 3.06462,2.33635v0c-0.05316,0.08685 -0.44811,-0.04151 -1.09801,-0.35682c-0.64989,-0.31533 -1.50147,-0.79179 -2.36741,-1.32457z" fill="none" stroke="#000000" stroke-width="1" stroke-linecap="butt" stroke-linejoin="round"/><path d="M232.38283,104.95611v0c0,-0.37522 0.22102,-0.6794 0.49366,-0.6794v0c0.13093,0 0.2565,0.07158 0.34907,0.19899c0.09258,0.12741 0.14459,0.30022 0.14459,0.48041v0c0,0.37522 -0.22102,0.67939 -0.49366,0.67939v0c-0.27265,0 -0.49366,-0.30418 -0.49366,-0.67939z" fill="#000000" stroke="none" stroke-width="1" stroke-linecap="square" stroke-linejoin="miter"/><path d="M226.94888,142.14216v0c8.06319,-3.02605 16.1928,-1.23382 18.15798,4.00307l-14.5997,5.47917z" fill-opacity="0" fill="#000000" stroke="none" stroke-width="1" stroke-linecap="square" stroke-linejoin="miter"/><path d="M226.94888,142.14216v0c8.06319,-3.02605 16.1928,-1.23382 18.15798,4.00307" fill-opacity="0" fill="#000000" stroke="none" stroke-width="1" stroke-linecap="square" stroke-linejoin="miter"/><path d="M226.94888,142.14216v0c8.06319,-3.02605 16.1928,-1.23382 18.15798,4.00307" fill="none" stroke="#000000" stroke-width="3" stroke-linecap="butt" stroke-linejoin="round"/></g></g></svg>