<svg version="1.1" xmlns="http://www.w3.org/2000/svg" xmlns:xlink="http://www.w3.org/1999/xlink" width="233.23675" height="272.43655" viewBox="0,0,233.23675,272.43655"><defs><linearGradient x1="341.42627" y1="188.50629" x2="346.84136" y2="293.71416" gradientUnits="userSpaceOnUse" id="color-1"><stop offset="0" stop-color="#4d4d4d"/><stop offset="1" stop-color="#000000"/></linearGradient><linearGradient x1="119.58939" y1="197.62383" x2="137.75259" y2="301.38983" gradientUnits="userSpaceOnUse" id="color-2"><stop offset="0" stop-color="#4d4d4d"/><stop offset="1" stop-color="#000000"/></linearGradient><linearGradient x1="323.0795" y1="131.48641" x2="336.18478" y2="236.02003" gradientUnits="userSpaceOnUse" id="color-3"><stop offset="0" stop-color="#4d4d4d"/><stop offset="1" stop-color="#000000"/></linearGradient><linearGradient x1="137.73213" y1="128.01307" x2="137.73177" y2="233.35792" gradientUnits="userSpaceOnUse" id="color-4"><stop offset="0" stop-color="#4d4d4d"/><stop offset="1" stop-color="#000000"/></linearGradient><radialGradient cx="332.58526" cy="106.04171" r="45.07582" fx="332.58526" fy="106.04171" gradientUnits="userSpaceOnUse" id="color-5"><stop offset="0" stop-color="#ffffff"/><stop offset="1" stop-color="#b3b3b3"/></radialGradient><radialGradient cx="203.23097" cy="68.52549" r="45.07583" fx="203.23097" fy="68.52549" gradientUnits="userSpaceOnUse" id="color-6"><stop offset="0" stop-color="#ffffff"/><stop offset="1" stop-color="#b3b3b3"/></radialGradient><radialGradient cx="240.6814" cy="182.57159" r="32.98501" fx="240.6814" fy="182.57159" gradientUnits="userSpaceOnUse" id="color-7"><stop offset="0" stop-color="#434343"/><stop offset="0.61" stop-color="#222222"/><stop offset="1" stop-color="#000000"/></radialGradient><radialGradient cx="240.6814" cy="235.95954" r="75.10565" fx="240.6814" fy="235.95954" gradientUnits="userSpaceOnUse" id="color-8"><stop offset="0" stop-color="#434343"/><stop offset="0.61" stop-color="#222222"/><stop offset="1" stop-color="#000000"/></radialGradient><linearGradient x1="219.02504" y1="49.94893" x2="197.60282" y2="123.81086" gradientUnits="userSpaceOnUse" id="color-9"><stop offset="0" stop-color="#ffffff"/><stop offset="0.49" stop-color="#efefef"/><stop offset="0.9" stop-color="#cccccc"/><stop offset="1" stop-color="#b9b9b9"/><stop offset="1" stop-color="#737373"/></linearGradient><radialGradient cx="238.39034" cy="85.54158" r="21.60376" fx="238.39034" fy="85.54158" gradientUnits="userSpaceOnUse" id="color-10"><stop offset="0" stop-color="#ffffff"/><stop offset="0.56" stop-color="#ffffff"/><stop offset="1" stop-color="#b3b3b3"/></radialGradient><radialGradient cx="186.8391" cy="77.83034" r="21.88616" fx="186.8391" fy="77.83034" gradientUnits="userSpaceOnUse" id="color-11"><stop offset="0" stop-color="#4d4d4d"/><stop offset="1" stop-color="#000000"/></radialGradient><radialGradient cx="257.99988" cy="136.67817" r="52.50766" fx="257.99988" fy="136.67817" gradientUnits="userSpaceOnUse" id="color-12"><stop offset="0" stop-color="#bfbfbf"/><stop offset="1" stop-color="#737373"/></radialGradient><radialGradient cx="230.32885" cy="108.77799" r="21.88616" fx="230.32885" fy="108.77799" gradientUnits="userSpaceOnUse" id="color-13"><stop offset="0" stop-color="#4d4d4d"/><stop offset="1" stop-color="#000000"/></radialGradient><radialGradient cx="226.69864" cy="105.88373" r="17.50369" fx="226.69864" fy="105.88373" gradientUnits="userSpaceOnUse" id="color-14"><stop offset="0" stop-color="#4d4d4d"/><stop offset="1" stop-color="#000000"/></radialGradient><radialGradient cx="241.77593" cy="90.47721" r="4.33856" fx="241.77593" fy="90.47721" gradientUnits="userSpaceOnUse" id="color-15"><stop offset="0" stop-color="#4d4d4d"/><stop offset="1" stop-color="#000000"/></radialGradient></defs><g transform="translate(-119.17307,-35.13447)"><g data-paper-data="{&quot;isPaintingLayer&quot;:true}" fill-rule="evenodd" stroke-miterlimit="10" stroke-dasharray="" stroke-dashoffset="0" style="mix-blend-mode: normal"><path d="M245.33033,289.72778c1.35217,-3.51974 1.92805,-5.37004 12.02676,-12.119c10.09867,-6.74896 39.31069,-16.39833 48.56541,-28.37482c9.25473,-11.97648 1.06069,-33.40512 6.96293,-43.48414c5.90224,-10.07903 26.73701,-18.6267 28.45046,-16.98997c1.71345,1.63675 -15.68187,15.5654 -18.16978,26.81044c-2.48791,11.24504 9.44327,28.93621 3.24219,40.65981c-6.20108,11.7236 -27.58786,22.59897 -40.4486,29.68185c-12.86073,7.08285 -29.94417,12.17936 -36.71574,12.81532c-6.77157,0.63597 -5.26582,-5.47974 -3.91363,-8.99948z" fill="url(#color-1)" stroke="none" stroke-width="1" stroke-linecap="square" stroke-linejoin="miter"/><path d="M245.33033,289.72778c1.35217,-3.51974 1.92805,-5.37004 12.02676,-12.119c10.09867,-6.74896 39.31069,-16.39833 48.56541,-28.37482c9.25473,-11.97648 1.06069,-33.40512 6.96293,-43.48414c5.90224,-10.07903 26.73701,-18.6267 28.45046,-16.98997c1.71345,1.63675 -15.68187,15.5654 -18.16978,26.81044c-2.48791,11.24504 9.44327,28.93621 3.24219,40.65981c-6.20108,11.7236 -27.58786,22.59897 -40.4486,29.68185c-12.86073,7.08285 -29.94417,12.17936 -36.71574,12.81532c-6.77157,0.63597 -5.26582,-5.47974 -3.91363,-8.99948z" fill="none" stroke="#000000" stroke-width="1" stroke-linecap="butt" stroke-linejoin="round"/><path d="M235.82003,274.88555c2.10242,3.12985 4.93294,8.7561 -1.80989,9.64496c-6.74281,0.88884 -24.53179,-0.27289 -38.64694,-4.31189c-14.11515,-4.03898 -37.3868,-9.87526 -46.04397,-19.92205c-8.65718,-10.04678 -0.96822,-29.95106 -5.89907,-40.35867c-4.93087,-10.40762 -24.99177,-20.1097 -23.68617,-22.08702c1.30561,-1.97734 23.52046,1.71286 31.51988,10.22305c7.99942,8.51019 4.78628,31.22516 16.47659,40.83807c11.69031,9.6129 42.317,12.51042 53.66525,16.83935c11.34827,4.32895 12.3219,6.00433 14.4243,9.13419z" fill="url(#color-2)" stroke="none" stroke-width="1" stroke-linecap="square" stroke-linejoin="miter"/><path d="M235.82003,274.88555c2.10242,3.12985 4.93294,8.7561 -1.80989,9.64496c-6.74281,0.88884 -24.53179,-0.27289 -38.64694,-4.31189c-14.11515,-4.03898 -37.3868,-9.87526 -46.04397,-19.92205c-8.65718,-10.04678 -0.96822,-29.95106 -5.89907,-40.35867c-4.93087,-10.40762 -24.99177,-20.1097 -23.68617,-22.08702c1.30561,-1.97734 23.52046,1.71286 31.51988,10.22305c7.99942,8.51019 4.78628,31.22516 16.47659,40.83807c11.69031,9.6129 42.317,12.51042 53.66525,16.83935c11.34827,4.32895 12.3219,6.00433 14.4243,9.13419z" fill="none" stroke="#000000" stroke-width="1" stroke-linecap="butt" stroke-linejoin="round"/><path d="M234.64973,239.47795c1.09087,-3.60949 1.52972,-5.49707 11.10753,-12.96775c9.57783,-7.4707 38.00608,-19.2338 46.35933,-31.8564c8.3533,-12.62261 -1.38837,-33.39464 3.7602,-43.87929c5.14853,-10.48463 25.30235,-20.53552 27.13115,-19.02857c1.8288,1.50695 -14.50056,16.6727 -16.15847,28.07025c-1.65786,11.39756 11.53737,28.1683 6.21121,40.31507c-5.3262,12.14676 -25.8601,24.55961 -38.16822,32.56559c-12.30812,8.00598 -28.97326,14.34006 -35.68037,15.47024c-6.70711,1.13018 -5.65322,-5.07964 -4.56235,-8.68913z" fill="url(#color-3)" stroke="none" stroke-width="1" stroke-linecap="square" stroke-linejoin="miter"/><path d="M234.64973,239.47795c1.09087,-3.60949 1.52972,-5.49707 11.10753,-12.96775c9.57783,-7.4707 38.00608,-19.2338 46.35933,-31.8564c8.3533,-12.62261 -1.38837,-33.39464 3.7602,-43.87929c5.14853,-10.48463 25.30235,-20.53552 27.13115,-19.02857c1.8288,1.50695 -14.50056,16.6727 -16.15847,28.07025c-1.65786,11.39756 11.53737,28.1683 6.21121,40.31507c-5.3262,12.14676 -25.8601,24.55961 -38.16822,32.56559c-12.30812,8.00598 -28.97326,14.34006 -35.68037,15.47024c-6.70711,1.13018 -5.65322,-5.07964 -4.56235,-8.68913z" fill="none" stroke="#000000" stroke-width="1" stroke-linecap="butt" stroke-linejoin="round"/><path d="M238.90152,224.15947c1.53126,3.44553 3.34932,9.47563 -3.44584,9.18855c-6.79514,-0.28708 -24.1176,-4.49867 -37.3251,-10.91101c-13.20748,-6.41234 -35.12453,-16.17386 -41.91981,-27.56301c-6.79531,-11.38913 4.21056,-29.66974 1.148,-40.77181c-3.06256,-11.10206 -21.15036,-24.11791 -19.52335,-25.84053c1.62703,-1.72262 22.87314,5.74274 29.28547,15.50485c6.41234,9.76212 -0.66931,31.58312 9.18855,43.06784c9.85787,11.48472 39.52657,19.61967 49.95858,25.84053c10.43201,6.22086 11.10221,8.03905 12.6335,11.48458z" fill="url(#color-4)" stroke="none" stroke-width="1" stroke-linecap="square" stroke-linejoin="miter"/><path d="M238.90152,224.15947c1.53126,3.44553 3.34932,9.47563 -3.44584,9.18855c-6.79514,-0.28708 -24.1176,-4.49867 -37.3251,-10.91101c-13.20748,-6.41234 -35.12453,-16.17386 -41.91981,-27.56301c-6.79531,-11.38913 4.21056,-29.66974 1.148,-40.77181c-3.06256,-11.10206 -21.15036,-24.11791 -19.52335,-25.84053c1.62703,-1.72262 22.87314,5.74274 29.28547,15.50485c6.41234,9.76212 -0.66931,31.58312 9.18855,43.06784c9.85787,11.48472 39.52657,19.61967 49.95858,25.84053c10.43201,6.22086 11.10221,8.03905 12.6335,11.48458z" fill="none" stroke="#000000" stroke-width="1" stroke-linecap="butt" stroke-linejoin="round"/><path d="M340.77396,146.85953v0c-9.35868,1.87564 -20.61165,-14.8786 -25.13414,-37.42168v0c-2.17178,-10.82555 -2.46929,-21.56552 -0.82709,-29.85725c1.64224,-8.29171 5.08965,-13.45598 9.58382,-14.35671v0c9.35872,-1.87564 20.61163,14.87861 25.13412,37.42167v0c4.52249,22.54304 0.60201,42.33832 -8.75672,44.21396z" fill="url(#color-5)" stroke="none" stroke-width="1" stroke-linecap="square" stroke-linejoin="miter"/><path d="M340.77396,146.85953v0c-9.35868,1.87564 -20.61165,-14.8786 -25.13414,-37.42168v0c-2.17178,-10.82555 -2.46929,-21.56552 -0.82709,-29.85725c1.64224,-8.29171 5.08965,-13.45598 9.58382,-14.35671v0c9.35872,-1.87564 20.61163,14.87861 25.13412,37.42167v0c4.52249,22.54304 0.60201,42.33832 -8.75672,44.21396z" fill="none" stroke="#000000" stroke-width="2" stroke-linecap="butt" stroke-linejoin="round"/><path d="M323.47175,95.52857l26.88602,36.97427" fill-opacity="0" fill="#000000" stroke="none" stroke-width="1" stroke-linecap="square" stroke-linejoin="miter"/><path d="M323.47175,95.52857l26.88602,36.97427" fill="none" stroke="#000000" stroke-width="2" stroke-linecap="butt" stroke-linejoin="round"/><path d="M190.73219,56.58975v0c15.88232,-16.62512 34.35338,-24.75862 41.25625,-18.16668v0c3.31488,3.16555 3.4642,9.37295 0.4151,17.25666c-3.04912,7.88369 -9.04684,16.79787 -16.67382,24.78153v0c-15.88232,16.62512 -34.35336,24.75862 -41.25625,18.16669v0c-6.90288,-6.59193 0.3764,-25.41307 16.2587,-42.03818z" fill="url(#color-6)" stroke="none" stroke-width="1" stroke-linecap="square" stroke-linejoin="miter"/><path d="M190.73219,56.58975v0c15.88232,-16.62512 34.35338,-24.75862 41.25625,-18.16668v0c3.31488,3.16555 3.4642,9.37295 0.4151,17.25666c-3.04912,7.88369 -9.04684,16.79787 -16.67382,24.78153v0c-15.88232,16.62512 -34.35336,24.75862 -41.25625,18.16669v0c-6.90288,-6.59193 0.3764,-25.41307 16.2587,-42.03818z" fill="none" stroke="#000000" stroke-width="2" stroke-linecap="butt" stroke-linejoin="round"/><path d="M174.05839,81.37129l39.15665,-11.38704" fill-opacity="0" fill="#000000" stroke="none" stroke-width="1" stroke-linecap="square" stroke-linejoin="miter"/><path d="M174.05839,81.37129l39.15665,-11.38704" fill="none" stroke="#000000" stroke-width="2" stroke-linecap="butt" stroke-linejoin="round"/><path d="M261.71,157.15879l-21.0286,50.82561l-21.02856,-50.82561z" fill="url(#color-7)" stroke="none" stroke-width="1" stroke-linecap="square" stroke-linejoin="miter"/><path d="M261.71,157.15879l-21.0286,50.82561l-21.02856,-50.82561z" fill="none" stroke="#000000" stroke-width="1" stroke-linecap="butt" stroke-linejoin="round"/><path d="M264.84788,307.07102h-48.33294l9.66658,-142.22294h28.99975z" fill="url(#color-8)" stroke="none" stroke-width="1" stroke-linecap="square" stroke-linejoin="miter"/><path d="M264.84788,307.07102h-48.33294l9.66658,-142.22294h28.99975z" fill="none" stroke="#000000" stroke-width="1" stroke-linecap="butt" stroke-linejoin="round"/><path d="M219.02494,49.94934l111.38168,32.30367l-21.42184,73.86161l-111.38167,-32.30366z" fill="url(#color-9)" stroke="none" stroke-width="1" stroke-linecap="square" stroke-linejoin="miter"/><path d="M219.02494,49.94934l111.38168,32.30367l-21.42184,73.86161l-111.38167,-32.30366z" fill="none" stroke="#000000" stroke-width="2" stroke-linecap="butt" stroke-linejoin="round"/><path d="M201.80185,108.95065l121.92828,-4.2137" fill-opacity="0" fill="#000000" stroke="none" stroke-width="1" stroke-linecap="square" stroke-linejoin="miter"/><path d="M201.80185,108.95065l121.92828,-4.2137" fill="none" stroke="#000000" stroke-width="1" stroke-linecap="butt" stroke-linejoin="round"/><path d="M219.35722,50.12533l110.8795,32.15803l-6.51245,22.45466l-110.8795,-32.15803z" fill="#000000" stroke="none" stroke-width="1" stroke-linecap="square" stroke-linejoin="miter"/><path d="M219.35722,50.12533l110.8795,32.15803l-6.51245,22.45466l-110.8795,-32.15803z" fill="none" stroke="#000000" stroke-width="1" stroke-linecap="butt" stroke-linejoin="round"/><path d="M207.91639,89.57281l115.27499,-3.45454l0.56118,18.82865l-115.27501,3.45456z" fill="#000000" stroke="none" stroke-width="1" stroke-linecap="square" stroke-linejoin="miter"/><path d="M207.91639,89.57281l115.27499,-3.45454l0.56118,18.82865l-115.27501,3.45456z" fill="none" stroke="#000000" stroke-width="1" stroke-linecap="butt" stroke-linejoin="round"/><path d="M219.00364,50.02278l56.84893,16.48771l-11.58034,39.92852l-56.84892,-16.4877z" fill="#000000" stroke="none" stroke-width="1" stroke-linecap="square" stroke-linejoin="miter"/><path d="M219.00364,50.02278l56.84893,16.48771l-11.58034,39.92852l-56.84892,-16.4877z" fill="none" stroke="#000000" stroke-width="1" stroke-linecap="butt" stroke-linejoin="round"/><path d="M202.1989,108.72415l6.40504,-22.35249l4.78513,19.66485z" fill="#000000" stroke="none" stroke-width="1" stroke-linecap="square" stroke-linejoin="miter"/><path d="M202.1989,108.72415l6.40504,-22.35249l4.78513,19.66485z" fill="none" stroke="#000000" stroke-width="1" stroke-linecap="butt" stroke-linejoin="round"/><path d="M202.7458,106.8113l6.86958,-0.24089l0.0673,1.87499l-6.86959,0.2409z" fill="#000000" stroke="none" stroke-width="1" stroke-linecap="square" stroke-linejoin="miter"/><path d="M202.7458,106.8113l6.86958,-0.24089l0.0673,1.87499l-6.86959,0.2409z" fill="none" stroke="#000000" stroke-width="1" stroke-linecap="butt" stroke-linejoin="round"/><path d="M250.7438,95.56708v0c-5.08774,6.2653 -14.74253,6.85522 -21.5646,1.31761v0c-4.11749,-3.34224 -8.23498,-6.68448 -12.35247,-10.02673c3.0707,-3.78144 6.1414,-7.56288 9.21213,-11.34432c5.08774,-6.2653 14.74254,-6.85521 21.56461,-1.3176v0c6.82209,5.53762 8.22806,15.10576 3.14033,21.37105z" fill="url(#color-10)" stroke="none" stroke-width="1" stroke-linecap="square" stroke-linejoin="miter"/><path d="M250.7438,95.56708v0c-5.08774,6.2653 -14.74253,6.85522 -21.5646,1.31761v0c-4.11749,-3.34224 -8.23498,-6.68448 -12.35247,-10.02673c3.0707,-3.78144 6.1414,-7.56288 9.21213,-11.34432c5.08774,-6.2653 14.74254,-6.85521 21.56461,-1.3176v0c6.82209,5.53762 8.22806,15.10576 3.14033,21.37105z" fill="none" stroke="#000000" stroke-width="1" stroke-linecap="butt" stroke-linejoin="round"/><path d="M221.12652,59.76601l18.53308,6.32342l-1.37565,4.08229l18.58463,2.88562l-1.07823,4.39971l27.41194,8.30167l-30.72573,2.74309l1.57752,-5.09346l-19.34048,1.43802l1.37579,-6.44337l-20.36381,1.57862z" fill="#000000" stroke="none" stroke-width="1" stroke-linecap="square" stroke-linejoin="miter"/><path d="M221.12652,59.76601l18.53308,6.32342l-1.37565,4.08229l18.58463,2.88562l-1.07823,4.39971l27.41194,8.30167l-30.72573,2.74309l1.57752,-5.09346l-19.34048,1.43802l1.37579,-6.44337l-20.36381,1.57862z" fill="none" stroke="#000000" stroke-width="1" stroke-linecap="butt" stroke-linejoin="round"/><path d="M190.55249,56.89635l-0.61366,12.12989l-1.18909,1.16971l0.32192,10.59214l-1.25751,1.46257l-0.62252,17.46301l-2.57036,-14.09456l1.47539,-1.52879l-1.53964,-9.00319l1.82955,-2.24345l-1.63859,-9.4502z" fill="url(#color-11)" stroke="none" stroke-width="1" stroke-linecap="square" stroke-linejoin="miter"/><path d="M239.03313,118.65431l-1.67077,13.19266" fill-opacity="0" fill="#000000" stroke="none" stroke-width="1" stroke-linecap="square" stroke-linejoin="miter"/><path d="M258.6868,122.85871l-2.83289,14.97775" fill-opacity="0" fill="#000000" stroke="none" stroke-width="1" stroke-linecap="square" stroke-linejoin="miter"/><path d="M279.68585,126.15413l-2.11728,12.31874" fill-opacity="0" fill="#000000" stroke="none" stroke-width="1" stroke-linecap="square" stroke-linejoin="miter"/><path d="M226.41184,124.20453l11.52475,-1.31289" fill-opacity="0" fill="#000000" stroke="none" stroke-width="1" stroke-linecap="square" stroke-linejoin="miter"/><path d="M237.93661,122.88518l17.91819,14.95191" fill-opacity="0" fill="#000000" stroke="none" stroke-width="1" stroke-linecap="square" stroke-linejoin="miter"/><path d="M267.63491,123.94147l-11.78448,13.89258" fill-opacity="0" fill="#000000" stroke="none" stroke-width="1" stroke-linecap="square" stroke-linejoin="miter"/><path d="M275.82291,139.47022l-8.12579,-14.46733" fill-opacity="0" fill="#000000" stroke="none" stroke-width="1" stroke-linecap="square" stroke-linejoin="miter"/><path d="M285.20595,126.89495l4.99097,8.45835" fill-opacity="0" fill="#000000" stroke="none" stroke-width="1" stroke-linecap="square" stroke-linejoin="miter"/><path d="M214.0235,107.99577c30.17237,15.23316 63.20248,27.30663 96.08755,35.12286v0c-4.4945,12.28882 -29.64798,14.38835 -56.18182,4.68944c-26.53382,-9.69891 -44.40029,-27.52348 -39.90573,-39.81231v0z" data-paper-data="{&quot;index&quot;:null}" fill="url(#color-12)" stroke="none" stroke-width="1" stroke-linecap="square" stroke-linejoin="miter"/><path d="M214.0235,107.99577c30.17237,15.23316 63.20248,27.30663 96.08755,35.12286v0c-4.4945,12.28882 -29.64798,14.38835 -56.18182,4.68944c-26.53382,-9.69891 -44.40029,-27.52348 -39.90573,-39.81231v0z" data-paper-data="{&quot;index&quot;:null}" fill="none" stroke="#000000" stroke-width="2" stroke-linecap="butt" stroke-linejoin="round"/><path d="M286.93767,137.12088l-7.24029,16.57497" data-paper-data="{&quot;index&quot;:null}" fill="none" stroke="#000000" stroke-width="1" stroke-linecap="butt" stroke-linejoin="round"/><path d="M253.92349,147.80845l7.12653,-19.46992" data-paper-data="{&quot;index&quot;:null}" fill="none" stroke="#000000" stroke-width="1" stroke-linecap="butt" stroke-linejoin="round"/><path d="M234.22414,117.55695l-6.10981,15.86521" data-paper-data="{&quot;index&quot;:null}" fill="none" stroke="#000000" stroke-width="1" stroke-linecap="butt" stroke-linejoin="round"/><path d="M297.81398,152.39819l-12.54775,-9.56351" data-paper-data="{&quot;index&quot;:null}" fill="none" stroke="#000000" stroke-width="1" stroke-linecap="butt" stroke-linejoin="round"/><path d="M253.92202,147.80856l31.34869,-4.98144" data-paper-data="{&quot;index&quot;:null}" fill="none" stroke="#000000" stroke-width="1" stroke-linecap="butt" stroke-linejoin="round"/><path d="M249.84298,123.36876l4.08627,24.4393" data-paper-data="{&quot;index&quot;:null}" fill="none" stroke="#000000" stroke-width="1" stroke-linecap="butt" stroke-linejoin="round"/><path d="M249.03076,124.56532l-19.57216,11.2382" data-paper-data="{&quot;index&quot;:null}" fill="none" stroke="#000000" stroke-width="1" stroke-linecap="butt" stroke-linejoin="round"/><path d="M227.25972,114.57622l-11.72349,6.40307" data-paper-data="{&quot;index&quot;:null}" fill="none" stroke="#000000" stroke-width="1" stroke-linecap="butt" stroke-linejoin="round"/><path d="M234.04221,87.844l-0.61365,12.12989l-1.1891,1.16972l0.32192,10.59214l-1.25752,1.46257l-0.62251,17.463l-2.57037,-14.09455l1.47539,-1.52878l-1.53964,-9.00319l1.82954,-2.24344l-1.63859,-9.4502z" fill="url(#color-13)" stroke="none" stroke-width="1" stroke-linecap="square" stroke-linejoin="miter"/><path d="M229.72896,95.97041l2.66085,-6.48436l-2.64004,8.88847l1.91757,-3.79716l-1.85397,5.07731l1.07828,0.50156l-2.23056,3.96041l-0.56618,2.9909l-0.86471,1.45376l-0.9452,5.27739l-0.3431,-2.24189l-1.28482,4.6742l0.04427,-2.38524l-1.42244,4.44544l0.28181,-2.37816l-1.30048,3.53663l0.45584,-2.51989l-2.11796,5.19293l1.47792,-5.18638l-0.57565,-0.86047l1.53976,-3.65608l0.39445,-4.05174l1.42539,-1.734l0.88769,-5.29405l1.11075,-0.43488l1.68596,-6.51642l-0.3572,4.50373l2.263,-6.85543z" fill="url(#color-14)" stroke="none" stroke-width="1" stroke-linecap="square" stroke-linejoin="miter"/><path d="M238.55265,89.54237v0c0.42298,-1.45839 2.20897,-2.22212 3.98914,-1.70582v0c1.78018,0.5163 2.8804,2.11711 2.45743,3.5755v0c-0.42298,1.45839 -2.20897,2.22213 -3.98915,1.70583v0c-1.78018,-0.5163 -2.88039,-2.1171 -2.45741,-3.5755z" fill="url(#color-15)" stroke="none" stroke-width="1" stroke-linecap="square" stroke-linejoin="miter"/><path d="M230.7665,86.18765v0c0.5171,-1.78294 2.70055,-2.71662 4.87687,-2.08543v0c2.17632,0.63119 3.52139,2.58823 3.00428,4.37117v0c-0.5171,1.78294 -2.70056,2.71664 -4.87688,2.08544v0c-2.17632,-0.63119 -3.52138,-2.58824 -3.00427,-4.37118z" fill="none" stroke="#000000" stroke-width="1" stroke-linecap="butt" stroke-linejoin="round"/><path d="M307.18481,105.56759l9.07024,12.25987l-15.80771,-10.18402l4.10735,9.54176l-7.87086,-8.09122l-5.00337,7.4921l-3.51163,-11.46718l-6.39839,-1.3093l-1.13516,-4.51127l-11.47017,-1.9564l7.36719,-4.0633l-8.65944,-4.67539l6.46706,-1.63278l-7.56401,-5.76442l5.65169,-0.06568l-5.45206,-5.69562l5.46172,0.96388l-7.30716,-9.73313l9.4331,5.53146l4.31494,-4.47776l4.98164,7.17222l9.91597,-0.67517l0.03403,7.9707l11.70912,1.56485l-2.51495,6.95028l12.42495,5.82622l-11.29425,1.2845l11.43208,9.34568z" fill="#000000" stroke="none" stroke-width="1" stroke-linecap="square" stroke-linejoin="miter"/><path d="M307.18481,105.56759l9.07024,12.25987l-15.80771,-10.18402l4.10735,9.54176l-7.87086,-8.09122l-5.00337,7.4921l-3.51163,-11.46718l-6.39839,-1.3093l-1.13516,-4.51127l-11.47017,-1.9564l7.36719,-4.0633l-8.65944,-4.67539l6.46706,-1.63278l-7.56401,-5.76442l5.65169,-0.06568l-5.45206,-5.69562l5.46172,0.96388l-7.30716,-9.73313l9.4331,5.53146l4.31494,-4.47776l4.98164,7.17222l9.91597,-0.67517l0.03403,7.9707l11.70912,1.56485l-2.51495,6.95028l12.42495,5.82622l-11.29425,1.2845l11.43208,9.34568z" fill="none" stroke="#000000" stroke-width="1" stroke-linecap="butt" stroke-linejoin="round"/><path d="M321.88356,80.049l5.76219,-3.76132l-2.27675,6.5676l5.3802,-1.69887l-3.23116,3.26676l6.72071,2.09057l-6.89805,1.4488l1.0318,2.66144l-2.78844,0.46744l2.12103,4.77149l-5.05669,-3.07057l-0.61982,3.59873l-3.09575,-2.69325l-1.70845,3.14162l-1.76013,-2.3522l-2.30136,2.26275l-0.98754,-2.27198l-4.54237,3.03034l0.97961,-3.91976l-4.41858,-1.80074l3.46946,-2.06534l-3.47705,-4.12757l5.52493,-0.00535l-2.46546,-4.87137l5.58952,1.05434l0.27668,-5.1646l4.31831,4.70186l3.022,-4.74747z" fill="#000000" stroke="none" stroke-width="1" stroke-linecap="square" stroke-linejoin="miter"/><path d="M321.88356,80.049l5.76219,-3.76132l-2.27675,6.5676l5.3802,-1.69887l-3.23116,3.26676l6.72071,2.09057l-6.89805,1.4488l1.0318,2.66144l-2.78844,0.46744l2.12103,4.77149l-5.05669,-3.07057l-0.61982,3.59873l-3.09575,-2.69325l-1.70845,3.14162l-1.76013,-2.3522l-2.30136,2.26275l-0.98754,-2.27198l-4.54237,3.03034l0.97961,-3.91976l-4.41858,-1.80074l3.46946,-2.06534l-3.47705,-4.12757l5.52493,-0.00535l-2.46546,-4.87137l5.58952,1.05434l0.27668,-5.1646l4.31831,4.70186l3.022,-4.74747z" fill="none" stroke="#000000" stroke-width="1" stroke-linecap="butt" stroke-linejoin="round"/><path d="M235.86918,58.12636l6.73414,1.41498l-6.25379,3.03404l5.00566,2.60324l-4.5947,0.02507l3.27408,6.23068l-5.90214,-3.85332l-1.15226,2.61153l-2.30228,-1.64127l-1.87406,4.8738l-1.40451,-5.74697l-2.98292,2.10638l-0.28466,-4.0935l-3.42946,1.01337l0.41858,-2.90789l-3.22727,-0.02732l0.9082,-2.30486l-5.35473,-1.06929l3.46434,-2.07896l-1.85116,-4.39782l3.9137,0.99294l0.45991,-5.37734l3.91053,3.90302l1.70114,-5.18797l3.20693,4.69806l3.84749,-3.45626l-0.27111,6.3783l5.49377,-1.22004z" fill="#000000" stroke="none" stroke-width="1" stroke-linecap="square" stroke-linejoin="miter"/><path d="M235.86918,58.12636l6.73414,1.41498l-6.25379,3.03404l5.00566,2.60324l-4.5947,0.02507l3.27408,6.23068l-5.90214,-3.85332l-1.15226,2.61153l-2.30228,-1.64127l-1.87406,4.8738l-1.40451,-5.74697l-2.98292,2.10638l-0.28466,-4.0935l-3.42946,1.01337l0.41858,-2.90789l-3.22727,-0.02732l0.9082,-2.30486l-5.35473,-1.06929l3.46434,-2.07896l-1.85116,-4.39782l3.9137,0.99294l0.45991,-5.37734l3.91053,3.90302l1.70114,-5.18797l3.20693,4.69806l3.84749,-3.45626l-0.27111,6.3783l5.49377,-1.22004z" fill="none" stroke="#000000" stroke-width="1" stroke-linecap="butt" stroke-linejoin="round"/></g></g></svg>