<svg version="1.1" xmlns="http://www.w3.org/2000/svg" xmlns:xlink="http://www.w3.org/1999/xlink" width="159.70764" height="234.03674" viewBox="0,0,159.70764,234.03674"><g transform="translate(-145.77221,-73.12527)"><g data-paper-data="{&quot;isPaintingLayer&quot;:true}" stroke-miterlimit="10" stroke-dasharray="" stroke-dashoffset="0" style="mix-blend-mode: normal"><path d="M295.55707,149.05357v0c-8.50625,2.02457 -19.35866,-12.94427 -24.2395,-33.43382v0c-2.34388,-9.83945 -2.96905,-19.66208 -1.73799,-27.30708c1.23106,-7.645 4.2175,-12.48612 8.30235,-13.45835v0c8.50625,-2.02457 19.35866,12.94426 24.23952,33.43383v0c4.88087,20.48955 1.94189,38.74086 -6.56438,40.76542z" fill="#ffffff" fill-rule="evenodd" stroke="none" stroke-width="1" stroke-linecap="square" stroke-linejoin="miter"/><path d="M295.55707,149.05357v0c-8.50625,2.02457 -19.35866,-12.94427 -24.2395,-33.43382v0c-2.34388,-9.83945 -2.96905,-19.66208 -1.73799,-27.30708c1.23106,-7.645 4.2175,-12.48612 8.30235,-13.45835v0c8.50625,-2.02457 19.35866,12.94426 24.23952,33.43383v0c4.88087,20.48955 1.94189,38.74086 -6.56438,40.76542z" fill="none" fill-rule="evenodd" stroke="#000000" stroke-width="2" stroke-linecap="butt" stroke-linejoin="round"/><path d="M303.85942,135.59523l-25.8287,-32.96667" fill-opacity="0" fill="#000000" fill-rule="evenodd" stroke="none" stroke-width="1" stroke-linecap="square" stroke-linejoin="miter"/><path d="M303.85942,135.59523l-25.8287,-32.96667" fill="none" fill-rule="evenodd" stroke="#000000" stroke-width="2" stroke-linecap="butt" stroke-linejoin="round"/><path d="M147.65953,109.74229v0c2.94626,-20.85581 12.35349,-36.7726 21.01163,-35.55118v0c4.15779,0.58655 7.58324,5.12764 9.52278,12.62429c1.93955,7.49664 2.23433,17.33476 0.81948,27.35006v0c-2.94626,20.85581 -12.35349,36.7726 -21.01163,35.55117v0c-8.65815,-1.22143 -13.28854,-19.11856 -10.34227,-39.97435z" fill="#ffffff" fill-rule="evenodd" stroke="none" stroke-width="1" stroke-linecap="square" stroke-linejoin="miter"/><path d="M147.65953,109.74229v0c2.94626,-20.85581 12.35349,-36.7726 21.01163,-35.55118v0c4.15779,0.58655 7.58324,5.12764 9.52278,12.62429c1.93955,7.49664 2.23433,17.33476 0.81948,27.35006v0c-2.94626,20.85581 -12.35349,36.7726 -21.01163,35.55117v0c-8.65815,-1.22143 -13.28854,-19.11856 -10.34227,-39.97435z" fill="none" fill-rule="evenodd" stroke="#000000" stroke-width="2" stroke-linecap="butt" stroke-linejoin="round"/><path d="M148.47902,137.09236l23.06852,-29.38334" fill-opacity="0" fill="#000000" fill-rule="evenodd" stroke="none" stroke-width="1" stroke-linecap="square" stroke-linejoin="miter"/><path d="M148.47902,137.09236l23.06852,-29.38334" fill="none" fill-rule="evenodd" stroke="#000000" stroke-width="2" stroke-linecap="butt" stroke-linejoin="round"/><path d="M267.60393,169.32935l-27.78195,46.56068l-27.78195,-46.56068z" fill="#000000" fill-rule="evenodd" stroke="none" stroke-width="1" stroke-linecap="square" stroke-linejoin="miter"/><path d="M267.60393,169.32935l-27.78195,46.56068l-27.78195,-46.56068z" fill="none" fill-rule="evenodd" stroke="#000000" stroke-width="1" stroke-linecap="butt" stroke-linejoin="round"/><path d="M271.74956,306.66201h-63.85515l12.77103,-130.28859h38.31309z" fill="#000000" fill-rule="evenodd" stroke="none" stroke-width="1" stroke-linecap="square" stroke-linejoin="miter"/><path d="M271.74956,306.66201h-63.85515l12.77103,-130.28859h38.31309z" fill="none" fill-rule="evenodd" stroke="#000000" stroke-width="1" stroke-linecap="butt" stroke-linejoin="round"/><path d="M172.49234,91.57989h106.24005v70.45198h-106.24005z" fill="#ffffff" fill-rule="evenodd" stroke="none" stroke-width="1" stroke-linecap="square" stroke-linejoin="miter"/><path d="M172.49234,91.57989h106.24005v70.45198h-106.24005z" fill="none" fill-rule="evenodd" stroke="#000000" stroke-width="2" stroke-linecap="butt" stroke-linejoin="round"/><path d="M278.59554,113.06561l-106.20095,34.82031" fill-opacity="0" fill="#000000" fill-rule="evenodd" stroke="none" stroke-width="1" stroke-linecap="square" stroke-linejoin="miter"/><path d="M278.59554,113.06561l-106.20095,34.82031" fill="none" fill-rule="evenodd" stroke="#000000" stroke-width="1" stroke-linecap="butt" stroke-linejoin="round"/><path d="M172.8296,91.64995h105.76106v21.4181h-105.76106z" fill="#000000" fill-rule="evenodd" stroke="none" stroke-width="1" stroke-linecap="square" stroke-linejoin="miter"/><path d="M172.8296,91.64995h105.76106v21.4181h-105.76106z" fill="none" fill-rule="evenodd" stroke="#000000" stroke-width="1" stroke-linecap="butt" stroke-linejoin="round"/><path d="M172.8296,129.27644l100.54094,-32.45463l5.29832,16.42283l-100.54094,32.45463z" fill="#000000" fill-rule="evenodd" stroke="none" stroke-width="1" stroke-linecap="square" stroke-linejoin="miter"/><path d="M172.8296,129.27644l100.54094,-32.45463l5.29832,16.42283l-100.54094,32.45463z" fill="none" fill-rule="evenodd" stroke="#000000" stroke-width="1" stroke-linecap="butt" stroke-linejoin="round"/><path d="M172.49234,91.64995h54.22466v38.08533h-54.22466z" fill="#000000" fill-rule="evenodd" stroke="none" stroke-width="1" stroke-linecap="square" stroke-linejoin="miter"/><path d="M172.49234,91.64995h54.22466v38.08533h-54.22466z" fill="none" fill-rule="evenodd" stroke="#000000" stroke-width="1" stroke-linecap="butt" stroke-linejoin="round"/><path d="M172.68613,147.58533l-0.06843,-21.3008l9.22807,16.08069z" fill="#000000" fill-rule="evenodd" stroke="none" stroke-width="1" stroke-linecap="square" stroke-linejoin="miter"/><path d="M172.68613,147.58533l-0.06843,-21.3008l9.22807,16.08069z" fill="none" fill-rule="evenodd" stroke="#000000" stroke-width="1" stroke-linecap="butt" stroke-linejoin="round"/><path d="M172.67919,145.7628l5.9826,-1.96488l0.53765,1.6325l-5.9826,1.96488z" fill="#000000" fill-rule="evenodd" stroke="none" stroke-width="1" stroke-linecap="square" stroke-linejoin="miter"/><path d="M172.67919,145.7628l5.9826,-1.96488l0.53765,1.6325l-5.9826,1.96488z" fill="none" fill-rule="evenodd" stroke="#000000" stroke-width="1" stroke-linecap="butt" stroke-linejoin="round"/><path d="M202.99758,128.99885v0c-9.8772,0 -17.88427,-4.9456 -17.88427,-11.04631v0c0,-3.68211 0,-7.36421 0,-11.04631c5.96142,0 11.92285,0 17.88427,0c9.87721,0 17.88426,4.9456 17.88426,11.04631v0c0,6.1007 -8.00705,11.04631 -17.88426,11.04631z" fill="#ffffff" fill-rule="evenodd" stroke="none" stroke-width="1" stroke-linecap="square" stroke-linejoin="miter"/><path d="M202.99758,128.99885v0c-9.8772,0 -17.88427,-4.9456 -17.88427,-11.04631v0c0,-3.68211 0,-7.36421 0,-11.04631c5.96142,0 11.92285,0 17.88427,0c9.87721,0 17.88426,4.9456 17.88426,11.04631v0c0,6.1007 -8.00705,11.04631 -17.88426,11.04631z" fill="none" fill-rule="evenodd" stroke="#000000" stroke-width="1" stroke-linecap="butt" stroke-linejoin="round"/><path d="M192.62765,118.54782v0c0,-4.41086 4.834,-7.98657 10.79703,-7.98657v0c5.96304,0 10.79703,3.57572 10.79703,7.98657v0c0,4.41086 -4.83399,7.98658 -10.79703,7.98658v0c-5.96304,0 -10.79703,-3.57572 -10.79703,-7.98658z" fill="#000000" fill-rule="evenodd" stroke="none" stroke-width="1" stroke-linecap="square" stroke-linejoin="miter"/><path d="M220.89162,118.39245l-35.7783,-0.4399" fill-opacity="0" fill="#000000" fill-rule="evenodd" stroke="none" stroke-width="1" stroke-linecap="square" stroke-linejoin="miter"/><path d="M185.11332,102.59455h27.8585v0c15.38582,0 27.8585,3.10616 27.8585,6.93783c0,3.83165 -12.47268,6.93783 -27.8585,6.93783h-27.8585z" fill="#000000" fill-rule="evenodd" stroke="none" stroke-width="1" stroke-linecap="square" stroke-linejoin="miter"/><path d="M214.42417,113.77101v0c-2.72373,-1.98948 -4.50939,-4.17998 -3.9884,-4.89263v0c0.25019,-0.34222 1.00972,-0.29091 2.11151,0.14266c1.10179,0.43356 2.45558,1.21387 3.76356,2.16925v0c2.72372,1.98948 4.50939,4.17998 3.98841,4.89263v0c-0.25019,0.34222 -1.00972,0.29092 -2.11152,-0.14265c-1.10179,-0.43356 -2.45558,-1.21387 -3.76356,-2.16925z" fill="#000000" fill-rule="evenodd" stroke="none" stroke-width="1" stroke-linecap="square" stroke-linejoin="miter"/><path d="M214.42417,113.77101v0c-2.72373,-1.98948 -4.50939,-4.17998 -3.9884,-4.89263v0c0.25019,-0.34222 1.00972,-0.29091 2.11151,0.14266c1.10179,0.43356 2.45558,1.21387 3.76356,2.16925v0c2.72372,1.98948 4.50939,4.17998 3.98841,4.89263v0c-0.25019,0.34222 -1.00972,0.29092 -2.11152,-0.14265c-1.10179,-0.43356 -2.45558,-1.21387 -3.76356,-2.16925z" fill="none" fill-rule="evenodd" stroke="#000000" stroke-width="1" stroke-linecap="butt" stroke-linejoin="round"/><path d="M215.16756,111.05705v0c-1.80321,-1.10947 -3.17529,-2.15549 -3.06461,-2.33634v0c0.05315,-0.08686 0.44811,0.0415 1.098,0.35681c0.64989,0.31533 1.50147,0.79179 2.36741,1.32457v0c1.80322,1.10947 3.1753,2.15549 3.06462,2.33635v0c-0.05316,0.08685 -0.44811,-0.04151 -1.09801,-0.35682c-0.64989,-0.31533 -1.50147,-0.79179 -2.36741,-1.32457z" fill="#000000" fill-rule="evenodd" stroke="none" stroke-width="1" stroke-linecap="square" stroke-linejoin="miter"/><path d="M215.16756,111.05705v0c-1.80321,-1.10947 -3.17529,-2.15549 -3.06461,-2.33634v0c0.05315,-0.08686 0.44811,0.0415 1.098,0.35681c0.64989,0.31533 1.50147,0.79179 2.36741,1.32457v0c1.80322,1.10947 3.1753,2.15549 3.06462,2.33635v0c-0.05316,0.08685 -0.44811,-0.04151 -1.09801,-0.35682c-0.64989,-0.31533 -1.50147,-0.79179 -2.36741,-1.32457z" fill="none" fill-rule="evenodd" stroke="#000000" stroke-width="1" stroke-linecap="butt" stroke-linejoin="round"/><path d="M218.17322,113.42405v0c0,-0.37522 0.22102,-0.6794 0.49366,-0.6794v0c0.13093,0 0.2565,0.07158 0.34907,0.19899c0.09258,0.12741 0.14459,0.30022 0.14459,0.48041v0c0,0.37522 -0.22102,0.67939 -0.49366,0.67939v0c-0.27265,0 -0.49366,-0.30418 -0.49366,-0.67939z" fill="#000000" fill-rule="evenodd" stroke="none" stroke-width="1" stroke-linecap="square" stroke-linejoin="miter"/><path d="M212.73927,150.6101v0c8.06319,-3.02605 16.1928,-1.23382 18.15798,4.00307l-14.5997,5.47917z" fill-opacity="0" fill="#000000" fill-rule="evenodd" stroke="none" stroke-width="1" stroke-linecap="square" stroke-linejoin="miter"/><path d="M212.73927,150.6101v0c8.06319,-3.02605 16.1928,-1.23382 18.15798,4.00307" fill-opacity="0" fill="#000000" fill-rule="evenodd" stroke="none" stroke-width="1" stroke-linecap="square" stroke-linejoin="miter"/><path d="M225.86635,148.146c2.72555,0.0119 8.25353,8.33878 8.25353,8.33878c0,0 -5.27056,-1.11814 -8.51924,-1.13232c-3.24868,-0.01418 -8.11257,1.05974 -8.11257,1.05974c0,0 5.56282,-8.27848 8.37828,-8.26619z" fill="#000000" fill-rule="nonzero" stroke="#000000" stroke-width="2" stroke-linecap="round" stroke-linejoin="miter"/></g></g></svg>