<svg version="1.1" xmlns="http://www.w3.org/2000/svg" xmlns:xlink="http://www.w3.org/1999/xlink" width="193.03307" height="259.09068" viewBox="0,0,193.03307,259.09068"><defs><linearGradient x1="329.07794" y1="185.13856" x2="334.49303" y2="290.34643" gradientUnits="userSpaceOnUse" id="color-1"><stop offset="0" stop-color="#4d4d4d"/><stop offset="1" stop-color="#000000"/></linearGradient><linearGradient x1="136.98931" y1="198.74641" x2="155.15251" y2="302.51241" gradientUnits="userSpaceOnUse" id="color-2"><stop offset="0" stop-color="#4d4d4d"/><stop offset="1" stop-color="#000000"/></linearGradient><linearGradient x1="310.73117" y1="128.11868" x2="323.83645" y2="232.6523" gradientUnits="userSpaceOnUse" id="color-3"><stop offset="0" stop-color="#4d4d4d"/><stop offset="1" stop-color="#000000"/></linearGradient><linearGradient x1="155.13205" y1="129.13565" x2="155.13169" y2="234.4805" gradientUnits="userSpaceOnUse" id="color-4"><stop offset="0" stop-color="#4d4d4d"/><stop offset="1" stop-color="#000000"/></linearGradient><radialGradient cx="289.72536" cy="76.66922" r="45.07582" fx="289.72536" fy="76.66922" gradientUnits="userSpaceOnUse" id="color-5"><stop offset="0" stop-color="#ffffff"/><stop offset="1" stop-color="#b3b3b3"/></radialGradient><radialGradient cx="157.9706" cy="104.61103" r="45.07583" fx="157.9706" fy="104.61103" gradientUnits="userSpaceOnUse" id="color-6"><stop offset="0" stop-color="#ffffff"/><stop offset="1" stop-color="#b3b3b3"/></radialGradient><radialGradient cx="240.6814" cy="182.57159" r="32.98501" fx="240.6814" fy="182.57159" gradientUnits="userSpaceOnUse" id="color-7"><stop offset="0" stop-color="#434343"/><stop offset="0.61" stop-color="#222222"/><stop offset="1" stop-color="#000000"/></radialGradient><radialGradient cx="240.6814" cy="235.95954" r="75.10565" fx="240.6814" fy="235.95954" gradientUnits="userSpaceOnUse" id="color-8"><stop offset="0" stop-color="#434343"/><stop offset="0.61" stop-color="#222222"/><stop offset="1" stop-color="#000000"/></radialGradient><linearGradient x1="163.13342" y1="80.78066" x2="179.0886" y2="156.01315" gradientUnits="userSpaceOnUse" id="color-9"><stop offset="0" stop-color="#ffffff"/><stop offset="0.49" stop-color="#efefef"/><stop offset="0.9" stop-color="#cccccc"/><stop offset="1" stop-color="#b9b9b9"/><stop offset="1" stop-color="#737373"/></linearGradient><radialGradient cx="196.9991" cy="103.0285" r="21.60376" fx="196.9991" fy="103.0285" gradientUnits="userSpaceOnUse" id="color-10"><stop offset="0" stop-color="#ffffff"/><stop offset="0.56" stop-color="#ffffff"/><stop offset="1" stop-color="#b3b3b3"/></radialGradient><radialGradient cx="147.90681" cy="120.54822" r="21.88616" fx="147.90681" fy="120.54822" gradientUnits="userSpaceOnUse" id="color-11"><stop offset="0" stop-color="#4d4d4d"/><stop offset="1" stop-color="#000000"/></radialGradient><radialGradient cx="235.48262" cy="131.88079" r="52.50766" fx="235.48262" fy="131.88079" gradientUnits="userSpaceOnUse" id="color-12"><stop offset="0" stop-color="#bfbfbf"/><stop offset="1" stop-color="#737373"/></radialGradient><radialGradient cx="200.85263" cy="127.31983" r="21.88616" fx="200.85263" fy="127.31983" gradientUnits="userSpaceOnUse" id="color-13"><stop offset="0" stop-color="#4d4d4d"/><stop offset="1" stop-color="#000000"/></radialGradient><radialGradient cx="196.2864" cy="126.48039" r="17.50369" fx="196.2864" fy="126.48039" gradientUnits="userSpaceOnUse" id="color-14"><stop offset="0" stop-color="#4d4d4d"/><stop offset="1" stop-color="#000000"/></radialGradient><radialGradient cx="193.38312" cy="108.25002" r="4.33856" fx="193.38312" fy="108.25002" gradientUnits="userSpaceOnUse" id="color-15"><stop offset="0" stop-color="#4d4d4d"/><stop offset="1" stop-color="#000000"/></radialGradient></defs><g transform="translate(-136.57299,-48.48034)"><g data-paper-data="{&quot;isPaintingLayer&quot;:true}" fill-rule="evenodd" stroke-miterlimit="10" stroke-dasharray="" stroke-dashoffset="0" style="mix-blend-mode: normal"><path d="M232.982,286.36005c1.35217,-3.51974 1.92805,-5.37004 12.02676,-12.119c10.09867,-6.74896 39.31069,-16.39833 48.56541,-28.37482c9.25473,-11.97648 1.06069,-33.40512 6.96293,-43.48414c5.90224,-10.07903 26.73701,-18.6267 28.45046,-16.98997c1.71345,1.63675 -15.68187,15.5654 -18.16978,26.81044c-2.48791,11.24504 9.44327,28.93621 3.24219,40.65981c-6.20108,11.7236 -27.58786,22.59897 -40.4486,29.68185c-12.86073,7.08285 -29.94417,12.17936 -36.71574,12.81532c-6.77157,0.63597 -5.26582,-5.47974 -3.91363,-8.99948z" fill="url(#color-1)" stroke="none" stroke-width="1" stroke-linecap="square" stroke-linejoin="miter"/><path d="M232.982,286.36005c1.35217,-3.51974 1.92805,-5.37004 12.02676,-12.119c10.09867,-6.74896 39.31069,-16.39833 48.56541,-28.37482c9.25473,-11.97648 1.06069,-33.40512 6.96293,-43.48414c5.90224,-10.07903 26.73701,-18.6267 28.45046,-16.98997c1.71345,1.63675 -15.68187,15.5654 -18.16978,26.81044c-2.48791,11.24504 9.44327,28.93621 3.24219,40.65981c-6.20108,11.7236 -27.58786,22.59897 -40.4486,29.68185c-12.86073,7.08285 -29.94417,12.17936 -36.71574,12.81532c-6.77157,0.63597 -5.26582,-5.47974 -3.91363,-8.99948z" fill="none" stroke="#000000" stroke-width="1" stroke-linecap="butt" stroke-linejoin="round"/><path d="M253.21995,276.00813c2.10242,3.12985 4.93294,8.7561 -1.80989,9.64496c-6.74281,0.88884 -24.53179,-0.27289 -38.64694,-4.31189c-14.11515,-4.03898 -37.3868,-9.87526 -46.04397,-19.92205c-8.65718,-10.04678 -0.96822,-29.95106 -5.89907,-40.35867c-4.93087,-10.40762 -24.99177,-20.1097 -23.68617,-22.08702c1.30561,-1.97734 23.52046,1.71286 31.51988,10.22305c7.99942,8.51019 4.78628,31.22516 16.47659,40.83807c11.69031,9.6129 42.317,12.51042 53.66525,16.83935c11.34827,4.32895 12.3219,6.00433 14.4243,9.13419z" fill="url(#color-2)" stroke="none" stroke-width="1" stroke-linecap="square" stroke-linejoin="miter"/><path d="M253.21995,276.00813c2.10242,3.12985 4.93294,8.7561 -1.80989,9.64496c-6.74281,0.88884 -24.53179,-0.27289 -38.64694,-4.31189c-14.11515,-4.03898 -37.3868,-9.87526 -46.04397,-19.92205c-8.65718,-10.04678 -0.96822,-29.95106 -5.89907,-40.35867c-4.93087,-10.40762 -24.99177,-20.1097 -23.68617,-22.08702c1.30561,-1.97734 23.52046,1.71286 31.51988,10.22305c7.99942,8.51019 4.78628,31.22516 16.47659,40.83807c11.69031,9.6129 42.317,12.51042 53.66525,16.83935c11.34827,4.32895 12.3219,6.00433 14.4243,9.13419z" fill="none" stroke="#000000" stroke-width="1" stroke-linecap="butt" stroke-linejoin="round"/><path d="M222.3014,236.11022c1.09087,-3.60949 1.52972,-5.49707 11.10753,-12.96775c9.57783,-7.4707 38.00608,-19.2338 46.35933,-31.8564c8.3533,-12.62261 -1.38837,-33.39464 3.7602,-43.87929c5.14853,-10.48463 25.30235,-20.53552 27.13115,-19.02857c1.8288,1.50695 -14.50056,16.6727 -16.15847,28.07025c-1.65786,11.39756 11.53737,28.1683 6.21121,40.31507c-5.3262,12.14676 -25.8601,24.55961 -38.16822,32.56559c-12.30812,8.00598 -28.97326,14.34006 -35.68037,15.47024c-6.70711,1.13018 -5.65322,-5.07964 -4.56235,-8.68913z" fill="url(#color-3)" stroke="none" stroke-width="1" stroke-linecap="square" stroke-linejoin="miter"/><path d="M222.3014,236.11022c1.09087,-3.60949 1.52972,-5.49707 11.10753,-12.96775c9.57783,-7.4707 38.00608,-19.2338 46.35933,-31.8564c8.3533,-12.62261 -1.38837,-33.39464 3.7602,-43.87929c5.14853,-10.48463 25.30235,-20.53552 27.13115,-19.02857c1.8288,1.50695 -14.50056,16.6727 -16.15847,28.07025c-1.65786,11.39756 11.53737,28.1683 6.21121,40.31507c-5.3262,12.14676 -25.8601,24.55961 -38.16822,32.56559c-12.30812,8.00598 -28.97326,14.34006 -35.68037,15.47024c-6.70711,1.13018 -5.65322,-5.07964 -4.56235,-8.68913z" fill="none" stroke="#000000" stroke-width="1" stroke-linecap="butt" stroke-linejoin="round"/><path d="M256.30144,225.28205c1.53126,3.44553 3.34932,9.47563 -3.44584,9.18855c-6.79514,-0.28708 -24.1176,-4.49867 -37.3251,-10.91101c-13.20748,-6.41234 -35.12453,-16.17386 -41.91981,-27.56301c-6.79531,-11.38913 4.21056,-29.66974 1.148,-40.77181c-3.06256,-11.10206 -21.15036,-24.11791 -19.52335,-25.84053c1.62703,-1.72262 22.87314,5.74274 29.28547,15.50485c6.41234,9.76212 -0.66931,31.58312 9.18855,43.06784c9.85787,11.48472 39.52657,19.61967 49.95858,25.84053c10.43201,6.22086 11.10221,8.03905 12.6335,11.48458z" fill="url(#color-4)" stroke="none" stroke-width="1" stroke-linecap="square" stroke-linejoin="miter"/><path d="M256.30144,225.28205c1.53126,3.44553 3.34932,9.47563 -3.44584,9.18855c-6.79514,-0.28708 -24.1176,-4.49867 -37.3251,-10.91101c-13.20748,-6.41234 -35.12453,-16.17386 -41.91981,-27.56301c-6.79531,-11.38913 4.21056,-29.66974 1.148,-40.77181c-3.06256,-11.10206 -21.15036,-24.11791 -19.52335,-25.84053c1.62703,-1.72262 22.87314,5.74274 29.28547,15.50485c6.41234,9.76212 -0.66931,31.58312 9.18855,43.06784c9.85787,11.48472 39.52657,19.61967 49.95858,25.84053c10.43201,6.22086 11.10221,8.03905 12.6335,11.48458z" fill="none" stroke="#000000" stroke-width="1" stroke-linecap="butt" stroke-linejoin="round"/><path d="M324.38139,99.7367v0c-5.29021,7.9446 -25.09483,4.05734 -44.23484,-8.68248v0c-9.19135,-6.11787 -16.99705,-13.50073 -21.69994,-20.52443c-4.70286,-7.02371 -5.91771,-13.11292 -3.37728,-16.92804v0c5.29024,-7.94462 25.09483,-4.05732 44.23483,8.6825v0c19.13999,12.73981 30.36747,29.50784 25.07723,37.45247z" fill="url(#color-5)" stroke="none" stroke-width="1" stroke-linecap="square" stroke-linejoin="miter"/><path d="M324.38139,99.7367v0c-5.29021,7.9446 -25.09483,4.05734 -44.23484,-8.68248v0c-9.19135,-6.11787 -16.99705,-13.50073 -21.69994,-20.52443c-4.70286,-7.02371 -5.91771,-13.11292 -3.37728,-16.92804v0c5.29024,-7.94462 25.09483,-4.05732 44.23483,8.6825v0c19.13999,12.73981 30.36747,29.50784 25.07723,37.45247z" fill="none" stroke="#000000" stroke-width="2" stroke-linecap="butt" stroke-linejoin="round"/><path d="M275.84709,75.68145l45.15703,7.12722" fill-opacity="0" fill="#000000" stroke="none" stroke-width="1" stroke-linecap="square" stroke-linejoin="miter"/><path d="M275.84709,75.68145l45.15703,7.12722" fill="none" stroke="#000000" stroke-width="2" stroke-linecap="butt" stroke-linejoin="round"/><path d="M141.31937,99.98309v0c6.1612,-22.15135 18.61087,-38.03655 27.80708,-35.4806v0c4.41618,1.2274 7.47614,6.63025 8.50673,15.01999c1.03057,8.38973 -0.05262,19.07907 -3.01136,29.71653v0c-6.1612,22.15135 -18.61086,38.03654 -27.80708,35.4806v0c-9.19622,-2.55595 -11.65658,-22.58517 -5.49538,-44.7365z" fill="url(#color-6)" stroke="none" stroke-width="1" stroke-linecap="square" stroke-linejoin="miter"/><path d="M141.31937,99.98309v0c6.1612,-22.15135 18.61087,-38.03655 27.80708,-35.4806v0c4.41618,1.2274 7.47614,6.63025 8.50673,15.01999c1.03057,8.38973 -0.05262,19.07907 -3.01136,29.71653v0c-6.1612,22.15135 -18.61086,38.03654 -27.80708,35.4806v0c-9.19622,-2.55595 -11.65658,-22.58517 -5.49538,-44.7365z" fill="none" stroke="#000000" stroke-width="2" stroke-linecap="butt" stroke-linejoin="round"/><path d="M138.30803,129.69961l29.15404,-28.51227" fill-opacity="0" fill="#000000" stroke="none" stroke-width="1" stroke-linecap="square" stroke-linejoin="miter"/><path d="M138.30803,129.69961l29.15404,-28.51227" fill="none" stroke="#000000" stroke-width="2" stroke-linecap="butt" stroke-linejoin="round"/><path d="M261.71,157.15879l-21.0286,50.82561l-21.02856,-50.82561z" fill="url(#color-7)" stroke="none" stroke-width="1" stroke-linecap="square" stroke-linejoin="miter"/><path d="M261.71,157.15879l-21.0286,50.82561l-21.02856,-50.82561z" fill="none" stroke="#000000" stroke-width="1" stroke-linecap="butt" stroke-linejoin="round"/><path d="M264.84788,307.07102h-48.33294l9.66658,-142.22294h28.99975z" fill="url(#color-8)" stroke="none" stroke-width="1" stroke-linecap="square" stroke-linejoin="miter"/><path d="M264.84788,307.07102h-48.33294l9.66658,-142.22294h28.99975z" fill="none" stroke="#000000" stroke-width="1" stroke-linecap="butt" stroke-linejoin="round"/><path d="M163.13351,80.78107l113.44826,-24.06034l15.95537,75.23203l-113.44825,24.06034z" fill="url(#color-9)" stroke="none" stroke-width="1" stroke-linecap="square" stroke-linejoin="miter"/><path d="M163.13351,80.78107l113.44826,-24.06034l15.95537,75.23203l-113.44825,24.06034z" fill="none" stroke="#000000" stroke-width="2" stroke-linecap="butt" stroke-linejoin="round"/><path d="M175.78082,140.92951l105.52072,-61.2343" fill-opacity="0" fill="#000000" stroke="none" stroke-width="1" stroke-linecap="square" stroke-linejoin="miter"/><path d="M175.78082,140.92951l105.52072,-61.2343" fill="none" stroke="#000000" stroke-width="1" stroke-linecap="butt" stroke-linejoin="round"/><path d="M163.50952,80.77949l112.93676,-23.95185l4.85059,22.87129l-112.93676,23.95185z" fill="#000000" stroke="none" stroke-width="1" stroke-linecap="square" stroke-linejoin="miter"/><path d="M163.50952,80.77949l112.93676,-23.95185l4.85059,22.87129l-112.93676,23.95185z" fill="none" stroke="#000000" stroke-width="1" stroke-linecap="butt" stroke-linejoin="round"/><path d="M172.03085,120.95888l100.01241,-57.42627l9.37712,16.33716l-100.01242,57.42629z" fill="#000000" stroke="none" stroke-width="1" stroke-linecap="square" stroke-linejoin="miter"/><path d="M172.03085,120.95888l100.01241,-57.42627l9.37712,16.33716l-100.01242,57.42629z" fill="none" stroke="#000000" stroke-width="1" stroke-linecap="butt" stroke-linejoin="round"/><path d="M163.14939,80.85587l57.90369,-12.28034l8.62524,40.66936l-57.90369,12.28034z" fill="#000000" stroke="none" stroke-width="1" stroke-linecap="square" stroke-linejoin="miter"/><path d="M163.14939,80.85587l57.90369,-12.28034l8.62524,40.66936l-57.90369,12.28034z" fill="none" stroke="#000000" stroke-width="1" stroke-linecap="butt" stroke-linejoin="round"/><path d="M176.02406,140.54249l-4.8971,-22.73053l13.49599,15.08184z" fill="#000000" stroke="none" stroke-width="1" stroke-linecap="square" stroke-linejoin="miter"/><path d="M176.02406,140.54249l-4.8971,-22.73053l13.49599,15.08184z" fill="none" stroke="#000000" stroke-width="1" stroke-linecap="butt" stroke-linejoin="round"/><path d="M175.60391,138.59787l5.94352,-3.45308l0.94385,1.6215l-5.94352,3.45309z" fill="#000000" stroke="none" stroke-width="1" stroke-linecap="square" stroke-linejoin="miter"/><path d="M175.60391,138.59787l5.94352,-3.45308l0.94385,1.6215l-5.94352,3.45309z" fill="none" stroke="#000000" stroke-width="1" stroke-linecap="butt" stroke-linejoin="round"/><path d="M212.62106,106.04067v0c-1.53042,7.92445 -9.76511,12.99919 -18.39271,11.33475v0c-5.20722,-1.00457 -10.41444,-2.00915 -15.62166,-3.01372c0.92368,-4.78282 1.84735,-9.56563 2.77105,-14.34846c1.53042,-7.92445 9.76511,-12.99919 18.39271,-11.33474v0c8.62762,1.66443 14.38103,9.43775 12.85061,17.36218z" fill="url(#color-10)" stroke="none" stroke-width="1" stroke-linecap="square" stroke-linejoin="miter"/><path d="M212.62106,106.04067v0c-1.53042,7.92445 -9.76511,12.99919 -18.39271,11.33475v0c-5.20722,-1.00457 -10.41444,-2.00915 -15.62166,-3.01372c0.92368,-4.78282 1.84735,-9.56563 2.77105,-14.34846c1.53042,-7.92445 9.76511,-12.99919 18.39271,-11.33474v0c8.62762,1.66443 14.38103,9.43775 12.85061,17.36218z" fill="none" stroke="#000000" stroke-width="1" stroke-linecap="butt" stroke-linejoin="round"/><path d="M169.61751,88.44536l19.32431,-3.16729l0.71284,4.24845l17.74801,-6.22283l1.12482,4.38803l28.08634,-5.61154l-25.79793,16.91335l-1.01186,-5.23527l-16.37481,10.39171l-1.82654,-6.33037l-17.21079,10.99843z" fill="#000000" stroke="none" stroke-width="1" stroke-linecap="square" stroke-linejoin="miter"/><path d="M169.61751,88.44536l19.32431,-3.16729l0.71284,4.24845l17.74801,-6.22283l1.12482,4.38803l28.08634,-5.61154l-25.79793,16.91335l-1.01186,-5.23527l-16.37481,10.39171l-1.82654,-6.33037l-17.21079,10.99843z" fill="none" stroke="#000000" stroke-width="1" stroke-linecap="butt" stroke-linejoin="round"/><path d="M141.30556,100.3382l5.18111,10.98484l-0.49666,1.59232l5.28062,9.1876l-0.41884,1.88283l7.68918,15.69143l-8.91541,-11.21512l0.57971,-2.044l-5.60476,-7.21212l0.55485,-2.84121l-5.90288,-7.55958z" fill="url(#color-11)" stroke="none" stroke-width="1" stroke-linecap="square" stroke-linejoin="miter"/><path d="M213.18661,131.92194l4.75038,12.4206" fill-opacity="0" fill="#000000" stroke="none" stroke-width="1" stroke-linecap="square" stroke-linejoin="miter"/><path d="M232.49935,126.35761l4.56781,14.54281" fill-opacity="0" fill="#000000" stroke="none" stroke-width="1" stroke-linecap="square" stroke-linejoin="miter"/><path d="M252.56955,119.35712l3.94441,11.86068" fill-opacity="0" fill="#000000" stroke="none" stroke-width="1" stroke-linecap="square" stroke-linejoin="miter"/><path d="M204.67624,142.76979l9.54243,-6.59435" fill-opacity="0" fill="#000000" stroke="none" stroke-width="1" stroke-linecap="square" stroke-linejoin="miter"/><path d="M214.21565,136.16973l22.85258,4.73083" fill-opacity="0" fill="#000000" stroke="none" stroke-width="1" stroke-linecap="square" stroke-linejoin="miter"/><path d="M240.9,123.0911l-3.83706,17.80884" fill-opacity="0" fill="#000000" stroke="none" stroke-width="1" stroke-linecap="square" stroke-linejoin="miter"/><path d="M255.44524,132.92071l-13.98968,-8.92306" fill-opacity="0" fill="#000000" stroke="none" stroke-width="1" stroke-linecap="square" stroke-linejoin="miter"/><path d="M257.78629,117.40626l8.39088,5.10357" fill-opacity="0" fill="#000000" stroke="none" stroke-width="1" stroke-linecap="square" stroke-linejoin="miter"/><path d="M274.55339,96.80833v0c6.32165,11.45657 -8.60765,31.8046 -33.34535,45.44859c-24.73772,13.64398 -49.91631,15.41724 -56.2379,3.96066v0c31.30222,-12.7551 62.09648,-29.73951 89.58326,-49.40924z" fill="url(#color-12)" stroke="none" stroke-width="1" stroke-linecap="square" stroke-linejoin="miter"/><path d="M274.55339,96.80833v0c6.32165,11.45657 -8.60765,31.8046 -33.34535,45.44859c-24.73772,13.64398 -49.91631,15.41724 -56.2379,3.96066v0c31.30222,-12.7551 62.09648,-29.73951 89.58326,-49.40924z" fill="none" stroke="#000000" stroke-width="2" stroke-linecap="butt" stroke-linejoin="round"/><path d="M206.95319,136.74529l9.69076,15.27222" fill="none" stroke="#000000" stroke-width="1" stroke-linecap="butt" stroke-linejoin="round"/><path d="M241.21377,142.25642l-10.02122,-18.15049" fill="none" stroke="#000000" stroke-width="1" stroke-linecap="butt" stroke-linejoin="round"/><path d="M256.05325,109.34735l8.46501,14.74375" fill="none" stroke="#000000" stroke-width="1" stroke-linecap="butt" stroke-linejoin="round"/><path d="M198.54208,153.50668l10.93699,-11.37054" fill="none" stroke="#000000" stroke-width="1" stroke-linecap="butt" stroke-linejoin="round"/><path d="M241.21524,142.25631l-31.74175,-0.12696" fill="none" stroke="#000000" stroke-width="1" stroke-linecap="butt" stroke-linejoin="round"/><path d="M241.50738,117.48017l-0.29935,24.77675" fill="none" stroke="#000000" stroke-width="1" stroke-linecap="butt" stroke-linejoin="round"/><path d="M263.55412,126.65009l-21.06103,-8.11169" fill="none" stroke="#000000" stroke-width="1" stroke-linecap="butt" stroke-linejoin="round"/><path d="M275.04475,109.87046l-12.56506,-4.5342" fill="none" stroke="#000000" stroke-width="1" stroke-linecap="butt" stroke-linejoin="round"/><path d="M194.25136,107.10983l5.18112,10.98483l-0.49666,1.59233l5.28062,9.1876l-0.41884,1.88283l7.68917,15.69142l-8.91541,-11.21512l0.57971,-2.04399l-5.60476,-7.21212l0.55485,-2.8412l-5.90288,-7.55958z" fill="url(#color-13)" stroke="none" stroke-width="1" stroke-linecap="square" stroke-linejoin="miter"/><path d="M194.28179,116.30993l-0.71279,-6.97274l1.86527,9.0827l-0.10049,-4.25269l0.76048,5.35145l1.18737,-0.06643l-0.09846,4.54428l0.91172,2.90428l-0.07665,1.68976l1.65616,5.09915l-1.36013,-1.8149l1.07216,4.72751l-1.08619,-2.12404l0.8429,4.59073l-0.8734,-2.22986l0.52171,3.73186l-0.78681,-2.43691l0.58226,5.57793l-1.14351,-5.27022l-0.91349,-0.48714l-0.36707,-3.95006l-1.56358,-3.75865l0.43882,-2.20135l-1.71473,-5.08671l0.77424,-0.90744l-1.58751,-6.5411l1.80965,4.1396l-1.23863,-7.11223z" fill="url(#color-14)" stroke="none" stroke-width="1" stroke-linecap="square" stroke-linejoin="miter"/><path d="M190.10003,108.9463v0c-0.31504,-1.48545 0.89947,-3.00139 2.71266,-3.38593v0c1.8132,-0.38455 3.53848,0.50791 3.85352,1.99337v0c0.31504,1.48545 -0.89946,3.00141 -2.71266,3.38595v0c-1.8132,0.38455 -3.53847,-0.50791 -3.85351,-1.99337z" fill="url(#color-15)" stroke="none" stroke-width="1" stroke-linecap="square" stroke-linejoin="miter"/><path d="M192.83654,108.46865v0c-0.38515,-1.81602 1.09962,-3.66931 3.31632,-4.13942v0c2.2167,-0.47013 4.32592,0.62095 4.71106,2.43696v0c0.38515,1.81602 -1.09962,3.66933 -3.31633,4.13944v0c-2.2167,0.47013 -4.32591,-0.62095 -4.71105,-2.43697z" fill="none" stroke="#000000" stroke-width="1" stroke-linecap="butt" stroke-linejoin="round"/><path d="M267.10478,88.23277l13.78107,6.53113l-18.74247,-1.52242l8.12286,6.47569l-10.757,-3.42129l-0.87729,8.96636l-8.5059,-8.45442l-6.25934,1.86394l-3.12908,-3.44224l-11.03658,3.68596l4.57908,-7.05819l-9.84092,-0.03742l4.93198,-4.49048l-9.38879,-1.51442l4.95231,-2.72406l-7.49415,-2.45006l5.2705,-1.72665l-11.03452,-5.13494l10.92693,0.42728l1.69229,-5.98375l7.77594,3.97394l8.42476,-5.27312l3.79014,7.012l11.06256,-4.14392l1.06124,7.31472l13.704,-0.72421l-9.35259,6.46058l14.48884,2.84741z" fill="#000000" stroke="none" stroke-width="1" stroke-linecap="square" stroke-linejoin="miter"/><path d="M267.10478,88.23277l13.78107,6.53113l-18.74247,-1.52242l8.12286,6.47569l-10.757,-3.42129l-0.87729,8.96636l-8.5059,-8.45442l-6.25934,1.86394l-3.12908,-3.44224l-11.03658,3.68596l4.57908,-7.05819l-9.84092,-0.03742l4.93198,-4.49048l-9.38879,-1.51442l4.95231,-2.72406l-7.49415,-2.45006l5.2705,-1.72665l-11.03452,-5.13494l10.92693,0.42728l1.69229,-5.98375l7.77594,3.97394l8.42476,-5.27312l3.79014,7.012l11.06256,-4.14392l1.06124,7.31472l13.704,-0.72421l-9.35259,6.46058l14.48884,2.84741z" fill="none" stroke="#000000" stroke-width="1" stroke-linecap="butt" stroke-linejoin="round"/><path d="M268.02696,58.79807l3.30635,-6.03476l1.09073,6.86492l3.94249,-4.03603l-1.30795,4.4047l6.9121,-1.32712l-5.39879,4.53157l2.16529,1.85994l-2.23816,1.72759l4.12111,3.20661l-5.90718,-0.32196l1.15116,3.46552l-4.00016,-0.91433l-0.02436,3.57602l-2.66161,-1.24368l-0.96175,3.0808l-1.94254,-1.53742l-2.57563,4.81479l-0.98536,-3.91831l-4.7455,0.49666l2.08483,-3.45778l-5.01299,-1.99915l4.869,-2.61106l-4.47192,-3.1322l5.42585,-1.70717l-2.19241,-4.68433l6.02568,2.10866l0.42501,-5.61162z" fill="#000000" stroke="none" stroke-width="1" stroke-linecap="square" stroke-linejoin="miter"/><path d="M268.02696,58.79807l3.30635,-6.03476l1.09073,6.86492l3.94249,-4.03603l-1.30795,4.4047l6.9121,-1.32712l-5.39879,4.53157l2.16529,1.85994l-2.23816,1.72759l4.12111,3.20661l-5.90718,-0.32196l1.15116,3.46552l-4.00016,-0.91433l-0.02436,3.57602l-2.66161,-1.24368l-0.96175,3.0808l-1.94254,-1.53742l-2.57563,4.81479l-0.98536,-3.91831l-4.7455,0.49666l2.08483,-3.45778l-5.01299,-1.99915l4.869,-2.61106l-4.47192,-3.1322l5.42585,-1.70717l-2.19241,-4.68433l6.02568,2.10866l0.42501,-5.61162z" fill="none" stroke="#000000" stroke-width="1" stroke-linecap="butt" stroke-linejoin="round"/><path d="M181.84314,80.04486l6.60523,-1.92915l-4.0829,5.62541l5.64173,-0.06602l-4.03949,2.18963l5.82616,3.94928l-7.02192,-0.61331l0.21599,2.84625l-2.80426,-0.36108l0.64676,5.18147l-3.9495,-4.40473l-1.63647,3.26444l-2.18208,-3.4751l-2.54583,2.51136l-1.0027,-2.76145l-2.85849,1.49836l-0.28652,-2.46072l-5.22588,1.58323l2.07389,-3.46737l-3.70687,-3.00445l3.91927,-0.97075l-2.13121,-4.95834l5.28928,1.59666l-0.94744,-5.37692l5.04395,2.62959l1.762,-4.86253l2.76989,5.75187l4.2685,-3.66741z" fill="#000000" stroke="none" stroke-width="1" stroke-linecap="square" stroke-linejoin="miter"/><path d="M181.84314,80.04486l6.60523,-1.92915l-4.0829,5.62541l5.64173,-0.06602l-4.03949,2.18963l5.82616,3.94928l-7.02192,-0.61331l0.21599,2.84625l-2.80426,-0.36108l0.64676,5.18147l-3.9495,-4.40473l-1.63647,3.26444l-2.18208,-3.4751l-2.54583,2.51136l-1.0027,-2.76145l-2.85849,1.49836l-0.28652,-2.46072l-5.22588,1.58323l2.07389,-3.46737l-3.70687,-3.00445l3.91927,-0.97075l-2.13121,-4.95834l5.28928,1.59666l-0.94744,-5.37692l5.04395,2.62959l1.762,-4.86253l2.76989,5.75187l4.2685,-3.66741z" fill="none" stroke="#000000" stroke-width="1" stroke-linecap="butt" stroke-linejoin="round"/></g></g></svg>