<svg version="1.1" xmlns="http://www.w3.org/2000/svg" xmlns:xlink="http://www.w3.org/1999/xlink" width="165.61526" height="237.52539" viewBox="0,0,165.61526,237.52539"><g transform="translate(-152.99407,-69.63662)"><g data-paper-data="{&quot;isPaintingLayer&quot;:true}" stroke-miterlimit="10" stroke-dasharray="" stroke-dashoffset="0" style="mix-blend-mode: normal"><path d="M311.58531,142.2275v0c-8.06856,3.3695 -21.19235,-9.65382 -29.31277,-29.08841v0c-3.89958,-9.33283 -6.10023,-18.92617 -6.11784,-26.66964c-0.01761,-7.74346 2.14925,-13.00273 6.02391,-14.62083v0c8.06856,-3.3695 21.19234,9.65381 29.31278,29.08841v0c8.12044,19.43458 8.16249,37.92096 0.09392,41.29046z" fill="#ffffff" fill-rule="evenodd" stroke="none" stroke-width="1" stroke-linecap="square" stroke-linejoin="miter"/><path d="M311.58531,142.2275v0c-8.06856,3.3695 -21.19235,-9.65382 -29.31277,-29.08841v0c-3.89958,-9.33283 -6.10023,-18.92617 -6.11784,-26.66964c-0.01761,-7.74346 2.14925,-13.00273 6.02391,-14.62083v0c8.06856,-3.3695 21.19234,9.65381 29.31278,29.08841v0c8.12044,19.43458 8.16249,37.92096 0.09392,41.29046z" fill="none" fill-rule="evenodd" stroke="#000000" stroke-width="2" stroke-linecap="butt" stroke-linejoin="round"/><path d="M286.80337,99.23552l30.80585,28.37115" fill-opacity="0" fill="#000000" fill-rule="evenodd" stroke="none" stroke-width="1" stroke-linecap="square" stroke-linejoin="miter"/><path d="M286.80337,99.23552l30.80585,28.37115" fill="none" fill-rule="evenodd" stroke="#000000" stroke-width="2" stroke-linecap="butt" stroke-linejoin="round"/><path d="M158.54318,101.84351v0c6.91453,-19.89559 19.21577,-33.69847 27.47562,-30.82961v0c3.96651,1.37767 6.45153,6.49431 6.90834,14.22431c0.45683,7.73 -1.15196,17.44016 -4.47243,26.99435v0c-6.91453,19.89559 -19.21578,33.69847 -27.47562,30.82961v0c-8.25985,-2.86886 -9.35043,-21.32309 -2.43591,-41.21866z" fill="#ffffff" fill-rule="evenodd" stroke="none" stroke-width="1" stroke-linecap="square" stroke-linejoin="miter"/><path d="M158.54318,101.84351v0c6.91453,-19.89559 19.21577,-33.69847 27.47562,-30.82961v0c3.96651,1.37767 6.45153,6.49431 6.90834,14.22431c0.45683,7.73 -1.15196,17.44016 -4.47243,26.99435v0c-6.91453,19.89559 -19.21578,33.69847 -27.47562,30.82961v0c-8.25985,-2.86886 -9.35043,-21.32309 -2.43591,-41.21866z" fill="none" fill-rule="evenodd" stroke="#000000" stroke-width="2" stroke-linecap="butt" stroke-linejoin="round"/><path d="M154.07075,128.83787l28.30393,-24.38083" fill-opacity="0" fill="#000000" fill-rule="evenodd" stroke="none" stroke-width="1" stroke-linecap="square" stroke-linejoin="miter"/><path d="M154.07075,128.83787l28.30393,-24.38083" fill="none" fill-rule="evenodd" stroke="#000000" stroke-width="2" stroke-linecap="butt" stroke-linejoin="round"/><path d="M267.60393,169.32935l-27.78195,46.56068l-27.78195,-46.56068z" fill="#000000" fill-rule="evenodd" stroke="none" stroke-width="1" stroke-linecap="square" stroke-linejoin="miter"/><path d="M267.60393,169.32935l-27.78195,46.56068l-27.78195,-46.56068z" fill="none" fill-rule="evenodd" stroke="#000000" stroke-width="1" stroke-linecap="butt" stroke-linejoin="round"/><path d="M271.74956,306.66201h-63.85515l12.77103,-130.28859h38.31309z" fill="#000000" fill-rule="evenodd" stroke="none" stroke-width="1" stroke-linecap="square" stroke-linejoin="miter"/><path d="M271.74956,306.66201h-63.85515l12.77103,-130.28859h38.31309z" fill="none" fill-rule="evenodd" stroke="#000000" stroke-width="1" stroke-linecap="butt" stroke-linejoin="round"/><path d="M182.6548,86.664h106.24005v70.45198h-106.24005z" fill="#ffffff" fill-rule="evenodd" stroke="none" stroke-width="1" stroke-linecap="square" stroke-linejoin="miter"/><path d="M182.6548,86.664h106.24005v70.45198h-106.24005z" fill="none" fill-rule="evenodd" stroke="#000000" stroke-width="2" stroke-linecap="butt" stroke-linejoin="round"/><path d="M288.758,108.14972l-106.20095,34.82031" fill-opacity="0" fill="#000000" fill-rule="evenodd" stroke="none" stroke-width="1" stroke-linecap="square" stroke-linejoin="miter"/><path d="M288.758,108.14972l-106.20095,34.82031" fill="none" fill-rule="evenodd" stroke="#000000" stroke-width="1" stroke-linecap="butt" stroke-linejoin="round"/><path d="M182.99206,86.73406h105.76106v21.4181h-105.76106z" fill="#000000" fill-rule="evenodd" stroke="none" stroke-width="1" stroke-linecap="square" stroke-linejoin="miter"/><path d="M182.99206,86.73406h105.76106v21.4181h-105.76106z" fill="none" fill-rule="evenodd" stroke="#000000" stroke-width="1" stroke-linecap="butt" stroke-linejoin="round"/><path d="M182.99206,124.36055l100.54094,-32.45463l5.29832,16.42283l-100.54094,32.45463z" fill="#000000" fill-rule="evenodd" stroke="none" stroke-width="1" stroke-linecap="square" stroke-linejoin="miter"/><path d="M182.99206,124.36055l100.54094,-32.45463l5.29832,16.42283l-100.54094,32.45463z" fill="none" fill-rule="evenodd" stroke="#000000" stroke-width="1" stroke-linecap="butt" stroke-linejoin="round"/><path d="M182.6548,86.73406h54.22466v38.08533h-54.22466z" fill="#000000" fill-rule="evenodd" stroke="none" stroke-width="1" stroke-linecap="square" stroke-linejoin="miter"/><path d="M182.6548,86.73406h54.22466v38.08533h-54.22466z" fill="none" fill-rule="evenodd" stroke="#000000" stroke-width="1" stroke-linecap="butt" stroke-linejoin="round"/><path d="M182.84859,142.66944l-0.06843,-21.3008l9.22807,16.08069z" fill="#000000" fill-rule="evenodd" stroke="none" stroke-width="1" stroke-linecap="square" stroke-linejoin="miter"/><path d="M182.84859,142.66944l-0.06843,-21.3008l9.22807,16.08069z" fill="none" fill-rule="evenodd" stroke="#000000" stroke-width="1" stroke-linecap="butt" stroke-linejoin="round"/><path d="M182.84165,140.84691l5.9826,-1.96488l0.53765,1.6325l-5.9826,1.96488z" fill="#000000" fill-rule="evenodd" stroke="none" stroke-width="1" stroke-linecap="square" stroke-linejoin="miter"/><path d="M182.84165,140.84691l5.9826,-1.96488l0.53765,1.6325l-5.9826,1.96488z" fill="none" fill-rule="evenodd" stroke="#000000" stroke-width="1" stroke-linecap="butt" stroke-linejoin="round"/><path d="M213.16004,124.08296v0c-9.8772,0 -17.88427,-4.9456 -17.88427,-11.04631v0c0,-3.68211 0,-7.36421 0,-11.04631c5.96142,0 11.92285,0 17.88427,0c9.87721,0 17.88426,4.9456 17.88426,11.04631v0c0,6.1007 -8.00705,11.04631 -17.88426,11.04631z" fill="#ffffff" fill-rule="evenodd" stroke="none" stroke-width="1" stroke-linecap="square" stroke-linejoin="miter"/><path d="M213.16004,124.08296v0c-9.8772,0 -17.88427,-4.9456 -17.88427,-11.04631v0c0,-3.68211 0,-7.36421 0,-11.04631c5.96142,0 11.92285,0 17.88427,0c9.87721,0 17.88426,4.9456 17.88426,11.04631v0c0,6.1007 -8.00705,11.04631 -17.88426,11.04631z" fill="none" fill-rule="evenodd" stroke="#000000" stroke-width="1" stroke-linecap="butt" stroke-linejoin="round"/><path d="M204.73216,113.63193v0c0,-4.41086 4.834,-7.98657 10.79703,-7.98657v0c5.96304,0 10.79703,3.57572 10.79703,7.98657v0c0,4.41086 -4.83399,7.98658 -10.79703,7.98658v0c-5.96304,0 -10.79703,-3.57572 -10.79703,-7.98658z" fill="#000000" fill-rule="evenodd" stroke="none" stroke-width="1" stroke-linecap="square" stroke-linejoin="miter"/><path d="M231.05408,113.47656l-35.7783,-0.4399" fill-opacity="0" fill="#000000" fill-rule="evenodd" stroke="none" stroke-width="1" stroke-linecap="square" stroke-linejoin="miter"/><path d="M195.27578,100.26807h27.8585v0c15.38582,0 27.8585,3.10616 27.8585,6.93783c0,3.83165 -12.47268,6.93783 -27.8585,6.93783h-27.8585z" fill="#000000" fill-rule="evenodd" stroke="none" stroke-width="1" stroke-linecap="square" stroke-linejoin="miter"/><path d="M224.58663,108.85512v0c-2.72373,-1.98948 -4.50939,-4.17998 -3.9884,-4.89263v0c0.25019,-0.34222 1.00972,-0.29091 2.11151,0.14266c1.10179,0.43356 2.45558,1.21387 3.76356,2.16925v0c2.72372,1.98948 4.50939,4.17998 3.98841,4.89263v0c-0.25019,0.34222 -1.00972,0.29092 -2.11152,-0.14265c-1.10179,-0.43356 -2.45558,-1.21387 -3.76356,-2.16925z" fill="#000000" fill-rule="evenodd" stroke="none" stroke-width="1" stroke-linecap="square" stroke-linejoin="miter"/><path d="M224.58663,108.85512v0c-2.72373,-1.98948 -4.50939,-4.17998 -3.9884,-4.89263v0c0.25019,-0.34222 1.00972,-0.29091 2.11151,0.14266c1.10179,0.43356 2.45558,1.21387 3.76356,2.16925v0c2.72372,1.98948 4.50939,4.17998 3.98841,4.89263v0c-0.25019,0.34222 -1.00972,0.29092 -2.11152,-0.14265c-1.10179,-0.43356 -2.45558,-1.21387 -3.76356,-2.16925z" fill="none" fill-rule="evenodd" stroke="#000000" stroke-width="1" stroke-linecap="butt" stroke-linejoin="round"/><path d="M225.33002,106.14116v0c-1.80321,-1.10947 -3.17529,-2.15549 -3.06461,-2.33634v0c0.05315,-0.08686 0.44811,0.0415 1.098,0.35681c0.64989,0.31533 1.50147,0.79179 2.36741,1.32457v0c1.80322,1.10947 3.1753,2.15549 3.06462,2.33635v0c-0.05316,0.08685 -0.44811,-0.04151 -1.09801,-0.35682c-0.64989,-0.31533 -1.50147,-0.79179 -2.36741,-1.32457z" fill="#000000" fill-rule="evenodd" stroke="none" stroke-width="1" stroke-linecap="square" stroke-linejoin="miter"/><path d="M225.33002,106.14116v0c-1.80321,-1.10947 -3.17529,-2.15549 -3.06461,-2.33634v0c0.05315,-0.08686 0.44811,0.0415 1.098,0.35681c0.64989,0.31533 1.50147,0.79179 2.36741,1.32457v0c1.80322,1.10947 3.1753,2.15549 3.06462,2.33635v0c-0.05316,0.08685 -0.44811,-0.04151 -1.09801,-0.35682c-0.64989,-0.31533 -1.50147,-0.79179 -2.36741,-1.32457z" fill="none" fill-rule="evenodd" stroke="#000000" stroke-width="1" stroke-linecap="butt" stroke-linejoin="round"/><path d="M228.33568,108.50816v0c0,-0.37522 0.22102,-0.6794 0.49366,-0.6794v0c0.13093,0 0.2565,0.07158 0.34907,0.19899c0.09258,0.12741 0.14459,0.30022 0.14459,0.48041v0c0,0.37522 -0.22102,0.67939 -0.49366,0.67939v0c-0.27265,0 -0.49366,-0.30418 -0.49366,-0.67939z" fill="#000000" fill-rule="evenodd" stroke="none" stroke-width="1" stroke-linecap="square" stroke-linejoin="miter"/><path d="M222.90173,145.69421v0c8.06319,-3.02605 16.1928,-1.23382 18.15798,4.00307l-14.5997,5.47917z" fill-opacity="0" fill="#000000" fill-rule="evenodd" stroke="none" stroke-width="1" stroke-linecap="square" stroke-linejoin="miter"/><path d="M222.90173,145.69421v0c8.06319,-3.02605 16.1928,-1.23382 18.15798,4.00307" fill-opacity="0" fill="#000000" fill-rule="evenodd" stroke="none" stroke-width="1" stroke-linecap="square" stroke-linejoin="miter"/><path d="M243.74991,150.29702c0,0 -4.48641,-0.95178 -7.25175,-0.96385c-2.76535,-0.01207 -6.90559,0.90207 -6.90559,0.90207c0,0 4.73519,-7.04681 7.13177,-7.03635c2.32005,0.01012 7.02557,7.09813 7.02557,7.09813z" fill="#000000" fill-rule="nonzero" stroke="#000000" stroke-width="2" stroke-linecap="round" stroke-linejoin="miter"/></g></g></svg>