<svg version="1.1" xmlns="http://www.w3.org/2000/svg" xmlns:xlink="http://www.w3.org/1999/xlink" width="222.78131" height="271.25701" viewBox="0,0,222.78131,271.25701"><defs><linearGradient x1="341.42627" y1="188.50629" x2="346.84136" y2="293.71416" gradientUnits="userSpaceOnUse" id="color-1"><stop offset="0" stop-color="#4d4d4d"/><stop offset="1" stop-color="#000000"/></linearGradient><linearGradient x1="119.58939" y1="197.62383" x2="137.75259" y2="301.38983" gradientUnits="userSpaceOnUse" id="color-2"><stop offset="0" stop-color="#4d4d4d"/><stop offset="1" stop-color="#000000"/></linearGradient><linearGradient x1="323.0795" y1="131.48641" x2="336.18478" y2="236.02003" gradientUnits="userSpaceOnUse" id="color-3"><stop offset="0" stop-color="#4d4d4d"/><stop offset="1" stop-color="#000000"/></linearGradient><linearGradient x1="137.73213" y1="128.01307" x2="137.73177" y2="233.35792" gradientUnits="userSpaceOnUse" id="color-4"><stop offset="0" stop-color="#4d4d4d"/><stop offset="1" stop-color="#000000"/></linearGradient><radialGradient cx="283.94857" cy="70.16315" r="45.07582" fx="283.94857" fy="70.16315" gradientUnits="userSpaceOnUse" id="color-5"><stop offset="0" stop-color="#ffffff"/><stop offset="1" stop-color="#b3b3b3"/></radialGradient><radialGradient cx="153.83964" cy="104.97214" r="45.07583" fx="153.83964" fy="104.97214" gradientUnits="userSpaceOnUse" id="color-6"><stop offset="0" stop-color="#ffffff"/><stop offset="1" stop-color="#b3b3b3"/></radialGradient><radialGradient cx="240.6814" cy="182.57159" r="32.98501" fx="240.6814" fy="182.57159" gradientUnits="userSpaceOnUse" id="color-7"><stop offset="0" stop-color="#434343"/><stop offset="0.61" stop-color="#222222"/><stop offset="1" stop-color="#000000"/></radialGradient><radialGradient cx="240.6814" cy="235.95954" r="75.10565" fx="240.6814" fy="235.95954" gradientUnits="userSpaceOnUse" id="color-8"><stop offset="0" stop-color="#434343"/><stop offset="0.61" stop-color="#222222"/><stop offset="1" stop-color="#000000"/></radialGradient><linearGradient x1="157.74652" y1="80.90395" x2="177.62238" y2="155.19692" gradientUnits="userSpaceOnUse" id="color-9"><stop offset="0" stop-color="#ffffff"/><stop offset="0.49" stop-color="#efefef"/><stop offset="0.9" stop-color="#cccccc"/><stop offset="1" stop-color="#b9b9b9"/><stop offset="1" stop-color="#737373"/></linearGradient><radialGradient cx="192.73158" cy="101.34647" r="21.60376" fx="192.73158" fy="101.34647" gradientUnits="userSpaceOnUse" id="color-10"><stop offset="0" stop-color="#ffffff"/><stop offset="0.56" stop-color="#ffffff"/><stop offset="1" stop-color="#b3b3b3"/></radialGradient><radialGradient cx="144.62488" cy="121.41482" r="21.88616" fx="144.62488" fy="121.41482" gradientUnits="userSpaceOnUse" id="color-11"><stop offset="0" stop-color="#4d4d4d"/><stop offset="1" stop-color="#000000"/></radialGradient><radialGradient cx="232.67424" cy="128.14236" r="52.50766" fx="232.67424" fy="128.14236" gradientUnits="userSpaceOnUse" id="color-12"><stop offset="0" stop-color="#bfbfbf"/><stop offset="1" stop-color="#737373"/></radialGradient><radialGradient cx="197.85282" cy="125.40247" r="21.88616" fx="197.85282" fy="125.40247" gradientUnits="userSpaceOnUse" id="color-13"><stop offset="0" stop-color="#4d4d4d"/><stop offset="1" stop-color="#000000"/></radialGradient><radialGradient cx="193.24887" cy="124.80348" r="17.50369" fx="193.24887" fy="124.80348" gradientUnits="userSpaceOnUse" id="color-14"><stop offset="0" stop-color="#4d4d4d"/><stop offset="1" stop-color="#000000"/></radialGradient><radialGradient cx="189.39421" cy="106.75031" r="4.33856" fx="189.39421" fy="106.75031" gradientUnits="userSpaceOnUse" id="color-15"><stop offset="0" stop-color="#4d4d4d"/><stop offset="1" stop-color="#000000"/></radialGradient></defs><g transform="translate(-119.17308,-36.31401)"><g data-paper-data="{&quot;isPaintingLayer&quot;:true}" fill-rule="evenodd" stroke-miterlimit="10" stroke-dasharray="" stroke-dashoffset="0" style="mix-blend-mode: normal"><path d="M245.33033,289.72778c1.35217,-3.51974 1.92805,-5.37004 12.02676,-12.119c10.09867,-6.74896 39.31069,-16.39833 48.56541,-28.37482c9.25473,-11.97648 1.06069,-33.40512 6.96293,-43.48414c5.90224,-10.07903 26.73701,-18.6267 28.45046,-16.98997c1.71345,1.63675 -15.68187,15.5654 -18.16978,26.81044c-2.48791,11.24504 9.44327,28.93621 3.24219,40.65981c-6.20108,11.7236 -27.58786,22.59897 -40.4486,29.68185c-12.86073,7.08285 -29.94417,12.17936 -36.71574,12.81532c-6.77157,0.63597 -5.26582,-5.47974 -3.91363,-8.99948z" fill="url(#color-1)" stroke="none" stroke-width="1" stroke-linecap="square" stroke-linejoin="miter"/><path d="M245.33033,289.72778c1.35217,-3.51974 1.92805,-5.37004 12.02676,-12.119c10.09867,-6.74896 39.31069,-16.39833 48.56541,-28.37482c9.25473,-11.97648 1.06069,-33.40512 6.96293,-43.48414c5.90224,-10.07903 26.73701,-18.6267 28.45046,-16.98997c1.71345,1.63675 -15.68187,15.5654 -18.16978,26.81044c-2.48791,11.24504 9.44327,28.93621 3.24219,40.65981c-6.20108,11.7236 -27.58786,22.59897 -40.4486,29.68185c-12.86073,7.08285 -29.94417,12.17936 -36.71574,12.81532c-6.77157,0.63597 -5.26582,-5.47974 -3.91363,-8.99948z" fill="none" stroke="#000000" stroke-width="1" stroke-linecap="butt" stroke-linejoin="round"/><path d="M235.82003,274.88555c2.10242,3.12985 4.93294,8.7561 -1.80989,9.64496c-6.74281,0.88884 -24.53179,-0.27289 -38.64694,-4.31189c-14.11515,-4.03898 -37.3868,-9.87526 -46.04397,-19.92205c-8.65718,-10.04678 -0.96822,-29.95106 -5.89907,-40.35867c-4.93087,-10.40762 -24.99177,-20.1097 -23.68617,-22.08702c1.30561,-1.97734 23.52046,1.71286 31.51988,10.22305c7.99942,8.51019 4.78628,31.22516 16.47659,40.83807c11.69031,9.6129 42.317,12.51042 53.66525,16.83935c11.34827,4.32895 12.3219,6.00433 14.4243,9.13419z" fill="url(#color-2)" stroke="none" stroke-width="1" stroke-linecap="square" stroke-linejoin="miter"/><path d="M235.82003,274.88555c2.10242,3.12985 4.93294,8.7561 -1.80989,9.64496c-6.74281,0.88884 -24.53179,-0.27289 -38.64694,-4.31189c-14.11515,-4.03898 -37.3868,-9.87526 -46.04397,-19.92205c-8.65718,-10.04678 -0.96822,-29.95106 -5.89907,-40.35867c-4.93087,-10.40762 -24.99177,-20.1097 -23.68617,-22.08702c1.30561,-1.97734 23.52046,1.71286 31.51988,10.22305c7.99942,8.51019 4.78628,31.22516 16.47659,40.83807c11.69031,9.6129 42.317,12.51042 53.66525,16.83935c11.34827,4.32895 12.3219,6.00433 14.4243,9.13419z" fill="none" stroke="#000000" stroke-width="1" stroke-linecap="butt" stroke-linejoin="round"/><path d="M234.64973,239.47795c1.09087,-3.60949 1.52972,-5.49707 11.10753,-12.96775c9.57783,-7.4707 38.00608,-19.2338 46.35933,-31.8564c8.3533,-12.62261 -1.38837,-33.39464 3.7602,-43.87929c5.14853,-10.48463 25.30235,-20.53552 27.13115,-19.02857c1.8288,1.50695 -14.50056,16.6727 -16.15847,28.07025c-1.65786,11.39756 11.53737,28.1683 6.21121,40.31507c-5.3262,12.14676 -25.8601,24.55961 -38.16822,32.56559c-12.30812,8.00598 -28.97326,14.34006 -35.68037,15.47024c-6.70711,1.13018 -5.65322,-5.07964 -4.56235,-8.68913z" fill="url(#color-3)" stroke="none" stroke-width="1" stroke-linecap="square" stroke-linejoin="miter"/><path d="M234.64973,239.47795c1.09087,-3.60949 1.52972,-5.49707 11.10753,-12.96775c9.57783,-7.4707 38.00608,-19.2338 46.35933,-31.8564c8.3533,-12.62261 -1.38837,-33.39464 3.7602,-43.87929c5.14853,-10.48463 25.30235,-20.53552 27.13115,-19.02857c1.8288,1.50695 -14.50056,16.6727 -16.15847,28.07025c-1.65786,11.39756 11.53737,28.1683 6.21121,40.31507c-5.3262,12.14676 -25.8601,24.55961 -38.16822,32.56559c-12.30812,8.00598 -28.97326,14.34006 -35.68037,15.47024c-6.70711,1.13018 -5.65322,-5.07964 -4.56235,-8.68913z" fill="none" stroke="#000000" stroke-width="1" stroke-linecap="butt" stroke-linejoin="round"/><path d="M238.90152,224.15947c1.53126,3.44553 3.34932,9.47563 -3.44584,9.18855c-6.79514,-0.28708 -24.1176,-4.49867 -37.3251,-10.91101c-13.20748,-6.41234 -35.12453,-16.17386 -41.91981,-27.56301c-6.79531,-11.38913 4.21056,-29.66974 1.148,-40.77181c-3.06256,-11.10206 -21.15036,-24.11791 -19.52335,-25.84053c1.62703,-1.72262 22.87314,5.74274 29.28547,15.50485c6.41234,9.76212 -0.66931,31.58312 9.18855,43.06784c9.85787,11.48472 39.52657,19.61967 49.95858,25.84053c10.43201,6.22086 11.10221,8.03905 12.6335,11.48458z" fill="url(#color-4)" stroke="none" stroke-width="1" stroke-linecap="square" stroke-linejoin="miter"/><path d="M238.90152,224.15947c1.53126,3.44553 3.34932,9.47563 -3.44584,9.18855c-6.79514,-0.28708 -24.1176,-4.49867 -37.3251,-10.91101c-13.20748,-6.41234 -35.12453,-16.17386 -41.91981,-27.56301c-6.79531,-11.38913 4.21056,-29.66974 1.148,-40.77181c-3.06256,-11.10206 -21.15036,-24.11791 -19.52335,-25.84053c1.62703,-1.72262 22.87314,5.74274 29.28547,15.50485c6.41234,9.76212 -0.66931,31.58312 9.18855,43.06784c9.85787,11.48472 39.52657,19.61967 49.95858,25.84053c10.43201,6.22086 11.10221,8.03905 12.6335,11.48458z" fill="none" stroke="#000000" stroke-width="1" stroke-linecap="butt" stroke-linejoin="round"/><path d="M312.07168,100.85908v0c-7.0389,6.44646 -25.33624,-2.07066 -40.86821,-19.02356v0c-7.45871,-8.14106 -13.26915,-17.17845 -16.15309,-25.12404c-2.8839,-7.9456 -2.6051,-14.14855 0.77508,-17.24424v0c7.03894,-6.44647 25.33623,2.07068 40.8682,19.02357v0c15.53196,16.95288 22.41696,35.9218 15.37802,42.36828z" fill="url(#color-5)" stroke="none" stroke-width="1" stroke-linecap="square" stroke-linejoin="miter"/><path d="M312.07168,100.85908v0c-7.0389,6.44646 -25.33624,-2.07066 -40.86821,-19.02356v0c-7.45871,-8.14106 -13.26915,-17.17845 -16.15309,-25.12404c-2.8839,-7.9456 -2.6051,-14.14855 0.77508,-17.24424v0c7.03894,-6.44647 25.33623,2.07068 40.8682,19.02357v0c15.53196,16.95288 22.41696,35.9218 15.37802,42.36828z" fill="none" stroke="#000000" stroke-width="2" stroke-linecap="butt" stroke-linejoin="round"/><path d="M312.84676,83.61485l-42.13603,-17.73441" fill-opacity="0" fill="#000000" stroke="none" stroke-width="1" stroke-linecap="square" stroke-linejoin="miter"/><path d="M312.84676,83.61485l-42.13603,-17.73441" fill="none" stroke="#000000" stroke-width="2" stroke-linecap="butt" stroke-linejoin="round"/><path d="M136.96876,101.22317v0c4.99188,-22.44379 16.59197,-38.9596 25.90949,-36.88909v0c4.47443,0.99428 7.81333,6.22935 9.28217,14.55355c1.46882,8.32419 0.9473,19.05561 -1.44991,29.83351v0c-4.99188,22.44379 -16.59196,38.95959 -25.90949,36.88909v0c-9.31753,-2.0705 -12.82415,-21.94327 -7.83227,-44.38704z" fill="url(#color-6)" stroke="none" stroke-width="1" stroke-linecap="square" stroke-linejoin="miter"/><path d="M136.96876,101.22317v0c4.99188,-22.44379 16.59197,-38.9596 25.90949,-36.88909v0c4.47443,0.99428 7.81333,6.22935 9.28217,14.55355c1.46882,8.32419 0.9473,19.05561 -1.44991,29.83351v0c-4.99188,22.44379 -16.59196,38.95959 -25.90949,36.88909v0c-9.31753,-2.0705 -12.82415,-21.94327 -7.83227,-44.38704z" fill="none" stroke="#000000" stroke-width="2" stroke-linecap="butt" stroke-linejoin="round"/><path d="M135.51887,131.05667l27.61978,-30.00093" fill-opacity="0" fill="#000000" stroke="none" stroke-width="1" stroke-linecap="square" stroke-linejoin="miter"/><path d="M135.51887,131.05667l27.61978,-30.00093" fill="none" stroke="#000000" stroke-width="2" stroke-linecap="butt" stroke-linejoin="round"/><path d="M261.71,157.15879l-21.0286,50.82561l-21.02856,-50.82561z" fill="url(#color-7)" stroke="none" stroke-width="1" stroke-linecap="square" stroke-linejoin="miter"/><path d="M261.71,157.15879l-21.0286,50.82561l-21.02856,-50.82561z" fill="none" stroke="#000000" stroke-width="1" stroke-linecap="butt" stroke-linejoin="round"/><path d="M264.84788,307.07102h-48.33294l9.66658,-142.22294h28.99975z" fill="url(#color-8)" stroke="none" stroke-width="1" stroke-linecap="square" stroke-linejoin="miter"/><path d="M264.84788,307.07102h-48.33294l9.66658,-142.22294h28.99975z" fill="none" stroke="#000000" stroke-width="1" stroke-linecap="butt" stroke-linejoin="round"/><path d="M157.74664,80.90435l112.03147,-29.9726l19.87602,74.2925l-112.03146,29.9726z" fill="url(#color-9)" stroke="none" stroke-width="1" stroke-linecap="square" stroke-linejoin="miter"/><path d="M157.74664,80.90435l112.03147,-29.9726l19.87602,74.2925l-112.03146,29.9726z" fill="none" stroke="#000000" stroke-width="2" stroke-linecap="butt" stroke-linejoin="round"/><path d="M173.52868,140.30735l102.1667,-66.68003" fill-opacity="0" fill="#000000" stroke="none" stroke-width="1" stroke-linecap="square" stroke-linejoin="miter"/><path d="M173.52868,140.30735l102.1667,-66.68003" fill="none" stroke="#000000" stroke-width="1" stroke-linecap="butt" stroke-linejoin="round"/><path d="M158.12205,80.88307l111.52636,-29.83746l6.04251,22.58566l-111.52636,29.83746z" fill="#000000" stroke="none" stroke-width="1" stroke-linecap="square" stroke-linejoin="miter"/><path d="M158.12205,80.88307l111.52636,-29.83746l6.04251,22.58566l-111.52636,29.83746z" fill="none" stroke="#000000" stroke-width="1" stroke-linecap="butt" stroke-linejoin="round"/><path d="M168.73729,120.56069l96.86552,-62.58857l10.22039,15.8233l-96.86553,62.58859z" fill="#000000" stroke="none" stroke-width="1" stroke-linecap="square" stroke-linejoin="miter"/><path d="M168.73729,120.56069l96.86552,-62.58857l10.22039,15.8233l-96.86553,62.58859z" fill="none" stroke="#000000" stroke-width="1" stroke-linecap="butt" stroke-linejoin="round"/><path d="M157.76641,80.97822l57.18057,-15.29794l10.74469,40.16146l-57.18057,15.29794z" fill="#000000" stroke="none" stroke-width="1" stroke-linecap="square" stroke-linejoin="miter"/><path d="M157.76641,80.97822l57.18057,-15.29794l10.74469,40.16146l-57.18057,15.29794z" fill="none" stroke="#000000" stroke-width="1" stroke-linecap="butt" stroke-linejoin="round"/><path d="M173.75131,139.90812l-6.08158,-22.44266l14.26782,14.35385z" fill="#000000" stroke="none" stroke-width="1" stroke-linecap="square" stroke-linejoin="miter"/><path d="M173.75131,139.90812l-6.08158,-22.44266l14.26782,14.35385z" fill="none" stroke="#000000" stroke-width="1" stroke-linecap="butt" stroke-linejoin="round"/><path d="M173.22982,137.98819l5.75439,-3.75981l1.02753,1.56981l-5.75439,3.75982z" fill="#000000" stroke="none" stroke-width="1" stroke-linecap="square" stroke-linejoin="miter"/><path d="M173.22982,137.98819l5.75439,-3.75981l1.02753,1.56981l-5.75439,3.75982z" fill="none" stroke="#000000" stroke-width="1" stroke-linecap="butt" stroke-linejoin="round"/><path d="M208.48993,103.53582v0c-1.11303,7.99376 -9.07046,13.49307 -17.77343,12.28306v0c-5.25271,-0.7303 -10.50542,-1.46061 -15.75813,-2.19092c0.67176,-4.82465 1.34352,-9.6493 2.0153,-14.47396c1.11303,-7.99376 9.07046,-13.49307 17.77343,-12.28305v0c8.70299,1.21001 14.85586,8.67113 13.74283,16.66488z" fill="url(#color-10)" stroke="none" stroke-width="1" stroke-linecap="square" stroke-linejoin="miter"/><path d="M208.48993,103.53582v0c-1.11303,7.99376 -9.07046,13.49307 -17.77343,12.28306v0c-5.25271,-0.7303 -10.50542,-1.46061 -15.75813,-2.19092c0.67176,-4.82465 1.34352,-9.6493 2.0153,-14.47396c1.11303,-7.99376 9.07046,-13.49307 17.77343,-12.28305v0c8.70299,1.21001 14.85586,8.67113 13.74283,16.66488z" fill="none" stroke="#000000" stroke-width="1" stroke-linecap="butt" stroke-linejoin="round"/><path d="M164.62338,88.21832l19.13177,-4.17564l0.9345,4.20526l17.39751,-7.14437l1.35323,4.32305l27.75367,-7.07571l-24.87613,18.24207l-1.28483,-5.17505l-15.80773,11.23556l-2.15578,-6.22595l-16.61076,11.88526z" fill="#000000" stroke="none" stroke-width="1" stroke-linecap="square" stroke-linejoin="miter"/><path d="M164.62338,88.21832l19.13177,-4.17564l0.9345,4.20526l17.39751,-7.14437l1.35323,4.32305l27.75367,-7.07571l-24.87613,18.24207l-1.28483,-5.17505l-15.80773,11.23556l-2.15578,-6.22595l-16.61076,11.88526z" fill="none" stroke="#000000" stroke-width="1" stroke-linecap="butt" stroke-linejoin="round"/><path d="M136.97358,101.57852l5.74966,10.69823l-0.41253,1.61616l5.75485,8.89824l-0.31959,1.90219l8.50093,15.26691l-9.49089,-10.73249l0.4718,-2.07157l-5.97501,-6.90849l0.40519,-2.86638l-6.29093,-7.23985z" fill="url(#color-11)" stroke="none" stroke-width="1" stroke-linecap="square" stroke-linejoin="miter"/><path d="M210.41102,129.35189l5.39476,12.15459" fill-opacity="0" fill="#000000" stroke="none" stroke-width="1" stroke-linecap="square" stroke-linejoin="miter"/><path d="M229.40562,122.78311l5.32366,14.28345" fill-opacity="0" fill="#000000" stroke="none" stroke-width="1" stroke-linecap="square" stroke-linejoin="miter"/><path d="M253.64194,126.37812l-4.56056,-11.63767" fill-opacity="0" fill="#000000" stroke="none" stroke-width="1" stroke-linecap="square" stroke-linejoin="miter"/><path d="M202.48084,140.63082l9.18374,-7.08537" fill-opacity="0" fill="#000000" stroke="none" stroke-width="1" stroke-linecap="square" stroke-linejoin="miter"/><path d="M234.73036,137.06664l-23.0691,-3.52673" fill-opacity="0" fill="#000000" stroke="none" stroke-width="1" stroke-linecap="square" stroke-linejoin="miter"/><path d="M237.62355,119.08085l-2.8985,17.98545" fill-opacity="0" fill="#000000" stroke="none" stroke-width="1" stroke-linecap="square" stroke-linejoin="miter"/><path d="M252.66393,128.1347l-14.43807,-8.17766" fill-opacity="0" fill="#000000" stroke="none" stroke-width="1" stroke-linecap="square" stroke-linejoin="miter"/><path d="M254.18872,112.51888l8.64681,4.65683" fill-opacity="0" fill="#000000" stroke="none" stroke-width="1" stroke-linecap="square" stroke-linejoin="miter"/><path d="M269.85333,91.07057v0c6.91335,11.10954 -6.92908,32.21199 -30.91777,47.13362c-23.98871,14.92163 -49.03977,18.01195 -55.95306,6.9024v0c30.59077,-14.37798 60.45264,-32.95285 86.87084,-54.03601z" fill="url(#color-12)" stroke="none" stroke-width="1" stroke-linecap="square" stroke-linejoin="miter"/><path d="M269.85333,91.07057v0c6.91335,11.10954 -6.92908,32.21199 -30.91777,47.13362c-23.98871,14.92163 -49.03977,18.01195 -55.95306,6.9024v0c30.59077,-14.37798 60.45264,-32.95285 86.87084,-54.03601z" fill="none" stroke="#000000" stroke-width="2" stroke-linecap="butt" stroke-linejoin="round"/><path d="M204.43894,134.49528l10.47779,14.74338" fill="none" stroke="#000000" stroke-width="1" stroke-linecap="butt" stroke-linejoin="round"/><path d="M227.98262,120.60301l10.95864,17.60038" fill="none" stroke="#000000" stroke-width="1" stroke-linecap="butt" stroke-linejoin="round"/><path d="M261.26176,118.84175l-9.22603,-14.27988" fill="none" stroke="#000000" stroke-width="1" stroke-linecap="butt" stroke-linejoin="round"/><path d="M196.91778,151.67442l10.32608,-11.92807" fill="none" stroke="#000000" stroke-width="1" stroke-linecap="butt" stroke-linejoin="round"/><path d="M238.94272,138.2032l-31.70479,1.53666" fill="none" stroke="#000000" stroke-width="1" stroke-linecap="butt" stroke-linejoin="round"/><path d="M237.93605,113.4458l0.9995,24.75839" fill="none" stroke="#000000" stroke-width="1" stroke-linecap="butt" stroke-linejoin="round"/><path d="M260.43305,121.44774l-21.45719,-6.99683" fill="none" stroke="#000000" stroke-width="1" stroke-linecap="butt" stroke-linejoin="round"/><path d="M258.24313,100.21951l12.78541,3.86949" fill="none" stroke="#000000" stroke-width="1" stroke-linecap="butt" stroke-linejoin="round"/><path d="M190.2015,105.56619l5.74967,10.69822l-0.41253,1.61617l5.75485,8.89824l-0.31959,1.90219l8.50092,15.2669l-9.49089,-10.73249l0.4718,-2.07156l-5.97501,-6.90849l0.40519,-2.86637l-6.29093,-7.23985z" fill="url(#color-13)" stroke="none" stroke-width="1" stroke-linecap="square" stroke-linejoin="miter"/><path d="M190.71403,114.75205l-1.07722,-6.9258l2.33869,8.97247l-0.32322,-4.24158l1.03988,5.30424l1.18226,-0.12856l0.13982,4.5432l1.06267,2.85251l0.01201,1.69145l1.92111,5.00535l-1.45337,-1.74113l1.31843,4.66483l-1.19601,-2.0642l1.08232,4.54025l-0.98906,-2.18102l0.71656,3.69939l-0.91344,-2.39233l0.87377,5.53975l-1.41813,-5.20305l-0.93776,-0.4386l-0.57357,-3.9254l-1.75841,-3.67154l0.32285,-2.22132l-1.97895,-4.98986l0.72562,-0.94677l-1.92812,-6.44892l2.0241,4.03908l-1.60965,-7.03755z" fill="url(#color-14)" stroke="none" stroke-width="1" stroke-linecap="square" stroke-linejoin="miter"/><path d="M186.15212,107.61769v0c-0.39245,-1.4669 0.74094,-3.0444 2.53149,-3.52344v0c1.79056,-0.47904 3.56024,0.32178 3.95269,1.78868v0c0.39245,1.4669 -0.74093,3.04442 -2.53149,3.52346v0c-1.79056,0.47904 -3.56023,-0.32178 -3.95268,-1.78869z" fill="url(#color-15)" stroke="none" stroke-width="1" stroke-linecap="square" stroke-linejoin="miter"/><path d="M189.98087,106.93845v0c-0.47979,-1.79334 0.90582,-3.72189 3.09483,-4.30753v0c2.18902,-0.58565 4.35252,0.39339 4.8323,2.18673v0c0.47979,1.79334 -0.90582,3.72191 -3.09484,4.30755v0c-2.18902,0.58565 -4.35251,-0.39339 -4.83229,-2.18674z" fill="none" stroke="#000000" stroke-width="1" stroke-linecap="butt" stroke-linejoin="round"/><path d="M261.96555,82.89714l14.1044,5.79995l-18.7965,-0.53812l8.45106,6.04111l-10.92151,-2.85286l-0.4062,9.00001l-8.93727,-7.99705l-6.15306,2.1894l-3.30517,-3.27353l-10.82825,4.25927l4.2029,-7.28846l-9.82936,0.47835l4.68988,-4.74277l-9.45525,-1.02031l4.80275,-2.97985l-7.61225,-2.05396l5.17277,-2.00048l-11.28846,-4.54961l10.93431,-0.14594l1.37638,-6.06421l7.97351,3.56098l8.13684,-5.70738l4.1524,6.80374l10.83019,-4.71797l1.44311,7.24905l13.64722,-1.44138l-9.00117,6.94183l14.61815,2.0842z" fill="#000000" stroke="none" stroke-width="1" stroke-linecap="square" stroke-linejoin="miter"/><path d="M261.96555,82.89714l14.1044,5.79995l-18.7965,-0.53812l8.45106,6.04111l-10.92151,-2.85286l-0.4062,9.00001l-8.93727,-7.99705l-6.15306,2.1894l-3.30517,-3.27353l-10.82825,4.25927l4.2029,-7.28846l-9.82936,0.47835l4.68988,-4.74277l-9.45525,-1.02031l4.80275,-2.97985l-7.61225,-2.05396l5.17277,-2.00048l-11.28846,-4.54961l10.93431,-0.14594l1.37638,-6.06421l7.97351,3.56098l8.13684,-5.70738l4.1524,6.80374l10.83019,-4.71797l1.44311,7.24905l13.64722,-1.44138l-9.00117,6.94183l14.61815,2.0842z" fill="none" stroke="#000000" stroke-width="1" stroke-linecap="butt" stroke-linejoin="round"/><path d="M261.34392,53.45456l2.98555,-6.19974l1.44899,6.79833l3.72556,-4.23709l-1.07532,4.46719l6.83305,-1.68753l-5.15389,4.80827l2.25979,1.74391l-2.14455,1.84251l4.28349,2.98623l-5.91594,-0.01195l1.33119,3.40043l-4.04258,-0.70344l0.16308,3.57238l-2.72313,-1.10249l-0.79898,3.12697l-2.02044,-1.43351l-2.31977,4.94315l-1.18935,-3.86129l-4.71295,0.74467l1.90076,-3.56229l-5.11087,-1.73369l4.72548,-2.86264l-4.62992,-2.89354l5.32893,-1.98917l-2.43488,-4.563l6.12791,1.78998l0.13035,-5.62618z" fill="#000000" stroke="none" stroke-width="1" stroke-linecap="square" stroke-linejoin="miter"/><path d="M261.34392,53.45456l2.98555,-6.19974l1.44899,6.79833l3.72556,-4.23709l-1.07532,4.46719l6.83305,-1.68753l-5.15389,4.80827l2.25979,1.74391l-2.14455,1.84251l4.28349,2.98623l-5.91594,-0.01195l1.33119,3.40043l-4.04258,-0.70344l0.16308,3.57238l-2.72313,-1.10249l-0.79898,3.12697l-2.02044,-1.43351l-2.31977,4.94315l-1.18935,-3.86129l-4.71295,0.74467l1.90076,-3.56229l-5.11087,-1.73369l4.72548,-2.86264l-4.62992,-2.89354l5.32893,-1.98917l-2.43488,-4.563l6.12791,1.78998l0.13035,-5.62618z" fill="none" stroke="#000000" stroke-width="1" stroke-linecap="butt" stroke-linejoin="round"/><path d="M176.39198,79.18867l6.49506,-2.27265l-3.78249,5.83165l5.63052,-0.36159l-3.91919,2.39831l6.02512,3.63853l-7.04441,-0.24448l0.36485,2.83102l-2.81933,-0.21362l0.91741,5.14046l-4.17491,-4.1917l-1.46315,3.34571l-2.3612,-3.35597l-2.41072,2.64132l-1.14604,-2.70511l-2.77604,1.6461l-0.41508,-2.44232l-5.13573,1.85492l1.88933,-3.57129l-3.85923,-2.80606l3.86301,-1.17481l-2.38813,-4.83984l5.36569,1.31728l-1.22792,-5.31988l5.17482,2.36165l1.50475,-4.94819l3.06751,5.59881l4.07044,-3.88606z" fill="#000000" stroke="none" stroke-width="1" stroke-linecap="square" stroke-linejoin="miter"/><path d="M176.39198,79.18867l6.49506,-2.27265l-3.78249,5.83165l5.63052,-0.36159l-3.91919,2.39831l6.02512,3.63853l-7.04441,-0.24448l0.36485,2.83102l-2.81933,-0.21362l0.91741,5.14046l-4.17491,-4.1917l-1.46315,3.34571l-2.3612,-3.35597l-2.41072,2.64132l-1.14604,-2.70511l-2.77604,1.6461l-0.41508,-2.44232l-5.13573,1.85492l1.88933,-3.57129l-3.85923,-2.80606l3.86301,-1.17481l-2.38813,-4.83984l5.36569,1.31728l-1.22792,-5.31988l5.17482,2.36165l1.50475,-4.94819l3.06751,5.59881l4.07044,-3.88606z" fill="none" stroke="#000000" stroke-width="1" stroke-linecap="butt" stroke-linejoin="round"/></g></g></svg>