<svg version="1.1" xmlns="http://www.w3.org/2000/svg" xmlns:xlink="http://www.w3.org/1999/xlink" width="267.87643" height="247.1219" viewBox="0,0,267.87643,247.1219"><defs><linearGradient x1="360.26109" y1="252.50261" x2="263.80409" y2="294.85905" gradientUnits="userSpaceOnUse" id="color-1"><stop offset="0" stop-color="#4d4d4d"/><stop offset="1" stop-color="#000000"/></linearGradient><linearGradient x1="114.43337" y1="254.79758" x2="211.98944" y2="294.54802" gradientUnits="userSpaceOnUse" id="color-2"><stop offset="0" stop-color="#4d4d4d"/><stop offset="1" stop-color="#000000"/></linearGradient><linearGradient x1="379.02456" y1="190.31487" x2="307.31224" y2="267.49239" gradientUnits="userSpaceOnUse" id="color-3"><stop offset="0" stop-color="#4d4d4d"/><stop offset="1" stop-color="#000000"/></linearGradient><linearGradient x1="111.66793" y1="183.07643" x2="177.78781" y2="265.0868" gradientUnits="userSpaceOnUse" id="color-4"><stop offset="0" stop-color="#4d4d4d"/><stop offset="1" stop-color="#000000"/></linearGradient><radialGradient cx="301.67199" cy="104.52702" r="45.07582" fx="301.67199" fy="104.52702" gradientUnits="userSpaceOnUse" id="color-5"><stop offset="0" stop-color="#ffffff"/><stop offset="1" stop-color="#b3b3b3"/></radialGradient><radialGradient cx="176.94376" cy="106.40995" r="45.07583" fx="176.94376" fy="106.40995" gradientUnits="userSpaceOnUse" id="color-6"><stop offset="0" stop-color="#ffffff"/><stop offset="1" stop-color="#b3b3b3"/></radialGradient><radialGradient cx="240.6814" cy="182.57159" r="32.98501" fx="240.6814" fy="182.57159" gradientUnits="userSpaceOnUse" id="color-7"><stop offset="0" stop-color="#434343"/><stop offset="0.61" stop-color="#222222"/><stop offset="1" stop-color="#000000"/></radialGradient><radialGradient cx="240.6814" cy="235.95954" r="75.10565" fx="240.6814" fy="235.95954" gradientUnits="userSpaceOnUse" id="color-8"><stop offset="0" stop-color="#434343"/><stop offset="0.61" stop-color="#222222"/><stop offset="1" stop-color="#000000"/></radialGradient><linearGradient x1="182.69547" y1="65.90891" x2="182.6952" y2="142.81466" gradientUnits="userSpaceOnUse" id="color-9"><stop offset="0" stop-color="#ffffff"/><stop offset="0.49" stop-color="#efefef"/><stop offset="0.9" stop-color="#cccccc"/><stop offset="1" stop-color="#b9b9b9"/><stop offset="1" stop-color="#737373"/></linearGradient><radialGradient cx="211.2086" cy="94.69871" r="21.60376" fx="211.2086" fy="94.69871" gradientUnits="userSpaceOnUse" id="color-10"><stop offset="0" stop-color="#ffffff"/><stop offset="0.56" stop-color="#ffffff"/><stop offset="1" stop-color="#b3b3b3"/></radialGradient><radialGradient cx="167.60456" cy="122.78227" r="21.88616" fx="167.60456" fy="122.78227" gradientUnits="userSpaceOnUse" id="color-11"><stop offset="0" stop-color="#4d4d4d"/><stop offset="1" stop-color="#000000"/></radialGradient><radialGradient cx="239.46894" cy="134.96745" r="36.15783" fx="239.46894" fy="134.96745" gradientUnits="userSpaceOnUse" id="color-12"><stop offset="0" stop-color="#bfbfbf"/><stop offset="1" stop-color="#737373"/></radialGradient><radialGradient cx="215.94677" cy="130.01283" r="21.88616" fx="215.94677" fy="130.01283" gradientUnits="userSpaceOnUse" id="color-13"><stop offset="0" stop-color="#4d4d4d"/><stop offset="1" stop-color="#000000"/></radialGradient><radialGradient cx="206.83693" cy="125.62859" r="17.50369" fx="206.83693" fy="125.62859" gradientUnits="userSpaceOnUse" id="color-14"><stop offset="0" stop-color="#4d4d4d"/><stop offset="1" stop-color="#000000"/></radialGradient></defs><g transform="translate(-111.40322,-60.44912)"><g data-paper-data="{&quot;isPaintingLayer&quot;:true}" fill-rule="evenodd" stroke-miterlimit="10" stroke-dasharray="" stroke-dashoffset="0" style="mix-blend-mode: normal"><path d="M231.54909,198.52632c3.7705,0.01673 5.70479,-0.10065 15.59521,6.95002c9.89041,7.05064 29.26797,30.94545 43.74732,35.35394c14.47934,4.4085 31.61203,-10.84927 43.12876,-8.90298c11.51674,1.94629 26.89468,18.39832 25.97159,20.58068c-0.92311,2.18237 -20.11344,-9.14616 -31.5102,-7.48649c-11.39676,1.65966 -23.70996,19.0871 -36.87042,17.44432c-13.16045,-1.64277 -30.91062,-17.78587 -42.09233,-27.30087c-11.18167,-9.515 -22.00281,-23.68262 -24.9978,-29.78906c-2.99499,-6.10645 3.25735,-6.8663 7.02785,-6.84954z" fill="url(#color-1)" stroke="none" stroke-width="1" stroke-linecap="square" stroke-linejoin="miter"/><path d="M231.54909,198.52632c3.7705,0.01673 5.70479,-0.10065 15.59521,6.95002c9.89041,7.05064 29.26797,30.94545 43.74732,35.35394c14.47934,4.4085 31.61203,-10.84927 43.12876,-8.90298c11.51674,1.94629 26.89468,18.39832 25.97159,20.58068c-0.92311,2.18237 -20.11344,-9.14616 -31.5102,-7.48649c-11.39676,1.65966 -23.70996,19.0871 -36.87042,17.44432c-13.16045,-1.64277 -30.91062,-17.78587 -42.09233,-27.30087c-11.18167,-9.515 -22.00281,-23.68262 -24.9978,-29.78906c-2.99499,-6.10645 3.25735,-6.8663 7.02785,-6.84954z" fill="none" stroke="#000000" stroke-width="1" stroke-linecap="butt" stroke-linejoin="round"/><path d="M241.64578,197.38731c3.76858,-0.11797 10.03887,0.47374 7.20897,6.6582c-2.82989,6.18443 -13.26643,20.63699 -24.1883,30.44838c-10.92186,9.81141 -28.23169,26.4247 -41.34288,28.4201c-13.11117,1.9954 -25.88737,-15.09463 -37.32419,-16.4477c-11.43684,-1.35305 -30.3155,10.48611 -31.29683,8.32941c-0.98135,-2.15673 13.94892,-19.01509 25.40887,-21.26977c11.45995,-2.25467 28.99548,12.53719 43.3508,7.74174c14.35531,-4.79545 33.08378,-29.20107 42.78104,-36.51446c9.69729,-7.31339 11.63392,-7.24796 15.40252,-7.36591z" fill="url(#color-2)" stroke="none" stroke-width="1" stroke-linecap="square" stroke-linejoin="miter"/><path d="M241.64578,197.38731c3.76858,-0.11797 10.03887,0.47374 7.20897,6.6582c-2.82989,6.18443 -13.26643,20.63699 -24.1883,30.44838c-10.92186,9.81141 -28.23169,26.4247 -41.34288,28.4201c-13.11117,1.9954 -25.88737,-15.09463 -37.32419,-16.4477c-11.43684,-1.35305 -30.3155,10.48611 -31.29683,8.32941c-0.98135,-2.15673 13.94892,-19.01509 25.40887,-21.26977c11.45995,-2.25467 28.99548,12.53719 43.3508,7.74174c14.35531,-4.79545 33.08378,-29.20107 42.78104,-36.51446c9.69729,-7.31339 11.63392,-7.24796 15.40252,-7.36591z" fill="none" stroke="#000000" stroke-width="1" stroke-linecap="butt" stroke-linejoin="round"/><path d="M239.45544,191.88301c3.46736,-1.48184 5.19609,-2.35765 17.07352,0.18636c11.87747,2.54402 39.15101,16.78094 54.19114,15.07771c15.04018,-1.7032 24.70652,-22.51039 36.04979,-25.29712c11.34323,-2.78674 31.99044,6.20713 32.00976,8.57673c0.01933,2.3696 -22.0925,-0.40791 -31.89383,5.6408c-9.8013,6.04875 -14.18262,26.93358 -26.91401,30.65159c-12.73141,3.71799 -35.43323,-4.05037 -49.4744,-8.3435c-14.04118,-4.29313 -29.59888,-12.99975 -34.77254,-17.41517c-5.17365,-4.41542 0.26319,-7.59555 3.73055,-9.07738z" fill="url(#color-3)" stroke="none" stroke-width="1" stroke-linecap="square" stroke-linejoin="miter"/><path d="M239.45544,191.88301c3.46736,-1.48184 5.19609,-2.35765 17.07352,0.18636c11.87747,2.54402 39.15101,16.78094 54.19114,15.07771c15.04018,-1.7032 24.70652,-22.51039 36.04979,-25.29712c11.34323,-2.78674 31.99044,6.20713 32.00976,8.57673c0.01933,2.3696 -22.0925,-0.40791 -31.89383,5.6408c-9.8013,6.04875 -14.18262,26.93358 -26.91401,30.65159c-12.73141,3.71799 -35.43323,-4.05037 -49.4744,-8.3435c-14.04118,-4.29313 -29.59888,-12.99975 -34.77254,-17.41517c-5.17365,-4.41542 0.26319,-7.59555 3.73055,-9.07738z" fill="none" stroke="#000000" stroke-width="1" stroke-linecap="butt" stroke-linejoin="round"/><path d="M250.77421,194.42624c3.35468,1.72122 8.55484,5.27448 3.08468,9.31601c-5.47015,4.04151 -21.59898,11.63534 -35.90564,14.93313c-14.30665,3.29777 -37.49576,9.45484 -49.93429,4.85357c-12.43853,-4.60124 -15.34445,-25.74044 -24.69689,-32.46108c-9.35244,-6.72064 -31.6031,-5.50049 -31.4177,-7.86273c0.18542,-2.36226 21.41101,-9.88575 32.5302,-6.31075c11.11919,3.57501 19.30224,25.00731 34.18494,27.76073c14.88271,2.75343 43.0855,-9.53526 55.11128,-11.24006c12.02579,-1.70481 13.68873,-0.71002 17.04343,1.01118z" fill="url(#color-4)" stroke="none" stroke-width="1" stroke-linecap="square" stroke-linejoin="miter"/><path d="M250.77421,194.42624c3.35468,1.72122 8.55484,5.27448 3.08468,9.31601c-5.47015,4.04151 -21.59898,11.63534 -35.90564,14.93313c-14.30665,3.29777 -37.49576,9.45484 -49.93429,4.85357c-12.43853,-4.60124 -15.34445,-25.74044 -24.69689,-32.46108c-9.35244,-6.72064 -31.6031,-5.50049 -31.4177,-7.86273c0.18542,-2.36226 21.41101,-9.88575 32.5302,-6.31075c11.11919,3.57501 19.30224,25.00731 34.18494,27.76073c14.88271,2.75343 43.0855,-9.53526 55.11128,-11.24006c12.02579,-1.70481 13.68873,-0.71002 17.04343,1.01118z" fill="none" stroke="#000000" stroke-width="1" stroke-linecap="butt" stroke-linejoin="round"/><path d="M314.89048,144.00387v0c-9.05145,3.02887 -22.30727,-12.1901 -29.60763,-33.99256v0c-3.50575,-10.4699 -5.14122,-21.08879 -4.54662,-29.52064c0.59465,-8.43184 3.37064,-13.98595 7.71728,-15.44046v0c9.05149,-3.02888 22.30726,12.19011 29.60762,33.99256v0c7.30036,21.80244 5.88084,41.93223 -3.17065,44.9611z" fill="url(#color-5)" stroke="none" stroke-width="1" stroke-linecap="square" stroke-linejoin="miter"/><path d="M314.89048,144.00387v0c-9.05145,3.02887 -22.30727,-12.1901 -29.60763,-33.99256v0c-3.50575,-10.4699 -5.14122,-21.08879 -4.54662,-29.52064c0.59465,-8.43184 3.37064,-13.98595 7.71728,-15.44046v0c9.05149,-3.02888 22.30726,12.19011 29.60762,33.99256v0c7.30036,21.80244 5.88084,41.93223 -3.17065,44.9611z" fill="none" stroke="#000000" stroke-width="2" stroke-linecap="butt" stroke-linejoin="round"/><path d="M291.31774,95.23339l31.29,33.33002" fill-opacity="0" fill="#000000" stroke="none" stroke-width="1" stroke-linecap="square" stroke-linejoin="miter"/><path d="M291.31774,95.23339l31.29,33.33002" fill="none" stroke="#000000" stroke-width="2" stroke-linecap="butt" stroke-linejoin="round"/><path d="M160.1018,102.53314v0c5.16195,-22.40529 16.88695,-38.83265 26.1885,-36.69153v0c4.46676,1.02819 7.76587,6.28843 9.17154,14.62353c1.40565,8.33509 0.80275,19.06225 -1.67612,29.82166v0c-5.16195,22.40529 -16.88694,38.83264 -26.1885,36.69154v0c-9.30156,-2.14111 -12.65736,-22.03989 -7.49542,-44.44516z" fill="url(#color-6)" stroke="none" stroke-width="1" stroke-linecap="square" stroke-linejoin="miter"/><path d="M159.72447,102.53314v0c5.16195,-22.40529 16.88695,-38.83265 26.1885,-36.69153v0c4.46676,1.02819 7.76587,6.28843 9.17154,14.62353c1.40565,8.33509 0.80275,19.06225 -1.67612,29.82166v0c-5.16195,22.40529 -16.88694,38.83264 -26.1885,36.69154v0c-9.30156,-2.14111 -12.65736,-22.03989 -7.49542,-44.44516z" fill="none" stroke="#000000" stroke-width="2" stroke-linecap="butt" stroke-linejoin="round"/><path d="M186.2722,102.56418l-27.84651,29.7906" fill-opacity="0" fill="#000000" stroke="none" stroke-width="1" stroke-linecap="square" stroke-linejoin="miter"/><path d="M186.2722,102.56418l-27.84651,29.7906" fill="none" stroke="#000000" stroke-width="2" stroke-linecap="butt" stroke-linejoin="round"/><path d="M261.71,157.15879l-21.0286,50.82561l-21.02856,-50.82561z" fill="url(#color-7)" stroke="none" stroke-width="1" stroke-linecap="square" stroke-linejoin="miter"/><path d="M261.71,157.15879l-21.0286,50.82561l-21.02856,-50.82561z" fill="none" stroke="#000000" stroke-width="1" stroke-linecap="butt" stroke-linejoin="round"/><path d="M264.84788,307.07102h-48.33294l9.66658,-142.22294h28.99975z" fill="url(#color-8)" stroke="none" stroke-width="1" stroke-linecap="square" stroke-linejoin="miter"/><path d="M264.84788,307.07102h-48.33294l9.66658,-142.22294h28.99975z" fill="none" stroke="#000000" stroke-width="1" stroke-linecap="butt" stroke-linejoin="round"/><path d="M182.69549,65.90932h115.97158v76.90534h-115.97157z" fill="url(#color-9)" stroke="none" stroke-width="1" stroke-linecap="square" stroke-linejoin="miter"/><path d="M182.69549,65.90932h115.97158v76.90534h-115.97157z" fill="none" stroke="#000000" stroke-width="2" stroke-linecap="butt" stroke-linejoin="round"/><path d="M182.58876,127.37295l115.92891,-38.00983" fill-opacity="0" fill="#000000" stroke="none" stroke-width="1" stroke-linecap="square" stroke-linejoin="miter"/><path d="M182.58876,127.37295l115.92891,-38.00983" fill="none" stroke="#000000" stroke-width="1" stroke-linecap="butt" stroke-linejoin="round"/><path d="M183.06364,65.98579h115.4487v23.37999h-115.4487z" fill="#000000" stroke="none" stroke-width="1" stroke-linecap="square" stroke-linejoin="miter"/><path d="M183.06364,65.98579h115.4487v23.37999h-115.4487z" fill="none" stroke="#000000" stroke-width="1" stroke-linecap="butt" stroke-linejoin="round"/><path d="M183.06364,107.05886l109.75041,-35.42746l5.78366,17.92714l-109.75043,35.42747z" fill="#000000" stroke="none" stroke-width="1" stroke-linecap="square" stroke-linejoin="miter"/><path d="M183.06364,107.05886l109.75041,-35.42746l5.78366,17.92714l-109.75043,35.42747z" fill="none" stroke="#000000" stroke-width="1" stroke-linecap="butt" stroke-linejoin="round"/><path d="M182.69549,65.98579h59.19159v41.57392h-59.19159z" fill="#000000" stroke="none" stroke-width="1" stroke-linecap="square" stroke-linejoin="miter"/><path d="M182.69549,65.98579h59.19159v41.57392h-59.19159z" fill="none" stroke="#000000" stroke-width="1" stroke-linecap="butt" stroke-linejoin="round"/><path d="M182.90701,127.04483l-0.0747,-23.25195l10.07335,17.55367z" fill="#000000" stroke="none" stroke-width="1" stroke-linecap="square" stroke-linejoin="miter"/><path d="M182.90701,127.04483l-0.0747,-23.25195l10.07335,17.55367z" fill="none" stroke="#000000" stroke-width="1" stroke-linecap="butt" stroke-linejoin="round"/><path d="M182.89944,125.05535l6.5306,-2.14486l0.58691,1.78204l-6.5306,2.14487z" fill="#000000" stroke="none" stroke-width="1" stroke-linecap="square" stroke-linejoin="miter"/><path d="M182.89944,125.05535l6.5306,-2.14486l0.58691,1.78204l-6.5306,2.14487z" fill="none" stroke="#000000" stroke-width="1" stroke-linecap="butt" stroke-linejoin="round"/><path d="M225.86573,100.88639v0c-3.14118,7.43451 -12.24955,10.69041 -20.34411,7.27224v0c-4.88551,-2.06304 -9.77101,-4.12609 -14.65651,-6.18914c1.89586,-4.48712 3.79172,-8.97424 5.68759,-13.46136c3.14118,-7.43451 12.24955,-10.6904 20.34411,-7.27223v0c8.09458,3.41817 12.1101,12.21599 8.96892,19.6505z" fill="url(#color-10)" stroke="none" stroke-width="1" stroke-linecap="square" stroke-linejoin="miter"/><path d="M225.86573,100.88639v0c-3.14118,7.43451 -12.24955,10.69041 -20.34411,7.27224v0c-4.88551,-2.06304 -9.77101,-4.12609 -14.65651,-6.18914c1.89586,-4.48712 3.79172,-8.97424 5.68759,-13.46136c3.14118,-7.43451 12.24955,-10.6904 20.34411,-7.27223v0c8.09458,3.41817 12.1101,12.21599 8.96892,19.6505z" fill="none" stroke="#000000" stroke-width="1" stroke-linecap="butt" stroke-linejoin="round"/><path d="M187.44831,74.75208l19.56096,0.91079l-0.18409,4.30391l18.65288,-2.40529l0.18997,4.52591l28.63945,0.33756l-28.74559,11.19312l0.0963,-5.33129l-18.17447,6.76836l-0.47346,-6.57158l-19.11813,7.18845z" fill="#000000" stroke="none" stroke-width="1" stroke-linecap="square" stroke-linejoin="miter"/><path d="M187.44831,74.75208l19.56096,0.91079l-0.18409,4.30391l18.65288,-2.40529l0.18997,4.52591l28.63945,0.33756l-28.74559,11.19312l0.0963,-5.33129l-18.17447,6.76836l-0.47346,-6.57158l-19.11813,7.18845z" fill="none" stroke="#000000" stroke-width="1" stroke-linecap="butt" stroke-linejoin="round"/><path d="M160.1039,102.88851l5.66836,10.74153l-0.42478,1.61299l5.68721,8.94163l-0.33401,1.89972l8.3849,15.33095l-9.40922,-10.80416l0.48749,-2.06793l-5.92244,-6.9536l0.42691,-2.86322l-6.23584,-7.28735z" fill="url(#color-11)" stroke="none" stroke-width="1" stroke-linecap="square" stroke-linejoin="miter"/><path d="M223.1196,139.45777l-2.07015,-13.13591" fill-opacity="0" fill="#000000" stroke="none" stroke-width="1" stroke-linecap="square" stroke-linejoin="miter"/><path d="M241.0964,124.88537l1.45126,15.17406" fill-opacity="0" fill="#000000" stroke="none" stroke-width="1" stroke-linecap="square" stroke-linejoin="miter"/><path d="M262.18228,122.20111l1.39789,12.42095" fill-opacity="0" fill="#000000" stroke="none" stroke-width="1" stroke-linecap="square" stroke-linejoin="miter"/><path d="M221.1766,130.69693l-10.70292,4.47113" fill-opacity="0" fill="#000000" stroke="none" stroke-width="1" stroke-linecap="square" stroke-linejoin="miter"/><path d="M221.17482,130.69071l21.37386,9.36907" fill-opacity="0" fill="#000000" stroke="none" stroke-width="1" stroke-linecap="square" stroke-linejoin="miter"/><path d="M249.99196,123.4328l-7.44832,16.62529" fill-opacity="0" fill="#000000" stroke="none" stroke-width="1" stroke-linecap="square" stroke-linejoin="miter"/><path d="M250.34736,124.43489l11.83404,11.63131" fill-opacity="0" fill="#000000" stroke="none" stroke-width="1" stroke-linecap="square" stroke-linejoin="miter"/><path d="M267.69025,121.375l7.14949,6.73336" fill-opacity="0" fill="#000000" stroke="none" stroke-width="1" stroke-linecap="square" stroke-linejoin="miter"/><path d="M204.068,127.62258c23.17204,2.1887 47.38277,1.63369 70.43119,-1.61454v0c0.20484,9.00823 -15.39569,16.67227 -34.84473,17.11812c-19.44902,0.44583 -35.38166,-6.49533 -35.58646,-15.50357z" data-paper-data="{&quot;index&quot;:null}" fill="url(#color-12)" stroke="none" stroke-width="1" stroke-linecap="square" stroke-linejoin="miter"/><path d="M204.068,127.62258c23.17204,2.1887 47.38277,1.63369 70.43119,-1.61454v0c0.20484,9.00823 -15.39569,16.67227 -34.84473,17.11812c-19.44902,0.44583 -35.38166,-6.49533 -35.58646,-15.50357z" data-paper-data="{&quot;index&quot;:null}" fill="none" stroke="#000000" stroke-width="2" stroke-linecap="butt" stroke-linejoin="round"/><path d="M258.13443,127.98293l-0.47915,12.44608" data-paper-data="{&quot;index&quot;:null}" fill="none" stroke="#000000" stroke-width="1" stroke-linecap="butt" stroke-linejoin="round"/><path d="M239.32994,128.85415l0.32093,14.27368" data-paper-data="{&quot;index&quot;:null}" fill="none" stroke="#000000" stroke-width="1" stroke-linecap="butt" stroke-linejoin="round"/><path d="M219.48915,140.38621l-0.06743,-11.70705" data-paper-data="{&quot;index&quot;:null}" fill="none" stroke="#000000" stroke-width="1" stroke-linecap="butt" stroke-linejoin="round"/><path d="M258.49789,132.06633l10.44745,2.98026" data-paper-data="{&quot;index&quot;:null}" fill="none" stroke="#000000" stroke-width="1" stroke-linecap="butt" stroke-linejoin="round"/><path d="M239.64995,143.12827l18.84891,-11.06792" data-paper-data="{&quot;index&quot;:null}" fill="none" stroke="#000000" stroke-width="1" stroke-linecap="butt" stroke-linejoin="round"/><path d="M230.89595,128.48255l8.75851,14.6436" data-paper-data="{&quot;index&quot;:null}" fill="none" stroke="#000000" stroke-width="1" stroke-linecap="butt" stroke-linejoin="round"/><path d="M220.9492,141.57544l9.72653,-12.12169" data-paper-data="{&quot;index&quot;:null}" fill="none" stroke="#000000" stroke-width="1" stroke-linecap="butt" stroke-linejoin="round"/><path d="M214.20761,128.51725l-5.90857,7.05013" data-paper-data="{&quot;index&quot;:null}" fill="none" stroke="#000000" stroke-width="1" stroke-linecap="butt" stroke-linejoin="round"/><path d="M213.68205,108.87301l2.78939,11.82074l-0.81621,1.45464l3.2596,10.08325l-0.80035,1.75497l4.26641,16.94526l-6.39465,-12.82076l0.99116,-1.87924l-3.98653,-8.218l1.13223,-2.66427l-4.20607,-8.61975z" fill="url(#color-13)" stroke="none" stroke-width="1" stroke-linecap="square" stroke-linejoin="miter"/><path d="M206.98598,115.26354l0.74934,-6.9689l-0.05968,9.27206l0.78399,-4.18101l-0.36632,5.39278l1.17532,0.18136l-1.03911,4.42498l0.28934,3.03024l-0.42555,1.63709l0.56222,5.3318l-0.954,-2.0576l0.06802,4.84709l-0.62189,-2.30318l-0.12787,4.66572l-0.39178,-2.36254l-0.26388,3.7589l-0.26411,-2.54713l-0.58765,5.57736l-0.02523,-5.39279l-0.79254,-0.66606l0.46043,-3.94027l-0.74977,-4.00126l0.88598,-2.06241l-0.6221,-5.33179l0.94566,-0.72707l-0.1959,-6.72814l0.91144,4.42498l0.26388,-7.21446z" fill="url(#color-14)" stroke="none" stroke-width="1" stroke-linecap="square" stroke-linejoin="miter"/><path d="M206.53424,100.35945v0c0,-1.3584 1.34418,-2.45962 3.00229,-2.45962v0c1.65813,0 3.0023,1.10121 3.0023,2.45962v0c0,1.3584 -1.34418,2.45963 -3.0023,2.45963v0c-1.65813,0 -3.00229,-1.10121 -3.00229,-2.45963z" fill="none" stroke="#000000" stroke-width="1" stroke-linecap="butt" stroke-linejoin="round"/><path d="M282.85855,94.76956l12.12622,9.24815l-18.01882,-5.37775l6.60263,8.02002l-9.81314,-5.57858l-2.71843,8.58926l-6.56681,-10.03517l-6.50986,0.52477l-2.34684,-4.01653l-11.56116,1.31603l5.94379,-5.95461l-9.61904,-2.07828l5.7563,-3.36955l-8.87031,-3.42933l5.40971,-1.63735l-6.82278,-3.95155l5.51405,-0.59562l-9.7291,-7.31252l10.60054,2.68497l2.8969,-5.50246l6.78228,5.50073l9.33545,-3.41053l2.25291,7.64576l11.68159,-1.75864l-0.47942,7.37573l13.55608,2.13468l-10.48946,4.37965l13.58284,5.79142z" fill="#000000" stroke="none" stroke-width="1" stroke-linecap="square" stroke-linejoin="miter"/><path d="M282.85855,94.76956l12.12622,9.24815l-18.01882,-5.37775l6.60263,8.02002l-9.81314,-5.57858l-2.71843,8.58926l-6.56681,-10.03517l-6.50986,0.52477l-2.34684,-4.01653l-11.56116,1.31603l5.94379,-5.95461l-9.61904,-2.07828l5.7563,-3.36955l-8.87031,-3.42933l5.40971,-1.63735l-6.82278,-3.95155l5.51405,-0.59562l-9.7291,-7.31252l10.60054,2.68497l2.8969,-5.50246l6.78228,5.50073l9.33545,-3.41053l2.25291,7.64576l11.68159,-1.75864l-0.47942,7.37573l13.55608,2.13468l-10.48946,4.37965l13.58284,5.79142z" fill="none" stroke="#000000" stroke-width="1" stroke-linecap="butt" stroke-linejoin="round"/><path d="M289.86741,66.16662l4.48643,-5.2175l-0.35725,6.94185l4.69405,-3.13027l-2.19332,4.0375l7.03704,0.13579l-6.22147,3.3129l1.7323,2.2687l-2.54788,1.22566l3.36618,3.99183l-5.71186,-1.54051l0.40713,3.62894l-3.72343,-1.72434l-0.76574,3.49316l-2.34568,-1.76882l-1.57999,2.81424l-1.58131,-1.90699l-3.5185,4.17567l-0.151,-4.03749l-4.74529,-0.49868l2.75685,-2.95001l-4.48916,-2.99568l5.30478,-1.54409l-3.72479,-3.99183l5.66198,-0.54434l-1.17286,-5.03726l5.4571,3.31291l1.57999,-5.40134z" fill="#000000" stroke="none" stroke-width="1" stroke-linecap="square" stroke-linejoin="miter"/><path d="M289.86741,66.16662l4.48643,-5.2175l-0.35725,6.94185l4.69405,-3.13027l-2.19332,4.0375l7.03704,0.13579l-6.22147,3.3129l1.7323,2.2687l-2.54788,1.22566l3.36618,3.99183l-5.71186,-1.54051l0.40713,3.62894l-3.72343,-1.72434l-0.76574,3.49316l-2.34568,-1.76882l-1.57999,2.81424l-1.58131,-1.90699l-3.5185,4.17567l-0.151,-4.03749l-4.74529,-0.49868l2.75685,-2.95001l-4.48916,-2.99568l5.30478,-1.54409l-3.72479,-3.99183l5.66198,-0.54434l-1.17286,-5.03726l5.4571,3.31291l1.57999,-5.40134z" fill="none" stroke="#000000" stroke-width="1" stroke-linecap="butt" stroke-linejoin="round"/><path d="M201.15077,69.07078l6.86175,-0.5168l-5.16116,4.65594l5.53268,1.10589l-4.40587,1.30392l4.88005,5.07209l-6.74189,-2.05679l-0.37922,2.82913l-2.66833,-0.93501l-0.4423,5.20292l-2.94973,-5.12828l-2.27813,2.85389l-1.41364,-3.8522l-3.01146,1.92854l-0.40797,-2.9094l-3.10716,0.87271l0.23023,-2.46662l-5.44064,0.46458l2.74813,-2.96166l-3.00289,-3.70813l4.03539,-0.13651l-1.05615,-5.29261l4.84294,2.65928l0.18871,-5.45649l4.38864,3.61883l2.73248,-4.39118l1.51629,6.20138l4.93649,-2.70204z" fill="#000000" stroke="none" stroke-width="1" stroke-linecap="square" stroke-linejoin="miter"/><path d="M201.15077,69.07078l6.86175,-0.5168l-5.16116,4.65594l5.53268,1.10589l-4.40587,1.30392l4.88005,5.07209l-6.74189,-2.05679l-0.37922,2.82913l-2.66833,-0.93501l-0.4423,5.20292l-2.94973,-5.12828l-2.27813,2.85389l-1.41364,-3.8522l-3.01146,1.92854l-0.40797,-2.9094l-3.10716,0.87271l0.23023,-2.46662l-5.44064,0.46458l2.74813,-2.96166l-3.00289,-3.70813l4.03539,-0.13651l-1.05615,-5.29261l4.84294,2.65928l0.18871,-5.45649l4.38864,3.61883l2.73248,-4.39118l1.51629,6.20138l4.93649,-2.70204z" fill="none" stroke="#000000" stroke-width="1" stroke-linecap="butt" stroke-linejoin="round"/></g></g></svg>