<svg version="1.1" xmlns="http://www.w3.org/2000/svg" xmlns:xlink="http://www.w3.org/1999/xlink" width="34.17311" height="34.17311" viewBox="0,0,34.17311,34.17311"><g transform="translate(-222.91346,-162.91346)"><g data-paper-data="{&quot;isPaintingLayer&quot;:true}" fill-rule="evenodd" stroke-miterlimit="10" stroke-dasharray="" stroke-dashoffset="0" style="mix-blend-mode: normal"><path d="M229.98313,162.91346h20.03378c3.9166,0 7.06966,3.15307 7.06966,7.06966v20.03379c0,3.91659 -3.15306,7.06966 -7.06966,7.06966h-20.03378c-3.91659,0 -7.06967,-3.15307 -7.06967,-7.06966v-20.03379c0,-3.91659 3.15308,-7.06966 7.06967,-7.06966z" fill-opacity="0.09677" fill="#191919" stroke="none" stroke-width="4.43922" stroke-linecap="round" stroke-linejoin="round"/><path d="M227.63616,171.7935h24.75046v16.41301h-24.75046z" fill="#ffffff" stroke="none" stroke-width="1" stroke-linecap="square" stroke-linejoin="miter"/><path d="M227.63616,171.7935h24.75046v16.41301h-24.75046z" fill="none" stroke="#000000" stroke-width="2" stroke-linecap="butt" stroke-linejoin="round"/><path d="M252.35473,176.79897l-24.74135,8.112" fill-opacity="0" fill="#000000" stroke="none" stroke-width="1" stroke-linecap="square" stroke-linejoin="miter"/><path d="M252.35473,176.79897l-24.74135,8.112" fill="none" stroke="#000000" stroke-width="1" stroke-linecap="butt" stroke-linejoin="round"/><path d="M227.71472,171.80982h24.63887v4.98972h-24.63887z" fill="#000000" stroke="none" stroke-width="1" stroke-linecap="square" stroke-linejoin="miter"/><path d="M227.71472,171.80982h24.63887v4.98972h-24.63887z" fill="none" stroke="#000000" stroke-width="1" stroke-linecap="butt" stroke-linejoin="round"/><path d="M227.71472,180.57556l23.42275,-7.56087l1.23433,3.82598l-23.42275,7.56087z" fill="#000000" stroke="none" stroke-width="1" stroke-linecap="square" stroke-linejoin="miter"/><path d="M227.71472,180.57556l23.42275,-7.56087l1.23433,3.82598l-23.42275,7.56087z" fill="none" stroke="#000000" stroke-width="1" stroke-linecap="butt" stroke-linejoin="round"/><path d="M227.63616,171.80982h12.63257v8.87264h-12.63257z" fill="#000000" stroke="none" stroke-width="1" stroke-linecap="square" stroke-linejoin="miter"/><path d="M227.63616,171.80982h12.63257v8.87264h-12.63257z" fill="none" stroke="#000000" stroke-width="1" stroke-linecap="butt" stroke-linejoin="round"/><path d="M227.6813,184.84093l-0.01594,-4.96239l2.14984,3.74628z" fill="#000000" stroke="none" stroke-width="1" stroke-linecap="square" stroke-linejoin="miter"/><path d="M227.6813,184.84093l-0.01594,-4.96239l2.14984,3.74628z" fill="none" stroke="#000000" stroke-width="1" stroke-linecap="butt" stroke-linejoin="round"/><path d="M227.67969,184.41634l1.39375,-0.45775l0.12525,0.38032l-1.39375,0.45775z" fill="#000000" stroke="none" stroke-width="1" stroke-linecap="square" stroke-linejoin="miter"/><path d="M227.67969,184.41634l1.39375,-0.45775l0.12525,0.38032l-1.39375,0.45775z" fill="none" stroke="#000000" stroke-width="1" stroke-linecap="butt" stroke-linejoin="round"/><path d="M234.74288,180.51089v0c-2.30107,0 -4.16645,-1.15216 -4.16645,-2.57343v0c0,-0.85781 0,-1.71562 0,-2.57343c1.38882,0 2.77763,0 4.16645,0c2.30107,0 4.16645,1.15216 4.16645,2.57343v0c0,1.42126 -1.86538,2.57343 -4.16645,2.57343z" fill="#ffffff" stroke="none" stroke-width="1" stroke-linecap="square" stroke-linejoin="miter"/><path d="M234.74288,180.51089v0c-2.30107,0 -4.16645,-1.15216 -4.16645,-2.57343v0c0,-0.85781 0,-1.71562 0,-2.57343c1.38882,0 2.77763,0 4.16645,0c2.30107,0 4.16645,1.15216 4.16645,2.57343v0c0,1.42126 -1.86538,2.57343 -4.16645,2.57343z" fill="none" stroke="#000000" stroke-width="1" stroke-linecap="butt" stroke-linejoin="round"/><path d="M233.87995,178.03918v0c0,-1.02758 1.12616,-1.86061 2.51536,-1.86061v0c1.38919,0 2.51536,0.83303 2.51536,1.86061v0c0,1.02759 -1.12616,1.86061 -2.51536,1.86061v0c-1.38919,0 -2.51536,-0.83303 -2.51536,-1.86061z" fill="#000000" stroke="none" stroke-width="1" stroke-linecap="square" stroke-linejoin="miter"/><path d="M238.91161,178.03995l-8.33518,-0.10248" fill-opacity="0" fill="#000000" stroke="none" stroke-width="1" stroke-linecap="square" stroke-linejoin="miter"/><path d="M238.91161,178.03995l-8.33518,-0.10248" fill="none" stroke="#000000" stroke-width="1" stroke-linecap="butt" stroke-linejoin="round"/><path d="M230.57643,175.36403h3.59939v0c1.98789,0 3.59938,1.31696 3.59938,2.94153c0,1.62456 -1.6115,2.94153 -3.59938,2.94153h-3.59939z" fill="#000000" stroke="none" stroke-width="1" stroke-linecap="square" stroke-linejoin="miter"/><path d="M237.4049,176.9633v0c-0.63454,-0.46348 -1.05054,-0.9738 -0.92917,-1.13982v0c0.05828,-0.07973 0.23523,-0.06778 0.49191,0.03323c0.25668,0.10101 0.57207,0.28279 0.87679,0.50536v0c0.63454,0.46348 1.05054,0.9738 0.92917,1.13982v0c-0.05828,0.07973 -0.23523,0.06778 -0.49192,-0.03323c-0.25668,-0.10101 -0.57207,-0.28279 -0.87679,-0.50536z" fill="#000000" stroke="none" stroke-width="1" stroke-linecap="square" stroke-linejoin="miter"/><path d="M237.4049,176.9633v0c-0.63454,-0.46348 -1.05054,-0.9738 -0.92917,-1.13982v0c0.05828,-0.07973 0.23523,-0.06778 0.49191,0.03323c0.25668,0.10101 0.57207,0.28279 0.87679,0.50536v0c0.63454,0.46348 1.05054,0.9738 0.92917,1.13982v0c-0.05828,0.07973 -0.23523,0.06778 -0.49192,-0.03323c-0.25668,-0.10101 -0.57207,-0.28279 -0.87679,-0.50536z" fill="none" stroke="#000000" stroke-width="1" stroke-linecap="butt" stroke-linejoin="round"/><path d="M237.57809,176.33104v0c-0.42009,-0.25847 -0.73974,-0.50216 -0.71395,-0.54429v0c0.01238,-0.02024 0.1044,0.00967 0.2558,0.08313c0.1514,0.07346 0.34979,0.18446 0.55153,0.30858v0c0.42009,0.25847 0.73974,0.50216 0.71396,0.54429v0c-0.01238,0.02023 -0.1044,-0.00967 -0.2558,-0.08313c-0.1514,-0.07346 -0.34979,-0.18446 -0.55153,-0.30858z" fill="#000000" stroke="none" stroke-width="1" stroke-linecap="square" stroke-linejoin="miter"/><path d="M237.57809,176.33104v0c-0.42009,-0.25847 -0.73974,-0.50216 -0.71395,-0.54429v0c0.01238,-0.02024 0.1044,0.00967 0.2558,0.08313c0.1514,0.07346 0.34979,0.18446 0.55153,0.30858v0c0.42009,0.25847 0.73974,0.50216 0.71396,0.54429v0c-0.01238,0.02023 -0.1044,-0.00967 -0.2558,-0.08313c-0.1514,-0.07346 -0.34979,-0.18446 -0.55153,-0.30858z" fill="none" stroke="#000000" stroke-width="1" stroke-linecap="butt" stroke-linejoin="round"/><path d="M238.27831,176.88247v0c0,-0.08742 0.05149,-0.15828 0.11501,-0.15828v0c0.0305,0 0.05976,0.01667 0.08132,0.04636c0.02157,0.02968 0.03368,0.06994 0.03368,0.11192v0c0,0.08741 -0.05149,0.15828 -0.11501,0.15828v0c-0.06352,0 -0.11501,-0.07086 -0.11501,-0.15828z" fill="#000000" stroke="none" stroke-width="1" stroke-linecap="square" stroke-linejoin="miter"/><path d="M237.01237,185.5456v0c1.87846,-0.70497 3.77239,-0.28744 4.23022,0.93258l-3.40125,1.27647z" fill-opacity="0" fill="#000000" stroke="none" stroke-width="1" stroke-linecap="square" stroke-linejoin="miter"/><path d="M237.01237,185.5456v0c1.87846,-0.70497 3.77239,-0.28744 4.23022,0.93258" fill-opacity="0" fill="#000000" stroke="none" stroke-width="1" stroke-linecap="square" stroke-linejoin="miter"/></g></g></svg>