<svg version="1.1" xmlns="http://www.w3.org/2000/svg" xmlns:xlink="http://www.w3.org/1999/xlink" width="167.73358" height="234.98588" viewBox="0,0,167.73358,234.98588"><g transform="translate(-162.20097,-72.17615)"><g data-paper-data="{&quot;isPaintingLayer&quot;:true}" stroke-miterlimit="10" stroke-dasharray="" stroke-dashoffset="0" style="mix-blend-mode: normal"><path d="M323.9888,143.24708v0c-7.76682,4.01643 -21.90919,-7.89299 -31.58783,-26.60043v0c-4.64787,-8.98364 -7.62371,-18.3655 -8.2729,-26.08172c-0.64919,-7.71622 1.08145,-13.13472 4.81121,-15.06348v0c7.76682,-4.01643 21.90919,7.89298 31.58785,26.60043v0c9.67867,18.70743 11.22851,37.12877 3.46167,41.1452z" fill="#ffffff" fill-rule="evenodd" stroke="none" stroke-width="1" stroke-linecap="square" stroke-linejoin="miter"/><path d="M323.9888,143.24708v0c-7.76682,4.01643 -21.90919,-7.89299 -31.58783,-26.60043v0c-4.64787,-8.98364 -7.62371,-18.3655 -8.2729,-26.08172c-0.64919,-7.71622 1.08145,-13.13472 4.81121,-15.06348v0c7.76682,-4.01643 21.90919,7.89298 31.58785,26.60043v0c9.67867,18.70743 11.22851,37.12877 3.46167,41.1452z" fill="none" fill-rule="evenodd" stroke="#000000" stroke-width="2" stroke-linecap="butt" stroke-linejoin="round"/><path d="M328.80002,128.18361l-33.01744,-25.76377" fill-opacity="0" fill="#000000" fill-rule="evenodd" stroke="none" stroke-width="1" stroke-linecap="square" stroke-linejoin="miter"/><path d="M328.80002,128.18361l-33.01744,-25.76377" fill="none" fill-rule="evenodd" stroke="#000000" stroke-width="2" stroke-linecap="butt" stroke-linejoin="round"/><path d="M168.22836,103.89169v0c7.29778,-19.75823 19.86353,-33.32076 28.06637,-30.2928v0c3.93915,1.45408 6.32479,6.61779 6.63211,14.35518c0.30733,7.73738 -1.48884,17.41463 -4.99336,26.90286v0c-7.29778,19.75823 -19.86353,33.32076 -28.06637,30.29279v0c-8.20285,-3.02797 -8.93655,-21.49983 -1.63876,-41.25804z" fill="#ffffff" fill-rule="evenodd" stroke="none" stroke-width="1" stroke-linecap="square" stroke-linejoin="miter"/><path d="M168.22836,103.89169v0c7.29778,-19.75823 19.86353,-33.32076 28.06637,-30.2928v0c3.93915,1.45408 6.32479,6.61779 6.63211,14.35518c0.30733,7.73738 -1.48884,17.41463 -4.99336,26.90286v0c-7.29778,19.75823 -19.86353,33.32076 -28.06637,30.29279v0c-8.20285,-3.02797 -8.93655,-21.49983 -1.63876,-41.25804z" fill="none" fill-rule="evenodd" stroke="#000000" stroke-width="2" stroke-linecap="butt" stroke-linejoin="round"/><path d="M192.0049,106.96536l-28.76989,23.8292" fill-opacity="0" fill="#000000" fill-rule="evenodd" stroke="none" stroke-width="1" stroke-linecap="square" stroke-linejoin="miter"/><path d="M192.0049,106.96536l-28.76989,23.8292" fill="none" fill-rule="evenodd" stroke="#000000" stroke-width="2" stroke-linecap="butt" stroke-linejoin="round"/><path d="M267.60393,169.32937l-27.78195,46.56068l-27.78195,-46.56068z" fill="#000000" fill-rule="evenodd" stroke="none" stroke-width="1" stroke-linecap="square" stroke-linejoin="miter"/><path d="M267.60393,169.32937l-27.78195,46.56068l-27.78195,-46.56068z" fill="none" fill-rule="evenodd" stroke="#000000" stroke-width="1" stroke-linecap="butt" stroke-linejoin="round"/><path d="M271.74956,306.66203h-63.85515l12.77103,-130.28859h38.31309z" fill="#000000" fill-rule="evenodd" stroke="none" stroke-width="1" stroke-linecap="square" stroke-linejoin="miter"/><path d="M271.74956,306.66203h-63.85515l12.77103,-130.28859h38.31309z" fill="none" fill-rule="evenodd" stroke="#000000" stroke-width="1" stroke-linecap="butt" stroke-linejoin="round"/><path d="M192.23684,88.99985h106.24005v70.45198h-106.24005z" fill="#ffffff" fill-rule="evenodd" stroke="none" stroke-width="1" stroke-linecap="square" stroke-linejoin="miter"/><path d="M192.23684,88.99985h106.24005v70.45198h-106.24005z" fill="none" fill-rule="evenodd" stroke="#000000" stroke-width="2" stroke-linecap="butt" stroke-linejoin="round"/><path d="M192.13909,145.30588l106.20095,-34.82031" fill-opacity="0" fill="#000000" fill-rule="evenodd" stroke="none" stroke-width="1" stroke-linecap="square" stroke-linejoin="miter"/><path d="M192.13909,145.30588l106.20095,-34.82031" fill="none" fill-rule="evenodd" stroke="#000000" stroke-width="1" stroke-linecap="butt" stroke-linejoin="round"/><path d="M192.5741,89.06991h105.76106v21.4181h-105.76106z" fill="#000000" fill-rule="evenodd" stroke="none" stroke-width="1" stroke-linecap="square" stroke-linejoin="miter"/><path d="M192.5741,89.06991h105.76106v21.4181h-105.76106z" fill="none" fill-rule="evenodd" stroke="#000000" stroke-width="1" stroke-linecap="butt" stroke-linejoin="round"/><path d="M192.5741,126.6964l100.54094,-32.45463l5.29832,16.42283l-100.54094,32.45463z" fill="#000000" fill-rule="evenodd" stroke="none" stroke-width="1" stroke-linecap="square" stroke-linejoin="miter"/><path d="M192.5741,126.6964l100.54094,-32.45463l5.29832,16.42283l-100.54094,32.45463z" fill="none" fill-rule="evenodd" stroke="#000000" stroke-width="1" stroke-linecap="butt" stroke-linejoin="round"/><path d="M192.23684,89.06991h54.22466v38.08533h-54.22466z" fill="#000000" fill-rule="evenodd" stroke="none" stroke-width="1" stroke-linecap="square" stroke-linejoin="miter"/><path d="M192.23684,89.06991h54.22466v38.08533h-54.22466z" fill="none" fill-rule="evenodd" stroke="#000000" stroke-width="1" stroke-linecap="butt" stroke-linejoin="round"/><path d="M192.43063,145.00529l-0.06843,-21.3008l9.22807,16.08069z" fill="#000000" fill-rule="evenodd" stroke="none" stroke-width="1" stroke-linecap="square" stroke-linejoin="miter"/><path d="M192.43063,145.00529l-0.06843,-21.3008l9.22807,16.08069z" fill="none" fill-rule="evenodd" stroke="#000000" stroke-width="1" stroke-linecap="butt" stroke-linejoin="round"/><path d="M192.42369,143.18276l5.9826,-1.96488l0.53765,1.6325l-5.9826,1.96488z" fill="#000000" fill-rule="evenodd" stroke="none" stroke-width="1" stroke-linecap="square" stroke-linejoin="miter"/><path d="M192.42369,143.18276l5.9826,-1.96488l0.53765,1.6325l-5.9826,1.96488z" fill="none" fill-rule="evenodd" stroke="#000000" stroke-width="1" stroke-linecap="butt" stroke-linejoin="round"/><path d="M222.74208,126.41881v0c-9.8772,0 -17.88427,-4.9456 -17.88427,-11.04631v0c0,-3.68211 0,-7.36421 0,-11.04631c5.96142,0 11.92285,0 17.88427,0c9.87721,0 17.88426,4.9456 17.88426,11.04631v0c0,6.1007 -8.00705,11.04631 -17.88426,11.04631z" fill="#ffffff" fill-rule="evenodd" stroke="none" stroke-width="1" stroke-linecap="square" stroke-linejoin="miter"/><path d="M222.74208,126.41881v0c-9.8772,0 -17.88427,-4.9456 -17.88427,-11.04631v0c0,-3.68211 0,-7.36421 0,-11.04631c5.96142,0 11.92285,0 17.88427,0c9.87721,0 17.88426,4.9456 17.88426,11.04631v0c0,6.1007 -8.00705,11.04631 -17.88426,11.04631z" fill="none" fill-rule="evenodd" stroke="#000000" stroke-width="1" stroke-linecap="butt" stroke-linejoin="round"/><path d="M214.05128,115.96778v0c0,-4.41086 4.834,-7.98657 10.79703,-7.98657v0c5.96304,0 10.79703,3.57572 10.79703,7.98657v0c0,4.41086 -4.83399,7.98658 -10.79703,7.98658v0c-5.96304,0 -10.79703,-3.57572 -10.79703,-7.98658z" fill="#000000" fill-rule="evenodd" stroke="none" stroke-width="1" stroke-linecap="square" stroke-linejoin="miter"/><path d="M240.63612,115.81241l-35.7783,-0.4399" fill-opacity="0" fill="#000000" fill-rule="evenodd" stroke="none" stroke-width="1" stroke-linecap="square" stroke-linejoin="miter"/><path d="M204.85782,102.60391h27.8585v0c15.38582,0 27.8585,3.10616 27.8585,6.93783c0,3.83165 -12.47268,6.93783 -27.8585,6.93783h-27.8585z" fill="#000000" fill-rule="evenodd" stroke="none" stroke-width="1" stroke-linecap="square" stroke-linejoin="miter"/><path d="M234.16867,111.19097v0c-2.72373,-1.98948 -4.50939,-4.17998 -3.9884,-4.89263v0c0.25019,-0.34222 1.00972,-0.29091 2.11151,0.14266c1.10179,0.43356 2.45558,1.21387 3.76356,2.16925v0c2.72372,1.98948 4.50939,4.17998 3.98841,4.89263v0c-0.25019,0.34222 -1.00972,0.29092 -2.11152,-0.14265c-1.10179,-0.43356 -2.45558,-1.21387 -3.76356,-2.16925z" fill="#000000" fill-rule="evenodd" stroke="none" stroke-width="1" stroke-linecap="square" stroke-linejoin="miter"/><path d="M234.16867,111.19097v0c-2.72373,-1.98948 -4.50939,-4.17998 -3.9884,-4.89263v0c0.25019,-0.34222 1.00972,-0.29091 2.11151,0.14266c1.10179,0.43356 2.45558,1.21387 3.76356,2.16925v0c2.72372,1.98948 4.50939,4.17998 3.98841,4.89263v0c-0.25019,0.34222 -1.00972,0.29092 -2.11152,-0.14265c-1.10179,-0.43356 -2.45558,-1.21387 -3.76356,-2.16925z" fill="none" fill-rule="evenodd" stroke="#000000" stroke-width="1" stroke-linecap="butt" stroke-linejoin="round"/><path d="M234.91206,108.47701v0c-1.80321,-1.10947 -3.17529,-2.15549 -3.06461,-2.33634v0c0.05315,-0.08686 0.44811,0.0415 1.098,0.35681c0.64989,0.31533 1.50147,0.79179 2.36741,1.32457v0c1.80322,1.10947 3.1753,2.15549 3.06462,2.33635v0c-0.05316,0.08685 -0.44811,-0.04151 -1.09801,-0.35682c-0.64989,-0.31533 -1.50147,-0.79179 -2.36741,-1.32457z" fill="#000000" fill-rule="evenodd" stroke="none" stroke-width="1" stroke-linecap="square" stroke-linejoin="miter"/><path d="M234.91206,108.47701v0c-1.80321,-1.10947 -3.17529,-2.15549 -3.06461,-2.33634v0c0.05315,-0.08686 0.44811,0.0415 1.098,0.35681c0.64989,0.31533 1.50147,0.79179 2.36741,1.32457v0c1.80322,1.10947 3.1753,2.15549 3.06462,2.33635v0c-0.05316,0.08685 -0.44811,-0.04151 -1.09801,-0.35682c-0.64989,-0.31533 -1.50147,-0.79179 -2.36741,-1.32457z" fill="none" fill-rule="evenodd" stroke="#000000" stroke-width="1" stroke-linecap="butt" stroke-linejoin="round"/><path d="M237.91772,110.84401v0c0,-0.37522 0.22102,-0.6794 0.49366,-0.6794v0c0.13093,0 0.2565,0.07158 0.34907,0.19899c0.09258,0.12741 0.14459,0.30022 0.14459,0.48041v0c0,0.37522 -0.22102,0.67939 -0.49366,0.67939v0c-0.27265,0 -0.49366,-0.30418 -0.49366,-0.67939z" fill="#000000" fill-rule="evenodd" stroke="none" stroke-width="1" stroke-linecap="square" stroke-linejoin="miter"/><path d="M232.48377,148.03006v0c8.06319,-3.02605 16.1928,-1.23382 18.15798,4.00307l-14.5997,5.47917z" fill-opacity="0" fill="#000000" fill-rule="evenodd" stroke="none" stroke-width="1" stroke-linecap="square" stroke-linejoin="miter"/><path d="M232.48377,148.03006v0c8.06319,-3.02605 16.1928,-1.23382 18.15798,4.00307" fill-opacity="0" fill="#000000" fill-rule="evenodd" stroke="none" stroke-width="1" stroke-linecap="square" stroke-linejoin="miter"/><path d="M245.61085,146.86065c2.72555,0.0119 8.25353,8.33878 8.25353,8.33878c0,0 -5.27056,-1.11814 -8.51924,-1.13232c-3.24868,-0.01418 -8.11257,1.05974 -8.11257,1.05974c0,0 5.56282,-8.27848 8.37828,-8.26619z" fill="#000000" fill-rule="nonzero" stroke="#000000" stroke-width="2" stroke-linecap="round" stroke-linejoin="miter"/></g></g></svg>