<svg version="1.1" xmlns="http://www.w3.org/2000/svg" xmlns:xlink="http://www.w3.org/1999/xlink" width="234.88664" height="259.23033" viewBox="0,0,234.88664,259.23033"><defs><linearGradient x1="347.87065" y1="173.73789" x2="340.36907" y2="278.81761" gradientUnits="userSpaceOnUse" id="color-1"><stop offset="0" stop-color="#4d4d4d"/><stop offset="1" stop-color="#000000"/></linearGradient><linearGradient x1="113.73107" y1="207.3368" x2="171.32939" y2="295.5395" gradientUnits="userSpaceOnUse" id="color-2"><stop offset="0" stop-color="#4d4d4d"/><stop offset="1" stop-color="#000000"/></linearGradient><linearGradient x1="332.37969" y1="136.96303" x2="332.59301" y2="242.31473" gradientUnits="userSpaceOnUse" id="color-3"><stop offset="0" stop-color="#4d4d4d"/><stop offset="1" stop-color="#000000"/></linearGradient><linearGradient x1="126.95875" y1="126.88406" x2="134.65855" y2="231.94715" gradientUnits="userSpaceOnUse" id="color-4"><stop offset="0" stop-color="#4d4d4d"/><stop offset="1" stop-color="#000000"/></linearGradient><radialGradient cx="241.37053" cy="183.26072" r="32.98502" fx="241.37053" fy="183.26072" gradientUnits="userSpaceOnUse" id="color-5"><stop offset="0" stop-color="#434343"/><stop offset="0.61" stop-color="#222222"/><stop offset="1" stop-color="#000000"/></radialGradient><radialGradient cx="241.37053" cy="236.64867" r="75.10565" fx="241.37053" fy="236.64867" gradientUnits="userSpaceOnUse" id="color-6"><stop offset="0" stop-color="#434343"/><stop offset="0.61" stop-color="#222222"/><stop offset="1" stop-color="#000000"/></radialGradient><radialGradient cx="315.23764" cy="100.79762" r="45.07583" fx="315.23764" fy="100.79762" gradientUnits="userSpaceOnUse" id="color-7"><stop offset="0" stop-color="#ffffff"/><stop offset="1" stop-color="#b3b3b3"/></radialGradient><radialGradient cx="181.37642" cy="85.9257" r="45.07582" fx="181.37642" fy="85.9257" gradientUnits="userSpaceOnUse" id="color-8"><stop offset="0" stop-color="#ffffff"/><stop offset="1" stop-color="#b3b3b3"/></radialGradient><linearGradient x1="193.76564" y1="64.92454" x2="185.27343" y2="141.35998" gradientUnits="userSpaceOnUse" id="color-9"><stop offset="0" stop-color="#ffffff"/><stop offset="0.49" stop-color="#efefef"/><stop offset="0.9" stop-color="#cccccc"/><stop offset="1" stop-color="#b9b9b9"/><stop offset="1" stop-color="#737373"/></linearGradient><radialGradient cx="218.92544" cy="96.68672" r="21.60376" fx="218.92544" fy="96.68672" gradientUnits="userSpaceOnUse" id="color-10"><stop offset="0" stop-color="#ffffff"/><stop offset="0.56" stop-color="#ffffff"/><stop offset="1" stop-color="#b3b3b3"/></radialGradient><radialGradient cx="166.81462" cy="97.89347" r="21.88616" fx="166.81462" fy="97.89347" gradientUnits="userSpaceOnUse" id="color-11"><stop offset="0" stop-color="#4d4d4d"/><stop offset="1" stop-color="#000000"/></radialGradient><radialGradient cx="249.33483" cy="136.73993" r="45.62573" fx="249.33483" fy="136.73993" gradientUnits="userSpaceOnUse" id="color-12"><stop offset="0" stop-color="#bfbfbf"/><stop offset="1" stop-color="#737373"/></radialGradient><radialGradient cx="221.03241" cy="120.64678" r="21.88616" fx="221.03241" fy="120.64678" gradientUnits="userSpaceOnUse" id="color-13"><stop offset="0" stop-color="#4d4d4d"/><stop offset="1" stop-color="#000000"/></radialGradient><radialGradient cx="218.81545" cy="117.90028" r="17.50369" fx="218.81545" fy="117.90028" gradientUnits="userSpaceOnUse" id="color-14"><stop offset="0" stop-color="#4d4d4d"/><stop offset="1" stop-color="#000000"/></radialGradient><radialGradient cx="221.59851" cy="101.85022" r="5.30405" fx="221.59851" fy="101.85022" gradientUnits="userSpaceOnUse" id="color-15"><stop offset="0" stop-color="#4d4d4d"/><stop offset="1" stop-color="#000000"/></radialGradient></defs><g transform="translate(-113.44758,-49.02982)"><g data-paper-data="{&quot;isPaintingLayer&quot;:true}" fill-rule="evenodd" stroke-miterlimit="10" stroke-dasharray="" stroke-dashoffset="0" style="mix-blend-mode: normal"><path d="M240.10901,262.43767c1.77277,-3.32779 2.57077,-5.09371 13.41954,-10.55599c10.84873,-5.46229 41.0221,-11.46398 51.673,-22.21778c10.65091,-10.7538 5.14104,-33.02419 12.23243,-42.30509c7.0914,-9.28091 28.81566,-15.21444 30.31592,-13.38031c1.50025,1.83415 -17.46897,13.52915 -21.31441,24.38517c-3.84544,10.85602 5.8309,29.87441 -1.75837,40.75095c-7.58927,10.87654 -30.14627,19.05272 -43.77717,24.50837c-13.63089,5.45563 -31.20965,8.42307 -38.00816,8.2255c-6.7985,-0.19756 -4.55559,-6.08301 -2.7828,-9.4108z" fill="url(#color-1)" stroke="none" stroke-width="1" stroke-linecap="square" stroke-linejoin="miter"/><path d="M240.10901,262.43767c1.77277,-3.32779 2.57077,-5.09371 13.41954,-10.55599c10.84873,-5.46229 41.0221,-11.46398 51.673,-22.21778c10.65091,-10.7538 5.14104,-33.02419 12.23243,-42.30509c7.0914,-9.28091 28.81566,-15.21444 30.31592,-13.38031c1.50025,1.83415 -17.46897,13.52915 -21.31441,24.38517c-3.84544,10.85602 5.8309,29.87441 -1.75837,40.75095c-7.58927,10.87654 -30.14627,19.05272 -43.77717,24.50837c-13.63089,5.45563 -31.20965,8.42307 -38.00816,8.2255c-6.7985,-0.19756 -4.55559,-6.08301 -2.7828,-9.4108z" fill="none" stroke="#000000" stroke-width="1" stroke-linecap="butt" stroke-linejoin="round"/><path d="M251.00685,232.52202c3.166,2.04759 7.98524,6.10238 2.13886,9.57738c-5.84637,3.47498 -22.65275,9.41998 -37.21707,11.27246c-14.56431,1.85249 -38.25213,5.66285 -50.16882,-0.15757c-11.91669,-5.8204 -12.69693,-27.1439 -21.33131,-34.76488c-8.63439,-7.62098 -30.89542,-8.62909 -30.47504,-10.96096c0.42038,-2.33191 22.29099,-7.69795 32.99743,-3.03041c10.70645,4.66754 16.70807,26.80969 31.24123,31.03565c14.53315,4.22596 43.8219,-5.18463 55.95768,-5.6799c12.1358,-0.49526 13.69103,0.66063 16.85703,2.70824z" fill="url(#color-2)" stroke="none" stroke-width="1" stroke-linecap="square" stroke-linejoin="miter"/><path d="M251.00685,232.52202c3.166,2.04759 7.98524,6.10238 2.13886,9.57738c-5.84637,3.47498 -22.65275,9.41998 -37.21707,11.27246c-14.56431,1.85249 -38.25213,5.66285 -50.16882,-0.15757c-11.91669,-5.8204 -12.69693,-27.1439 -21.33131,-34.76488c-8.63439,-7.62098 -30.89542,-8.62909 -30.47504,-10.96096c0.42038,-2.33191 22.29099,-7.69795 32.99743,-3.03041c10.70645,4.66754 16.70807,26.80969 31.24123,31.03565c14.53315,4.22596 43.8219,-5.18463 55.95768,-5.6799c12.1358,-0.49526 13.69103,0.66063 16.85703,2.70824z" fill="none" stroke="#000000" stroke-width="1" stroke-linecap="butt" stroke-linejoin="round"/><path d="M231.39804,233.3202c1.52442,-3.44885 2.19099,-5.26854 12.6111,-11.51086c10.42014,-6.24235 40.07431,-14.4378 49.90959,-25.94319c9.83533,-11.50539 2.7091,-33.31352 9.10214,-43.08924c6.393,-9.77571 27.6254,-17.28449 29.25602,-15.56505c1.63062,1.71944 -16.43206,14.7727 -19.4724,25.88167c-3.0403,11.10899 8.00324,29.36856 1.23052,40.77217c-6.77275,11.4036 -28.67145,21.21007 -41.86686,27.64953c-13.19541,6.43946 -30.51048,10.68634 -37.30549,10.98717c-6.79501,0.30083 -4.98904,-5.73333 -3.46462,-9.18218z" fill="url(#color-3)" stroke="none" stroke-width="1" stroke-linecap="square" stroke-linejoin="miter"/><path d="M231.39804,233.3202c1.52442,-3.44885 2.19099,-5.26854 12.6111,-11.51086c10.42014,-6.24235 40.07431,-14.4378 49.90959,-25.94319c9.83533,-11.50539 2.7091,-33.31352 9.10214,-43.08924c6.393,-9.77571 27.6254,-17.28449 29.25602,-15.56505c1.63062,1.71944 -16.43206,14.7727 -19.4724,25.88167c-3.0403,11.10899 8.00324,29.36856 1.23052,40.77217c-6.77275,11.4036 -28.67145,21.21007 -41.86686,27.64953c-13.19541,6.43946 -30.51048,10.68634 -37.30549,10.98717c-6.79501,0.30083 -4.98904,-5.73333 -3.46462,-9.18218z" fill="none" stroke="#000000" stroke-width="1" stroke-linecap="butt" stroke-linejoin="round"/><path d="M234.88531,215.37833c1.77901,3.32439 4.03298,9.20546 -2.76498,9.41584c-6.79794,0.21037 -24.38191,-2.72377 -38.02279,-8.15356c-13.64086,-5.42979 -36.21279,-13.56317 -43.82238,-24.42516c-7.60962,-10.86196 2.0306,-29.89814 -1.83526,-40.74666c-3.86587,-10.8485 -22.85668,-22.50741 -21.35993,-24.34435c1.49676,-1.83694 23.23172,4.05547 30.34045,13.32275c7.10874,9.2673 1.64104,31.54756 12.31201,42.28101c10.67097,10.73344 40.85493,16.678 51.71375,22.1197c10.85881,5.4417 11.66012,7.20603 13.43917,10.53041z" fill="url(#color-4)" stroke="none" stroke-width="1" stroke-linecap="square" stroke-linejoin="miter"/><path d="M234.88531,215.37833c1.77901,3.32439 4.03298,9.20546 -2.76498,9.41584c-6.79794,0.21037 -24.38191,-2.72377 -38.02279,-8.15356c-13.64086,-5.42979 -36.21279,-13.56317 -43.82238,-24.42516c-7.60962,-10.86196 2.0306,-29.89814 -1.83526,-40.74666c-3.86587,-10.8485 -22.85668,-22.50741 -21.35993,-24.34435c1.49676,-1.83694 23.23172,4.05547 30.34045,13.32275c7.10874,9.2673 1.64104,31.54756 12.31201,42.28101c10.67097,10.73344 40.85493,16.678 51.71375,22.1197c10.85881,5.4417 11.66012,7.20603 13.43917,10.53041z" fill="none" stroke="#000000" stroke-width="1" stroke-linecap="butt" stroke-linejoin="round"/><path d="M262.39913,157.84792l-21.02861,50.82561l-21.02856,-50.82561z" fill="url(#color-5)" stroke="none" stroke-width="1" stroke-linecap="square" stroke-linejoin="miter"/><path d="M262.39913,157.84792l-21.02861,50.82561l-21.02856,-50.82561z" fill="none" stroke="#000000" stroke-width="1" stroke-linecap="butt" stroke-linejoin="round"/><path d="M265.53701,307.76015h-48.33294l9.66658,-142.22294h28.99975z" fill="url(#color-6)" stroke="none" stroke-width="1" stroke-linecap="square" stroke-linejoin="miter"/><path d="M265.53701,307.76015h-48.33294l9.66658,-142.22294h28.99975z" fill="none" stroke="#000000" stroke-width="1" stroke-linecap="butt" stroke-linejoin="round"/><path d="M330.27749,139.61709v0c-8.90082,3.44649 -22.84997,-11.13964 -31.15625,-32.57904v0c-3.98881,-10.29556 -6.11629,-20.82691 -5.91441,-29.27729c0.20193,-8.45037 2.71665,-14.12756 6.99095,-15.78263v0c8.90085,-3.44649 22.84996,11.13963 31.15625,32.57904v0c8.30628,21.4394 7.82433,41.61341 -1.07653,45.0599z" fill="url(#color-7)" stroke="none" stroke-width="1" stroke-linecap="square" stroke-linejoin="miter"/><path d="M330.27749,139.61709v0c-8.90082,3.44649 -22.84997,-11.13964 -31.15625,-32.57904v0c-3.98881,-10.29556 -6.11629,-20.82691 -5.91441,-29.27729c0.20193,-8.45037 2.71665,-14.12756 6.99095,-15.78263v0c8.90085,-3.44649 22.84996,11.13963 31.15625,32.57904v0c8.30628,21.4394 7.82433,41.61341 -1.07653,45.0599z" fill="none" stroke="#000000" stroke-width="2" stroke-linecap="butt" stroke-linejoin="round"/><path d="M337.26844,123.83449l-32.80599,-31.83899" fill-opacity="0" fill="#000000" stroke="none" stroke-width="1" stroke-linecap="square" stroke-linejoin="miter"/><path d="M337.26844,123.83449l-32.80599,-31.83899" fill="none" stroke="#000000" stroke-width="2" stroke-linecap="butt" stroke-linejoin="round"/><path d="M167.02273,76.30005v0c12.80946,-19.09346 29.61996,-30.26221 37.54728,-24.94611v0c3.80683,2.55286 5.01414,8.64358 3.35635,16.93221c-1.65781,8.28861 -6.0449,18.09621 -12.19625,27.26521v0c-12.80946,19.09346 -29.61995,30.26221 -37.54727,24.94611v0c-7.92732,-5.3161 -3.96955,-25.10396 8.83989,-44.1974z" fill="url(#color-8)" stroke="none" stroke-width="1" stroke-linecap="square" stroke-linejoin="miter"/><path d="M167.02273,76.30005v0c12.80946,-19.09346 29.61996,-30.26221 37.54728,-24.94611v0c3.80683,2.55286 5.01414,8.64358 3.35635,16.93221c-1.65781,8.28861 -6.0449,18.09621 -12.19625,27.26521v0c-12.80946,19.09346 -29.61995,30.26221 -37.54727,24.94611v0c-7.92732,-5.3161 -3.96955,-25.10396 8.83989,-44.1974z" fill="none" stroke="#000000" stroke-width="2" stroke-linecap="butt" stroke-linejoin="round"/><path d="M154.82647,103.56526l36.63646,-17.90747" fill-opacity="0" fill="#000000" stroke="none" stroke-width="1" stroke-linecap="square" stroke-linejoin="miter"/><path d="M154.82647,103.56526l36.63646,-17.90747" fill="none" stroke="#000000" stroke-width="2" stroke-linecap="butt" stroke-linejoin="round"/><path d="M193.76561,64.92496l115.2624,12.8056l-8.4919,76.43506l-115.2624,-12.80559z" fill="url(#color-9)" stroke="none" stroke-width="1" stroke-linecap="square" stroke-linejoin="miter"/><path d="M193.76561,64.92496l115.2624,12.8056l-8.4919,76.43506l-115.2624,-12.80559z" fill="none" stroke="#000000" stroke-width="2" stroke-linecap="butt" stroke-linejoin="round"/><path d="M186.87271,126.00095l119.41706,-24.97651" fill-opacity="0" fill="#000000" stroke="none" stroke-width="1" stroke-linecap="square" stroke-linejoin="miter"/><path d="M186.87271,126.00095l119.41706,-24.97651" fill="none" stroke="#000000" stroke-width="1" stroke-linecap="butt" stroke-linejoin="round"/><path d="M194.12306,65.04161l114.74273,12.74786l-2.58163,23.23703l-114.74273,-12.74786z" fill="#000000" stroke="none" stroke-width="1" stroke-linecap="square" stroke-linejoin="miter"/><path d="M194.12306,65.04161l114.74273,12.74786l-2.58163,23.23703l-114.74273,-12.74786z" fill="none" stroke="#000000" stroke-width="1" stroke-linecap="butt" stroke-linejoin="round"/><path d="M189.58778,105.86351l112.99119,-23.09216l3.76878,18.45615l-112.99121,23.09217z" fill="#000000" stroke="none" stroke-width="1" stroke-linecap="square" stroke-linejoin="miter"/><path d="M189.58778,105.86351l112.99119,-23.09216l3.76878,18.45615l-112.99121,23.09217z" fill="none" stroke="#000000" stroke-width="1" stroke-linecap="butt" stroke-linejoin="round"/><path d="M193.75717,65.00096l58.82964,6.53594l-4.5906,41.31969l-58.82963,-6.53594z" fill="#000000" stroke="none" stroke-width="1" stroke-linecap="square" stroke-linejoin="miter"/><path d="M193.75717,65.00096l58.82964,6.53594l-4.5906,41.31969l-58.82963,-6.53594z" fill="none" stroke="#000000" stroke-width="1" stroke-linecap="butt" stroke-linejoin="round"/><path d="M187.22525,125.70997l2.49325,-23.11801l8.07348,18.55864z" fill="#000000" stroke="none" stroke-width="1" stroke-linecap="square" stroke-linejoin="miter"/><path d="M187.22525,125.70997l2.49325,-23.11801l8.07348,18.55864z" fill="none" stroke="#000000" stroke-width="1" stroke-linecap="butt" stroke-linejoin="round"/><path d="M187.4374,123.73182l6.7275,-1.41063l0.38655,1.83594l-6.72751,1.41063z" fill="#000000" stroke="none" stroke-width="1" stroke-linecap="square" stroke-linejoin="miter"/><path d="M187.4374,123.73182l6.7275,-1.41063l0.38655,1.83594l-6.72751,1.41063z" fill="none" stroke="#000000" stroke-width="1" stroke-linecap="butt" stroke-linejoin="round"/><path d="M232.80969,104.45501v0c-3.94289,7.0422 -13.35507,9.27244 -21.0227,4.98136v0c-4.62783,-2.58988 -9.25565,-5.17977 -13.88348,-7.76967c2.37974,-4.25034 4.75947,-8.50068 7.13922,-12.75102c3.94289,-7.0422 13.35508,-9.27243 21.0227,-4.98135v0c7.66764,4.29107 10.68715,13.47849 6.74426,20.52069z" fill="url(#color-10)" stroke="none" stroke-width="1" stroke-linecap="square" stroke-linejoin="miter"/><path d="M232.80969,104.45501v0c-3.94289,7.0422 -13.35507,9.27244 -21.0227,4.98136v0c-4.62783,-2.58988 -9.25565,-5.17977 -13.88348,-7.76967c2.37974,-4.25034 4.75947,-8.50068 7.13922,-12.75102c3.94289,-7.0422 13.35508,-9.27243 21.0227,-4.98135v0c7.66764,4.29107 10.68715,13.47849 6.74426,20.52069z" fill="none" stroke="#000000" stroke-width="1" stroke-linecap="butt" stroke-linejoin="round"/><path d="M197.51295,74.23845l19.34078,3.06515l-0.6582,4.25727l18.8044,-0.33093l-0.31094,4.51921l28.42703,3.49787l-29.80576,7.95059l0.6844,-5.28806l-18.81071,4.72014l0.25506,-6.58368l-19.79497,5.03346z" fill="#000000" stroke="none" stroke-width="1" stroke-linecap="square" stroke-linejoin="miter"/><path d="M197.51295,74.23845l19.34078,3.06515l-0.6582,4.25727l18.8044,-0.33093l-0.31094,4.51921l28.42703,3.49787l-29.80576,7.95059l0.6844,-5.28806l-18.81071,4.72014l0.25506,-6.58368l-19.79497,5.03346z" fill="none" stroke="#000000" stroke-width="1" stroke-linecap="butt" stroke-linejoin="round"/><path d="M166.89803,76.63284l1.46708,12.05648l-0.97184,1.3556l2.12628,10.38152l-0.98924,1.65587l2.36923,17.31274l-4.93987,-13.44845l1.1926,-1.75832l-3.05471,-8.60793l1.41949,-2.52296l-3.22855,-9.03147z" fill="url(#color-11)" stroke="none" stroke-width="1" stroke-linecap="square" stroke-linejoin="miter"/><path d="M225.21428,129.20311l0.60703,13.28418" fill-opacity="0" fill="#000000" stroke="none" stroke-width="1" stroke-linecap="square" stroke-linejoin="miter"/><path d="M245.29726,129.98901l-0.23314,15.24152" fill-opacity="0" fill="#000000" stroke="none" stroke-width="1" stroke-linecap="square" stroke-linejoin="miter"/><path d="M266.56841,142.14881l-0.0178,-12.49935" fill-opacity="0" fill="#000000" stroke="none" stroke-width="1" stroke-linecap="square" stroke-linejoin="miter"/><path d="M224.85755,133.56548l-11.13118,3.26197" fill-opacity="0" fill="#000000" stroke="none" stroke-width="1" stroke-linecap="square" stroke-linejoin="miter"/><path d="M245.0651,145.23099l-20.20863,-11.67189" fill-opacity="0" fill="#000000" stroke="none" stroke-width="1" stroke-linecap="square" stroke-linejoin="miter"/><path d="M254.29882,129.52755l-9.23854,15.70119" fill-opacity="0" fill="#000000" stroke="none" stroke-width="1" stroke-linecap="square" stroke-linejoin="miter"/><path d="M254.54139,130.56276l10.47734,12.8669" fill-opacity="0" fill="#000000" stroke="none" stroke-width="1" stroke-linecap="square" stroke-linejoin="miter"/><path d="M272.11611,129.43659l6.36227,7.48163" fill-opacity="0" fill="#000000" stroke="none" stroke-width="1" stroke-linecap="square" stroke-linejoin="miter"/><path d="M292.71457,122.61327v0c0.99379,11.32646 -18.02509,22.24397 -42.47973,24.38496c-24.45464,2.14097 -45.08467,-5.30532 -46.07839,-16.63175v0c29.35802,0.87403 59.79991,-1.79111 88.55813,-7.75319z" fill="url(#color-12)" stroke="none" stroke-width="1" stroke-linecap="square" stroke-linejoin="miter"/><path d="M292.71457,122.61327v0c0.99379,11.32646 -18.02509,22.24397 -42.47973,24.38496c-24.45464,2.14097 -45.08467,-5.30532 -46.07839,-16.63175v0c29.35802,0.87403 59.79991,-1.79111 88.55813,-7.75319z" fill="none" stroke="#000000" stroke-width="2" stroke-linecap="butt" stroke-linejoin="round"/><path d="M224.9551,130.5714l2.32886,15.54321" fill="none" stroke="#000000" stroke-width="1" stroke-linecap="butt" stroke-linejoin="round"/><path d="M250.23957,146.99983l-1.57914,-17.94644" fill="none" stroke="#000000" stroke-width="1" stroke-linecap="butt" stroke-linejoin="round"/><path d="M273.60481,126.07002l1.54074,14.69221" fill="none" stroke="#000000" stroke-width="1" stroke-linecap="butt" stroke-linejoin="round"/><path d="M212.37687,140.93147l12.6893,-5.18824" fill="none" stroke="#000000" stroke-width="1" stroke-linecap="butt" stroke-linejoin="round"/><path d="M250.24078,147.00027l-25.17667,-11.26442" fill="none" stroke="#000000" stroke-width="1" stroke-linecap="butt" stroke-linejoin="round"/><path d="M250.23483,146.99823l8.95182,-19.5818" fill="none" stroke="#000000" stroke-width="1" stroke-linecap="butt" stroke-linejoin="round"/><path d="M273.47946,142.45645l-13.88176,-13.85252" fill="none" stroke="#000000" stroke-width="1" stroke-linecap="butt" stroke-linejoin="round"/><path d="M288.51105,133.16496l-8.38925,-8.02191" fill="none" stroke="#000000" stroke-width="1" stroke-linecap="butt" stroke-linejoin="round"/><path d="M221.1158,99.38614l1.46708,12.05648l-0.97184,1.3556l2.12626,10.38152l-0.98923,1.65587l2.36923,17.31274l-4.93988,-13.44846l1.19261,-1.7583l-3.05472,-8.60794l1.4195,-2.52296l-3.22855,-9.03147z" fill="url(#color-13)" stroke="none" stroke-width="1" stroke-linecap="square" stroke-linejoin="miter"/><path d="M220.1081,107.61506l1.51426,-6.84354l-1.08313,9.20877l1.24087,-4.06887l-0.95956,5.31935l1.14811,0.31002l-1.52136,4.28319l-0.04703,3.04365l-0.60371,1.58009l-0.02996,5.36128l-0.72096,-2.15035l-0.46761,4.82497l-0.36378,-2.35777l-0.64228,4.62307l-0.12851,-2.39136l-0.67732,3.70676l0.01876,-2.56072l-1.19991,5.47837l0.5704,-5.36261l-0.71413,-0.74951l0.89271,-3.86533l-0.30337,-4.05958l1.10829,-1.95199l-0.02955,-5.36787l1.02016,-0.6182l0.54823,-6.70862l0.41726,4.49855l1.05889,-7.1412z" fill="url(#color-14)" stroke="none" stroke-width="1" stroke-linecap="square" stroke-linejoin="miter"/><path d="M217.52064,101.39716v0c0.20498,-1.84506 2.19688,-3.13793 4.44903,-2.88773v0c2.25215,0.25021 3.91171,1.94876 3.70673,3.79382v0c-0.20498,1.84506 -2.19689,3.13796 -4.44904,2.88775v0c-2.25215,-0.25021 -3.9117,-1.94877 -3.70671,-3.79384z" fill="url(#color-15)" stroke="none" stroke-width="1" stroke-linecap="square" stroke-linejoin="miter"/><path d="M214.36525,100.43281v0c0.17542,-1.57897 1.88005,-2.68539 3.80739,-2.47126v0c1.92735,0.21413 3.34756,1.66772 3.17214,3.24668v0c-0.17542,1.57897 -1.88005,2.68541 -3.8074,2.47128v0c-1.92735,-0.21413 -3.34756,-1.66771 -3.17214,-3.24669z" fill="none" stroke="#000000" stroke-width="1" stroke-linecap="butt" stroke-linejoin="round"/><path d="M290.12942,104.66873l11.03088,10.53058l-17.31482,-7.33451l5.67667,8.70004l-9.13713,-6.62804l-3.65024,8.23657l-5.41857,-10.69891l-6.52799,-0.19727l-1.88898,-4.25111l-11.63578,0.03141l6.56496,-5.26189l-9.33073,-3.1277l6.09317,-2.71334l-8.4374,-4.38782l5.55742,-1.03l-6.34474,-4.68076l5.5461,0.01689l-8.86216,-8.34209l10.23924,3.83906l3.48677,-5.14895l6.13341,6.216l9.65496,-2.35885l1.39489,7.84777l11.80435,-0.45801l-1.29092,7.27769l13.23747,3.6185l-10.90891,3.19461l12.86029,7.25582z" fill="#000000" stroke="none" stroke-width="1" stroke-linecap="square" stroke-linejoin="miter"/><path d="M290.12942,104.66873l11.03088,10.53058l-17.31482,-7.33451l5.67667,8.70004l-9.13713,-6.62804l-3.65024,8.23657l-5.41857,-10.69891l-6.52799,-0.19727l-1.88898,-4.25111l-11.63578,0.03141l6.56496,-5.26189l-9.33073,-3.1277l6.09317,-2.71334l-8.4374,-4.38782l5.55742,-1.03l-6.34474,-4.68076l5.5461,0.01689l-8.86216,-8.34209l10.23924,3.83906l3.48677,-5.14895l6.13341,6.216l9.65496,-2.35885l1.39489,7.84777l11.80435,-0.45801l-1.29092,7.27769l13.23747,3.6185l-10.90891,3.19461l12.86029,7.25582z" fill="none" stroke="#000000" stroke-width="1" stroke-linecap="butt" stroke-linejoin="round"/><path d="M300.25377,77.01462l5.03512,-4.6902l-1.12159,6.85995l5.01099,-2.59279l-2.62573,3.77062l6.97902,0.91199l-6.54924,2.60567l1.47121,2.4461l-2.66764,0.93684l2.90483,4.33912l-5.50683,-2.16179l0.00394,3.6517l-3.51027,-2.12494l-1.14677,3.38725l-2.13602,-2.01701l-1.88108,2.62257l-1.36107,-2.06994l-3.95806,3.76162l0.29574,-4.02948l-4.66121,-1.0196l3.06574,-2.62756l-4.13093,-3.47305l5.44285,-0.94889l-3.26123,-4.37871l5.68746,0.08419l-0.60947,-5.13597l5.05791,3.89523l2.16675,-5.19385z" fill="#000000" stroke="none" stroke-width="1" stroke-linecap="square" stroke-linejoin="miter"/><path d="M300.25377,77.01462l5.03512,-4.6902l-1.12159,6.85995l5.01099,-2.59279l-2.62573,3.77062l6.97902,0.91199l-6.54924,2.60567l1.47121,2.4461l-2.66764,0.93684l2.90483,4.33912l-5.50683,-2.16179l0.00394,3.6517l-3.51027,-2.12494l-1.14677,3.38725l-2.13602,-2.01701l-1.88108,2.62257l-1.36107,-2.06994l-3.95806,3.76162l0.29574,-4.02948l-4.66121,-1.0196l3.06574,-2.62756l-4.13093,-3.47305l5.44285,-0.94889l-3.26123,-4.37871l5.68746,0.08419l-0.60947,-5.13597l5.05791,3.89523l2.16675,-5.19385z" fill="none" stroke="#000000" stroke-width="1" stroke-linecap="butt" stroke-linejoin="round"/><path d="M211.75895,70.10492l6.87686,0.24403l-5.64372,4.05757l5.37673,1.71005l-4.52291,0.80945l4.29014,5.57992l-6.47355,-2.78865l-0.6893,2.76996l-2.54878,-1.22393l-1.01409,5.12226l-2.36543,-5.42263l-2.57933,2.58489l-0.97964,-3.98474l-3.20599,1.58422l-0.08423,-2.93666l-3.18452,0.52428l0.50118,-2.42611l-5.45867,-0.13903l3.05835,-2.6401l-2.57508,-4.01703l4.02579,0.30992l-0.46528,-5.37687l4.51968,3.17777l0.79006,-5.40229l3.96221,4.08129l3.20065,-4.06261l0.82226,6.33089l5.20467,-2.14043z" fill="#000000" stroke="none" stroke-width="1" stroke-linecap="square" stroke-linejoin="miter"/><path d="M211.75895,70.10492l6.87686,0.24403l-5.64372,4.05757l5.37673,1.71005l-4.52291,0.80945l4.29014,5.57992l-6.47355,-2.78865l-0.6893,2.76996l-2.54878,-1.22393l-1.01409,5.12226l-2.36543,-5.42263l-2.57933,2.58489l-0.97964,-3.98474l-3.20599,1.58422l-0.08423,-2.93666l-3.18452,0.52428l0.50118,-2.42611l-5.45867,-0.13903l3.05835,-2.6401l-2.57508,-4.01703l4.02579,0.30992l-0.46528,-5.37687l4.51968,3.17777l0.79006,-5.40229l3.96221,4.08129l3.20065,-4.06261l0.82226,6.33089l5.20467,-2.14043z" fill="none" stroke="#000000" stroke-width="1" stroke-linecap="butt" stroke-linejoin="round"/></g></g></svg>