<svg version="1.1" xmlns="http://www.w3.org/2000/svg" xmlns:xlink="http://www.w3.org/1999/xlink" width="257.25207" height="255.4939" viewBox="0,0,257.25207,255.4939"><defs><linearGradient x1="361.50929" y1="232.11484" x2="280.67137" y2="299.66668" gradientUnits="userSpaceOnUse" id="color-1"><stop offset="0" stop-color="#4d4d4d"/><stop offset="1" stop-color="#000000"/></linearGradient><linearGradient x1="105.48911" y1="232.52086" x2="188.56111" y2="297.29992" gradientUnits="userSpaceOnUse" id="color-2"><stop offset="0" stop-color="#4d4d4d"/><stop offset="1" stop-color="#000000"/></linearGradient><linearGradient x1="362.20477" y1="167.16178" x2="314.8328" y2="261.26239" gradientUnits="userSpaceOnUse" id="color-3"><stop offset="0" stop-color="#4d4d4d"/><stop offset="1" stop-color="#000000"/></linearGradient><linearGradient x1="122.32942" y1="162.74999" x2="163.65883" y2="259.649" gradientUnits="userSpaceOnUse" id="color-4"><stop offset="0" stop-color="#4d4d4d"/><stop offset="1" stop-color="#000000"/></linearGradient><radialGradient cx="300.67368" cy="90.55101" r="45.07582" fx="300.67368" fy="90.55101" gradientUnits="userSpaceOnUse" id="color-5"><stop offset="0" stop-color="#ffffff"/><stop offset="1" stop-color="#b3b3b3"/></radialGradient><radialGradient cx="182.93352" cy="93.93127" r="45.07583" fx="182.93352" fy="93.93127" gradientUnits="userSpaceOnUse" id="color-6"><stop offset="0" stop-color="#ffffff"/><stop offset="1" stop-color="#b3b3b3"/></radialGradient><radialGradient cx="240.6814" cy="182.57159" r="32.98501" fx="240.6814" fy="182.57159" gradientUnits="userSpaceOnUse" id="color-7"><stop offset="0" stop-color="#434343"/><stop offset="0.61" stop-color="#222222"/><stop offset="1" stop-color="#000000"/></radialGradient><radialGradient cx="240.6814" cy="235.95954" r="75.10565" fx="240.6814" fy="235.95954" gradientUnits="userSpaceOnUse" id="color-8"><stop offset="0" stop-color="#434343"/><stop offset="0.61" stop-color="#222222"/><stop offset="1" stop-color="#000000"/></radialGradient><linearGradient x1="182.69547" y1="65.90891" x2="182.6952" y2="142.81466" gradientUnits="userSpaceOnUse" id="color-9"><stop offset="0" stop-color="#ffffff"/><stop offset="0.49" stop-color="#efefef"/><stop offset="0.9" stop-color="#cccccc"/><stop offset="1" stop-color="#b9b9b9"/><stop offset="1" stop-color="#737373"/></linearGradient><radialGradient cx="211.2086" cy="94.69871" r="21.60376" fx="211.2086" fy="94.69871" gradientUnits="userSpaceOnUse" id="color-10"><stop offset="0" stop-color="#ffffff"/><stop offset="0.56" stop-color="#ffffff"/><stop offset="1" stop-color="#b3b3b3"/></radialGradient><radialGradient cx="173.59432" cy="110.30359" r="21.88616" fx="173.59432" fy="110.30359" gradientUnits="userSpaceOnUse" id="color-11"><stop offset="0" stop-color="#4d4d4d"/><stop offset="1" stop-color="#000000"/></radialGradient><radialGradient cx="242.84412" cy="135.20253" r="43.45919" fx="242.84412" fy="135.20253" gradientUnits="userSpaceOnUse" id="color-12"><stop offset="0" stop-color="#bfbfbf"/><stop offset="1" stop-color="#737373"/></radialGradient><radialGradient cx="215.94677" cy="130.01283" r="21.88616" fx="215.94677" fy="130.01283" gradientUnits="userSpaceOnUse" id="color-13"><stop offset="0" stop-color="#4d4d4d"/><stop offset="1" stop-color="#000000"/></radialGradient><radialGradient cx="206.83693" cy="125.62859" r="17.50369" fx="206.83693" fy="125.62859" gradientUnits="userSpaceOnUse" id="color-14"><stop offset="0" stop-color="#4d4d4d"/><stop offset="1" stop-color="#000000"/></radialGradient></defs><g transform="translate(-105.24865,-52.07711)"><g data-paper-data="{&quot;isPaintingLayer&quot;:true}" fill-rule="evenodd" stroke-miterlimit="10" stroke-dasharray="" stroke-dashoffset="0" style="mix-blend-mode: normal"><path d="M222.85566,216.13391c3.62588,-1.03437 5.45089,-1.68599 16.91401,2.33013c11.4631,4.01609 36.73044,21.56641 51.86471,21.7665c15.13427,0.20011 27.33794,-19.22666 38.94093,-20.56591c11.603,-1.33926 30.95555,10.17722 30.677,12.53034c-0.27857,2.35314 -21.86519,-3.18057 -32.34837,1.58846c-10.48318,4.76902 -17.45371,24.93687 -30.5508,27.02556c-13.09708,2.08869 -34.64187,-8.4702 -48.03171,-14.49333c-13.3898,-6.02314 -27.72953,-16.61515 -32.30716,-21.64545c-4.57763,-5.0303 1.21548,-7.50193 4.84137,-8.53628z" fill="url(#color-1)" stroke="none" stroke-width="1" stroke-linecap="square" stroke-linejoin="miter"/><path d="M222.85566,216.13391c3.62588,-1.03437 5.45089,-1.68599 16.91401,2.33013c11.4631,4.01609 36.73044,21.56641 51.86471,21.7665c15.13427,0.20011 27.33794,-19.22666 38.94093,-20.56591c11.603,-1.33926 30.95555,10.17722 30.677,12.53034c-0.27857,2.35314 -21.86519,-3.18057 -32.34837,1.58846c-10.48318,4.76902 -17.45371,24.93687 -30.5508,27.02556c-13.09708,2.08869 -34.64187,-8.4702 -48.03171,-14.49333c-13.3898,-6.02314 -27.72953,-16.61515 -32.30716,-21.64545c-4.57763,-5.0303 1.21548,-7.50193 4.84137,-8.53628z" fill="none" stroke="#000000" stroke-width="1" stroke-linecap="butt" stroke-linejoin="round"/><path d="M243.51888,211.86371c3.65867,0.91118 9.53182,3.18554 5.12694,8.36752c-4.40487,5.18195 -18.37796,16.2522 -31.55613,22.72419c-13.17816,6.47201 -34.3531,17.75268 -47.51287,16.10786c-13.15975,-1.64481 -20.80766,-21.5649 -31.44567,-25.97675c-10.63803,-4.41184 -32.02457,1.848 -32.3825,-0.49428c-0.35794,-2.34231 18.59373,-14.50584 30.23497,-13.55952c11.64124,0.94633 24.49406,19.94894 39.61244,19.23749c15.11837,-0.71145 39.7773,-19.10512 51.09777,-23.5062c11.3205,-4.40107 13.16637,-3.81152 16.82505,-2.90032z" fill="url(#color-2)" stroke="none" stroke-width="1" stroke-linecap="square" stroke-linejoin="miter"/><path d="M243.51888,211.86371c3.65867,0.91118 9.53182,3.18554 5.12694,8.36752c-4.40487,5.18195 -18.37796,16.2522 -31.55613,22.72419c-13.17816,6.47201 -34.3531,17.75268 -47.51287,16.10786c-13.15975,-1.64481 -20.80766,-21.5649 -31.44567,-25.97675c-10.63803,-4.41184 -32.02457,1.848 -32.3825,-0.49428c-0.35794,-2.34231 18.59373,-14.50584 30.23497,-13.55952c11.64124,0.94633 24.49406,19.94894 39.61244,19.23749c15.11837,-0.71145 39.7773,-19.10512 51.09777,-23.5062c11.3205,-4.40107 13.16637,-3.81152 16.82505,-2.90032z" fill="none" stroke="#000000" stroke-width="1" stroke-linecap="butt" stroke-linejoin="round"/><path d="M228.59821,207.55095c2.91725,-2.38916 4.33354,-3.71191 16.44948,-4.5776c12.11598,-0.86569 42.27605,5.20933 56.24622,-0.61656c13.97022,-5.82587 17.4571,-28.50227 27.57492,-34.33884c10.11777,-5.83657 32.45317,-2.95096 33.13189,-0.68056c0.67872,2.2704 -21.33148,5.76308 -29.05963,14.3029c-7.72811,8.53986 -6.11758,29.81844 -17.30911,36.93614c-11.19155,7.11768 -35.1588,5.98147 -49.84011,5.7701c-14.68131,-0.21137 -32.04868,-4.23901 -38.24762,-7.03827c-6.19893,-2.79926 -1.8633,-7.36816 1.05395,-9.75731z" fill="url(#color-3)" stroke="none" stroke-width="1" stroke-linecap="square" stroke-linejoin="miter"/><path d="M228.59821,207.55095c2.91725,-2.38916 4.33354,-3.71191 16.44948,-4.5776c12.11598,-0.86569 42.27605,5.20933 56.24622,-0.61656c13.97022,-5.82587 17.4571,-28.50227 27.57492,-34.33884c10.11777,-5.83657 32.45317,-2.95096 33.13189,-0.68056c0.67872,2.2704 -21.33148,5.76308 -29.05963,14.3029c-7.72811,8.53986 -6.11758,29.81844 -17.30911,36.93614c-11.19155,7.11768 -35.1588,5.98147 -49.84011,5.7701c-14.68131,-0.21137 -32.04868,-4.23901 -38.24762,-7.03827c-6.19893,-2.79926 -1.8633,-7.36816 1.05395,-9.75731z" fill="none" stroke="#000000" stroke-width="1" stroke-linecap="butt" stroke-linejoin="round"/><path d="M253.10852,211.4963c2.76027,2.56853 6.79835,7.40189 0.43536,9.80376c-6.36297,2.40186 -23.94894,5.32402 -38.61327,4.60746c-14.66431,-0.71657 -38.65389,-1.09679 -49.37265,-8.90684c-10.71877,-7.81002 -7.76729,-28.9429 -14.93996,-37.95334c-7.17267,-9.01043 -28.91677,-13.88639 -28.09604,-16.10922c0.82075,-2.22284 23.29233,-3.69146 33.02051,2.77224c9.72818,6.46371 11.7753,29.31355 25.34859,36.00996c13.5733,6.69642 44.05489,2.53929 56.09113,4.16863c12.03625,1.62933 13.36604,3.03881 16.12634,5.60733z" fill="url(#color-4)" stroke="none" stroke-width="1" stroke-linecap="square" stroke-linejoin="miter"/><path d="M253.10852,211.4963c2.76027,2.56853 6.79835,7.40189 0.43536,9.80376c-6.36297,2.40186 -23.94894,5.32402 -38.61327,4.60746c-14.66431,-0.71657 -38.65389,-1.09679 -49.37265,-8.90684c-10.71877,-7.81002 -7.76729,-28.9429 -14.93996,-37.95334c-7.17267,-9.01043 -28.91677,-13.88639 -28.09604,-16.10922c0.82075,-2.22284 23.29233,-3.69146 33.02051,2.77224c9.72818,6.46371 11.7753,29.31355 25.34859,36.00996c13.5733,6.69642 44.05489,2.53929 56.09113,4.16863c12.03625,1.62933 13.36604,3.03881 16.12634,5.60733z" fill="none" stroke="#000000" stroke-width="1" stroke-linecap="butt" stroke-linejoin="round"/><path d="M320.62386,127.09058v0c-8.37832,4.57238 -24.10233,-8.08026 -35.1205,-28.26051v0c-5.29111,-9.69089 -8.76722,-19.85712 -9.66363,-28.26224c-0.89636,-8.40512 0.86039,-14.36063 4.88378,-16.55636v0c8.37835,-4.57239 24.10232,8.08027 35.12049,28.26051v0c11.01817,20.18023 13.15822,40.24621 4.77986,44.8186z" fill="url(#color-5)" stroke="none" stroke-width="1" stroke-linecap="square" stroke-linejoin="miter"/><path d="M320.62386,127.09058v0c-8.37832,4.57238 -24.10233,-8.08026 -35.1205,-28.26051v0c-5.29111,-9.69089 -8.76722,-19.85712 -9.66363,-28.26224c-0.89636,-8.40512 0.86039,-14.36063 4.88378,-16.55636v0c8.37835,-4.57239 24.10232,8.08027 35.12049,28.26051v0c11.01817,20.18023 13.15822,40.24621 4.77986,44.8186z" fill="none" stroke="#000000" stroke-width="2" stroke-linecap="butt" stroke-linejoin="round"/><path d="M325.50762,110.53423l-36.66026,-27.31263" fill-opacity="0" fill="#000000" stroke="none" stroke-width="1" stroke-linecap="square" stroke-linejoin="miter"/><path d="M325.50762,110.53423l-36.66026,-27.31263" fill="none" stroke="#000000" stroke-width="2" stroke-linecap="butt" stroke-linejoin="round"/><path d="M166.09156,90.05446v0c5.16195,-22.40529 16.88695,-38.83265 26.1885,-36.69153v0c4.46676,1.02819 7.76587,6.28843 9.17154,14.62353c1.40565,8.33509 0.80275,19.06225 -1.67612,29.82166v0c-5.16195,22.40529 -16.88694,38.83264 -26.1885,36.69154v0c-9.30156,-2.14111 -12.65736,-22.03989 -7.49542,-44.44516z" fill="url(#color-6)" stroke="none" stroke-width="1" stroke-linecap="square" stroke-linejoin="miter"/><path d="M165.71423,90.05446v0c5.16195,-22.40529 16.88695,-38.83265 26.1885,-36.69153v0c4.46676,1.02819 7.76587,6.28843 9.17154,14.62353c1.40565,8.33509 0.80275,19.06225 -1.67612,29.82166v0c-5.16195,22.40529 -16.88694,38.83264 -26.1885,36.69154v0c-9.30156,-2.14111 -12.65736,-22.03989 -7.49542,-44.44516z" fill="none" stroke="#000000" stroke-width="2" stroke-linecap="butt" stroke-linejoin="round"/><path d="M192.26196,90.0855l-27.84651,29.7906" fill-opacity="0" fill="#000000" stroke="none" stroke-width="1" stroke-linecap="square" stroke-linejoin="miter"/><path d="M192.26196,90.0855l-27.84651,29.7906" fill="none" stroke="#000000" stroke-width="2" stroke-linecap="butt" stroke-linejoin="round"/><path d="M261.71,157.15879l-21.0286,50.82561l-21.02856,-50.82561z" fill="url(#color-7)" stroke="none" stroke-width="1" stroke-linecap="square" stroke-linejoin="miter"/><path d="M261.71,157.15879l-21.0286,50.82561l-21.02856,-50.82561z" fill="none" stroke="#000000" stroke-width="1" stroke-linecap="butt" stroke-linejoin="round"/><path d="M264.84788,307.07102h-48.33294l9.66658,-142.22294h28.99975z" fill="url(#color-8)" stroke="none" stroke-width="1" stroke-linecap="square" stroke-linejoin="miter"/><path d="M264.84788,307.07102h-48.33294l9.66658,-142.22294h28.99975z" fill="none" stroke="#000000" stroke-width="1" stroke-linecap="butt" stroke-linejoin="round"/><path d="M182.69549,65.90932h115.97158v76.90534h-115.97157z" fill="url(#color-9)" stroke="none" stroke-width="1" stroke-linecap="square" stroke-linejoin="miter"/><path d="M182.69549,65.90932h115.97158v76.90534h-115.97157z" fill="none" stroke="#000000" stroke-width="2" stroke-linecap="butt" stroke-linejoin="round"/><path d="M182.58876,127.37295l115.92891,-38.00983" fill-opacity="0" fill="#000000" stroke="none" stroke-width="1" stroke-linecap="square" stroke-linejoin="miter"/><path d="M182.58876,127.37295l115.92891,-38.00983" fill="none" stroke="#000000" stroke-width="1" stroke-linecap="butt" stroke-linejoin="round"/><path d="M183.06364,65.98579h115.4487v23.37999h-115.4487z" fill="#000000" stroke="none" stroke-width="1" stroke-linecap="square" stroke-linejoin="miter"/><path d="M183.06364,65.98579h115.4487v23.37999h-115.4487z" fill="none" stroke="#000000" stroke-width="1" stroke-linecap="butt" stroke-linejoin="round"/><path d="M183.06364,107.05886l109.75041,-35.42746l5.78366,17.92714l-109.75043,35.42747z" fill="#000000" stroke="none" stroke-width="1" stroke-linecap="square" stroke-linejoin="miter"/><path d="M183.06364,107.05886l109.75041,-35.42746l5.78366,17.92714l-109.75043,35.42747z" fill="none" stroke="#000000" stroke-width="1" stroke-linecap="butt" stroke-linejoin="round"/><path d="M182.69549,65.98579h59.19159v41.57392h-59.19159z" fill="#000000" stroke="none" stroke-width="1" stroke-linecap="square" stroke-linejoin="miter"/><path d="M182.69549,65.98579h59.19159v41.57392h-59.19159z" fill="none" stroke="#000000" stroke-width="1" stroke-linecap="butt" stroke-linejoin="round"/><path d="M182.90701,127.04483l-0.0747,-23.25195l10.07335,17.55367z" fill="#000000" stroke="none" stroke-width="1" stroke-linecap="square" stroke-linejoin="miter"/><path d="M182.90701,127.04483l-0.0747,-23.25195l10.07335,17.55367z" fill="none" stroke="#000000" stroke-width="1" stroke-linecap="butt" stroke-linejoin="round"/><path d="M182.89944,125.05535l6.5306,-2.14486l0.58691,1.78204l-6.5306,2.14487z" fill="#000000" stroke="none" stroke-width="1" stroke-linecap="square" stroke-linejoin="miter"/><path d="M182.89944,125.05535l6.5306,-2.14486l0.58691,1.78204l-6.5306,2.14487z" fill="none" stroke="#000000" stroke-width="1" stroke-linecap="butt" stroke-linejoin="round"/><path d="M225.86573,100.88639v0c-3.14118,7.43451 -12.24955,10.69041 -20.34411,7.27224v0c-4.88551,-2.06304 -9.77101,-4.12609 -14.65651,-6.18914c1.89586,-4.48712 3.79172,-8.97424 5.68759,-13.46136c3.14118,-7.43451 12.24955,-10.6904 20.34411,-7.27223v0c8.09458,3.41817 12.1101,12.21599 8.96892,19.6505z" fill="url(#color-10)" stroke="none" stroke-width="1" stroke-linecap="square" stroke-linejoin="miter"/><path d="M225.86573,100.88639v0c-3.14118,7.43451 -12.24955,10.69041 -20.34411,7.27224v0c-4.88551,-2.06304 -9.77101,-4.12609 -14.65651,-6.18914c1.89586,-4.48712 3.79172,-8.97424 5.68759,-13.46136c3.14118,-7.43451 12.24955,-10.6904 20.34411,-7.27223v0c8.09458,3.41817 12.1101,12.21599 8.96892,19.6505z" fill="none" stroke="#000000" stroke-width="1" stroke-linecap="butt" stroke-linejoin="round"/><path d="M187.44831,74.75208l19.56096,0.91079l-0.18409,4.30391l18.65288,-2.40529l0.18997,4.52591l28.63945,0.33756l-28.74559,11.19312l0.0963,-5.33129l-18.17447,6.76836l-0.47346,-6.57158l-19.11813,7.18845z" fill="#000000" stroke="none" stroke-width="1" stroke-linecap="square" stroke-linejoin="miter"/><path d="M187.44831,74.75208l19.56096,0.91079l-0.18409,4.30391l18.65288,-2.40529l0.18997,4.52591l28.63945,0.33756l-28.74559,11.19312l0.0963,-5.33129l-18.17447,6.76836l-0.47346,-6.57158l-19.11813,7.18845z" fill="none" stroke="#000000" stroke-width="1" stroke-linecap="butt" stroke-linejoin="round"/><path d="M166.09366,90.40983l5.66836,10.74153l-0.42478,1.61299l5.68721,8.94163l-0.33401,1.89972l8.3849,15.33095l-9.40922,-10.80416l0.48749,-2.06793l-5.92244,-6.9536l0.42691,-2.86322l-6.23584,-7.28735z" fill="url(#color-11)" stroke="none" stroke-width="1" stroke-linecap="square" stroke-linejoin="miter"/><path d="M221.04945,126.32186l2.07015,13.13591" fill-opacity="0" fill="#000000" stroke="none" stroke-width="1" stroke-linecap="square" stroke-linejoin="miter"/><path d="M242.54766,140.05943l-1.45126,-15.17406" fill-opacity="0" fill="#000000" stroke="none" stroke-width="1" stroke-linecap="square" stroke-linejoin="miter"/><path d="M262.18228,122.20111l1.39789,12.42095" fill-opacity="0" fill="#000000" stroke="none" stroke-width="1" stroke-linecap="square" stroke-linejoin="miter"/><path d="M210.47368,135.16806l10.70292,-4.47113" fill-opacity="0" fill="#000000" stroke="none" stroke-width="1" stroke-linecap="square" stroke-linejoin="miter"/><path d="M242.54868,140.05978l-21.37386,-9.36907" fill-opacity="0" fill="#000000" stroke="none" stroke-width="1" stroke-linecap="square" stroke-linejoin="miter"/><path d="M249.99196,123.4328l-7.44832,16.62529" fill-opacity="0" fill="#000000" stroke="none" stroke-width="1" stroke-linecap="square" stroke-linejoin="miter"/><path d="M262.1814,136.0662l-11.83404,-11.63131" fill-opacity="0" fill="#000000" stroke="none" stroke-width="1" stroke-linecap="square" stroke-linejoin="miter"/><path d="M274.83974,128.10836l-7.14949,-6.73336" fill-opacity="0" fill="#000000" stroke="none" stroke-width="1" stroke-linecap="square" stroke-linejoin="miter"/><path d="M200.29466,126.37451c27.85117,2.63066 56.95078,1.96358 84.65337,-1.94057v0c0.2462,10.82726 -18.50455,20.0389 -41.88093,20.57478c-23.37637,0.53586 -42.52628,-7.80693 -42.77244,-18.63421v0z" data-paper-data="{&quot;index&quot;:null}" fill="url(#color-12)" stroke="none" stroke-width="1" stroke-linecap="square" stroke-linejoin="miter"/><path d="M200.29466,126.37451c27.85117,2.63066 56.95078,1.96358 84.65337,-1.94057v0c0.2462,10.82726 -18.50455,20.0389 -41.88093,20.57478c-23.37637,0.53586 -42.52628,-7.80693 -42.77244,-18.63421v0z" data-paper-data="{&quot;index&quot;:null}" fill="none" stroke="#000000" stroke-width="2" stroke-linecap="butt" stroke-linejoin="round"/><path d="M265.27873,126.80762l-0.5759,14.95932" data-paper-data="{&quot;index&quot;:null}" fill="none" stroke="#000000" stroke-width="1" stroke-linecap="butt" stroke-linejoin="round"/><path d="M242.67705,127.85476l0.38574,17.15597" data-paper-data="{&quot;index&quot;:null}" fill="none" stroke="#000000" stroke-width="1" stroke-linecap="butt" stroke-linejoin="round"/><path d="M218.74876,127.64444l0.08105,14.07106" data-paper-data="{&quot;index&quot;:null}" fill="none" stroke="#000000" stroke-width="1" stroke-linecap="butt" stroke-linejoin="round"/><path d="M265.71559,131.71558l12.5571,3.58207" data-paper-data="{&quot;index&quot;:null}" fill="none" stroke="#000000" stroke-width="1" stroke-linecap="butt" stroke-linejoin="round"/><path d="M265.71675,131.70839l-22.65507,13.30287" data-paper-data="{&quot;index&quot;:null}" fill="none" stroke="#000000" stroke-width="1" stroke-linecap="butt" stroke-linejoin="round"/><path d="M243.0671,145.00871l-10.52712,-17.60058" data-paper-data="{&quot;index&quot;:null}" fill="none" stroke="#000000" stroke-width="1" stroke-linecap="butt" stroke-linejoin="round"/><path d="M220.58468,143.14487l11.69061,-14.56942" data-paper-data="{&quot;index&quot;:null}" fill="none" stroke="#000000" stroke-width="1" stroke-linecap="butt" stroke-linejoin="round"/><path d="M212.48176,127.44984l-7.10169,8.47377" data-paper-data="{&quot;index&quot;:null}" fill="none" stroke="#000000" stroke-width="1" stroke-linecap="butt" stroke-linejoin="round"/><path d="M213.68205,108.87301l2.78939,11.82074l-0.81621,1.45464l3.2596,10.08325l-0.80035,1.75497l4.26641,16.94526l-6.39465,-12.82076l0.99116,-1.87924l-3.98653,-8.218l1.13223,-2.66427l-4.20607,-8.61975z" fill="url(#color-13)" stroke="none" stroke-width="1" stroke-linecap="square" stroke-linejoin="miter"/><path d="M206.98598,115.26354l0.74934,-6.9689l-0.05968,9.27206l0.78399,-4.18101l-0.36632,5.39278l1.17532,0.18136l-1.03911,4.42498l0.28934,3.03024l-0.42555,1.63709l0.56222,5.3318l-0.954,-2.0576l0.06802,4.84709l-0.62189,-2.30318l-0.12787,4.66572l-0.39178,-2.36254l-0.26388,3.7589l-0.26411,-2.54713l-0.58765,5.57736l-0.02523,-5.39279l-0.79254,-0.66606l0.46043,-3.94027l-0.74977,-4.00126l0.88598,-2.06241l-0.6221,-5.33179l0.94566,-0.72707l-0.1959,-6.72814l0.91144,4.42498l0.26388,-7.21446z" fill="url(#color-14)" stroke="none" stroke-width="1" stroke-linecap="square" stroke-linejoin="miter"/><path d="M205.15037,99.8405v0c0,-1.83608 1.81685,-3.32453 4.05804,-3.32453v0c2.2412,0 4.05805,1.48844 4.05805,3.32453v0c0,1.83608 -1.81685,3.32455 -4.05805,3.32455v0c-2.2412,0 -4.05804,-1.48845 -4.05804,-3.32455z" fill="none" stroke="#000000" stroke-width="1" stroke-linecap="butt" stroke-linejoin="round"/><path d="M282.85855,94.76956l12.12622,9.24815l-18.01882,-5.37775l6.60263,8.02002l-9.81314,-5.57858l-2.71843,8.58926l-6.56681,-10.03517l-6.50986,0.52477l-2.34684,-4.01653l-11.56116,1.31603l5.94379,-5.95461l-9.61904,-2.07828l5.7563,-3.36955l-8.87031,-3.42933l5.40971,-1.63735l-6.82278,-3.95155l5.51405,-0.59562l-9.7291,-7.31252l10.60054,2.68497l2.8969,-5.50246l6.78228,5.50073l9.33545,-3.41053l2.25291,7.64576l11.68159,-1.75864l-0.47942,7.37573l13.55608,2.13468l-10.48946,4.37965l13.58284,5.79142z" fill="#000000" stroke="none" stroke-width="1" stroke-linecap="square" stroke-linejoin="miter"/><path d="M282.85855,94.76956l12.12622,9.24815l-18.01882,-5.37775l6.60263,8.02002l-9.81314,-5.57858l-2.71843,8.58926l-6.56681,-10.03517l-6.50986,0.52477l-2.34684,-4.01653l-11.56116,1.31603l5.94379,-5.95461l-9.61904,-2.07828l5.7563,-3.36955l-8.87031,-3.42933l5.40971,-1.63735l-6.82278,-3.95155l5.51405,-0.59562l-9.7291,-7.31252l10.60054,2.68497l2.8969,-5.50246l6.78228,5.50073l9.33545,-3.41053l2.25291,7.64576l11.68159,-1.75864l-0.47942,7.37573l13.55608,2.13468l-10.48946,4.37965l13.58284,5.79142z" fill="none" stroke="#000000" stroke-width="1" stroke-linecap="butt" stroke-linejoin="round"/><path d="M289.86741,66.16662l4.48643,-5.2175l-0.35725,6.94185l4.69405,-3.13027l-2.19332,4.0375l7.03704,0.13579l-6.22147,3.3129l1.7323,2.2687l-2.54788,1.22566l3.36618,3.99183l-5.71186,-1.54051l0.40713,3.62894l-3.72343,-1.72434l-0.76574,3.49316l-2.34568,-1.76882l-1.57999,2.81424l-1.58131,-1.90699l-3.5185,4.17567l-0.151,-4.03749l-4.74529,-0.49868l2.75685,-2.95001l-4.48916,-2.99568l5.30478,-1.54409l-3.72479,-3.99183l5.66198,-0.54434l-1.17286,-5.03726l5.4571,3.31291l1.57999,-5.40134z" fill="#000000" stroke="none" stroke-width="1" stroke-linecap="square" stroke-linejoin="miter"/><path d="M289.86741,66.16662l4.48643,-5.2175l-0.35725,6.94185l4.69405,-3.13027l-2.19332,4.0375l7.03704,0.13579l-6.22147,3.3129l1.7323,2.2687l-2.54788,1.22566l3.36618,3.99183l-5.71186,-1.54051l0.40713,3.62894l-3.72343,-1.72434l-0.76574,3.49316l-2.34568,-1.76882l-1.57999,2.81424l-1.58131,-1.90699l-3.5185,4.17567l-0.151,-4.03749l-4.74529,-0.49868l2.75685,-2.95001l-4.48916,-2.99568l5.30478,-1.54409l-3.72479,-3.99183l5.66198,-0.54434l-1.17286,-5.03726l5.4571,3.31291l1.57999,-5.40134z" fill="none" stroke="#000000" stroke-width="1" stroke-linecap="butt" stroke-linejoin="round"/><path d="M201.15077,69.07078l6.86175,-0.5168l-5.16116,4.65594l5.53268,1.10589l-4.40587,1.30392l4.88005,5.07209l-6.74189,-2.05679l-0.37922,2.82913l-2.66833,-0.93501l-0.4423,5.20292l-2.94973,-5.12828l-2.27813,2.85389l-1.41364,-3.8522l-3.01146,1.92854l-0.40797,-2.9094l-3.10716,0.87271l0.23023,-2.46662l-5.44064,0.46458l2.74813,-2.96166l-3.00289,-3.70813l4.03539,-0.13651l-1.05615,-5.29261l4.84294,2.65928l0.18871,-5.45649l4.38864,3.61883l2.73248,-4.39118l1.51629,6.20138l4.93649,-2.70204z" fill="#000000" stroke="none" stroke-width="1" stroke-linecap="square" stroke-linejoin="miter"/><path d="M201.15077,69.07078l6.86175,-0.5168l-5.16116,4.65594l5.53268,1.10589l-4.40587,1.30392l4.88005,5.07209l-6.74189,-2.05679l-0.37922,2.82913l-2.66833,-0.93501l-0.4423,5.20292l-2.94973,-5.12828l-2.27813,2.85389l-1.41364,-3.8522l-3.01146,1.92854l-0.40797,-2.9094l-3.10716,0.87271l0.23023,-2.46662l-5.44064,0.46458l2.74813,-2.96166l-3.00289,-3.70813l4.03539,-0.13651l-1.05615,-5.29261l4.84294,2.65928l0.18871,-5.45649l4.38864,3.61883l2.73248,-4.39118l1.51629,6.20138l4.93649,-2.70204z" fill="none" stroke="#000000" stroke-width="1" stroke-linecap="butt" stroke-linejoin="round"/></g></g></svg>