<svg version="1.1" xmlns="http://www.w3.org/2000/svg" xmlns:xlink="http://www.w3.org/1999/xlink" width="267.15413" height="254.1106" viewBox="0,0,267.15413,254.1106"><defs><linearGradient x1="361.50929" y1="232.11484" x2="280.67137" y2="299.66668" gradientUnits="userSpaceOnUse" id="color-1"><stop offset="0" stop-color="#4d4d4d"/><stop offset="1" stop-color="#000000"/></linearGradient><linearGradient x1="105.48911" y1="232.52086" x2="188.56111" y2="297.29992" gradientUnits="userSpaceOnUse" id="color-2"><stop offset="0" stop-color="#4d4d4d"/><stop offset="1" stop-color="#000000"/></linearGradient><linearGradient x1="372.15281" y1="183.12114" x2="296.47516" y2="256.41452" gradientUnits="userSpaceOnUse" id="color-3"><stop offset="0" stop-color="#4d4d4d"/><stop offset="1" stop-color="#000000"/></linearGradient><linearGradient x1="118.23599" y1="150.06035" x2="159.5654" y2="246.95936" gradientUnits="userSpaceOnUse" id="color-4"><stop offset="0" stop-color="#4d4d4d"/><stop offset="1" stop-color="#000000"/></linearGradient><radialGradient cx="307.08817" cy="94.85474" r="45.07582" fx="307.08817" fy="94.85474" gradientUnits="userSpaceOnUse" id="color-5"><stop offset="0" stop-color="#ffffff"/><stop offset="1" stop-color="#b3b3b3"/></radialGradient><radialGradient cx="175.38706" cy="95.21642" r="45.07583" fx="175.38706" fy="95.21642" gradientUnits="userSpaceOnUse" id="color-6"><stop offset="0" stop-color="#ffffff"/><stop offset="1" stop-color="#b3b3b3"/></radialGradient><radialGradient cx="240.6814" cy="182.57159" r="32.98501" fx="240.6814" fy="182.57159" gradientUnits="userSpaceOnUse" id="color-7"><stop offset="0" stop-color="#434343"/><stop offset="0.61" stop-color="#222222"/><stop offset="1" stop-color="#000000"/></radialGradient><radialGradient cx="240.6814" cy="235.95954" r="75.10565" fx="240.6814" fy="235.95954" gradientUnits="userSpaceOnUse" id="color-8"><stop offset="0" stop-color="#434343"/><stop offset="0.61" stop-color="#222222"/><stop offset="1" stop-color="#000000"/></radialGradient><linearGradient x1="182.69547" y1="63.04351" x2="182.6952" y2="139.94926" gradientUnits="userSpaceOnUse" id="color-9"><stop offset="0" stop-color="#ffffff"/><stop offset="0.49" stop-color="#efefef"/><stop offset="0.9" stop-color="#cccccc"/><stop offset="1" stop-color="#b9b9b9"/><stop offset="1" stop-color="#737373"/></linearGradient><radialGradient cx="211.2086" cy="91.83331" r="21.60376" fx="211.2086" fy="91.83331" gradientUnits="userSpaceOnUse" id="color-10"><stop offset="0" stop-color="#ffffff"/><stop offset="0.56" stop-color="#ffffff"/><stop offset="1" stop-color="#b3b3b3"/></radialGradient><radialGradient cx="166.04786" cy="111.58874" r="21.88616" fx="166.04786" fy="111.58874" gradientUnits="userSpaceOnUse" id="color-11"><stop offset="0" stop-color="#4d4d4d"/><stop offset="1" stop-color="#000000"/></radialGradient><radialGradient cx="246.62261" cy="135.0735" r="50.12316" fx="246.62261" fy="135.0735" gradientUnits="userSpaceOnUse" id="color-12"><stop offset="0" stop-color="#bfbfbf"/><stop offset="1" stop-color="#737373"/></radialGradient><radialGradient cx="215.94677" cy="127.14743" r="21.88616" fx="215.94677" fy="127.14743" gradientUnits="userSpaceOnUse" id="color-13"><stop offset="0" stop-color="#4d4d4d"/><stop offset="1" stop-color="#000000"/></radialGradient><radialGradient cx="206.83693" cy="122.76319" r="17.50369" fx="206.83693" fy="122.76319" gradientUnits="userSpaceOnUse" id="color-14"><stop offset="0" stop-color="#4d4d4d"/><stop offset="1" stop-color="#000000"/></radialGradient></defs><g transform="translate(-105.24865,-53.46043)"><g data-paper-data="{&quot;isPaintingLayer&quot;:true}" fill-rule="evenodd" stroke-miterlimit="10" stroke-dasharray="" stroke-dashoffset="0" style="mix-blend-mode: normal"><path d="M222.85566,216.13391c3.62588,-1.03437 5.45089,-1.68599 16.91401,2.33013c11.4631,4.01609 36.73044,21.56641 51.86471,21.7665c15.13427,0.20011 27.33794,-19.22666 38.94093,-20.56591c11.603,-1.33926 30.95555,10.17722 30.677,12.53034c-0.27857,2.35314 -21.86519,-3.18057 -32.34837,1.58846c-10.48318,4.76902 -17.45371,24.93687 -30.5508,27.02556c-13.09708,2.08869 -34.64187,-8.4702 -48.03171,-14.49333c-13.3898,-6.02314 -27.72953,-16.61515 -32.30716,-21.64545c-4.57763,-5.0303 1.21548,-7.50193 4.84137,-8.53628z" fill="url(#color-1)" stroke="none" stroke-width="1" stroke-linecap="square" stroke-linejoin="miter"/><path d="M222.85566,216.13391c3.62588,-1.03437 5.45089,-1.68599 16.91401,2.33013c11.4631,4.01609 36.73044,21.56641 51.86471,21.7665c15.13427,0.20011 27.33794,-19.22666 38.94093,-20.56591c11.603,-1.33926 30.95555,10.17722 30.677,12.53034c-0.27857,2.35314 -21.86519,-3.18057 -32.34837,1.58846c-10.48318,4.76902 -17.45371,24.93687 -30.5508,27.02556c-13.09708,2.08869 -34.64187,-8.4702 -48.03171,-14.49333c-13.3898,-6.02314 -27.72953,-16.61515 -32.30716,-21.64545c-4.57763,-5.0303 1.21548,-7.50193 4.84137,-8.53628z" fill="none" stroke="#000000" stroke-width="1" stroke-linecap="butt" stroke-linejoin="round"/><path d="M243.51888,211.86371c3.65867,0.91118 9.53182,3.18554 5.12694,8.36752c-4.40487,5.18195 -18.37796,16.2522 -31.55613,22.72419c-13.17816,6.47201 -34.3531,17.75268 -47.51287,16.10786c-13.15975,-1.64481 -20.80766,-21.5649 -31.44567,-25.97675c-10.63803,-4.41184 -32.02457,1.848 -32.3825,-0.49428c-0.35794,-2.34231 18.59373,-14.50584 30.23497,-13.55952c11.64124,0.94633 24.49406,19.94894 39.61244,19.23749c15.11837,-0.71145 39.7773,-19.10512 51.09777,-23.5062c11.3205,-4.40107 13.16637,-3.81152 16.82505,-2.90032z" fill="url(#color-2)" stroke="none" stroke-width="1" stroke-linecap="square" stroke-linejoin="miter"/><path d="M243.51888,211.86371c3.65867,0.91118 9.53182,3.18554 5.12694,8.36752c-4.40487,5.18195 -18.37796,16.2522 -31.55613,22.72419c-13.17816,6.47201 -34.3531,17.75268 -47.51287,16.10786c-13.15975,-1.64481 -20.80766,-21.5649 -31.44567,-25.97675c-10.63803,-4.41184 -32.02457,1.848 -32.3825,-0.49428c-0.35794,-2.34231 18.59373,-14.50584 30.23497,-13.55952c11.64124,0.94633 24.49406,19.94894 39.61244,19.23749c15.11837,-0.71145 39.7773,-19.10512 51.09777,-23.5062c11.3205,-4.40107 13.16637,-3.81152 16.82505,-2.90032z" fill="none" stroke="#000000" stroke-width="1" stroke-linecap="butt" stroke-linejoin="round"/><path d="M232.69482,177.33613c3.54059,-1.29716 5.31305,-2.08071 17.04001,1.08535c11.72699,3.16607 38.21283,18.81969 53.3218,17.91098c15.10901,-0.90868 25.85782,-21.17788 37.33213,-23.3633c11.47426,-2.18544 31.61911,7.88342 31.51361,10.25075c-0.1055,2.36733 -22.04036,-1.57093 -32.14666,3.95315c-10.10628,5.52413 -15.5815,26.14921 -28.49104,29.19151c-12.90956,3.04227 -35.17072,-5.91099 -48.96629,-10.93769c-13.79557,-5.0267 -28.87311,-14.54065 -33.80703,-19.22244c-4.93392,-4.68178 0.66288,-7.57115 4.20347,-8.8683z" fill="url(#color-3)" stroke="none" stroke-width="1" stroke-linecap="square" stroke-linejoin="miter"/><path d="M232.69482,177.33613c3.54059,-1.29716 5.31305,-2.08071 17.04001,1.08535c11.72699,3.16607 38.21283,18.81969 53.3218,17.91098c15.10901,-0.90868 25.85782,-21.17788 37.33213,-23.3633c11.47426,-2.18544 31.61911,7.88342 31.51361,10.25075c-0.1055,2.36733 -22.04036,-1.57093 -32.14666,3.95315c-10.10628,5.52413 -15.5815,26.14921 -28.49104,29.19151c-12.90956,3.04227 -35.17072,-5.91099 -48.96629,-10.93769c-13.79557,-5.0267 -28.87311,-14.54065 -33.80703,-19.22244c-4.93392,-4.68178 0.66288,-7.57115 4.20347,-8.8683z" fill="none" stroke="#000000" stroke-width="1" stroke-linecap="butt" stroke-linejoin="round"/><path d="M249.01509,198.80666c2.76027,2.56853 6.79835,7.40189 0.43536,9.80376c-6.36297,2.40186 -23.94894,5.32402 -38.61327,4.60746c-14.66431,-0.71657 -38.65389,-1.09679 -49.37265,-8.90684c-10.71877,-7.81002 -7.76729,-28.9429 -14.93996,-37.95334c-7.17267,-9.01043 -28.91677,-13.88639 -28.09604,-16.10922c0.82075,-2.22284 23.29233,-3.69146 33.02051,2.77224c9.72818,6.46371 11.7753,29.31355 25.34859,36.00996c13.5733,6.69642 44.05489,2.53929 56.09113,4.16863c12.03625,1.62933 13.36604,3.03881 16.12634,5.60733z" fill="url(#color-4)" stroke="none" stroke-width="1" stroke-linecap="square" stroke-linejoin="miter"/><path d="M249.01509,198.80666c2.76027,2.56853 6.79835,7.40189 0.43536,9.80376c-6.36297,2.40186 -23.94894,5.32402 -38.61327,4.60746c-14.66431,-0.71657 -38.65389,-1.09679 -49.37265,-8.90684c-10.71877,-7.81002 -7.76729,-28.9429 -14.93996,-37.95334c-7.17267,-9.01043 -28.91677,-13.88639 -28.09604,-16.10922c0.82075,-2.22284 23.29233,-3.69146 33.02051,2.77224c9.72818,6.46371 11.7753,29.31355 25.34859,36.00996c13.5733,6.69642 44.05489,2.53929 56.09113,4.16863c12.03625,1.62933 13.36604,3.03881 16.12634,5.60733z" fill="none" stroke="#000000" stroke-width="1" stroke-linecap="butt" stroke-linejoin="round"/><path d="M327.03834,131.39431v0c-8.37832,4.57238 -24.10233,-8.08026 -35.1205,-28.26051v0c-5.29111,-9.69089 -8.76722,-19.85712 -9.66363,-28.26224c-0.89636,-8.40512 0.86039,-14.36063 4.88378,-16.55636v0c8.37835,-4.57239 24.10232,8.08027 35.12049,28.26051v0c11.01817,20.18023 13.15822,40.24621 4.77986,44.8186z" fill="url(#color-5)" stroke="none" stroke-width="1" stroke-linecap="square" stroke-linejoin="miter"/><path d="M327.03834,131.39431v0c-8.37832,4.57238 -24.10233,-8.08026 -35.1205,-28.26051v0c-5.29111,-9.69089 -8.76722,-19.85712 -9.66363,-28.26224c-0.89636,-8.40512 0.86039,-14.36063 4.88378,-16.55636v0c8.37835,-4.57239 24.10232,8.08027 35.12049,28.26051v0c11.01817,20.18023 13.15822,40.24621 4.77986,44.8186z" fill="none" stroke="#000000" stroke-width="2" stroke-linecap="butt" stroke-linejoin="round"/><path d="M331.9221,114.83796l-36.66026,-27.31263" fill-opacity="0" fill="#000000" stroke="none" stroke-width="1" stroke-linecap="square" stroke-linejoin="miter"/><path d="M331.9221,114.83796l-36.66026,-27.31263" fill="none" stroke="#000000" stroke-width="2" stroke-linecap="butt" stroke-linejoin="round"/><path d="M158.5451,91.33961v0c5.16195,-22.40529 16.88695,-38.83265 26.1885,-36.69153v0c4.46676,1.02819 7.76587,6.28843 9.17154,14.62353c1.40565,8.33509 0.80275,19.06225 -1.67612,29.82166v0c-5.16195,22.40529 -16.88694,38.83264 -26.1885,36.69154v0c-9.30156,-2.14111 -12.65736,-22.03989 -7.49542,-44.44516z" fill="url(#color-6)" stroke="none" stroke-width="1" stroke-linecap="square" stroke-linejoin="miter"/><path d="M158.5451,91.33961v0c5.16195,-22.40529 16.88695,-38.83265 26.1885,-36.69153v0c4.46676,1.02819 7.76587,6.28843 9.17154,14.62353c1.40565,8.33509 0.80275,19.06225 -1.67612,29.82166v0c-5.16195,22.40529 -16.88694,38.83264 -26.1885,36.69154v0c-9.30156,-2.14111 -12.65736,-22.03989 -7.49542,-44.44516z" fill="none" stroke="#000000" stroke-width="2" stroke-linecap="butt" stroke-linejoin="round"/><path d="M184.7155,91.37065l-27.84651,29.7906" fill-opacity="0" fill="#000000" stroke="none" stroke-width="1" stroke-linecap="square" stroke-linejoin="miter"/><path d="M184.7155,91.37065l-27.84651,29.7906" fill="none" stroke="#000000" stroke-width="2" stroke-linecap="butt" stroke-linejoin="round"/><path d="M261.71,157.15879l-21.0286,50.82561l-21.02856,-50.82561z" fill="url(#color-7)" stroke="none" stroke-width="1" stroke-linecap="square" stroke-linejoin="miter"/><path d="M261.71,157.15879l-21.0286,50.82561l-21.02856,-50.82561z" fill="none" stroke="#000000" stroke-width="1" stroke-linecap="butt" stroke-linejoin="round"/><path d="M264.84788,307.07102h-48.33294l9.66658,-142.22294h28.99975z" fill="url(#color-8)" stroke="none" stroke-width="1" stroke-linecap="square" stroke-linejoin="miter"/><path d="M264.84788,307.07102h-48.33294l9.66658,-142.22294h28.99975z" fill="none" stroke="#000000" stroke-width="1" stroke-linecap="butt" stroke-linejoin="round"/><path d="M182.69549,63.04392h115.97158v76.90534h-115.97157z" fill="url(#color-9)" stroke="none" stroke-width="1" stroke-linecap="square" stroke-linejoin="miter"/><path d="M182.69549,63.04392h115.97158v76.90534h-115.97157z" fill="none" stroke="#000000" stroke-width="2" stroke-linecap="butt" stroke-linejoin="round"/><path d="M182.58876,124.50755l115.92891,-38.00983" fill-opacity="0" fill="#000000" stroke="none" stroke-width="1" stroke-linecap="square" stroke-linejoin="miter"/><path d="M182.58876,124.50755l115.92891,-38.00983" fill="none" stroke="#000000" stroke-width="1" stroke-linecap="butt" stroke-linejoin="round"/><path d="M183.06364,63.12039h115.4487v23.37999h-115.4487z" fill="#000000" stroke="none" stroke-width="1" stroke-linecap="square" stroke-linejoin="miter"/><path d="M183.06364,63.12039h115.4487v23.37999h-115.4487z" fill="none" stroke="#000000" stroke-width="1" stroke-linecap="butt" stroke-linejoin="round"/><path d="M183.06364,104.19346l109.75041,-35.42746l5.78366,17.92714l-109.75043,35.42747z" fill="#000000" stroke="none" stroke-width="1" stroke-linecap="square" stroke-linejoin="miter"/><path d="M183.06364,104.19346l109.75041,-35.42746l5.78366,17.92714l-109.75043,35.42747z" fill="none" stroke="#000000" stroke-width="1" stroke-linecap="butt" stroke-linejoin="round"/><path d="M182.69549,63.12039h59.19159v41.57392h-59.19159z" fill="#000000" stroke="none" stroke-width="1" stroke-linecap="square" stroke-linejoin="miter"/><path d="M182.69549,63.12039h59.19159v41.57392h-59.19159z" fill="none" stroke="#000000" stroke-width="1" stroke-linecap="butt" stroke-linejoin="round"/><path d="M182.90701,124.17943l-0.0747,-23.25195l10.07335,17.55367z" fill="#000000" stroke="none" stroke-width="1" stroke-linecap="square" stroke-linejoin="miter"/><path d="M182.90701,124.17943l-0.0747,-23.25195l10.07335,17.55367z" fill="none" stroke="#000000" stroke-width="1" stroke-linecap="butt" stroke-linejoin="round"/><path d="M182.89944,122.18995l6.5306,-2.14486l0.58691,1.78204l-6.5306,2.14487z" fill="#000000" stroke="none" stroke-width="1" stroke-linecap="square" stroke-linejoin="miter"/><path d="M182.89944,122.18995l6.5306,-2.14486l0.58691,1.78204l-6.5306,2.14487z" fill="none" stroke="#000000" stroke-width="1" stroke-linecap="butt" stroke-linejoin="round"/><path d="M225.86573,98.02099v0c-3.14118,7.43451 -12.24955,10.69041 -20.34411,7.27224v0c-4.88551,-2.06304 -9.77101,-4.12609 -14.65651,-6.18914c1.89586,-4.48712 3.79172,-8.97424 5.68759,-13.46136c3.14118,-7.43451 12.24955,-10.6904 20.34411,-7.27223v0c8.09458,3.41817 12.1101,12.21599 8.96892,19.6505z" fill="url(#color-10)" stroke="none" stroke-width="1" stroke-linecap="square" stroke-linejoin="miter"/><path d="M225.86573,98.02099v0c-3.14118,7.43451 -12.24955,10.69041 -20.34411,7.27224v0c-4.88551,-2.06304 -9.77101,-4.12609 -14.65651,-6.18914c1.89586,-4.48712 3.79172,-8.97424 5.68759,-13.46136c3.14118,-7.43451 12.24955,-10.6904 20.34411,-7.27223v0c8.09458,3.41817 12.1101,12.21599 8.96892,19.6505z" fill="none" stroke="#000000" stroke-width="1" stroke-linecap="butt" stroke-linejoin="round"/><path d="M187.44831,71.88668l19.56096,0.91079l-0.18409,4.30391l18.65288,-2.40529l0.18997,4.52591l28.63945,0.33756l-28.74559,11.19312l0.0963,-5.33129l-18.17447,6.76836l-0.47346,-6.57158l-19.11813,7.18845z" fill="#000000" stroke="none" stroke-width="1" stroke-linecap="square" stroke-linejoin="miter"/><path d="M187.44831,71.88668l19.56096,0.91079l-0.18409,4.30391l18.65288,-2.40529l0.18997,4.52591l28.63945,0.33756l-28.74559,11.19312l0.0963,-5.33129l-18.17447,6.76836l-0.47346,-6.57158l-19.11813,7.18845z" fill="none" stroke="#000000" stroke-width="1" stroke-linecap="butt" stroke-linejoin="round"/><path d="M158.5472,91.69498l5.66836,10.74153l-0.42478,1.61299l5.68721,8.94163l-0.33401,1.89972l8.3849,15.33095l-9.40922,-10.80416l0.48749,-2.06793l-5.92244,-6.9536l0.42691,-2.86322l-6.23584,-7.28735z" fill="url(#color-11)" stroke="none" stroke-width="1" stroke-linecap="square" stroke-linejoin="miter"/><path d="M221.04945,123.45646l2.07015,13.13591" fill-opacity="0" fill="#000000" stroke="none" stroke-width="1" stroke-linecap="square" stroke-linejoin="miter"/><path d="M242.54766,137.19403l-1.45126,-15.17406" fill-opacity="0" fill="#000000" stroke="none" stroke-width="1" stroke-linecap="square" stroke-linejoin="miter"/><path d="M263.58017,131.75666l-1.39789,-12.42095" fill-opacity="0" fill="#000000" stroke="none" stroke-width="1" stroke-linecap="square" stroke-linejoin="miter"/><path d="M210.47368,132.30266l10.70292,-4.47113" fill-opacity="0" fill="#000000" stroke="none" stroke-width="1" stroke-linecap="square" stroke-linejoin="miter"/><path d="M242.54868,137.19438l-21.37386,-9.36907" fill-opacity="0" fill="#000000" stroke="none" stroke-width="1" stroke-linecap="square" stroke-linejoin="miter"/><path d="M249.99196,120.5674l-7.44832,16.62529" fill-opacity="0" fill="#000000" stroke="none" stroke-width="1" stroke-linecap="square" stroke-linejoin="miter"/><path d="M262.1814,133.2008l-11.83404,-11.63131" fill-opacity="0" fill="#000000" stroke="none" stroke-width="1" stroke-linecap="square" stroke-linejoin="miter"/><path d="M267.69025,118.5096l7.14949,6.73336" fill-opacity="0" fill="#000000" stroke="none" stroke-width="1" stroke-linecap="square" stroke-linejoin="miter"/><path d="M197.54868,124.8918c32.12182,3.03405 65.68352,2.26467 97.63399,-2.23813v0c0.28395,12.4875 -21.34201,23.11163 -48.30288,23.72968c-26.96087,0.61803 -49.0472,-9.00404 -49.3311,-21.49155v0z" data-paper-data="{&quot;index&quot;:null}" fill="url(#color-12)" stroke="none" stroke-width="1" stroke-linecap="square" stroke-linejoin="miter"/><path d="M197.54868,124.8918c32.12182,3.03405 65.68352,2.26467 97.63399,-2.23813v0c0.28395,12.4875 -21.34201,23.11163 -48.30288,23.72968c-26.96087,0.61803 -49.0472,-9.00404 -49.3311,-21.49155v0z" data-paper-data="{&quot;index&quot;:null}" fill="none" stroke="#000000" stroke-width="2" stroke-linecap="butt" stroke-linejoin="round"/><path d="M272.49731,125.39133l-0.6642,17.25316" data-paper-data="{&quot;index&quot;:null}" fill="none" stroke="#000000" stroke-width="1" stroke-linecap="butt" stroke-linejoin="round"/><path d="M246.42992,126.59904l0.44488,19.78664" data-paper-data="{&quot;index&quot;:null}" fill="none" stroke="#000000" stroke-width="1" stroke-linecap="butt" stroke-linejoin="round"/><path d="M218.8325,126.35647l0.09347,16.22869" data-paper-data="{&quot;index&quot;:null}" fill="none" stroke="#000000" stroke-width="1" stroke-linecap="butt" stroke-linejoin="round"/><path d="M287.48375,135.18321l-14.48259,-4.13134" data-paper-data="{&quot;index&quot;:null}" fill="none" stroke="#000000" stroke-width="1" stroke-linecap="butt" stroke-linejoin="round"/><path d="M273.0025,131.04358l-26.12896,15.34271" data-paper-data="{&quot;index&quot;:null}" fill="none" stroke="#000000" stroke-width="1" stroke-linecap="butt" stroke-linejoin="round"/><path d="M234.73845,126.08391l12.14133,20.29943" data-paper-data="{&quot;index&quot;:null}" fill="none" stroke="#000000" stroke-width="1" stroke-linecap="butt" stroke-linejoin="round"/><path d="M234.43316,127.43023l-13.48322,16.80348" data-paper-data="{&quot;index&quot;:null}" fill="none" stroke="#000000" stroke-width="1" stroke-linecap="butt" stroke-linejoin="round"/><path d="M211.60453,126.13202l-8.19065,9.77312" data-paper-data="{&quot;index&quot;:null}" fill="none" stroke="#000000" stroke-width="1" stroke-linecap="butt" stroke-linejoin="round"/><path d="M213.68205,106.00761l2.78939,11.82074l-0.81621,1.45464l3.2596,10.08325l-0.80035,1.75497l4.26641,16.94526l-6.39465,-12.82076l0.99116,-1.87924l-3.98653,-8.218l1.13223,-2.66427l-4.20607,-8.61975z" fill="url(#color-13)" stroke="none" stroke-width="1" stroke-linecap="square" stroke-linejoin="miter"/><path d="M206.98598,112.39814l0.74934,-6.9689l-0.05968,9.27206l0.78399,-4.18101l-0.36632,5.39278l1.17532,0.18136l-1.03911,4.42498l0.28934,3.03024l-0.42555,1.63709l0.56222,5.3318l-0.954,-2.0576l0.06802,4.84709l-0.62189,-2.30318l-0.12787,4.66572l-0.39178,-2.36254l-0.26388,3.7589l-0.26411,-2.54713l-0.58765,5.57736l-0.02523,-5.39279l-0.79254,-0.66606l0.46043,-3.94027l-0.74977,-4.00126l0.88598,-2.06241l-0.6221,-5.33179l0.94566,-0.72707l-0.1959,-6.72814l0.91144,4.42498l0.26388,-7.21446z" fill="url(#color-14)" stroke="none" stroke-width="1" stroke-linecap="square" stroke-linejoin="miter"/><path d="M205.15037,97.78528v0c0,-2.28354 2.25961,-4.13472 5.04699,-4.13472v0c2.78738,0 5.047,1.85117 5.047,4.13472v0c0,2.28354 -2.25961,4.13474 -5.047,4.13474v0c-2.78738,0 -5.04699,-1.85118 -5.04699,-4.13473z" fill="none" stroke="#000000" stroke-width="1" stroke-linecap="butt" stroke-linejoin="round"/><path d="M282.85855,91.90416l12.12622,9.24815l-18.01882,-5.37775l6.60263,8.02002l-9.81314,-5.57858l-2.71843,8.58926l-6.56681,-10.03517l-6.50986,0.52477l-2.34684,-4.01653l-11.56116,1.31603l5.94379,-5.95461l-9.61904,-2.07828l5.7563,-3.36955l-8.87031,-3.42933l5.40971,-1.63735l-6.82278,-3.95155l5.51405,-0.59562l-9.7291,-7.31252l10.60054,2.68497l2.8969,-5.50246l6.78228,5.50073l9.33545,-3.41053l2.25291,7.64576l11.68159,-1.75864l-0.47942,7.37573l13.55608,2.13468l-10.48946,4.37965l13.58284,5.79142z" fill="#000000" stroke="none" stroke-width="1" stroke-linecap="square" stroke-linejoin="miter"/><path d="M282.85855,91.90416l12.12622,9.24815l-18.01882,-5.37775l6.60263,8.02002l-9.81314,-5.57858l-2.71843,8.58926l-6.56681,-10.03517l-6.50986,0.52477l-2.34684,-4.01653l-11.56116,1.31603l5.94379,-5.95461l-9.61904,-2.07828l5.7563,-3.36955l-8.87031,-3.42933l5.40971,-1.63735l-6.82278,-3.95155l5.51405,-0.59562l-9.7291,-7.31252l10.60054,2.68497l2.8969,-5.50246l6.78228,5.50073l9.33545,-3.41053l2.25291,7.64576l11.68159,-1.75864l-0.47942,7.37573l13.55608,2.13468l-10.48946,4.37965l13.58284,5.79142z" fill="none" stroke="#000000" stroke-width="1" stroke-linecap="butt" stroke-linejoin="round"/><path d="M289.86741,63.30122l4.48643,-5.2175l-0.35725,6.94185l4.69405,-3.13027l-2.19332,4.0375l7.03704,0.13579l-6.22147,3.3129l1.7323,2.2687l-2.54788,1.22566l3.36618,3.99183l-5.71186,-1.54051l0.40713,3.62894l-3.72343,-1.72434l-0.76574,3.49316l-2.34568,-1.76882l-1.57999,2.81424l-1.58131,-1.90699l-3.5185,4.17567l-0.151,-4.03749l-4.74529,-0.49868l2.75685,-2.95001l-4.48916,-2.99568l5.30478,-1.54409l-3.72479,-3.99183l5.66198,-0.54434l-1.17286,-5.03726l5.4571,3.31291l1.57999,-5.40134z" fill="#000000" stroke="none" stroke-width="1" stroke-linecap="square" stroke-linejoin="miter"/><path d="M289.86741,63.30122l4.48643,-5.2175l-0.35725,6.94185l4.69405,-3.13027l-2.19332,4.0375l7.03704,0.13579l-6.22147,3.3129l1.7323,2.2687l-2.54788,1.22566l3.36618,3.99183l-5.71186,-1.54051l0.40713,3.62894l-3.72343,-1.72434l-0.76574,3.49316l-2.34568,-1.76882l-1.57999,2.81424l-1.58131,-1.90699l-3.5185,4.17567l-0.151,-4.03749l-4.74529,-0.49868l2.75685,-2.95001l-4.48916,-2.99568l5.30478,-1.54409l-3.72479,-3.99183l5.66198,-0.54434l-1.17286,-5.03726l5.4571,3.31291l1.57999,-5.40134z" fill="none" stroke="#000000" stroke-width="1" stroke-linecap="butt" stroke-linejoin="round"/><path d="M201.15077,66.20538l6.86175,-0.5168l-5.16116,4.65594l5.53268,1.10589l-4.40587,1.30392l4.88005,5.07209l-6.74189,-2.05679l-0.37922,2.82913l-2.66833,-0.93501l-0.4423,5.20292l-2.94973,-5.12828l-2.27813,2.85389l-1.41364,-3.8522l-3.01146,1.92854l-0.40797,-2.9094l-3.10716,0.87271l0.23023,-2.46662l-5.44064,0.46458l2.74813,-2.96166l-3.00289,-3.70813l4.03539,-0.13651l-1.05615,-5.29261l4.84294,2.65928l0.18871,-5.45649l4.38864,3.61883l2.73248,-4.39118l1.51629,6.20138l4.93649,-2.70204z" fill="#000000" stroke="none" stroke-width="1" stroke-linecap="square" stroke-linejoin="miter"/><path d="M201.15077,66.20538l6.86175,-0.5168l-5.16116,4.65594l5.53268,1.10589l-4.40587,1.30392l4.88005,5.07209l-6.74189,-2.05679l-0.37922,2.82913l-2.66833,-0.93501l-0.4423,5.20292l-2.94973,-5.12828l-2.27813,2.85389l-1.41364,-3.8522l-3.01146,1.92854l-0.40797,-2.9094l-3.10716,0.87271l0.23023,-2.46662l-5.44064,0.46458l2.74813,-2.96166l-3.00289,-3.70813l4.03539,-0.13651l-1.05615,-5.29261l4.84294,2.65928l0.18871,-5.45649l4.38864,3.61883l2.73248,-4.39118l1.51629,6.20138l4.93649,-2.70204z" fill="none" stroke="#000000" stroke-width="1" stroke-linecap="butt" stroke-linejoin="round"/></g></g></svg>