<svg version="1.1" xmlns="http://www.w3.org/2000/svg" xmlns:xlink="http://www.w3.org/1999/xlink" width="225.12453" height="261.06895" viewBox="0,0,225.12453,261.06895"><defs><linearGradient x1="342.95473" y1="166.08894" x2="348.36982" y2="271.29681" gradientUnits="userSpaceOnUse" id="color-1"><stop offset="0" stop-color="#4d4d4d"/><stop offset="1" stop-color="#000000"/></linearGradient><linearGradient x1="118.65916" y1="207.28371" x2="169.65625" y2="299.46061" gradientUnits="userSpaceOnUse" id="color-2"><stop offset="0" stop-color="#4d4d4d"/><stop offset="1" stop-color="#000000"/></linearGradient><linearGradient x1="323.0795" y1="131.48641" x2="336.18478" y2="236.02003" gradientUnits="userSpaceOnUse" id="color-3"><stop offset="0" stop-color="#4d4d4d"/><stop offset="1" stop-color="#000000"/></linearGradient><linearGradient x1="137.73213" y1="128.01307" x2="137.73177" y2="233.35792" gradientUnits="userSpaceOnUse" id="color-4"><stop offset="0" stop-color="#4d4d4d"/><stop offset="1" stop-color="#000000"/></linearGradient><radialGradient cx="307.38578" cy="85.28426" r="45.07582" fx="307.38578" fy="85.28426" gradientUnits="userSpaceOnUse" id="color-5"><stop offset="0" stop-color="#ffffff"/><stop offset="1" stop-color="#b3b3b3"/></radialGradient><radialGradient cx="172.70096" cy="85.28426" r="45.07583" fx="172.70096" fy="85.28426" gradientUnits="userSpaceOnUse" id="color-6"><stop offset="0" stop-color="#ffffff"/><stop offset="1" stop-color="#b3b3b3"/></radialGradient><radialGradient cx="240.6814" cy="182.57159" r="32.98501" fx="240.6814" fy="182.57159" gradientUnits="userSpaceOnUse" id="color-7"><stop offset="0" stop-color="#434343"/><stop offset="0.61" stop-color="#222222"/><stop offset="1" stop-color="#000000"/></radialGradient><radialGradient cx="240.6814" cy="235.95954" r="75.10565" fx="240.6814" fy="235.95954" gradientUnits="userSpaceOnUse" id="color-8"><stop offset="0" stop-color="#434343"/><stop offset="0.61" stop-color="#222222"/><stop offset="1" stop-color="#000000"/></radialGradient><linearGradient x1="182.69547" y1="63.04351" x2="182.6952" y2="139.94926" gradientUnits="userSpaceOnUse" id="color-9"><stop offset="0" stop-color="#ffffff"/><stop offset="0.49" stop-color="#efefef"/><stop offset="0.9" stop-color="#cccccc"/><stop offset="1" stop-color="#b9b9b9"/><stop offset="1" stop-color="#737373"/></linearGradient><radialGradient cx="211.2086" cy="91.83331" r="21.60376" fx="211.2086" fy="91.83331" gradientUnits="userSpaceOnUse" id="color-10"><stop offset="0" stop-color="#ffffff"/><stop offset="0.56" stop-color="#ffffff"/><stop offset="1" stop-color="#b3b3b3"/></radialGradient><radialGradient cx="159.54969" cy="98.78677" r="21.88616" fx="159.54969" fy="98.78677" gradientUnits="userSpaceOnUse" id="color-11"><stop offset="0" stop-color="#4d4d4d"/><stop offset="1" stop-color="#000000"/></radialGradient><radialGradient cx="241.71632" cy="128.5191" r="38.6043" fx="241.71632" fy="128.5191" gradientUnits="userSpaceOnUse" id="color-12"><stop offset="0" stop-color="#bfbfbf"/><stop offset="1" stop-color="#737373"/></radialGradient><radialGradient cx="213.27823" cy="115.71085" r="21.88616" fx="213.27823" fy="115.71085" gradientUnits="userSpaceOnUse" id="color-13"><stop offset="0" stop-color="#4d4d4d"/><stop offset="1" stop-color="#000000"/></radialGradient><radialGradient cx="209.69607" cy="115.71063" r="17.50369" fx="209.69607" fy="115.71063" gradientUnits="userSpaceOnUse" id="color-14"><stop offset="0" stop-color="#4d4d4d"/><stop offset="1" stop-color="#000000"/></radialGradient><radialGradient cx="211.20907" cy="96.52439" r="5.30405" fx="211.20907" fy="96.52439" gradientUnits="userSpaceOnUse" id="color-15"><stop offset="0" stop-color="#4d4d4d"/><stop offset="1" stop-color="#000000"/></radialGradient></defs><g transform="translate(-118.35831,-46.50206)"><g data-paper-data="{&quot;isPaintingLayer&quot;:true}" fill-rule="evenodd" stroke-miterlimit="10" stroke-dasharray="" stroke-dashoffset="0" style="mix-blend-mode: normal"><path d="M246.85879,267.31043c1.35217,-3.51974 1.92805,-5.37004 12.02676,-12.119c10.09867,-6.74896 39.31069,-16.39833 48.56541,-28.37482c9.25473,-11.97648 1.06069,-33.40512 6.96293,-43.48414c5.90224,-10.07903 26.73701,-18.6267 28.45046,-16.98997c1.71345,1.63675 -15.68187,15.5654 -18.16978,26.81044c-2.48791,11.24504 9.44327,28.93621 3.24219,40.65981c-6.20108,11.7236 -27.58786,22.59897 -40.4486,29.68185c-12.86073,7.08285 -29.94417,12.17936 -36.71574,12.81532c-6.77157,0.63597 -5.26582,-5.47974 -3.91363,-8.99948z" fill="url(#color-1)" stroke="none" stroke-width="1" stroke-linecap="square" stroke-linejoin="miter"/><path d="M246.85879,267.31043c1.35217,-3.51974 1.92805,-5.37004 12.02676,-12.119c10.09867,-6.74896 39.31069,-16.39833 48.56541,-28.37482c9.25473,-11.97648 1.06069,-33.40512 6.96293,-43.48414c5.90224,-10.07903 26.73701,-18.6267 28.45046,-16.98997c1.71345,1.63675 -15.68187,15.5654 -18.16978,26.81044c-2.48791,11.24504 9.44327,28.93621 3.24219,40.65981c-6.20108,11.7236 -27.58786,22.59897 -40.4486,29.68185c-12.86073,7.08285 -29.94417,12.17936 -36.71574,12.81532c-6.77157,0.63597 -5.26582,-5.47974 -3.91363,-8.99948z" fill="none" stroke="#000000" stroke-width="1" stroke-linecap="butt" stroke-linejoin="round"/><path d="M253.72682,242.4357c3.00786,2.27353 7.51783,6.66974 1.43308,9.7081c-6.08474,3.03834 -23.28071,7.73899 -37.94147,8.52193c-14.66076,0.78296 -38.56373,2.85167 -50.0231,-3.82422c-11.45937,-6.67588 -10.6789,-27.99937 -18.73312,-36.23109c-8.05424,-8.23172 -30.18204,-10.8643 -29.59233,-13.15921c0.58971,-2.29494 22.79403,-6.048 33.13067,-0.61036c10.33664,5.43764 14.70373,27.95925 28.88912,33.2362c14.18538,5.27695 44.08364,-1.96762 56.22316,-1.57451c12.13954,0.39313 13.60613,1.6596 16.61398,3.93315z" fill="url(#color-2)" stroke="none" stroke-width="1" stroke-linecap="square" stroke-linejoin="miter"/><path d="M253.72682,242.4357c3.00786,2.27353 7.51783,6.66974 1.43308,9.7081c-6.08474,3.03834 -23.28071,7.73899 -37.94147,8.52193c-14.66076,0.78296 -38.56373,2.85167 -50.0231,-3.82422c-11.45937,-6.67588 -10.6789,-27.99937 -18.73312,-36.23109c-8.05424,-8.23172 -30.18204,-10.8643 -29.59233,-13.15921c0.58971,-2.29494 22.79403,-6.048 33.13067,-0.61036c10.33664,5.43764 14.70373,27.95925 28.88912,33.2362c14.18538,5.27695 44.08364,-1.96762 56.22316,-1.57451c12.13954,0.39313 13.60613,1.6596 16.61398,3.93315z" fill="none" stroke="#000000" stroke-width="1" stroke-linecap="butt" stroke-linejoin="round"/><path d="M234.64973,239.47795c1.09087,-3.60949 1.52972,-5.49707 11.10753,-12.96775c9.57783,-7.4707 38.00608,-19.2338 46.35933,-31.8564c8.3533,-12.62261 -1.38837,-33.39464 3.7602,-43.87929c5.14853,-10.48463 25.30235,-20.53552 27.13115,-19.02857c1.8288,1.50695 -14.50056,16.6727 -16.15847,28.07025c-1.65786,11.39756 11.53737,28.1683 6.21121,40.31507c-5.3262,12.14676 -25.8601,24.55961 -38.16822,32.56559c-12.30812,8.00598 -28.97326,14.34006 -35.68037,15.47024c-6.70711,1.13018 -5.65322,-5.07964 -4.56235,-8.68913z" fill="url(#color-3)" stroke="none" stroke-width="1" stroke-linecap="square" stroke-linejoin="miter"/><path d="M234.64973,239.47795c1.09087,-3.60949 1.52972,-5.49707 11.10753,-12.96775c9.57783,-7.4707 38.00608,-19.2338 46.35933,-31.8564c8.3533,-12.62261 -1.38837,-33.39464 3.7602,-43.87929c5.14853,-10.48463 25.30235,-20.53552 27.13115,-19.02857c1.8288,1.50695 -14.50056,16.6727 -16.15847,28.07025c-1.65786,11.39756 11.53737,28.1683 6.21121,40.31507c-5.3262,12.14676 -25.8601,24.55961 -38.16822,32.56559c-12.30812,8.00598 -28.97326,14.34006 -35.68037,15.47024c-6.70711,1.13018 -5.65322,-5.07964 -4.56235,-8.68913z" fill="none" stroke="#000000" stroke-width="1" stroke-linecap="butt" stroke-linejoin="round"/><path d="M238.90152,224.15947c1.53126,3.44553 3.34932,9.47563 -3.44584,9.18855c-6.79514,-0.28708 -24.1176,-4.49867 -37.3251,-10.91101c-13.20748,-6.41234 -35.12453,-16.17386 -41.91981,-27.56301c-6.79531,-11.38913 4.21056,-29.66974 1.148,-40.77181c-3.06256,-11.10206 -21.15036,-24.11791 -19.52335,-25.84053c1.62703,-1.72262 22.87314,5.74274 29.28547,15.50485c6.41234,9.76212 -0.66931,31.58312 9.18855,43.06784c9.85787,11.48472 39.52657,19.61967 49.95858,25.84053c10.43201,6.22086 11.10221,8.03905 12.6335,11.48458z" fill="url(#color-4)" stroke="none" stroke-width="1" stroke-linecap="square" stroke-linejoin="miter"/><path d="M238.90152,224.15947c1.53126,3.44553 3.34932,9.47563 -3.44584,9.18855c-6.79514,-0.28708 -24.1176,-4.49867 -37.3251,-10.91101c-13.20748,-6.41234 -35.12453,-16.17386 -41.91981,-27.56301c-6.79531,-11.38913 4.21056,-29.66974 1.148,-40.77181c-3.06256,-11.10206 -21.15036,-24.11791 -19.52335,-25.84053c1.62703,-1.72262 22.87314,5.74274 29.28547,15.50485c6.41234,9.76212 -0.66931,31.58312 9.18855,43.06784c9.85787,11.48472 39.52657,19.61967 49.95858,25.84053c10.43201,6.22086 11.10221,8.03905 12.6335,11.48458z" fill="none" stroke="#000000" stroke-width="1" stroke-linecap="butt" stroke-linejoin="round"/><path d="M326.62011,122.20566v0c-8.46583,4.40825 -23.94029,-8.54841 -34.56312,-28.93954v0c-5.10126,-9.79216 -8.3786,-20.0242 -9.11104,-28.44519c-0.7324,-8.42099 1.14007,-14.34114 5.20548,-16.45805v0c8.46587,-4.40825 23.94028,8.54842 34.56311,28.93954v0c10.62283,20.39111 12.37144,40.49498 3.90557,44.90324z" fill="url(#color-5)" stroke="none" stroke-width="1" stroke-linecap="square" stroke-linejoin="miter"/><path d="M326.62011,122.20566v0c-8.46583,4.40825 -23.94029,-8.54841 -34.56312,-28.93954v0c-5.10126,-9.79216 -8.3786,-20.0242 -9.11104,-28.44519c-0.7324,-8.42099 1.14007,-14.34114 5.20548,-16.45805v0c8.46587,-4.40825 23.94028,8.54842 34.56311,28.93954v0c10.62283,20.39111 12.37144,40.49498 3.90557,44.90324z" fill="none" stroke="#000000" stroke-width="2" stroke-linecap="butt" stroke-linejoin="round"/><path d="M295.70454,77.72577l36.12105,28.02185" fill-opacity="0" fill="#000000" stroke="none" stroke-width="1" stroke-linecap="square" stroke-linejoin="miter"/><path d="M295.70454,77.72577l36.12105,28.02185" fill="none" stroke="#000000" stroke-width="2" stroke-linecap="butt" stroke-linejoin="round"/><path d="M157.37218,77.30242v0c10.62283,-20.39113 26.09728,-33.3478 34.56312,-28.93954v0c4.06544,2.11691 5.93791,8.03705 5.20548,16.45805c-0.73245,8.42099 -4.00977,18.65303 -9.11105,28.4452v0c-10.62283,20.39113 -26.09727,33.34779 -34.56312,28.93954v0c-8.46585,-4.40825 -6.71726,-24.51212 3.90556,-44.90323z" fill="url(#color-6)" stroke="none" stroke-width="1" stroke-linecap="square" stroke-linejoin="miter"/><path d="M157.37218,77.30242v0c10.62283,-20.39113 26.09728,-33.3478 34.56312,-28.93954v0c4.06544,2.11691 5.93791,8.03705 5.20548,16.45805c-0.73245,8.42099 -4.00977,18.65303 -9.11105,28.4452v0c-10.62283,20.39113 -26.09727,33.34779 -34.56312,28.93954v0c-8.46585,-4.40825 -6.71726,-24.51212 3.90556,-44.90323z" fill="none" stroke="#000000" stroke-width="2" stroke-linecap="butt" stroke-linejoin="round"/><path d="M148.26114,105.74761l34.43508,-21.84338" fill-opacity="0" fill="#000000" stroke="none" stroke-width="1" stroke-linecap="square" stroke-linejoin="miter"/><path d="M148.26114,105.74761l34.43508,-21.84338" fill="none" stroke="#000000" stroke-width="2" stroke-linecap="butt" stroke-linejoin="round"/><path d="M261.71,157.15879l-21.0286,50.82561l-21.02856,-50.82561z" fill="url(#color-7)" stroke="none" stroke-width="1" stroke-linecap="square" stroke-linejoin="miter"/><path d="M261.71,157.15879l-21.0286,50.82561l-21.02856,-50.82561z" fill="none" stroke="#000000" stroke-width="1" stroke-linecap="butt" stroke-linejoin="round"/><path d="M264.84788,307.07102h-48.33294l9.66658,-142.22294h28.99975z" fill="url(#color-8)" stroke="none" stroke-width="1" stroke-linecap="square" stroke-linejoin="miter"/><path d="M264.84788,307.07102h-48.33294l9.66658,-142.22294h28.99975z" fill="none" stroke="#000000" stroke-width="1" stroke-linecap="butt" stroke-linejoin="round"/><path d="M182.69549,63.04392h115.97158v76.90534h-115.97157z" fill="url(#color-9)" stroke="none" stroke-width="1" stroke-linecap="square" stroke-linejoin="miter"/><path d="M182.69549,63.04392h115.97158v76.90534h-115.97157z" fill="none" stroke="#000000" stroke-width="2" stroke-linecap="butt" stroke-linejoin="round"/><path d="M182.58876,124.50755l115.92891,-38.00983" fill-opacity="0" fill="#000000" stroke="none" stroke-width="1" stroke-linecap="square" stroke-linejoin="miter"/><path d="M182.58876,124.50755l115.92891,-38.00983" fill="none" stroke="#000000" stroke-width="1" stroke-linecap="butt" stroke-linejoin="round"/><path d="M183.06364,63.12039h115.4487v23.37999h-115.4487z" fill="#000000" stroke="none" stroke-width="1" stroke-linecap="square" stroke-linejoin="miter"/><path d="M183.06364,63.12039h115.4487v23.37999h-115.4487z" fill="none" stroke="#000000" stroke-width="1" stroke-linecap="butt" stroke-linejoin="round"/><path d="M183.06364,104.19346l109.75041,-35.42746l5.78366,17.92714l-109.75043,35.42747z" fill="#000000" stroke="none" stroke-width="1" stroke-linecap="square" stroke-linejoin="miter"/><path d="M183.06364,104.19346l109.75041,-35.42746l5.78366,17.92714l-109.75043,35.42747z" fill="none" stroke="#000000" stroke-width="1" stroke-linecap="butt" stroke-linejoin="round"/><path d="M182.69549,63.12039h59.19159v41.57392h-59.19159z" fill="#000000" stroke="none" stroke-width="1" stroke-linecap="square" stroke-linejoin="miter"/><path d="M182.69549,63.12039h59.19159v41.57392h-59.19159z" fill="none" stroke="#000000" stroke-width="1" stroke-linecap="butt" stroke-linejoin="round"/><path d="M182.90701,124.17943l-0.0747,-23.25195l10.07335,17.55367z" fill="#000000" stroke="none" stroke-width="1" stroke-linecap="square" stroke-linejoin="miter"/><path d="M182.90701,124.17943l-0.0747,-23.25195l10.07335,17.55367z" fill="none" stroke="#000000" stroke-width="1" stroke-linecap="butt" stroke-linejoin="round"/><path d="M182.89944,122.18995l6.5306,-2.14486l0.58691,1.78204l-6.5306,2.14487z" fill="#000000" stroke="none" stroke-width="1" stroke-linecap="square" stroke-linejoin="miter"/><path d="M182.89944,122.18995l6.5306,-2.14486l0.58691,1.78204l-6.5306,2.14487z" fill="none" stroke="#000000" stroke-width="1" stroke-linecap="butt" stroke-linejoin="round"/><path d="M225.86573,98.02099v0c-3.14118,7.43451 -12.24955,10.69041 -20.34411,7.27224v0c-4.88551,-2.06304 -9.77101,-4.12609 -14.65651,-6.18914c1.89586,-4.48712 3.79172,-8.97424 5.68759,-13.46136c3.14118,-7.43451 12.24955,-10.6904 20.34411,-7.27223v0c8.09458,3.41817 12.1101,12.21599 8.96892,19.6505z" fill="url(#color-10)" stroke="none" stroke-width="1" stroke-linecap="square" stroke-linejoin="miter"/><path d="M225.86573,98.02099v0c-3.14118,7.43451 -12.24955,10.69041 -20.34411,7.27224v0c-4.88551,-2.06304 -9.77101,-4.12609 -14.65651,-6.18914c1.89586,-4.48712 3.79172,-8.97424 5.68759,-13.46136c3.14118,-7.43451 12.24955,-10.6904 20.34411,-7.27223v0c8.09458,3.41817 12.1101,12.21599 8.96892,19.6505z" fill="none" stroke="#000000" stroke-width="1" stroke-linecap="butt" stroke-linejoin="round"/><path d="M187.44831,71.88668l19.56096,0.91079l-0.18409,4.30391l18.65288,-2.40529l0.18997,4.52591l28.63945,0.33756l-28.74559,11.19312l0.0963,-5.33129l-18.17447,6.76836l-0.47346,-6.57158l-19.11813,7.18845z" fill="#000000" stroke="none" stroke-width="1" stroke-linecap="square" stroke-linejoin="miter"/><path d="M187.44831,71.88668l19.56096,0.91079l-0.18409,4.30391l18.65288,-2.40529l0.18997,4.52591l28.63945,0.33756l-28.74559,11.19312l0.0963,-5.33129l-18.17447,6.76836l-0.47346,-6.57158l-19.11813,7.18845z" fill="none" stroke="#000000" stroke-width="1" stroke-linecap="butt" stroke-linejoin="round"/><path d="M157.28499,77.64694l2.78938,11.82075l-0.81621,1.45463l3.2596,10.08325l-0.80035,1.75497l4.26641,16.94527l-6.39465,-12.82076l0.99116,-1.87925l-3.98653,-8.218l1.13223,-2.66428l-4.20607,-8.61975z" fill="url(#color-11)" stroke="none" stroke-width="1" stroke-linecap="square" stroke-linejoin="miter"/><path d="M278.32856,116.28836v0c0.91351,9.57676 -15.10799,18.93593 -35.78492,20.90433c-20.67694,1.96839 -38.17945,-4.1994 -39.09292,-13.77615v0c24.84496,0.5511 50.58423,-1.8992 74.87784,-7.12817z" fill="url(#color-12)" stroke="none" stroke-width="1" stroke-linecap="square" stroke-linejoin="miter"/><path d="M278.32856,116.28836v0c0.91351,9.57676 -15.10799,18.93593 -35.78492,20.90433c-20.67694,1.96839 -38.17945,-4.1994 -39.09292,-13.77615v0c24.84496,0.5511 50.58423,-1.8992 74.87784,-7.12817z" fill="none" stroke="#000000" stroke-width="2" stroke-linecap="butt" stroke-linejoin="round"/><path d="M223.1196,136.59237l-2.07015,-13.13591" fill-opacity="0" fill="#000000" stroke="none" stroke-width="1" stroke-linecap="square" stroke-linejoin="miter"/><path d="M223.1196,136.59237l-2.07015,-13.13591" fill="none" stroke="#000000" stroke-width="1" stroke-linecap="butt" stroke-linejoin="round"/><path d="M241.0964,122.01997l1.45126,15.17406" fill-opacity="0" fill="#000000" stroke="none" stroke-width="1" stroke-linecap="square" stroke-linejoin="miter"/><path d="M241.0964,122.01997l1.45126,15.17406" fill="none" stroke="#000000" stroke-width="1" stroke-linecap="butt" stroke-linejoin="round"/><path d="M263.58017,131.75666l-1.39789,-12.42095" fill-opacity="0" fill="#000000" stroke="none" stroke-width="1" stroke-linecap="square" stroke-linejoin="miter"/><path d="M263.58017,131.75666l-1.39789,-12.42095" fill="none" stroke="#000000" stroke-width="1" stroke-linecap="butt" stroke-linejoin="round"/><path d="M210.47368,132.30266l10.70292,-4.47113" fill-opacity="0" fill="#000000" stroke="none" stroke-width="1" stroke-linecap="square" stroke-linejoin="miter"/><path d="M210.47368,132.30266l10.70292,-4.47113" fill="none" stroke="#000000" stroke-width="1" stroke-linecap="butt" stroke-linejoin="round"/><path d="M221.17482,127.82531l21.37386,9.36907" fill-opacity="0" fill="#000000" stroke="none" stroke-width="1" stroke-linecap="square" stroke-linejoin="miter"/><path d="M221.17482,127.82531l21.37386,9.36907" fill="none" stroke="#000000" stroke-width="1" stroke-linecap="butt" stroke-linejoin="round"/><path d="M249.99196,120.5674l-7.44832,16.62529" fill-opacity="0" fill="#000000" stroke="none" stroke-width="1" stroke-linecap="square" stroke-linejoin="miter"/><path d="M249.99196,120.5674l-7.44832,16.62529" fill="none" stroke="#000000" stroke-width="1" stroke-linecap="butt" stroke-linejoin="round"/><path d="M250.34736,121.56949l11.83404,11.63131" fill-opacity="0" fill="#000000" stroke="none" stroke-width="1" stroke-linecap="square" stroke-linejoin="miter"/><path d="M250.34736,121.56949l11.83404,11.63131" fill="none" stroke="#000000" stroke-width="1" stroke-linecap="butt" stroke-linejoin="round"/><path d="M274.83975,125.24296l-7.14949,-6.73336" fill-opacity="0" fill="#000000" stroke="none" stroke-width="1" stroke-linecap="square" stroke-linejoin="miter"/><path d="M274.83975,125.24296l-7.14949,-6.73336" fill="none" stroke="#000000" stroke-width="1" stroke-linecap="butt" stroke-linejoin="round"/><path d="M211.01351,94.57103l2.78939,11.82074l-0.81621,1.45464l3.2596,10.08325l-0.80035,1.75497l4.26641,16.94526l-6.39465,-12.82076l0.99116,-1.87924l-3.98653,-8.218l1.13223,-2.66427l-4.20607,-8.61975z" fill="url(#color-13)" stroke="none" stroke-width="1" stroke-linecap="square" stroke-linejoin="miter"/><path d="M209.84512,105.34558l0.74934,-6.9689l-0.05968,9.27206l0.78399,-4.18101l-0.36632,5.39278l1.17532,0.18136l-1.03911,4.42498l0.28934,3.03024l-0.42555,1.63709l0.56222,5.3318l-0.954,-2.0576l0.06802,4.84709l-0.62189,-2.30318l-0.12787,4.66572l-0.39178,-2.36254l-0.26388,3.7589l-0.26411,-2.54713l-0.58765,5.57736l-0.02523,-5.39279l-0.79254,-0.66606l0.46043,-3.94027l-0.74977,-4.00126l0.88598,-2.06241l-0.6221,-5.33179l0.94566,-0.72707l-0.1959,-6.72814l0.91144,4.42498l0.26388,-7.21446z" fill="url(#color-14)" stroke="none" stroke-width="1" stroke-linecap="square" stroke-linejoin="miter"/><path d="M207.10611,96.52439v0c0,-1.85641 1.83696,-3.36133 4.10296,-3.36133v0c2.26601,0 4.10297,1.50492 4.10297,3.36133v0c0,1.85641 -1.83696,3.36135 -4.10297,3.36135v0c-2.26601,0 -4.10296,-1.50492 -4.10296,-3.36134z" fill="url(#color-15)" stroke="none" stroke-width="1" stroke-linecap="square" stroke-linejoin="miter"/><path d="M207.10611,96.52439v0c0,-1.85641 1.83696,-3.36133 4.10296,-3.36133v0c2.26601,0 4.10297,1.50492 4.10297,3.36133v0c0,1.85641 -1.83696,3.36135 -4.10297,3.36135v0c-2.26601,0 -4.10296,-1.50492 -4.10296,-3.36134z" fill="none" stroke="#000000" stroke-width="1" stroke-linecap="butt" stroke-linejoin="round"/><path d="M282.85855,91.90416l12.12622,9.24815l-18.01882,-5.37775l6.60263,8.02002l-9.81314,-5.57858l-2.71843,8.58926l-6.56681,-10.03517l-6.50986,0.52477l-2.34684,-4.01653l-11.56116,1.31603l5.94379,-5.95461l-9.61904,-2.07828l5.7563,-3.36955l-8.87031,-3.42933l5.40971,-1.63735l-6.82278,-3.95155l5.51405,-0.59562l-9.7291,-7.31252l10.60054,2.68497l2.8969,-5.50246l6.78228,5.50073l9.33545,-3.41053l2.25291,7.64576l11.68159,-1.75864l-0.47942,7.37573l13.55608,2.13468l-10.48946,4.37965l13.58284,5.79142z" fill="#000000" stroke="none" stroke-width="1" stroke-linecap="square" stroke-linejoin="miter"/><path d="M282.85855,91.90416l12.12622,9.24815l-18.01882,-5.37775l6.60263,8.02002l-9.81314,-5.57858l-2.71843,8.58926l-6.56681,-10.03517l-6.50986,0.52477l-2.34684,-4.01653l-11.56116,1.31603l5.94379,-5.95461l-9.61904,-2.07828l5.7563,-3.36955l-8.87031,-3.42933l5.40971,-1.63735l-6.82278,-3.95155l5.51405,-0.59562l-9.7291,-7.31252l10.60054,2.68497l2.8969,-5.50246l6.78228,5.50073l9.33545,-3.41053l2.25291,7.64576l11.68159,-1.75864l-0.47942,7.37573l13.55608,2.13468l-10.48946,4.37965l13.58284,5.79142z" fill="none" stroke="#000000" stroke-width="1" stroke-linecap="butt" stroke-linejoin="round"/><path d="M289.86741,63.30122l4.48643,-5.2175l-0.35725,6.94185l4.69405,-3.13027l-2.19332,4.0375l7.03704,0.13579l-6.22147,3.3129l1.7323,2.2687l-2.54788,1.22566l3.36618,3.99183l-5.71186,-1.54051l0.40713,3.62894l-3.72343,-1.72434l-0.76574,3.49316l-2.34568,-1.76882l-1.57999,2.81424l-1.58131,-1.90699l-3.5185,4.17567l-0.151,-4.03749l-4.74529,-0.49868l2.75685,-2.95001l-4.48916,-2.99568l5.30478,-1.54409l-3.72479,-3.99183l5.66198,-0.54434l-1.17286,-5.03726l5.4571,3.31291l1.57999,-5.40134z" fill="#000000" stroke="none" stroke-width="1" stroke-linecap="square" stroke-linejoin="miter"/><path d="M289.86741,63.30122l4.48643,-5.2175l-0.35725,6.94185l4.69405,-3.13027l-2.19332,4.0375l7.03704,0.13579l-6.22147,3.3129l1.7323,2.2687l-2.54788,1.22566l3.36618,3.99183l-5.71186,-1.54051l0.40713,3.62894l-3.72343,-1.72434l-0.76574,3.49316l-2.34568,-1.76882l-1.57999,2.81424l-1.58131,-1.90699l-3.5185,4.17567l-0.151,-4.03749l-4.74529,-0.49868l2.75685,-2.95001l-4.48916,-2.99568l5.30478,-1.54409l-3.72479,-3.99183l5.66198,-0.54434l-1.17286,-5.03726l5.4571,3.31291l1.57999,-5.40134z" fill="none" stroke="#000000" stroke-width="1" stroke-linecap="butt" stroke-linejoin="round"/><path d="M201.15077,66.20538l6.86175,-0.5168l-5.16116,4.65594l5.53268,1.10589l-4.40587,1.30392l4.88005,5.07209l-6.74189,-2.05679l-0.37922,2.82913l-2.66833,-0.93501l-0.4423,5.20292l-2.94973,-5.12828l-2.27813,2.85389l-1.41364,-3.8522l-3.01146,1.92854l-0.40797,-2.9094l-3.10716,0.87271l0.23023,-2.46662l-5.44064,0.46458l2.74813,-2.96166l-3.00289,-3.70813l4.03539,-0.13651l-1.05615,-5.29261l4.84294,2.65928l0.18871,-5.45649l4.38864,3.61883l2.73248,-4.39118l1.51629,6.20138l4.93649,-2.70204z" fill="#000000" stroke="none" stroke-width="1" stroke-linecap="square" stroke-linejoin="miter"/><path d="M201.15077,66.20538l6.86175,-0.5168l-5.16116,4.65594l5.53268,1.10589l-4.40587,1.30392l4.88005,5.07209l-6.74189,-2.05679l-0.37922,2.82913l-2.66833,-0.93501l-0.4423,5.20292l-2.94973,-5.12828l-2.27813,2.85389l-1.41364,-3.8522l-3.01146,1.92854l-0.40797,-2.9094l-3.10716,0.87271l0.23023,-2.46662l-5.44064,0.46458l2.74813,-2.96166l-3.00289,-3.70813l4.03539,-0.13651l-1.05615,-5.29261l4.84294,2.65928l0.18871,-5.45649l4.38864,3.61883l2.73248,-4.39118l1.51629,6.20138l4.93649,-2.70204z" fill="none" stroke="#000000" stroke-width="1" stroke-linecap="butt" stroke-linejoin="round"/></g></g></svg>