<svg version="1.1" xmlns="http://www.w3.org/2000/svg" xmlns:xlink="http://www.w3.org/1999/xlink" width="225.12454" height="252.04354" viewBox="0,0,225.12454,252.04354"><defs><linearGradient x1="343.64386" y1="166.77807" x2="349.05895" y2="271.98595" gradientUnits="userSpaceOnUse" id="color-1"><stop offset="0" stop-color="#4d4d4d"/><stop offset="1" stop-color="#000000"/></linearGradient><linearGradient x1="119.34829" y1="207.97284" x2="170.34538" y2="300.14974" gradientUnits="userSpaceOnUse" id="color-2"><stop offset="0" stop-color="#4d4d4d"/><stop offset="1" stop-color="#000000"/></linearGradient><linearGradient x1="323.76863" y1="132.17554" x2="336.87391" y2="236.70916" gradientUnits="userSpaceOnUse" id="color-3"><stop offset="0" stop-color="#4d4d4d"/><stop offset="1" stop-color="#000000"/></linearGradient><linearGradient x1="138.42126" y1="128.70219" x2="138.4209" y2="234.04705" gradientUnits="userSpaceOnUse" id="color-4"><stop offset="0" stop-color="#4d4d4d"/><stop offset="1" stop-color="#000000"/></linearGradient><radialGradient cx="241.37053" cy="183.26072" r="32.98502" fx="241.37053" fy="183.26072" gradientUnits="userSpaceOnUse" id="color-5"><stop offset="0" stop-color="#434343"/><stop offset="0.61" stop-color="#222222"/><stop offset="1" stop-color="#000000"/></radialGradient><radialGradient cx="241.37053" cy="236.64867" r="75.10565" fx="241.37053" fy="236.64867" gradientUnits="userSpaceOnUse" id="color-6"><stop offset="0" stop-color="#434343"/><stop offset="0.61" stop-color="#222222"/><stop offset="1" stop-color="#000000"/></radialGradient><radialGradient cx="310.71746" cy="99.06654" r="45.07583" fx="310.71746" fy="99.06654" gradientUnits="userSpaceOnUse" id="color-7"><stop offset="0" stop-color="#ffffff"/><stop offset="1" stop-color="#b3b3b3"/></radialGradient><radialGradient cx="176.1118" cy="94.44937" r="45.07582" fx="176.1118" fy="94.44937" gradientUnits="userSpaceOnUse" id="color-8"><stop offset="0" stop-color="#ffffff"/><stop offset="1" stop-color="#b3b3b3"/></radialGradient><linearGradient x1="186.86288" y1="72.56431" x2="184.22618" y2="149.42485" gradientUnits="userSpaceOnUse" id="color-9"><stop offset="0" stop-color="#ffffff"/><stop offset="0.49" stop-color="#efefef"/><stop offset="0.9" stop-color="#cccccc"/><stop offset="1" stop-color="#b9b9b9"/><stop offset="1" stop-color="#737373"/></linearGradient><radialGradient cx="214.3723" cy="102.31466" r="21.60376" fx="214.3723" fy="102.31466" gradientUnits="userSpaceOnUse" id="color-10"><stop offset="0" stop-color="#ffffff"/><stop offset="0.56" stop-color="#ffffff"/><stop offset="1" stop-color="#b3b3b3"/></radialGradient><radialGradient cx="162.50538" cy="107.49309" r="21.88616" fx="162.50538" fy="107.49309" gradientUnits="userSpaceOnUse" id="color-11"><stop offset="0" stop-color="#4d4d4d"/><stop offset="1" stop-color="#000000"/></radialGradient><radialGradient cx="245.03163" cy="144.34126" r="46.3175" fx="245.03163" fy="144.34126" gradientUnits="userSpaceOnUse" id="color-12"><stop offset="0" stop-color="#bfbfbf"/><stop offset="1" stop-color="#737373"/></radialGradient><radialGradient cx="215.62216" cy="126.24912" r="21.88616" fx="215.62216" fy="126.24912" gradientUnits="userSpaceOnUse" id="color-13"><stop offset="0" stop-color="#4d4d4d"/><stop offset="1" stop-color="#000000"/></radialGradient><radialGradient cx="212.04211" cy="126.1261" r="17.50369" fx="212.04211" fy="126.1261" gradientUnits="userSpaceOnUse" id="color-14"><stop offset="0" stop-color="#4d4d4d"/><stop offset="1" stop-color="#000000"/></radialGradient><radialGradient cx="214.15991" cy="108.5199" r="5.30405" fx="214.15991" fy="108.5199" gradientUnits="userSpaceOnUse" id="color-15"><stop offset="0" stop-color="#4d4d4d"/><stop offset="1" stop-color="#000000"/></radialGradient></defs><g transform="translate(-119.04744,-56.21661)"><g data-paper-data="{&quot;isPaintingLayer&quot;:true}" fill-rule="evenodd" stroke-miterlimit="10" stroke-dasharray="" stroke-dashoffset="0" style="mix-blend-mode: normal"><path d="M247.54792,267.99956c1.35217,-3.51974 1.92805,-5.37004 12.02676,-12.119c10.09867,-6.74896 39.31069,-16.39833 48.56541,-28.37481c9.25473,-11.97648 1.0607,-33.40512 6.96293,-43.48414c5.90224,-10.07903 26.73701,-18.6267 28.45046,-16.98997c1.71345,1.63675 -15.68187,15.5654 -18.16978,26.81044c-2.48791,11.24504 9.44327,28.93621 3.24219,40.65981c-6.20108,11.7236 -27.58786,22.59897 -40.4486,29.68184c-12.86073,7.08285 -29.94417,12.17937 -36.71575,12.81533c-6.77157,0.63597 -5.26582,-5.47974 -3.91363,-8.99948z" fill="url(#color-1)" stroke="none" stroke-width="1" stroke-linecap="square" stroke-linejoin="miter"/><path d="M247.54792,267.99956c1.35217,-3.51974 1.92805,-5.37004 12.02676,-12.119c10.09867,-6.74896 39.31069,-16.39833 48.56541,-28.37481c9.25473,-11.97648 1.0607,-33.40512 6.96293,-43.48414c5.90224,-10.07903 26.73701,-18.6267 28.45046,-16.98997c1.71345,1.63675 -15.68187,15.5654 -18.16978,26.81044c-2.48791,11.24504 9.44327,28.93621 3.24219,40.65981c-6.20108,11.7236 -27.58786,22.59897 -40.4486,29.68184c-12.86073,7.08285 -29.94417,12.17937 -36.71575,12.81533c-6.77157,0.63597 -5.26582,-5.47974 -3.91363,-8.99948z" fill="none" stroke="#000000" stroke-width="1" stroke-linecap="butt" stroke-linejoin="round"/><path d="M254.41595,243.12483c3.00786,2.27353 7.51783,6.66974 1.43308,9.7081c-6.08474,3.03834 -23.28071,7.73899 -37.94148,8.52193c-14.66076,0.78296 -38.56373,2.85167 -50.0231,-3.82422c-11.45937,-6.67588 -10.67889,-27.99937 -18.73312,-36.23109c-8.05424,-8.23172 -30.18204,-10.8643 -29.59233,-13.15921c0.58971,-2.29494 22.79404,-6.048 33.13067,-0.61036c10.33664,5.43764 14.70373,27.95925 28.88912,33.2362c14.18538,5.27695 44.08364,-1.96761 56.22316,-1.5745c12.13954,0.39313 13.60612,1.6596 16.61398,3.93315z" fill="url(#color-2)" stroke="none" stroke-width="1" stroke-linecap="square" stroke-linejoin="miter"/><path d="M254.41595,243.12483c3.00786,2.27353 7.51783,6.66974 1.43308,9.7081c-6.08474,3.03834 -23.28071,7.73899 -37.94148,8.52193c-14.66076,0.78296 -38.56373,2.85167 -50.0231,-3.82422c-11.45937,-6.67588 -10.67889,-27.99937 -18.73312,-36.23109c-8.05424,-8.23172 -30.18204,-10.8643 -29.59233,-13.15921c0.58971,-2.29494 22.79404,-6.048 33.13067,-0.61036c10.33664,5.43764 14.70373,27.95925 28.88912,33.2362c14.18538,5.27695 44.08364,-1.96761 56.22316,-1.5745c12.13954,0.39313 13.60612,1.6596 16.61398,3.93315z" fill="none" stroke="#000000" stroke-width="1" stroke-linecap="butt" stroke-linejoin="round"/><path d="M235.33886,240.16708c1.09087,-3.60949 1.52972,-5.49708 11.10753,-12.96775c9.57783,-7.4707 38.00607,-19.2338 46.35932,-31.8564c8.3533,-12.62261 -1.38837,-33.39464 3.7602,-43.87929c5.14853,-10.48463 25.30235,-20.53552 27.13115,-19.02857c1.8288,1.50695 -14.50056,16.6727 -16.15847,28.07025c-1.65786,11.39757 11.53737,28.1683 6.21121,40.31507c-5.3262,12.14676 -25.8601,24.55961 -38.16822,32.56559c-12.30812,8.00598 -28.97326,14.34006 -35.68037,15.47024c-6.70711,1.13018 -5.65321,-5.07964 -4.56234,-8.68913z" fill="url(#color-3)" stroke="none" stroke-width="1" stroke-linecap="square" stroke-linejoin="miter"/><path d="M235.33886,240.16708c1.09087,-3.60949 1.52972,-5.49708 11.10753,-12.96775c9.57783,-7.4707 38.00607,-19.2338 46.35932,-31.8564c8.3533,-12.62261 -1.38837,-33.39464 3.7602,-43.87929c5.14853,-10.48463 25.30235,-20.53552 27.13115,-19.02857c1.8288,1.50695 -14.50056,16.6727 -16.15847,28.07025c-1.65786,11.39757 11.53737,28.1683 6.21121,40.31507c-5.3262,12.14676 -25.8601,24.55961 -38.16822,32.56559c-12.30812,8.00598 -28.97326,14.34006 -35.68037,15.47024c-6.70711,1.13018 -5.65321,-5.07964 -4.56234,-8.68913z" fill="none" stroke="#000000" stroke-width="1" stroke-linecap="butt" stroke-linejoin="round"/><path d="M239.59065,224.8486c1.53126,3.44553 3.34932,9.47563 -3.44584,9.18855c-6.79514,-0.28708 -24.1176,-4.49867 -37.3251,-10.91101c-13.20748,-6.41234 -35.12453,-16.17386 -41.91981,-27.56301c-6.79531,-11.38913 4.21056,-29.66974 1.14801,-40.77181c-3.06256,-11.10206 -21.15036,-24.11791 -19.52335,-25.84053c1.62703,-1.72262 22.87314,5.74274 29.28547,15.50484c6.41234,9.76212 -0.66931,31.58312 9.18855,43.06785c9.85787,11.48472 39.52657,19.61967 49.95858,25.84053c10.43201,6.22086 11.10221,8.03905 12.6335,11.48458z" fill="url(#color-4)" stroke="none" stroke-width="1" stroke-linecap="square" stroke-linejoin="miter"/><path d="M239.59065,224.8486c1.53126,3.44553 3.34932,9.47563 -3.44584,9.18855c-6.79514,-0.28708 -24.1176,-4.49867 -37.3251,-10.91101c-13.20748,-6.41234 -35.12453,-16.17386 -41.91981,-27.56301c-6.79531,-11.38913 4.21056,-29.66974 1.14801,-40.77181c-3.06256,-11.10206 -21.15036,-24.11791 -19.52335,-25.84053c1.62703,-1.72262 22.87314,5.74274 29.28547,15.50484c6.41234,9.76212 -0.66931,31.58312 9.18855,43.06785c9.85787,11.48472 39.52657,19.61967 49.95858,25.84053c10.43201,6.22086 11.10221,8.03905 12.6335,11.48458z" fill="none" stroke="#000000" stroke-width="1" stroke-linecap="butt" stroke-linejoin="round"/><path d="M262.39913,157.84792l-21.02861,50.82561l-21.02856,-50.82561z" fill="url(#color-5)" stroke="none" stroke-width="1" stroke-linecap="square" stroke-linejoin="miter"/><path d="M262.39913,157.84792l-21.02861,50.82561l-21.02856,-50.82561z" fill="none" stroke="#000000" stroke-width="1" stroke-linecap="butt" stroke-linejoin="round"/><path d="M265.53701,307.76015h-48.33294l9.66658,-142.22294h28.99975z" fill="url(#color-6)" stroke="none" stroke-width="1" stroke-linecap="square" stroke-linejoin="miter"/><path d="M265.53701,307.76015h-48.33294l9.66658,-142.22294h28.99975z" fill="none" stroke="#000000" stroke-width="1" stroke-linecap="butt" stroke-linejoin="round"/><path d="M328.67477,136.6256v0c-8.61197,4.11544 -23.63317,-9.3641 -33.55072,-30.1074v0c-4.76257,-9.96128 -7.68722,-20.29966 -8.13055,-28.74081c-0.44329,-8.44115 1.63103,-14.29363 5.76662,-16.26993v0c8.61201,-4.11544 23.63316,9.3641 33.55071,30.1074v0c9.91755,20.74329 10.97595,40.89529 2.36393,45.01072z" fill="url(#color-7)" stroke="none" stroke-width="1" stroke-linecap="square" stroke-linejoin="miter"/><path d="M328.67477,136.6256v0c-8.61197,4.11544 -23.63317,-9.3641 -33.55072,-30.1074v0c-4.76257,-9.96128 -7.68722,-20.29966 -8.13055,-28.74081c-0.44329,-8.44115 1.63103,-14.29363 5.76662,-16.26993v0c8.61201,-4.11544 23.63316,9.3641 33.55071,30.1074v0c9.91755,20.74329 10.97595,40.89529 2.36393,45.01072z" fill="none" stroke="#000000" stroke-width="2" stroke-linecap="butt" stroke-linejoin="round"/><path d="M334.4414,120.35569l-35.1392,-29.24366" fill-opacity="0" fill="#000000" stroke="none" stroke-width="1" stroke-linecap="square" stroke-linejoin="miter"/><path d="M334.4414,120.35569l-35.1392,-29.24366" fill="none" stroke="#000000" stroke-width="2" stroke-linecap="butt" stroke-linejoin="round"/><path d="M161.06566,85.94672v0c11.31562,-20.01498 27.22514,-32.43355 35.53489,-27.73766v0c3.99048,2.25503 5.6589,8.23589 4.63822,16.62683c-1.0207,8.39093 -4.64685,18.50461 -10.08082,28.11614v0c-11.31562,20.01498 -27.22514,32.43354 -35.53489,27.73766v0c-8.30975,-4.69588 -5.873,-24.728 5.4426,-44.74296z" fill="url(#color-8)" stroke="none" stroke-width="1" stroke-linecap="square" stroke-linejoin="miter"/><path d="M161.06566,85.94672v0c11.31562,-20.01498 27.22514,-32.43355 35.53489,-27.73766v0c3.99048,2.25503 5.6589,8.23589 4.63822,16.62683c-1.0207,8.39093 -4.64685,18.50461 -10.08082,28.11614v0c-11.31562,20.01498 -27.22514,32.43354 -35.53489,27.73766v0c-8.30975,-4.69588 -5.873,-24.728 5.4426,-44.74296z" fill="none" stroke="#000000" stroke-width="2" stroke-linecap="butt" stroke-linejoin="round"/><path d="M150.98483,114.06286l35.16366,-20.65006" fill-opacity="0" fill="#000000" stroke="none" stroke-width="1" stroke-linecap="square" stroke-linejoin="miter"/><path d="M150.98483,114.06286l35.16366,-20.65006" fill="none" stroke="#000000" stroke-width="2" stroke-linecap="butt" stroke-linejoin="round"/><path d="M186.86288,72.56473l115.9034,3.97565l-2.63641,76.86014l-115.9034,-3.97565z" fill="url(#color-9)" stroke="none" stroke-width="1" stroke-linecap="square" stroke-linejoin="miter"/><path d="M186.86288,72.56473l115.9034,3.97565l-2.63641,76.86014l-115.9034,-3.97565z" fill="none" stroke="#000000" stroke-width="2" stroke-linecap="butt" stroke-linejoin="round"/><path d="M184.64916,133.98857l117.1638,-34.0133" fill-opacity="0" fill="#000000" stroke="none" stroke-width="1" stroke-linecap="square" stroke-linejoin="miter"/><path d="M184.64916,133.98857l117.1638,-34.0133" fill="none" stroke="#000000" stroke-width="1" stroke-linecap="butt" stroke-linejoin="round"/><path d="M187.22819,72.65377l115.38084,3.95773l-0.8015,23.36625l-115.38084,-3.95773z" fill="#000000" stroke="none" stroke-width="1" stroke-linecap="square" stroke-linejoin="miter"/><path d="M187.22819,72.65377l115.38084,3.95773l-0.8015,23.36625l-115.38084,-3.95773z" fill="none" stroke="#000000" stroke-width="1" stroke-linecap="butt" stroke-linejoin="round"/><path d="M185.82016,113.70269l110.9004,-31.64425l5.1657,18.11487l-110.90042,31.64426z" fill="#000000" stroke="none" stroke-width="1" stroke-linecap="square" stroke-linejoin="miter"/><path d="M185.82016,113.70269l110.9004,-31.64425l5.1657,18.11487l-110.90042,31.64426z" fill="none" stroke="#000000" stroke-width="1" stroke-linecap="butt" stroke-linejoin="round"/><path d="M186.86026,72.64115l59.1568,2.02916l-1.42521,41.54948l-59.1568,-2.02916z" fill="#000000" stroke="none" stroke-width="1" stroke-linecap="square" stroke-linejoin="miter"/><path d="M186.86026,72.64115l59.1568,2.02916l-1.42521,41.54948l-59.1568,-2.02916z" fill="none" stroke="#000000" stroke-width="1" stroke-linecap="butt" stroke-linejoin="round"/><path d="M184.97848,133.67154l0.72246,-23.24084l9.46567,17.88869z" fill="#000000" stroke="none" stroke-width="1" stroke-linecap="square" stroke-linejoin="miter"/><path d="M184.97848,133.67154l0.72246,-23.24084l9.46567,17.88869z" fill="none" stroke="#000000" stroke-width="1" stroke-linecap="butt" stroke-linejoin="round"/><path d="M185.03911,131.68298l6.60029,-1.91972l0.52547,1.80111l-6.60029,1.91972z" fill="#000000" stroke="none" stroke-width="1" stroke-linecap="square" stroke-linejoin="miter"/><path d="M185.03911,131.68298l6.60029,-1.91972l0.52547,1.80111l-6.60029,1.91972z" fill="none" stroke="#000000" stroke-width="1" stroke-linecap="butt" stroke-linejoin="round"/><path d="M228.80869,109.00117v0c-3.3942,7.32246 -12.60883,10.2642 -20.58145,6.57054v0c-4.81191,-2.22931 -9.62382,-4.45863 -14.43572,-6.68795c2.04857,-4.41949 4.09714,-8.83898 6.14572,-13.25847c3.3942,-7.32246 12.60883,-10.26419 20.58145,-6.57053v0c7.97264,3.69365 11.6842,12.62396 8.29,19.94642z" fill="url(#color-10)" stroke="none" stroke-width="1" stroke-linecap="square" stroke-linejoin="miter"/><path d="M228.80869,109.00117v0c-3.3942,7.32246 -12.60883,10.2642 -20.58145,6.57054v0c-4.81191,-2.22931 -9.62382,-4.45863 -14.43572,-6.68795c2.04857,-4.41949 4.09714,-8.83898 6.14572,-13.25847c3.3942,-7.32246 12.60883,-10.26419 20.58145,-6.57053v0c7.97264,3.69365 11.6842,12.62396 8.29,19.94642z" fill="none" stroke="#000000" stroke-width="1" stroke-linecap="butt" stroke-linejoin="round"/><path d="M191.30977,81.56522l19.51824,1.58083l-0.33152,4.29507l18.72436,-1.76443l0.03471,4.52976l28.61103,1.31916l-29.11241,10.20111l0.27901,-5.32486l-18.39582,6.14134l-0.24791,-6.58395l-19.35332,6.52883z" fill="#000000" stroke="none" stroke-width="1" stroke-linecap="square" stroke-linejoin="miter"/><path d="M191.30977,81.56522l19.51824,1.58083l-0.33152,4.29507l18.72436,-1.76443l0.03471,4.52976l28.61103,1.31916l-29.11241,10.20111l0.27901,-5.32486l-18.39582,6.14134l-0.24791,-6.58395l-19.35332,6.52883z" fill="none" stroke="#000000" stroke-width="1" stroke-linecap="butt" stroke-linejoin="round"/><path d="M160.96671,86.28805l2.38252,11.90943l-0.8656,1.42579l2.91202,10.18907l-0.86004,1.7265l3.683,17.08157l-5.95138,-13.03244l1.055,-1.84417l-3.70246,-8.34983l1.2229,-2.6239l-3.9081,-8.75887z" fill="url(#color-11)" stroke="none" stroke-width="1" stroke-linecap="square" stroke-linejoin="miter"/><path d="M223.12328,134.25657l1.61862,13.19916" fill-opacity="0" fill="#000000" stroke="none" stroke-width="1" stroke-linecap="square" stroke-linejoin="miter"/><path d="M243.20769,133.50817l0.93022,15.21489" fill-opacity="0" fill="#000000" stroke="none" stroke-width="1" stroke-linecap="square" stroke-linejoin="miter"/><path d="M264.37321,131.54833l0.97125,12.46157" fill-opacity="0" fill="#000000" stroke="none" stroke-width="1" stroke-linecap="square" stroke-linejoin="miter"/><path d="M223.10037,138.63344l-10.84991,4.10159" fill-opacity="0" fill="#000000" stroke="none" stroke-width="1" stroke-linecap="square" stroke-linejoin="miter"/><path d="M223.09881,138.62716l21.04011,10.09629" fill-opacity="0" fill="#000000" stroke="none" stroke-width="1" stroke-linecap="square" stroke-linejoin="miter"/><path d="M252.14782,132.36139l-8.01388,16.36019" fill-opacity="0" fill="#000000" stroke="none" stroke-width="1" stroke-linecap="square" stroke-linejoin="miter"/><path d="M252.46866,133.37508l11.42835,12.03015" fill-opacity="0" fill="#000000" stroke="none" stroke-width="1" stroke-linecap="square" stroke-linejoin="miter"/><path d="M269.90626,130.91152l6.91446,6.9745" fill-opacity="0" fill="#000000" stroke="none" stroke-width="1" stroke-linecap="square" stroke-linejoin="miter"/><path d="M289.43629,131.18133v0c0.70149,11.52103 -18.89478,22.08461 -43.76938,23.59446c-24.8746,1.50982 -45.60812,-6.60584 -46.30955,-18.12685v0c29.76883,1.68271 60.73349,-0.19676 90.07894,-5.46759z" fill="url(#color-12)" stroke="none" stroke-width="1" stroke-linecap="square" stroke-linejoin="miter"/><path d="M289.43629,131.18133v0c0.70149,11.52103 -18.89478,22.08461 -43.76938,23.59446c-24.8746,1.50982 -45.60812,-6.60584 -46.30955,-18.12685v0c29.76883,1.68271 60.73349,-0.19676 90.07894,-5.46759z" fill="none" stroke="#000000" stroke-width="2" stroke-linecap="butt" stroke-linejoin="round"/><path d="M222.40031,153.257l-1.94203,-15.83637" fill="none" stroke="#000000" stroke-width="1" stroke-linecap="butt" stroke-linejoin="round"/><path d="M245.67167,154.77754l-1.11608,-18.25485" fill="none" stroke="#000000" stroke-width="1" stroke-linecap="butt" stroke-linejoin="round"/><path d="M271.11533,149.12269l-1.16531,-14.95142" fill="none" stroke="#000000" stroke-width="1" stroke-linecap="butt" stroke-linejoin="round"/><path d="M220.43081,142.67201l-13.01773,4.92109" fill="none" stroke="#000000" stroke-width="1" stroke-linecap="butt" stroke-linejoin="round"/><path d="M220.42892,142.66447l25.24396,12.11354" fill="none" stroke="#000000" stroke-width="1" stroke-linecap="butt" stroke-linejoin="round"/><path d="M255.28197,135.1468l-9.61507,19.62898" fill="none" stroke="#000000" stroke-width="1" stroke-linecap="butt" stroke-linejoin="round"/><path d="M269.37866,150.79682l-13.71174,-14.4338" fill="none" stroke="#000000" stroke-width="1" stroke-linecap="butt" stroke-linejoin="round"/><path d="M284.88456,141.77525l-8.29598,-8.36802" fill="none" stroke="#000000" stroke-width="1" stroke-linecap="butt" stroke-linejoin="round"/><path d="M214.08347,105.04407l2.38252,11.90943l-0.8656,1.42579l2.91201,10.18907l-0.86004,1.7265l3.683,17.08156l-5.95138,-13.03244l1.055,-1.84416l-3.70246,-8.34983l1.2229,-2.6239l-3.9081,-8.75887z" fill="url(#color-13)" stroke="none" stroke-width="1" stroke-linecap="square" stroke-linejoin="miter"/><path d="M212.5464,115.77224l0.9878,-6.93911l-0.3775,9.26456l0.92687,-4.15168l-0.55099,5.37705l1.16841,0.22154l-1.19019,4.38676l0.18529,3.03837l-0.48142,1.62154l0.37911,5.34794l-0.88289,-2.08909l-0.09818,4.84658l-0.54258,-2.32315l-0.28774,4.65859l-0.31056,-2.37458l-0.39258,3.74763l-0.17664,-2.55469l-0.7785,5.55394l0.15966,-5.39049l-0.76923,-0.69285l0.59524,-3.92216l-0.61216,-4.02461l0.95616,-2.03084l-0.43895,-5.34998l0.97003,-0.69422l0.03487,-6.7309l0.75921,4.45362l0.51105,-7.20117z" fill="url(#color-14)" stroke="none" stroke-width="1" stroke-linecap="square" stroke-linejoin="miter"/><path d="M210.05936,108.37924v0c0.06364,-1.85532 1.95111,-3.29638 4.21578,-3.2187v0c2.26468,0.07768 4.04897,1.64469 3.98533,3.50001v0c-0.06364,1.85532 -1.95111,3.2964 -4.21579,3.21872v0c-2.26468,-0.07768 -4.04896,-1.64469 -3.98532,-3.50002z" fill="url(#color-15)" stroke="none" stroke-width="1" stroke-linecap="square" stroke-linejoin="miter"/><path d="M210.11116,106.3977v0c0.05446,-1.58775 1.66972,-2.82098 3.60778,-2.7545v0c1.93807,0.06648 3.46503,1.40749 3.41057,2.99524v0c-0.05446,1.58775 -1.66972,2.821 -3.60779,2.75452v0c-1.93807,-0.06648 -3.46502,-1.40749 -3.41056,-2.99525z" fill="none" stroke="#000000" stroke-width="1" stroke-linecap="butt" stroke-linejoin="round"/><path d="M285.9777,104.84171l11.80205,9.65842l-17.82387,-5.9923l6.3238,8.24165l-9.61612,-5.91171l-3.01128,8.49102l-6.21893,-10.25439l-6.52402,0.30129l-2.20777,-4.09462l-11.59948,0.91893l6.14444,-5.74735l-9.54214,-2.40681l5.86843,-3.17024l-8.74753,-3.7314l5.46266,-1.45094l-6.68332,-4.18312l5.53123,-0.40624l-9.4727,-7.64175l10.50227,3.04679l3.08383,-5.39993l6.58972,5.73l9.44688,-3.08849l1.98948,7.7185l11.73501,-1.35715l-0.73199,7.35496l13.47493,2.59815l-10.63343,4.01748l13.37632,6.25365z" fill="#000000" stroke="none" stroke-width="1" stroke-linecap="square" stroke-linejoin="miter"/><path d="M285.9777,104.84171l11.80205,9.65842l-17.82387,-5.9923l6.3238,8.24165l-9.61612,-5.91171l-3.01128,8.49102l-6.21893,-10.25439l-6.52402,0.30129l-2.20777,-4.09462l-11.59948,0.91893l6.14444,-5.74735l-9.54214,-2.40681l5.86843,-3.17024l-8.74753,-3.7314l5.46266,-1.45094l-6.68332,-4.18312l5.53123,-0.40624l-9.4727,-7.64175l10.50227,3.04679l3.08383,-5.39993l6.58972,5.73l9.44688,-3.08849l1.98948,7.7185l11.73501,-1.35715l-0.73199,7.35496l13.47493,2.59815l-10.63343,4.01748l13.37632,6.25365z" fill="none" stroke="#000000" stroke-width="1" stroke-linecap="butt" stroke-linejoin="round"/><path d="M293.96299,76.49586l4.66266,-5.06063l-0.59502,6.92552l4.7986,-2.9675l-2.33045,3.95994l7.02825,0.37695l-6.33138,3.09767l1.65352,2.32675l-2.5884,1.1376l3.22736,4.10488l-5.65569,-1.73541l0.28249,3.64076l-3.66213,-1.85097l-0.88504,3.46486l-2.28366,-1.84819l-1.67554,2.75842l-1.51501,-1.96008l-3.65958,4.0526l-0.0125,-4.04029l-4.72541,-0.66106l2.85637,-2.85377l-4.38383,-3.14781l5.3546,-1.36133l-3.58576,-4.11717l5.67731,-0.34992l-0.99949,-5.07451l5.34032,3.49804l1.76423,-5.344z" fill="#000000" stroke="none" stroke-width="1" stroke-linecap="square" stroke-linejoin="miter"/><path d="M293.96299,76.49586l4.66266,-5.06063l-0.59502,6.92552l4.7986,-2.9675l-2.33045,3.95994l7.02825,0.37695l-6.33138,3.09767l1.65352,2.32675l-2.5884,1.1376l3.22736,4.10488l-5.65569,-1.73541l0.28249,3.64076l-3.66213,-1.85097l-0.88504,3.46486l-2.28366,-1.84819l-1.67554,2.75842l-1.51501,-1.96008l-3.65958,4.0526l-0.0125,-4.04029l-4.72541,-0.66106l2.85637,-2.85377l-4.38383,-3.14781l5.3546,-1.36133l-3.58576,-4.11717l5.67731,-0.34992l-0.99949,-5.07451l5.34032,3.49804l1.76423,-5.344z" fill="none" stroke="#000000" stroke-width="1" stroke-linecap="butt" stroke-linejoin="round"/><path d="M205.19894,76.357l6.87543,-0.28127l-5.31775,4.47627l5.49152,1.29491l-4.44798,1.15211l4.7033,5.2364l-6.66742,-2.2867l-0.47599,2.81447l-2.63471,-1.02593l-0.6204,5.18469l-2.77219,-5.22639l-2.37463,2.77412l-1.28075,-3.8984l-3.0758,1.82417l-0.308,-2.92168l-3.13525,0.76568l0.31465,-2.45728l-5.45337,0.27779l2.84804,-2.86571l-2.87401,-3.80889l4.0377,0.00191l-0.87409,-5.32571l4.74893,2.82374l0.37565,-5.44682l4.262,3.76715l2.88141,-4.29493l1.30281,6.24972l5.02622,-2.53122z" fill="#000000" stroke="none" stroke-width="1" stroke-linecap="square" stroke-linejoin="miter"/><path d="M205.19894,76.357l6.87543,-0.28127l-5.31775,4.47627l5.49152,1.29491l-4.44798,1.15211l4.7033,5.2364l-6.66742,-2.2867l-0.47599,2.81447l-2.63471,-1.02593l-0.6204,5.18469l-2.77219,-5.22639l-2.37463,2.77412l-1.28075,-3.8984l-3.0758,1.82417l-0.308,-2.92168l-3.13525,0.76568l0.31465,-2.45728l-5.45337,0.27779l2.84804,-2.86571l-2.87401,-3.80889l4.0377,0.00191l-0.87409,-5.32571l4.74893,2.82374l0.37565,-5.44682l4.262,3.76715l2.88141,-4.29493l1.30281,6.24972l5.02622,-2.53122z" fill="none" stroke="#000000" stroke-width="1" stroke-linecap="butt" stroke-linejoin="round"/></g></g></svg>